<svg viewBox="0 0 53.9 53.9" xmlns="http://www.w3.org/2000/svg" xmlns:xlink="http://www.w3.org/1999/xlink"><clipPath id="a"><path d="m0 0h53.9v53.9h-53.9z"/></clipPath><g clip-path="url(#a)"><path d="m19.8 33 2.7-12.2h4.7l2.7 12.2h-2.5l-.5-2.2h-4.3l-.5 2.2h-2.5zm4.6-10.1-1.2 5.8h3.3l-1.2-5.8z" fill="#fff"/><path d="m31.6 33v-12.2h2.5v12.2z" fill="#fff"/><g fill="none" stroke="#eb5c21" stroke-miterlimit="10" stroke-width="2.2"><path d="m38.9 15h-23.9v23.9h23.9z"/><path d="m19.8 15v-7.1"/><path d="m34.1 15v-7.1"/><path d="m26.9 15v-13.2"/><path d="m38.9 19.8h7.1"/><path d="m38.9 34.1h7.1"/><path d="m38.9 26.9h13.1"/><path d="m34.1 38.9v7.1"/><path d="m19.8 38.9v7.1"/><path d="m26.9 38.9v13.1"/><path d="m15 34.1h-7.1"/><path d="m15 26.9h-13.2"/><path d="m15 19.8h-7.1"/></g><path d="m19.8 9.7c1 0 1.8-.8 1.8-1.8s-.8-1.8-1.8-1.8-1.8.8-1.8 1.8.8 1.8 1.8 1.8z" fill="#eb5c21"/><path d="m34.1 9.7c1 0 1.8-.8 1.8-1.8s-.8-1.8-1.8-1.8-1.8.8-1.8 1.8.8 1.8 1.8 1.8z" fill="#eb5c21"/><path d="m26.9 3.6c1 0 1.8-.8 1.8-1.8s-.8-1.8-1.8-1.8-1.8.8-1.8 1.8.8 1.8 1.8 1.8z" fill="#eb5c21"/><path d="m46 21.6c1 0 1.8-.8 1.8-1.8s-.8-1.8-1.8-1.8-1.8.8-1.8 1.8.8 1.8 1.8 1.8z" fill="#eb5c21"/><path d="m46 35.9c1 0 1.8-.8 1.8-1.8s-.8-1.8-1.8-1.8-1.8.8-1.8 1.8.8 1.8 1.8 1.8z" fill="#eb5c21"/><path d="m52 28.8c1 0 1.8-.8 1.8-1.8s-.8-1.8-1.8-1.8-1.8.8-1.8 1.8.8 1.8 1.8 1.8z" fill="#eb5c21"/><path d="m34.1 47.8c1 0 1.8-.8 1.8-1.8s-.8-1.8-1.8-1.8-1.8.8-1.8 1.8.8 1.8 1.8 1.8z" fill="#eb5c21"/><path d="m19.8 47.8c1 0 1.8-.8 1.8-1.8s-.8-1.8-1.8-1.8-1.8.8-1.8 1.8.8 1.8 1.8 1.8z" fill="#eb5c21"/><path d="m26.9 53.9c1 0 1.8-.8 1.8-1.8s-.8-1.8-1.8-1.8-1.8.8-1.8 1.8.8 1.8 1.8 1.8z" fill="#eb5c21"/><path d="m7.9 35.9c1 0 1.8-.8 1.8-1.8s-.8-1.8-1.8-1.8-1.8.8-1.8 1.8.8 1.8 1.8 1.8z" fill="#eb5c21"/><path d="m7.9 21.6c1 0 1.8-.8 1.8-1.8s-.8-1.8-1.8-1.8-1.8.8-1.8 1.8.8 1.8 1.8 1.8z" fill="#eb5c21"/><path d="m1.8 28.8c1 0 1.8-.8 1.8-1.8s-.8-1.8-1.8-1.8-1.8.8-1.8 1.8.8 1.8 1.8 1.8z" fill="#eb5c21"/></g></svg>