<svg width="75" height="75" viewBox="0 0 75 75" fill="none" xmlns="http://www.w3.org/2000/svg">
<g clip-path="url(#clip0_411_396)">
<path d="M27.542 45.996L31.3651 29.0023H37.9127L41.7358 45.996H38.2879L37.613 42.9215H31.6648L30.99 45.996H27.542ZM34.0394 31.8524L32.3146 39.924H36.9633L35.2384 31.8524H34.0394Z" fill="white"/>
<path d="M44.0098 45.996V29.0023H47.4578V45.996H44.0098Z" fill="white"/>
<path d="M54.1581 20.8437H20.8438V54.158H54.1581V20.8437Z" stroke="#EB5C21" stroke-width="3" stroke-miterlimit="10"/>
<path d="M27.542 20.8437V11.0004" stroke="#EB5C21" stroke-width="3" stroke-miterlimit="10"/>
<path d="M47.458 20.8437V11.0004" stroke="#EB5C21" stroke-width="3" stroke-miterlimit="10"/>
<path d="M37.501 20.8437V2.5387" stroke="#EB5C21" stroke-width="3" stroke-miterlimit="10"/>
<path d="M54.1562 27.5421H63.9995" stroke="#EB5C21" stroke-width="3" stroke-miterlimit="10"/>
<path d="M54.1562 47.4579H63.9995" stroke="#EB5C21" stroke-width="3" stroke-miterlimit="10"/>
<path d="M54.1562 37.5009H72.4612" stroke="#EB5C21" stroke-width="3" stroke-miterlimit="10"/>
<path d="M47.458 54.1563V63.9996" stroke="#EB5C21" stroke-width="3" stroke-miterlimit="10"/>
<path d="M27.542 54.1563V63.9996" stroke="#EB5C21" stroke-width="3" stroke-miterlimit="10"/>
<path d="M37.501 54.1563V72.4613" stroke="#EB5C21" stroke-width="3" stroke-miterlimit="10"/>
<path d="M20.8433 47.4579H11" stroke="#EB5C21" stroke-width="3" stroke-miterlimit="10"/>
<path d="M20.844 37.5009H2.53906" stroke="#EB5C21" stroke-width="3" stroke-miterlimit="10"/>
<path d="M20.8433 27.5421H11" stroke="#EB5C21" stroke-width="3" stroke-miterlimit="10"/>
<path d="M27.5426 13.5391C28.9447 13.5391 30.0813 12.4025 30.0813 11.0004C30.0813 9.59834 28.9447 8.46173 27.5426 8.46173C26.1405 8.46173 25.0039 9.59834 25.0039 11.0004C25.0039 12.4025 26.1405 13.5391 27.5426 13.5391Z" fill="#EB5C21"/>
<path d="M47.4586 13.5391C48.8607 13.5391 49.9973 12.4025 49.9973 11.0004C49.9973 9.59834 48.8607 8.46173 47.4586 8.46173C46.0565 8.46173 44.9199 9.59834 44.9199 11.0004C44.9199 12.4025 46.0565 13.5391 47.4586 13.5391Z" fill="#EB5C21"/>
<path d="M37.5006 5.07737C38.9027 5.07737 40.0393 3.94076 40.0393 2.53868C40.0393 1.13661 38.9027 0 37.5006 0C36.0985 0 34.9619 1.13661 34.9619 2.53868C34.9619 3.94076 36.0985 5.07737 37.5006 5.07737Z" fill="#EB5C21"/>
<path d="M63.9996 30.0807C65.4017 30.0807 66.5383 28.9441 66.5383 27.542C66.5383 26.14 65.4017 25.0034 63.9996 25.0034C62.5975 25.0034 61.4609 26.14 61.4609 27.542C61.4609 28.9441 62.5975 30.0807 63.9996 30.0807Z" fill="#EB5C21"/>
<path d="M63.9996 49.9967C65.4017 49.9967 66.5383 48.8601 66.5383 47.458C66.5383 46.0559 65.4017 44.9193 63.9996 44.9193C62.5975 44.9193 61.4609 46.0559 61.4609 47.458C61.4609 48.8601 62.5975 49.9967 63.9996 49.9967Z" fill="#EB5C21"/>
<path d="M72.4615 40.0395C73.8636 40.0395 75.0002 38.9029 75.0002 37.5008C75.0002 36.0988 73.8636 34.9622 72.4615 34.9622C71.0595 34.9622 69.9229 36.0988 69.9229 37.5008C69.9229 38.9029 71.0595 40.0395 72.4615 40.0395Z" fill="#EB5C21"/>
<path d="M47.4586 66.5383C48.8607 66.5383 49.9973 65.4017 49.9973 63.9996C49.9973 62.5975 48.8607 61.4609 47.4586 61.4609C46.0565 61.4609 44.9199 62.5975 44.9199 63.9996C44.9199 65.4017 46.0565 66.5383 47.4586 66.5383Z" fill="#EB5C21"/>
<path d="M27.5426 66.5383C28.9447 66.5383 30.0813 65.4017 30.0813 63.9996C30.0813 62.5975 28.9447 61.4609 27.5426 61.4609C26.1405 61.4609 25.0039 62.5975 25.0039 63.9996C25.0039 65.4017 26.1405 66.5383 27.5426 66.5383Z" fill="#EB5C21"/>
<path d="M37.5006 75C38.9027 75 40.0393 73.8634 40.0393 72.4613C40.0393 71.0592 38.9027 69.9226 37.5006 69.9226C36.0985 69.9226 34.9619 71.0592 34.9619 72.4613C34.9619 73.8634 36.0985 75 37.5006 75Z" fill="#EB5C21"/>
<path d="M11.0006 49.9967C12.4027 49.9967 13.5393 48.8601 13.5393 47.458C13.5393 46.0559 12.4027 44.9193 11.0006 44.9193C9.59852 44.9193 8.46191 46.0559 8.46191 47.458C8.46191 48.8601 9.59852 49.9967 11.0006 49.9967Z" fill="#EB5C21"/>
<path d="M11.0006 30.0807C12.4027 30.0807 13.5393 28.9441 13.5393 27.542C13.5393 26.14 12.4027 25.0034 11.0006 25.0034C9.59852 25.0034 8.46191 26.14 8.46191 27.542C8.46191 28.9441 9.59852 30.0807 11.0006 30.0807Z" fill="#EB5C21"/>
<path d="M2.53868 40.0395C3.94076 40.0395 5.07737 38.9029 5.07737 37.5008C5.07737 36.0988 3.94076 34.9622 2.53868 34.9622C1.13661 34.9622 0 36.0988 0 37.5008C0 38.9029 1.13661 40.0395 2.53868 40.0395Z" fill="#EB5C21"/>
</g>
<defs>
<clipPath id="clip0_411_396">
<rect width="75" height="75" fill="white"/>
</clipPath>
</defs>
</svg>
