<svg width="28" height="21" viewBox="0 0 28 21" fill="none" xmlns="http://www.w3.org/2000/svg">
<path d="M18.1502 1H4.78023C2.69251 1 1 2.55075 1 4.4636V16.4256L5.12217 12.6739H18.1502C20.2379 12.6739 21.9304 11.1232 21.9304 9.21032V4.46518C21.9304 2.55232 20.2379 1.00157 18.1502 1.00157V1Z" stroke="white" stroke-width="2" stroke-linecap="round" stroke-linejoin="round"/>
<path d="M6.46068 7.67078C6.96364 7.67078 7.37137 7.2972 7.37137 6.83637C7.37137 6.37553 6.96364 6.00195 6.46068 6.00195C5.95772 6.00195 5.54999 6.37553 5.54999 6.83637C5.54999 7.2972 5.95772 7.67078 6.46068 7.67078Z" stroke="white" stroke-width="2" stroke-linecap="round" stroke-linejoin="round"/>
<path d="M11.9197 7.67078C12.4226 7.67078 12.8304 7.2972 12.8304 6.83637C12.8304 6.37553 12.4226 6.00195 11.9197 6.00195C11.4167 6.00195 11.009 6.37553 11.009 6.83637C11.009 7.2972 11.4167 7.67078 11.9197 7.67078Z" stroke="white" stroke-width="2" stroke-linecap="round" stroke-linejoin="round"/>
<path d="M17.3804 7.67078C17.8833 7.67078 18.291 7.2972 18.291 6.83637C18.291 6.37553 17.8833 6.00195 17.3804 6.00195C16.8774 6.00195 16.4697 6.37553 16.4697 6.83637C16.4697 7.2972 16.8774 7.67078 17.3804 7.67078Z" stroke="white" stroke-width="2" stroke-linecap="round" stroke-linejoin="round"/>
<path d="M22.7002 4.33472C24.7879 4.33472 26.4805 5.88547 26.4805 7.79832V16.0071V19.7588L22.3583 16.0071H9.33025C8.52093 16.0071 7.77176 15.7741 7.15662 15.3773" stroke="white" stroke-width="2" stroke-linecap="round" stroke-linejoin="round"/>
</svg>
