<svg viewBox="0 0 50 50" xmlns="http://www.w3.org/2000/svg"><rect fill="none" height="48" rx="4" stroke="#eb5c21" stroke-width="2" width="48" x="1" y="1"/><g fill="#fff"><path d="m25 41.5c-9.1 0-16.5-7.4-16.5-16.5s7.4-16.5 16.5-16.5 16.5 7.5 16.4 16.7c0 9-7.5 16.3-16.5 16.3zm14.8-16.5c0-8.3-6.6-14.8-14.9-14.8-8.2 0-14.7 6.7-14.7 14.9s6.7 14.8 14.8 14.8c8.2 0 14.8-6.7 14.8-14.9z"/><path d="m29.6 25v5.1c0 2.4-1.8 4.3-4.2 4.6-2.1.3-4.3-1.2-4.9-3.4-.1-.4-.2-.9-.2-1.3 0-3.4 0-6.8 0-10.1 0-2.3 1.6-4.2 3.9-4.6 2.1-.4 4.3.9 5 2.9.2.6.3 1.2.3 1.8v5zm-1.7 0c0-1.7 0-3.4 0-5.2 0-1.6-1.3-2.9-2.9-2.9s-3 1.3-3 3v10.3c0 1.7 1.3 2.9 3 2.9 1.6 0 2.9-1.3 2.9-2.9 0-1.7 0-3.4 0-5.1z"/><circle cx="25" cy="22" r="1.2"/></g></svg>