<?xml version="1.0" encoding="UTF-8"?>
<svg id="Capa_1" xmlns="http://www.w3.org/2000/svg" version="1.1" xmlns:xlink="http://www.w3.org/1999/xlink" viewBox="0 0 394.5 1067.5">
  <!-- Generator: Adobe Illustrator 29.0.0, SVG Export Plug-In . SVG Version: 2.1.0 Build 186)  -->
  <defs>
    <style>
      .st0 {
        fill: url(#Degradado_sin_nombre_6);
      }

      .st1 {
        fill: url(#Degradado_sin_nombre_5);
      }

      .st2 {
        fill: #fff;
      }

      .st3 {
        fill: url(#Degradado_sin_nombre_4);
      }

      .st4 {
        fill: none;
        stroke: url(#Degradado_sin_nombre);
        stroke-width: 2px;
      }

      .st5 {
        fill: url(#Degradado_sin_nombre_2);
      }

      .st6 {
        isolation: isolate;
      }

      .st7 {
        fill: url(#Degradado_sin_nombre_9);
      }

      .st8 {
        fill: url(#Degradado_sin_nombre_7);
      }

      .st9 {
        fill: url(#Degradado_sin_nombre_3);
      }

      .st10 {
        fill: url(#Degradado_sin_nombre_8);
      }
    </style>
    <linearGradient id="Degradado_sin_nombre" data-name="Degradado sin nombre" x1="-1044.1" y1="-3159.7" x2="-131" y2="-3159.7" gradientTransform="translate(-2962.5 -42.8) rotate(-90) scale(1 -1)" gradientUnits="userSpaceOnUse">
      <stop offset="0" stop-color="#4b62fb"/>
      <stop offset="1" stop-color="#eb5c21"/>
    </linearGradient>
    <linearGradient id="Degradado_sin_nombre_2" data-name="Degradado sin nombre 2" x1="-4417.6" y1="1847" x2="-4417.6" y2="636" gradientTransform="translate(-4220.3 -840.8) rotate(-180) scale(1 -1)" gradientUnits="userSpaceOnUse">
      <stop offset="0" stop-color="#4b62fb"/>
      <stop offset="1" stop-color="#eb5c21"/>
    </linearGradient>
    <linearGradient id="Degradado_sin_nombre_3" data-name="Degradado sin nombre 3" x1="-4417.6" y1="1880.1" x2="-4417.6" y2="690.6" gradientTransform="translate(-4220.3 -840.8) rotate(-180) scale(1 -1)" gradientUnits="userSpaceOnUse">
      <stop offset="0" stop-color="#4b62fb"/>
      <stop offset="1" stop-color="#eb5c21"/>
    </linearGradient>
    <linearGradient id="Degradado_sin_nombre_4" data-name="Degradado sin nombre 4" x1="-4417.6" y1="1957.4" x2="-4417.6" y2="767.4" gradientTransform="translate(-4220.3 -840.8) rotate(-180) scale(1 -1)" gradientUnits="userSpaceOnUse">
      <stop offset="0" stop-color="#4b62fb"/>
      <stop offset="1" stop-color="#eb5c21"/>
    </linearGradient>
    <linearGradient id="Degradado_sin_nombre_5" data-name="Degradado sin nombre 5" x1="-4417.6" y1="1996" x2="-4417.6" y2="806.5" gradientTransform="translate(-4220.3 -840.8) rotate(-180) scale(1 -1)" gradientUnits="userSpaceOnUse">
      <stop offset="0" stop-color="#4b62fb"/>
      <stop offset="1" stop-color="#eb5c21"/>
    </linearGradient>
    <linearGradient id="Degradado_sin_nombre_6" data-name="Degradado sin nombre 6" x1="-4417.6" y1="2073.7" x2="-4417.6" y2="884.2" gradientTransform="translate(-4220.3 -840.8) rotate(-180) scale(1 -1)" gradientUnits="userSpaceOnUse">
      <stop offset="0" stop-color="#4b62fb"/>
      <stop offset="1" stop-color="#eb5c21"/>
    </linearGradient>
    <linearGradient id="Degradado_sin_nombre_7" data-name="Degradado sin nombre 7" x1="-4417.6" y1="2112" x2="-4417.6" y2="922" gradientTransform="translate(-4220.3 -840.8) rotate(-180) scale(1 -1)" gradientUnits="userSpaceOnUse">
      <stop offset="0" stop-color="#4b62fb"/>
      <stop offset="1" stop-color="#eb5c21"/>
    </linearGradient>
    <linearGradient id="Degradado_sin_nombre_8" data-name="Degradado sin nombre 8" x1="-4417.6" y1="1918.8" x2="-4417.6" y2="728.8" gradientTransform="translate(-4220.3 -840.8) rotate(-180) scale(1 -1)" gradientUnits="userSpaceOnUse">
      <stop offset="0" stop-color="#4b62fb"/>
      <stop offset="1" stop-color="#eb5c21"/>
    </linearGradient>
    <linearGradient id="Degradado_sin_nombre_9" data-name="Degradado sin nombre 9" x1="-4417.6" y1="2035.1" x2="-4417.6" y2="845.1" gradientTransform="translate(-4220.3 -840.8) rotate(-180) scale(1 -1)" gradientUnits="userSpaceOnUse">
      <stop offset="0" stop-color="#4b62fb"/>
      <stop offset="1" stop-color="#eb5c21"/>
    </linearGradient>
  </defs>
  <path class="st4" d="M197.2,1001.3V81.3"/>
  <rect class="st5" x="192.2" y="996.3" width="10" height="10"/>
  <rect class="st9" x="192.2" y="864.9" width="10" height="10"/>
  <rect class="st3" x="192.2" y="602.1" width="10" height="10"/>
  <rect class="st1" x="192.2" y="470.7" width="10" height="10"/>
  <rect class="st0" x="192.2" y="207.9" width="10" height="10"/>
  <rect class="st8" x="192.2" y="76.3" width="10" height="10"/>
  <rect class="st10" x="192.2" y="733.5" width="10" height="10"/>
  <rect class="st7" x="192.2" y="339.3" width="10" height="10"/>
  <g class="st6">
    <g class="st6">
      <g class="st6">
        <path class="st2" d="M59.2,191.6v-2.4h10v2.4h-3.6v11.2h-2.8v-11.2h-3.6Z"/>
        <path class="st2" d="M72,200.3c.3.3.8.4,1.3.4h3.9v1.9c-1.5.4-2.9.6-4.2.6s-2.6-.4-3.3-1.2-1-2.1-1-3.9c0-3.6,1.5-5.4,4.4-5.4s4.4,1.5,4.4,4.5l-.2,1.9h-5.9c0,.6.2,1.1.5,1.3h.1ZM74.9,196.9c0-.8,0-1.4-.4-1.7-.3-.3-.7-.5-1.3-.5s-1.1.2-1.3.5c-.3.3-.4.9-.4,1.6h3.5,0Z"/>
        <path class="st2" d="M83.2,192.6c.7,0,1.6,0,2.7.3h.5v2.2c-1.1,0-1.8-.2-2.3-.2-.9,0-1.5.2-1.8.6s-.5,1.1-.5,2.2,0,1.8.5,2.2c.3.4.9.6,1.8.6l2.3-.2v2.1c-1.3.3-2.4.4-3.2.4-1.5,0-2.5-.4-3.2-1.2-.6-.8-1-2.2-1-4s.3-3.2,1-4,1.7-1.2,3.2-1.2v.2h0Z"/>
        <path class="st2" d="M91.1,202.8h-2.7v-14h2.7v4.5c.9-.5,1.7-.7,2.5-.7,1.3,0,2.3.4,2.8,1.2s.8,2,.8,3.6v5.4h-2.7v-5.4c0-.8,0-1.5-.3-1.9s-.6-.6-1.2-.6-1,0-1.6.2h-.3v7.6h0Z"/>
        <path class="st2" d="M102.1,202.8h-2.7v-10h2.7v.6c.9-.5,1.7-.8,2.5-.8,1.3,0,2.3.4,2.8,1.2s.8,2,.8,3.6v5.4h-2.7v-5.3c0-.9,0-1.5-.3-1.9s-.6-.6-1.2-.6-1.1,0-1.6.3h-.2v7.6h-.1Z"/>
        <path class="st2" d="M110.5,191.5v-2.7h2.7v2.7h-2.7ZM110.5,202.8v-10h2.7v10h-2.7Z"/>
        <path class="st2" d="M119.4,192.6c.7,0,1.6,0,2.7.3h.5v2.2c-1.1,0-1.8-.2-2.3-.2-.9,0-1.5.2-1.8.6s-.5,1.1-.5,2.2,0,1.8.5,2.2c.3.4.9.6,1.8.6l2.3-.2v2.1c-1.3.3-2.4.4-3.2.4-1.5,0-2.5-.4-3.2-1.2-.6-.8-1-2.2-1-4s.3-3.2,1-4,1.7-1.2,3.2-1.2v.2h0Z"/>
        <path class="st2" d="M132.3,195.9v4.2c0,.3,0,.5.2.7s.2.2.5.3v2h-1.7c-.4,0-.8-.3-1.2-.6-1,.5-1.9.7-2.9.7-2.1,0-3.1-1.1-3.1-3.3s.3-1.8.9-2.3c.6-.4,1.5-.7,2.6-.8l2.1-.2v-.6c0-.4,0-.7-.3-.9-.2-.2-.5-.2-.9-.2l-3.8.2v-1.9c1.3-.4,2.7-.6,4-.6s2.2.3,2.8.8c.6.5.9,1.4.9,2.6h0ZM127.8,198.6c-.7,0-1.1.5-1.1,1.2s.3,1.1,1,1.1,1.1,0,1.7-.2h.3v-2.2l-1.8.2h0Z"/>
        <path class="st2" d="M134.9,202.8v-14h2.7v14h-2.7Z"/>
      </g>
    </g>
    <g class="st6">
      <g class="st6">
        <path class="st2" d="M61,225.1v7.7h-2.7v-7.7h-1.1v-2.3h1.1v-.4c0-1.4.2-2.4.6-3s1.2-.8,2.3-.8,1.1,0,1.9.2h.4v2.2h-1.5c-.4,0-.7.1-.8.3s-.2.6-.2,1.1v.4h2.4v2.3h-2.4Z"/>
        <path class="st2" d="M67.6,230.3c.3.3.8.4,1.3.4,1.2,0,2.3,0,3.3-.1h.6v1.9c-1.5.4-2.9.6-4.2.6s-2.6-.4-3.3-1.2-1-2.1-1-3.9c0-3.6,1.5-5.4,4.4-5.4s4.4,1.5,4.4,4.5l-.2,1.9h-5.9c0,.6.2,1.1.5,1.3h.1ZM70.5,226.9c0-.8,0-1.4-.4-1.7-.3-.3-.7-.5-1.3-.5s-1.1.2-1.3.5c-.3.3-.4.9-.4,1.6h3.5,0Z"/>
        <path class="st2" d="M82.8,225.9v4.2c0,.3,0,.5.2.7s.2.2.5.3v2c-.8,0-1.3,0-1.7-.1-.4,0-.8-.3-1.2-.6-1,.5-1.9.7-2.9.7-2.1,0-3.1-1.1-3.1-3.3s.3-1.8.9-2.3c.6-.4,1.5-.7,2.6-.8l2.1-.2v-.6c0-.4,0-.7-.3-.9-.2-.2-.5-.2-.9-.2l-3.8.2v-1.9c1.3-.4,2.7-.6,4-.6s2.2.3,2.8.8c.6.5.9,1.4.9,2.6h0,0ZM78.3,228.6c-.7,0-1.1.5-1.1,1.2s.3,1.1,1,1.1,1.1,0,1.7-.2h.3v-2.2l-1.8.2h-.1Z"/>
        <path class="st2" d="M92.5,225.3c-1.7-.2-2.8-.3-3.5-.3s-1.1,0-1.3.2-.3.3-.3.6,0,.4.4.5.9.2,2,.4,1.8.5,2.3,1c.5.4.7,1.2.7,2.1,0,2.2-1.3,3.2-4,3.2s-1.9-.1-3.2-.4h-.6v-2.4c1.7.2,2.8.3,3.5.3s1.1,0,1.3-.2c.2-.1.4-.3.4-.6s0-.4-.4-.6c-.2-.1-.9-.3-1.9-.4-1-.2-1.8-.5-2.3-.9s-.8-1.2-.8-2.2.4-1.9,1.1-2.4,1.6-.8,2.8-.8,1.9.1,3.2.4h.7v2.5h0Z"/>
        <path class="st2" d="M94.8,221.5v-2.7h2.7v2.7h-2.7ZM94.8,232.8v-10h2.7v10h-2.7Z"/>
        <path class="st2" d="M104.8,222.6c1.4,0,2.4.4,3.1,1.2.6.8,1,2.1,1,4.1s-.4,3.3-1.1,4.1-2,1.1-3.9,1.1-1.6,0-3.1-.2h-.8v-14h2.7v4.3c.9-.4,1.6-.5,2.2-.5h0ZM103.8,230.6c.9,0,1.5-.2,1.8-.6.3-.4.5-1.2.5-2.3,0-1.8-.6-2.7-1.7-2.7s-1,0-1.5.2h-.3v5.4h1.2Z"/>
        <path class="st2" d="M110.8,221.5v-2.7h2.7v2.7h-2.7ZM110.8,232.8v-10h2.7v10h-2.7Z"/>
        <path class="st2" d="M116.1,232.8v-14h2.7v14h-2.7Z"/>
        <path class="st2" d="M121.4,221.5v-2.7h2.7v2.7h-2.7ZM121.4,232.8v-10h2.7v10h-2.7Z"/>
        <path class="st2" d="M132.1,225.1h-2.5v5c0,.2,0,.3.2.4,0,.1.3.2.6.2h1.5v2.1c-.8.2-1.5.3-1.9.3-1.2,0-2-.3-2.5-.8-.4-.5-.7-1.5-.7-3v-4.2h-1.2v-2.3h1.2v-2.8h2.7v2.8h2.5v2.3h.1Z"/>
        <path class="st2" d="M132.9,222.8h2.6l1.8,7.7h.5l1.8-7.7h2.6l-3.5,14.2h-2.6l1.1-4.2h-1.9l-2.5-10h0Z"/>
      </g>
    </g>
  </g>
  <g class="st6">
    <g class="st6">
      <g class="st6">
        <path class="st2" d="M262.9,324.8c-1.5,0-2.2.5-2.2,1.4s.2.8.5,1,1.2.6,2.5,1,2.3.9,2.8,1.5.8,1.4.8,2.5-.4,2.5-1.3,3.2c-.9.7-2,1.1-3.4,1.1s-2.3-.2-3.8-.5h-.7c0-.1.3-2.3.3-2.3,1.8.2,3.2.4,4.1.4,1.4,0,2.1-.6,2.1-1.8s-.2-.8-.5-1-1-.5-2-.8c-1.5-.4-2.6-1-3.3-1.6-.6-.6-.9-1.5-.9-2.5s.4-2.4,1.2-3,2-1,3.4-1,2.2,0,3.8.4h.7l-.2,2.3c-1.9-.2-3.2-.3-4-.3h.1,0Z"/>
        <path class="st2" d="M269.9,327.3c.7-.9,1.9-1.4,3.5-1.4s2.8.5,3.5,1.4,1.1,2.2,1.1,3.9c0,3.5-1.5,5.3-4.6,5.3s-4.6-1.8-4.6-5.3.4-2.9,1.1-3.9ZM271.9,333.4c.3.5.8.7,1.5.7s1.2-.2,1.5-.7.4-1.2.4-2.3-.1-1.8-.4-2.2c-.3-.5-.8-.7-1.5-.7s-1.2.2-1.5.7-.4,1.2-.4,2.2.1,1.8.4,2.3Z"/>
        <path class="st2" d="M280.1,336.2v-14h2.7v14h-2.7Z"/>
        <path class="st2" d="M291.3,326.2h2.7v10h-2.7v-.6c-1,.5-1.8.8-2.5.8-1.4,0-2.3-.4-2.8-1.2s-.7-2-.7-3.8v-5.2h2.7v5.3c0,1,0,1.7.2,2,.2.4.5.5,1.2.5s1.1,0,1.7-.3h.3v-7.6h-.1Z"/>
        <path class="st2" d="M302,328.5h-2.5v5c0,.2,0,.3.2.4.1.1.3.2.6.2h1.5v2.1c-.8.2-1.5.3-1.9.3-1.2,0-2-.3-2.5-.8-.4-.5-.7-1.5-.7-3v-4.2h-1.2v-2.3h1.2v-2.8h2.7v2.8h2.5v2.3h0Z"/>
        <path class="st2" d="M303.7,324.9v-2.7h2.7v2.7h-2.7ZM303.7,336.2v-10h2.7v10h-2.7Z"/>
        <path class="st2" d="M309.4,327.3c.7-.9,1.9-1.4,3.5-1.4s2.8.5,3.5,1.4,1.1,2.2,1.1,3.9c0,3.5-1.5,5.3-4.6,5.3s-4.6-1.8-4.6-5.3.4-2.9,1.1-3.9ZM311.5,333.4c.3.5.8.7,1.5.7s1.2-.2,1.5-.7.4-1.2.4-2.3-.1-1.8-.4-2.2c-.3-.5-.8-.7-1.5-.7s-1.2.2-1.5.7-.4,1.2-.4,2.2.1,1.8.4,2.3Z"/>
        <path class="st2" d="M322.2,336.2h-2.7v-10h2.7v.6c.9-.5,1.7-.8,2.5-.8,1.3,0,2.3.4,2.8,1.2s.8,2,.8,3.6v5.4h-2.7v-5.3c0-.9-.1-1.5-.3-1.9-.2-.4-.6-.6-1.2-.6s-1.1,0-1.6.3h-.2v7.6h0Z"/>
      </g>
    </g>
    <g class="st6">
      <g class="st6">
        <path class="st2" d="M261.1,352.2v14h-2.7v-.4c-.9.4-1.7.7-2.4.7-1.5,0-2.5-.4-3-1.3-.6-.8-.9-2.2-.9-4s.3-3.1,1-4c.7-.8,1.7-1.2,3.1-1.2s1,0,1.8.2h.4v-4h2.7,0ZM258.1,363.8h.3v-5.3c-.7,0-1.4-.2-2-.2-1.1,0-1.6,1-1.6,2.9s.1,1.8.4,2.2c.2.4.6.7,1.2.7s1.1,0,1.8-.2h0Z"/>
        <path class="st2" d="M266.2,363.7c.3.3.8.4,1.3.4h3.9v1.9c-1.5.4-2.9.6-4.2.6s-2.6-.4-3.3-1.2c-.7-.8-1-2.1-1-3.9,0-3.6,1.5-5.4,4.4-5.4s4.4,1.5,4.4,4.5l-.2,1.9h-5.9c0,.6.2,1.1.5,1.3h.1,0ZM269.2,360.3c0-.8-.1-1.4-.4-1.7s-.7-.5-1.3-.5-1.1.2-1.3.5c-.3.3-.4.9-.4,1.6h3.5-.1Z"/>
        <path class="st2" d="M276.9,358.5v7.7h-2.7v-7.7h-1.1v-2.3h1.1v-.4c0-1.4.2-2.4.6-3s1.2-.8,2.3-.8,1.1,0,1.9.2h.4v2.2h-1.5c-.4,0-.7,0-.8.3-.1.2-.2.6-.2,1.1v.4h2.4v2.3h-2.4,0Z"/>
        <path class="st2" d="M280.9,354.9v-2.7h2.7v2.7h-2.7ZM280.9,366.2v-10h2.7v10h-2.7Z"/>
        <path class="st2" d="M288.7,366.2h-2.7v-10h2.7v.6c.9-.5,1.7-.8,2.5-.8,1.3,0,2.3.4,2.8,1.2s.8,2,.8,3.6v5.4h-2.7v-5.3c0-.9-.1-1.5-.3-1.9-.2-.4-.6-.6-1.2-.6s-1.1,0-1.6.3h-.2v7.6h0Z"/>
        <path class="st2" d="M297.1,354.9v-2.7h2.7v2.7h-2.7ZM297.1,366.2v-10h2.7v10h-2.7Z"/>
        <path class="st2" d="M307.8,358.5h-2.5v5c0,.2,0,.3.2.4.1,0,.3.2.6.2h1.5v2.1c-.8.2-1.5.3-1.9.3-1.2,0-2-.3-2.5-.8-.4-.5-.7-1.5-.7-3v-4.2h-1.2v-2.3h1.2v-2.8h2.7v2.8h2.5v2.3h0Z"/>
        <path class="st2" d="M309.5,354.9v-2.7h2.7v2.7h-2.7ZM309.5,366.2v-10h2.7v10h-2.7Z"/>
        <path class="st2" d="M315.2,357.3c.7-.9,1.9-1.4,3.5-1.4s2.8.5,3.5,1.4,1.1,2.2,1.1,3.9c0,3.5-1.5,5.3-4.6,5.3s-4.6-1.8-4.6-5.3.4-2.9,1.1-3.9ZM317.3,363.4c.3.5.8.7,1.5.7s1.2-.2,1.5-.7.4-1.2.4-2.3-.1-1.8-.4-2.2c-.3-.5-.8-.7-1.5-.7s-1.2.2-1.5.7-.4,1.2-.4,2.2.1,1.8.4,2.3Z"/>
        <path class="st2" d="M328,366.2h-2.7v-10h2.7v.6c.9-.5,1.7-.8,2.5-.8,1.3,0,2.3.4,2.8,1.2s.8,2,.8,3.6v5.4h-2.7v-5.3c0-.9-.1-1.5-.3-1.9-.2-.4-.6-.6-1.2-.6s-1.1,0-1.6.3h-.2v7.6h0Z"/>
      </g>
    </g>
  </g>
  <g class="st6">
    <g class="st6">
      <g class="st6">
        <path class="st2" d="M259.1,73.3h-4.6v-13.6h4.6c1.2,0,2.1,0,2.9.4.8.2,1.4.7,1.8,1.2s.7,1.2.9,2,.2,1.8.2,3,0,2.2-.2,3c-.1.8-.4,1.5-.8,2.2-.4.6-1,1.1-1.8,1.4s-1.8.4-3,.4h0ZM262,67.9v-3.6c0-.5-.2-.9-.4-1.2s-.5-.6-.9-.8c-.4,0-.9-.2-1.6-.2h-1.8v8.8h1.8c1,0,1.7-.3,2.2-.8.4-.4.6-1.2.7-2.2Z"/>
        <path class="st2" d="M267.1,62v-2.7h2.7v2.7h-2.7ZM267.1,73.3v-10h2.7v10h-2.7Z"/>
        <path class="st2" d="M279.4,65.8c-1.7-.2-2.8-.3-3.5-.3s-1.1,0-1.3.2-.3.3-.3.6,0,.4.4.5c.3,0,.9.2,2,.4s1.8.5,2.3,1c.5.4.7,1.2.7,2.1,0,2.2-1.3,3.2-4,3.2s-1.9,0-3.2-.4h-.6v-2.4c1.7.2,2.8.3,3.5.3s1.1,0,1.3-.2c.2,0,.4-.3.4-.6s0-.4-.4-.6c-.2,0-.9-.3-1.9-.4-1-.2-1.8-.5-2.3-.9s-.8-1.2-.8-2.2.4-1.9,1.1-2.4c.7-.5,1.6-.8,2.8-.8s1.9,0,3.2.4h.7v2.5h-.1Z"/>
        <path class="st2" d="M285.4,63.1c.7,0,1.6,0,2.7.3h.5v2.2c-1.1,0-1.8-.2-2.3-.2-.9,0-1.5.2-1.8.6s-.5,1.1-.5,2.2,0,1.8.5,2.2c.3.4.9.6,1.8.6l2.3-.2v2.1c-1.3.3-2.4.4-3.2.4-1.5,0-2.5-.4-3.2-1.2-.6-.8-1-2.2-1-4s.3-3.2,1-4,1.7-1.2,3.2-1.2v.2Z"/>
        <path class="st2" d="M291,64.4c.7-.9,1.9-1.4,3.5-1.4s2.8.5,3.5,1.4,1.1,2.2,1.1,3.9c0,3.5-1.5,5.3-4.6,5.3s-4.6-1.8-4.6-5.3.4-2.9,1.1-3.9ZM293.1,70.5c.3.5.8.7,1.5.7s1.2-.2,1.5-.7.4-1.2.4-2.3,0-1.8-.4-2.2c-.3-.5-.8-.7-1.5-.7s-1.2.2-1.5.7-.4,1.2-.4,2.2,0,1.8.4,2.3Z"/>
        <path class="st2" d="M300.1,63.3h2.8l1.6,7.7h.6l1.7-7.7h2.7l-2.4,10h-4.6l-2.4-10h0Z"/>
        <path class="st2" d="M313.5,70.8c.3.3.8.4,1.3.4,1.2,0,2.3,0,3.3,0h.6v1.9c-1.5.4-2.9.6-4.2.6s-2.6-.4-3.3-1.2c-.7-.8-1-2.1-1-3.9,0-3.6,1.5-5.4,4.4-5.4s4.4,1.5,4.4,4.5l-.2,1.9h-5.9c0,.6.2,1.1.5,1.3h.1ZM316.5,67.4c0-.8,0-1.4-.4-1.7s-.7-.5-1.3-.5-1.1.2-1.3.5c-.3.3-.4.9-.4,1.6h3.5-.1Z"/>
        <path class="st2" d="M321,73.3v-10h2.7v1.1c1.1-.7,2.2-1.1,3.2-1.3v2.7c-1.1.2-2,.5-2.8.7h-.4v6.8h-2.7Z"/>
        <path class="st2" d="M327.5,63.3h2.6l1.8,7.7h.5l1.8-7.7h2.6l-3.5,14.2h-2.6l1.1-4.2h-1.9l-2.5-10h.1Z"/>
        <path class="st2" d="M345,59.9c.7-.5,1.8-.8,3-.8s2.3.3,3,.8c.7.6,1.1,1.3,1.1,2.3s-.2,1.7-.6,2.3c-.4.5-1.1,1.2-2.1,1.9l2,2c0-.2.2-.6.2-1.2v-1.4h2.6c-.2,1.6-.5,3-1,4.1l2.2,2-1.5,1.7-2.1-1.7c-.5.5-1.1.9-1.8,1.2-.7.3-1.5.5-2.3.5-1.9,0-3.3-.4-4.1-1-.8-.7-1.2-1.7-1.2-3.1s.2-1.9.7-2.5,1.2-1.1,2.2-1.5c-.5-.7-.9-1.2-1.1-1.6s-.2-1-.2-1.6.4-1.7,1.1-2.2l-.2-.2h0ZM347.4,71.1c.5,0,1.1,0,1.6-.2s.9-.3,1.1-.6l-3.5-3.5c-1,.5-1.5,1.2-1.5,2.3s.8,2,2.3,2ZM346.6,62.7c0,.5.3,1.1.9,1.8l.3.4c.5-.4.9-.8,1.2-1.1.2-.3.3-.7.3-1.1,0-.8-.5-1.3-1.4-1.3s-1.4.4-1.4,1.3h.1Z"/>
      </g>
    </g>
    <g class="st6">
      <g class="st6">
        <path class="st2" d="M252.2,103.3l3.1-13.6h5.2l3.1,13.6h-2.8l-.5-2.5h-4.8l-.5,2.5h-2.8ZM257.4,92l-1.4,6.5h3.7l-1.4-6.5h-1,0Z"/>
        <path class="st2" d="M272.3,95.8c-1.7-.2-2.8-.3-3.5-.3s-1.1,0-1.3.2-.3.3-.3.6.1.4.4.5.9.2,2,.4,1.8.5,2.3,1c.5.4.7,1.2.7,2.1,0,2.2-1.3,3.2-4,3.2s-1.9,0-3.2-.4h-.6v-2.4c1.7.2,2.8.3,3.5.3s1.1,0,1.3-.2c.2,0,.4-.3.4-.6s0-.4-.4-.6c-.2,0-.9-.3-1.9-.4-1-.2-1.8-.5-2.3-.9s-.8-1.2-.8-2.2.4-1.9,1.1-2.4,1.6-.8,2.8-.8,1.9,0,3.2.4h.7v2.5h0Z"/>
        <path class="st2" d="M281.8,95.8c-1.7-.2-2.8-.3-3.5-.3s-1.1,0-1.3.2-.3.3-.3.6,0,.4.4.5c.3,0,.9.2,2,.4s1.8.5,2.3,1c.5.4.7,1.2.7,2.1,0,2.2-1.3,3.2-4,3.2s-1.9,0-3.2-.4h-.6v-2.4c1.7.2,2.8.3,3.5.3s1.1,0,1.3-.2c.2,0,.4-.3.4-.6s0-.4-.4-.6c-.2,0-.9-.3-1.9-.4-1-.2-1.8-.5-2.3-.9s-.8-1.2-.8-2.2.4-1.9,1.1-2.4c.7-.5,1.6-.8,2.8-.8s1.9,0,3.2.4h.7v2.5h-.1Z"/>
        <path class="st2" d="M286.7,100.8c.3.3.8.4,1.3.4h3.9v1.9c-1.5.4-2.9.6-4.2.6s-2.6-.4-3.3-1.2-1-2.1-1-3.9c0-3.6,1.5-5.4,4.4-5.4s4.4,1.5,4.4,4.5l-.2,1.9h-5.9c0,.6.2,1.1.5,1.3h.1ZM289.7,97.4c0-.8,0-1.4-.4-1.7-.3-.3-.7-.5-1.3-.5s-1.1.2-1.3.5c-.3.3-.4.9-.4,1.6h3.5-.1Z"/>
        <path class="st2" d="M301.4,95.8c-1.7-.2-2.8-.3-3.5-.3s-1.1,0-1.3.2-.3.3-.3.6,0,.4.4.5c.3,0,.9.2,2,.4s1.8.5,2.3,1c.5.4.7,1.2.7,2.1,0,2.2-1.3,3.2-4,3.2s-1.9,0-3.2-.4h-.6v-2.4c1.7.2,2.8.3,3.5.3s1.1,0,1.3-.2c.2,0,.4-.3.4-.6s0-.4-.4-.6c-.2,0-.9-.3-1.9-.4-1-.2-1.8-.5-2.3-.9s-.8-1.2-.8-2.2.4-1.9,1.1-2.4,1.6-.8,2.8-.8,1.9,0,3.2.4h.7v2.5h-.1Z"/>
        <path class="st2" d="M310.8,95.8c-1.7-.2-2.8-.3-3.5-.3s-1.1,0-1.3.2-.3.3-.3.6,0,.4.4.5.9.2,2,.4,1.8.5,2.3,1c.5.4.7,1.2.7,2.1,0,2.2-1.3,3.2-4,3.2s-1.9,0-3.2-.4h-.6v-2.4c1.7.2,2.8.3,3.5.3s1.1,0,1.3-.2c.2,0,.4-.3.4-.6s0-.4-.4-.6c-.2,0-.9-.3-1.9-.4-1-.2-1.8-.5-2.3-.9s-.8-1.2-.8-2.2.4-1.9,1.1-2.4,1.6-.8,2.8-.8,1.9,0,3.2.4h.7v2.5h-.1Z"/>
        <path class="st2" d="M315.8,103.3h-2.7v-10h2.7v.6c.9-.5,1.7-.8,2.4-.8,1.1,0,1.9.3,2.5.9,1.2-.6,2.3-.9,3.4-.9s2.2.4,2.8,1.2c.5.8.8,2,.8,3.7v5.4h-2.7v-5.3c0-.9,0-1.5-.3-1.9-.2-.4-.6-.6-1.1-.6s-.9,0-1.6.3h-.3v7.6h-2.7v-5.1c0-1,0-1.7-.3-2.1-.2-.4-.6-.6-1.1-.6s-1,0-1.5.3h-.2v7.6-.3h0Z"/>
        <path class="st2" d="M332.6,100.8c.3.3.8.4,1.3.4h3.9v1.9c-1.5.4-2.9.6-4.2.6s-2.6-.4-3.3-1.2c-.7-.8-1-2.1-1-3.9,0-3.6,1.5-5.4,4.4-5.4s4.4,1.5,4.4,4.5l-.2,1.9h-5.9c0,.6.2,1.1.5,1.3h.1ZM335.5,97.4c0-.8,0-1.4-.4-1.7s-.7-.5-1.3-.5-1.1.2-1.3.5c-.3.3-.4.9-.4,1.6h3.5-.1Z"/>
        <path class="st2" d="M342.8,103.3h-2.7v-10h2.7v.6c.9-.5,1.7-.8,2.5-.8,1.3,0,2.3.4,2.8,1.2s.8,2,.8,3.6v5.4h-2.7v-5.3c0-.9,0-1.5-.3-1.9-.2-.4-.6-.6-1.2-.6s-1.1,0-1.6.3h-.2v7.6h-.1,0Z"/>
        <path class="st2" d="M356.7,95.6h-2.5v5c0,.2,0,.3.2.4,0,0,.3.2.6.2h1.5v2.1c-.8.2-1.5.3-1.9.3-1.2,0-2-.3-2.5-.8-.4-.5-.7-1.5-.7-3v-4.2h-1.2v-2.3h1.2v-2.8h2.7v2.8h2.5v2.3h.1,0Z"/>
      </g>
    </g>
  </g>
  <g class="st6">
    <g class="st6">
      <g class="st6">
        <path class="st2" d="M55.3,456.2c-1.5,0-2.2.5-2.2,1.4s.2.8.5,1,1.2.6,2.5,1,2.3.9,2.8,1.5.8,1.4.8,2.5-.4,2.5-1.3,3.2c-.9.7-2,1.1-3.4,1.1s-2.3-.2-3.8-.5h-.7l.3-2.3c1.8.2,3.2.4,4.1.4,1.4,0,2.1-.6,2.1-1.8s-.2-.8-.5-1-1-.5-2-.8c-1.5-.4-2.6-1-3.3-1.6-.6-.6-.9-1.5-.9-2.5s.4-2.4,1.2-3,2-1,3.4-1,2.2,0,3.8.4h.7l-.2,2.3c-1.9-.2-3.2-.3-4-.3h.1Z"/>
        <path class="st2" d="M62.3,458.7c.7-.9,1.9-1.4,3.5-1.4s2.8.5,3.5,1.4,1.1,2.2,1.1,3.9c0,3.5-1.5,5.3-4.6,5.3s-4.6-1.8-4.6-5.3.4-2.9,1.1-3.9ZM64.3,464.8c.3.5.8.7,1.5.7s1.2-.2,1.5-.7.4-1.2.4-2.3,0-1.8-.4-2.2c-.3-.5-.8-.7-1.5-.7s-1.2.2-1.5.7-.4,1.2-.4,2.2,0,1.8.4,2.3Z"/>
        <path class="st2" d="M72.5,467.6v-14h2.7v14h-2.7Z"/>
        <path class="st2" d="M83.7,457.6h2.7v10h-2.7v-.6c-1,.5-1.8.8-2.5.8-1.4,0-2.3-.4-2.8-1.2s-.7-2-.7-3.8v-5.2h2.7v5.3c0,1,0,1.7.2,2,.2.4.5.5,1.2.5s1.1,0,1.7-.3h.3v-7.6h-.1Z"/>
        <path class="st2" d="M94.4,459.9h-2.5v5c0,.2,0,.3.2.4,0,0,.3.2.6.2h1.5v2.1c-.8.2-1.5.3-1.9.3-1.2,0-2-.3-2.5-.8-.4-.5-.7-1.5-.7-3v-4.2h-1.2v-2.3h1.2v-2.8h2.7v2.8h2.5v2.3h.1Z"/>
        <path class="st2" d="M96.1,456.3v-2.7h2.7v2.7h-2.7ZM96.1,467.6v-10h2.7v10h-2.7Z"/>
        <path class="st2" d="M101.8,458.7c.7-.9,1.9-1.4,3.5-1.4s2.8.5,3.5,1.4,1.1,2.2,1.1,3.9c0,3.5-1.5,5.3-4.6,5.3s-4.6-1.8-4.6-5.3.4-2.9,1.1-3.9ZM103.9,464.8c.3.5.8.7,1.5.7s1.2-.2,1.5-.7.4-1.2.4-2.3,0-1.8-.4-2.2c-.3-.5-.8-.7-1.5-.7s-1.2.2-1.5.7-.4,1.2-.4,2.2,0,1.8.4,2.3Z"/>
        <path class="st2" d="M114.6,467.6h-2.7v-10h2.7v.6c.9-.5,1.7-.8,2.5-.8,1.3,0,2.3.4,2.8,1.2.5.8.8,2,.8,3.6v5.4h-2.7v-5.3c0-.9,0-1.5-.3-1.9s-.6-.6-1.2-.6-1.1,0-1.6.3h-.2v7.6h-.1Z"/>
        <path class="st2" d="M130.1,460.1c-1.7-.2-2.8-.3-3.5-.3s-1.1,0-1.3.2-.3.3-.3.6,0,.4.4.5c.3,0,.9.2,2,.4s1.8.5,2.3,1c.5.4.7,1.2.7,2.1,0,2.2-1.3,3.2-4,3.2s-1.9,0-3.2-.4h-.6v-2.4c1.7.2,2.8.3,3.5.3s1.1,0,1.3-.2c.2,0,.4-.3.4-.6s0-.4-.4-.6c-.2,0-.9-.3-1.9-.4-1-.2-1.8-.5-2.3-.9s-.8-1.2-.8-2.2.4-1.9,1.1-2.4,1.6-.8,2.8-.8,1.9,0,3.2.4h.7v2.5h0Z"/>
      </g>
    </g>
    <g class="st6">
      <g class="st6">
        <path class="st2" d="M46.7,490.7v4.2c0,.3,0,.5.2.7s.2.2.5.3v2c-.8,0-1.3,0-1.7-.1-.4,0-.8-.3-1.2-.6-1,.5-1.9.7-2.9.7-2.1,0-3.1-1.1-3.1-3.3s.3-1.8.9-2.3c.6-.4,1.5-.7,2.6-.8l2.1-.2v-.6c0-.4,0-.7-.3-.9-.2-.2-.5-.2-.9-.2l-3.8.2v-1.9c1.3-.4,2.7-.6,4-.6s2.2.3,2.8.8.9,1.4.9,2.6h-.1ZM42.2,493.4c-.7,0-1.1.5-1.1,1.2s.3,1.1,1,1.1,1.1,0,1.7-.2h.3v-2.2l-1.8.2h-.1Z"/>
        <path class="st2" d="M49.3,497.6v-10h2.7v1.1c1.1-.7,2.2-1.1,3.2-1.3v2.7c-1.1.2-2,.5-2.8.7h-.4v6.8h-2.7Z"/>
        <path class="st2" d="M60.4,487.4c.7,0,1.6.1,2.7.3h.5v2.2c-1.1-.1-1.8-.2-2.3-.2-.9,0-1.5.2-1.8.6s-.5,1.1-.5,2.2,0,1.8.5,2.2c.3.4.9.6,1.8.6l2.3-.2v2.1c-1.3.3-2.4.4-3.2.4-1.5,0-2.5-.4-3.2-1.2-.6-.8-1-2.2-1-4s.3-3.2,1-4,1.7-1.2,3.2-1.2v.2Z"/>
        <path class="st2" d="M68.3,497.6h-2.7v-14h2.7v4.5c.9-.5,1.7-.7,2.5-.7,1.3,0,2.3.4,2.8,1.2s.8,2,.8,3.6v5.4h-2.7v-5.4c0-.8,0-1.5-.3-1.9s-.6-.6-1.2-.6-1,0-1.6.2h-.3v7.6h0Z"/>
        <path class="st2" d="M76.7,486.3v-2.7h2.7v2.7h-2.7ZM76.7,497.6v-10h2.7v10h-2.7Z"/>
        <path class="st2" d="M87.4,489.9h-2.5v5c0,.2,0,.3.2.4,0,.1.3.2.6.2h1.5v2.1c-.8.2-1.5.3-1.9.3-1.2,0-2-.3-2.5-.8-.4-.5-.7-1.5-.7-3v-4.2h-1.2v-2.3h1.2v-2.8h2.7v2.8h2.5v2.3h.1Z"/>
        <path class="st2" d="M91.8,495.1c.3.3.8.4,1.3.4,1.2,0,2.3,0,3.3-.1h.6v1.9c-1.5.4-2.9.6-4.2.6s-2.6-.4-3.3-1.2-1-2.1-1-3.9c0-3.6,1.5-5.4,4.4-5.4s4.4,1.5,4.4,4.5l-.2,1.9h-5.9c0,.6.2,1.1.5,1.3h0,0ZM94.8,491.7c0-.8,0-1.4-.4-1.7-.3-.3-.7-.5-1.3-.5s-1.1.2-1.3.5c-.3.3-.4.9-.4,1.6h3.5,0Z"/>
        <path class="st2" d="M103.1,487.4c.7,0,1.6.1,2.7.3h.5v2.2c-1.1-.1-1.8-.2-2.3-.2-.9,0-1.5.2-1.8.6s-.5,1.1-.5,2.2,0,1.8.5,2.2c.3.4.9.6,1.8.6l2.3-.2v2.1c-1.3.3-2.4.4-3.2.4-1.5,0-2.5-.4-3.2-1.2-.6-.8-1-2.2-1-4s.3-3.2,1-4,1.7-1.2,3.2-1.2v.2Z"/>
        <path class="st2" d="M113.8,489.9h-2.5v5c0,.2,0,.3.2.4,0,.1.3.2.6.2h1.5v2.1c-.8.2-1.5.3-1.9.3-1.2,0-2-.3-2.5-.8-.4-.5-.7-1.5-.7-3v-4.2h-1.2v-2.3h1.2v-2.8h2.7v2.8h2.5v2.3h.1Z"/>
        <path class="st2" d="M121.4,487.6h2.7v10h-2.7v-.6c-1,.5-1.8.8-2.5.8-1.4,0-2.3-.4-2.8-1.2s-.7-2-.7-3.8v-5.2h2.7v5.3c0,1,0,1.7.2,2,.2.4.5.5,1.2.5s1.1,0,1.7-.3h.3v-7.6h0,0Z"/>
        <path class="st2" d="M126.6,497.6v-10h2.7v1.1c1.1-.7,2.2-1.1,3.2-1.3v2.7c-1.1.2-2,.5-2.8.7h-.4v6.8h-2.7,0Z"/>
        <path class="st2" d="M136.7,495.1c.3.3.8.4,1.3.4,1.2,0,2.3,0,3.3-.1h.6v1.9c-1.5.4-2.9.6-4.2.6s-2.6-.4-3.3-1.2-1-2.1-1-3.9c0-3.6,1.5-5.4,4.4-5.4s4.4,1.5,4.4,4.5l-.2,1.9h-5.9c0,.6.2,1.1.5,1.3h0,0ZM139.7,491.7c0-.8,0-1.4-.4-1.7-.3-.3-.7-.5-1.3-.5s-1.1.2-1.3.5c-.3.3-.4.9-.4,1.6h3.5,0Z"/>
      </g>
    </g>
  </g>
  <g class="st6">
    <g class="st6">
      <g class="st6">
        <path class="st2" d="M256.8,612h-4.6v-13.6h4.6c1.2,0,2.1,0,2.9.4.8.2,1.4.7,1.8,1.2s.7,1.2.9,2,.2,1.8.2,3,0,2.2-.2,3-.4,1.5-.8,2.2c-.4.6-1,1.1-1.8,1.4-.8.3-1.8.4-3,.4h0ZM259.7,606.6v-3.6c0-.5-.2-.9-.4-1.2s-.5-.6-.9-.8c-.4,0-.9-.2-1.6-.2h-1.8v8.8h1.8c1,0,1.7-.3,2.2-.8.4-.4.6-1.2.7-2.2Z"/>
        <path class="st2" d="M267.4,609.5c.3.3.8.4,1.3.4h3.9v1.9c-1.5.4-2.9.6-4.2.6s-2.6-.4-3.3-1.2-1-2.1-1-3.9c0-3.6,1.5-5.4,4.4-5.4s4.4,1.5,4.4,4.5l-.2,1.9h-5.9c0,.6.2,1.1.5,1.3h.1,0ZM270.3,606.1c0-.8,0-1.4-.4-1.7-.3-.3-.7-.5-1.3-.5s-1.1.2-1.3.5-.4.9-.4,1.6h3.5-.1Z"/>
        <path class="st2" d="M273.8,602h2.8l1.6,7.7h.6l1.7-7.7h2.7l-2.4,10h-4.6l-2.4-10h0Z"/>
        <path class="st2" d="M287.3,609.5c.3.3.8.4,1.3.4h3.9v1.9c-1.5.4-2.9.6-4.2.6s-2.6-.4-3.3-1.2-1-2.1-1-3.9c0-3.6,1.5-5.4,4.4-5.4s4.4,1.5,4.4,4.5l-.2,1.9h-5.9c0,.6.2,1.1.5,1.3h.1ZM290.2,606.1c0-.8,0-1.4-.4-1.7-.3-.3-.7-.5-1.3-.5s-1.1.2-1.3.5c-.3.3-.4.9-.4,1.6h3.5-.1Z"/>
        <path class="st2" d="M294.9,612v-14h2.7v14h-2.7Z"/>
        <path class="st2" d="M300.7,603.1c.7-.9,1.9-1.4,3.5-1.4s2.8.5,3.5,1.4,1.1,2.2,1.1,3.9c0,3.5-1.5,5.3-4.6,5.3s-4.6-1.8-4.6-5.3.4-2.9,1.1-3.9ZM302.8,609.2c.3.5.8.7,1.5.7s1.2-.2,1.5-.7.4-1.2.4-2.3,0-1.8-.4-2.2c-.3-.5-.8-.7-1.5-.7s-1.2.2-1.5.7-.4,1.2-.4,2.2,0,1.8.4,2.3Z"/>
        <path class="st2" d="M310.8,616.2v-14.2h2.7v.5c.9-.5,1.6-.8,2.3-.8,1.3,0,2.3.4,3,1.2.6.8,1,2.2,1,4.1s-.4,3.3-1.1,4c-.7.8-1.9,1.1-3.5,1.1s-.9,0-1.4,0h-.2v4.1h-2.8ZM315.3,604.2c-.5,0-1,0-1.5.3h-.2v5.3h1.5c.8,0,1.3-.2,1.6-.7s.4-1.2.4-2.3c0-1.8-.6-2.8-1.7-2.8h0v.2Z"/>
        <path class="st2" d="M324.4,612h-2.7v-10h2.7v.6c.9-.5,1.7-.8,2.4-.8,1.1,0,1.9.3,2.5.9,1.2-.6,2.3-.9,3.4-.9s2.2.4,2.8,1.2.8,2,.8,3.7v5.4h-2.7v-5.3c0-.9,0-1.5-.3-1.9-.2-.4-.6-.6-1.1-.6s-.9,0-1.6.3h-.3v7.6h-2.7v-5.1c0-1,0-1.7-.3-2.1-.2-.4-.6-.6-1.1-.6s-1,0-1.5.3h-.2v7.6-.3h0Z"/>
        <path class="st2" d="M341.2,609.5c.3.3.8.4,1.3.4h3.9v1.9c-1.5.4-2.9.6-4.2.6s-2.6-.4-3.3-1.2-1-2.1-1-3.9c0-3.6,1.5-5.4,4.4-5.4s4.4,1.5,4.4,4.5l-.2,1.9h-5.9c0,.6.2,1.1.5,1.3h.1ZM344.1,606.1c0-.8,0-1.4-.4-1.7-.3-.3-.7-.5-1.3-.5s-1.1.2-1.3.5-.4.9-.4,1.6h3.5-.1Z"/>
        <path class="st2" d="M351.4,612h-2.7v-10h2.7v.6c.9-.5,1.7-.8,2.5-.8,1.3,0,2.3.4,2.8,1.2s.8,2,.8,3.6v5.4h-2.7v-5.3c0-.9,0-1.5-.3-1.9-.2-.4-.6-.6-1.2-.6s-1.1,0-1.6.3h-.2v7.6h0Z"/>
        <path class="st2" d="M365.3,604.3h-2.5v5c0,.2,0,.3.2.4s.3.2.6.2h1.5v2.1c-.8.2-1.5.3-1.9.3-1.2,0-2-.3-2.5-.8-.4-.5-.7-1.5-.7-3v-4.2h-1.2v-2.3h1.2v-2.8h2.7v2.8h2.5v2.3h.1,0Z"/>
      </g>
    </g>
  </g>
  <g class="st6">
    <g class="st6">
      <g class="st6">
        <path class="st2" d="M252.2,849.2v-2.4h10v2.4h-3.6v11.2h-2.8v-11.2h-3.6,0Z"/>
        <path class="st2" d="M265,857.9c.3.3.8.4,1.3.4,1.2,0,2.3,0,3.3,0h.6v1.9c-1.5.4-2.9.6-4.2.6s-2.6-.4-3.3-1.2-1-2.1-1-3.9c0-3.6,1.5-5.4,4.4-5.4s4.4,1.5,4.4,4.5l-.2,1.9h-5.9c0,.6.2,1.1.5,1.3h0ZM267.9,854.5c0-.8,0-1.4-.4-1.7s-.7-.5-1.3-.5-1.1.2-1.3.5-.4.9-.4,1.6h3.5-.1Z"/>
        <path class="st2" d="M279.7,852.9c-1.7-.2-2.8-.3-3.5-.3s-1.1,0-1.3.2-.3.3-.3.6,0,.4.4.5.9.2,2,.4,1.8.5,2.3,1c.5.4.7,1.2.7,2.1,0,2.2-1.3,3.2-4,3.2s-1.9,0-3.2-.4h-.6v-2.4c1.7.2,2.8.3,3.5.3s1.1,0,1.3-.2.4-.3.4-.6,0-.4-.4-.6c-.2,0-.9-.3-1.9-.4-1-.2-1.8-.5-2.3-.9s-.8-1.2-.8-2.2.4-1.9,1.1-2.4,1.6-.8,2.8-.8,1.9,0,3.2.4h.7v2.5h-.1Z"/>
        <path class="st2" d="M287.5,852.7h-2.5v5c0,.2,0,.3.2.4s.3.2.6.2h1.5v2.1c-.8.2-1.5.3-1.9.3-1.2,0-2-.3-2.5-.8-.4-.5-.7-1.5-.7-3v-4.2h-1.2v-2.3h1.2v-2.8h2.7v2.8h2.5v2.3h.1,0Z"/>
        <path class="st2" d="M289.2,849.1v-2.7h2.7v2.7h-2.7ZM289.2,860.4v-10h2.7v10h-2.7Z"/>
        <path class="st2" d="M297.1,860.4h-2.7v-10h2.7v.6c.9-.5,1.7-.8,2.5-.8,1.3,0,2.3.4,2.8,1.2s.8,2,.8,3.6v5.4h-2.7v-5.3c0-.9,0-1.5-.3-1.9-.2-.4-.6-.6-1.2-.6s-1.1,0-1.6.3h-.2v7.6h-.1,0Z"/>
        <path class="st2" d="M314.5,861.7c0,1.1-.4,2-1.3,2.5s-2.1.8-3.6.8-2.7-.2-3.5-.6-1.2-1.1-1.2-2.2.5-1.6,1.4-2.4c-.5-.3-.7-.8-.7-1.5s.2-.7.6-1.3l.2-.3c-.9-.7-1.4-1.6-1.4-2.9s.4-2.2,1.2-2.8,1.8-.9,3-.9,1.1,0,1.7.2h3.5v2.1h-1.5c.3.3.4.8.4,1.2,0,1.3-.3,2.3-1,2.8s-1.7.8-3.2.8-.6,0-.8,0c0,.3-.2.6-.2.8s0,.4.3.5.8,0,1.6,0c1.7,0,2.8.2,3.4.7.6.4.9,1.2.9,2.4h.2ZM307.6,861.9c0,.6.7.9,2.1.9s2.1-.3,2.1-1,0-.6-.4-.7c-.2,0-.7-.2-1.5-.2h-1.8c-.4.2-.5.6-.5,1h0ZM307.7,853.7c0,1,.5,1.5,1.5,1.5s1.5-.5,1.5-1.5-.5-1.5-1.5-1.5-1.5.5-1.5,1.5Z"/>
      </g>
    </g>
    <g class="st6">
      <g class="st6">
        <path class="st2" d="M265.7,877c.7-.5,1.8-.8,3-.8s2.3.3,3,.8c.7.6,1.1,1.3,1.1,2.3s-.2,1.7-.6,2.3c-.4.5-1.1,1.2-2.1,1.9l2,2c0-.2.2-.6.2-1.2v-1.4h2.6c-.2,1.6-.5,3-1,4.1l2.2,2-1.5,1.7-2.1-1.7c-.5.5-1.1.9-1.8,1.2s-1.5.5-2.3.5c-1.9,0-3.3-.4-4.1-1-.8-.7-1.2-1.7-1.2-3.1s.2-1.9.7-2.5,1.2-1.1,2.2-1.5c-.5-.7-.9-1.2-1.1-1.6-.2-.4-.2-1-.2-1.6s.4-1.7,1.1-2.2l-.2-.2h.1ZM268.1,888.2c.5,0,1.1,0,1.6-.2s.9-.3,1.1-.6l-3.5-3.5c-1,.5-1.5,1.2-1.5,2.3s.8,2,2.3,2h0ZM267.3,879.8c0,.5.3,1.1.9,1.8l.3.4c.5-.4.9-.8,1.2-1.1.2-.3.3-.7.3-1.1,0-.8-.5-1.3-1.4-1.3s-1.4.4-1.4,1.3h0Z"/>
        <path class="st2" d="M287.3,890.6c-2.1,0-3.5-.6-4.4-1.7-.8-1.1-1.3-2.9-1.3-5.3s.4-4.2,1.3-5.4,2.3-1.8,4.4-1.8,3.5.6,4.4,1.8,1.3,3,1.3,5.4-.7,5-2.1,6l1.7,2.7-2.5,1.2-1.8-2.9h-1ZM285.1,887.2c.4.7,1.1,1,2.2,1s1.8-.3,2.2-1,.6-1.9.6-3.5-.2-2.9-.6-3.6c-.4-.7-1.1-1.1-2.2-1.1s-1.8.4-2.2,1.1c-.4.7-.6,1.9-.6,3.6s.2,2.8.6,3.5Z"/>
        <path class="st2" d="M293.9,890.4l3.1-13.6h5.2l3.1,13.6h-2.8l-.5-2.5h-4.8l-.5,2.5h-2.8ZM299.1,879.1l-1.4,6.5h3.7l-1.4-6.5h-1,.1,0Z"/>
      </g>
    </g>
  </g>
  <g class="st6">
    <g class="st6">
      <g class="st6">
        <path class="st2" d="M48,743.2v-13.6h2.8v13.6h-2.8Z"/>
        <path class="st2" d="M56.1,743.2h-2.7v-10h2.7v.6c.9-.5,1.7-.8,2.5-.8,1.3,0,2.3.4,2.8,1.2s.8,2,.8,3.6v5.4h-2.7v-5.3c0-.9,0-1.5-.3-1.9-.2-.4-.6-.6-1.2-.6s-1.1,0-1.6.3h-.2v7.6h0Z"/>
        <path class="st2" d="M70.1,735.5h-2.5v5c0,.2,0,.3.2.4,0,0,.3.2.6.2h1.5v2.1c-.8.2-1.5.3-1.9.3-1.2,0-2-.3-2.5-.8s-.7-1.5-.7-3v-4.2h-1.2v-2.3h1.2v-2.8h2.7v2.8h2.5v2.3h.1Z"/>
        <path class="st2" d="M74.5,740.7c.3.3.8.4,1.3.4h3.9v1.9c-1.5.4-2.9.6-4.2.6s-2.6-.4-3.3-1.2-1-2.1-1-3.9c0-3.6,1.5-5.4,4.4-5.4s4.4,1.5,4.4,4.5l-.2,1.9h-5.9c0,.6.2,1.1.5,1.3h.1ZM77.4,737.3c0-.8,0-1.4-.4-1.7-.3-.3-.7-.5-1.3-.5s-1.1.2-1.3.5-.4.9-.4,1.6h3.5,0Z"/>
        <path class="st2" d="M91.1,744.5c0,1.1-.4,2-1.3,2.5s-2.1.8-3.6.8-2.7-.2-3.5-.6-1.2-1.1-1.2-2.2.5-1.6,1.4-2.4c-.5-.3-.7-.8-.7-1.5s.2-.7.6-1.3l.2-.3c-.9-.7-1.4-1.6-1.4-2.9s.4-2.2,1.1-2.8,1.8-.9,3.1-.9,1.1,0,1.7.2h3.5v2.1h-1.5c.3.3.4.8.4,1.2,0,1.3-.3,2.3-1,2.8s-1.7.8-3.2.8-.6,0-.8,0c0,.3-.2.6-.2.8s0,.4.3.5.8,0,1.6,0c1.7,0,2.8.2,3.4.7.6.4.9,1.2.9,2.4h.2ZM84.1,744.7c0,.6.7.9,2.1.9s2.1-.3,2.1-1,0-.6-.4-.7-.7-.2-1.5-.2h-1.8c-.4.2-.5.6-.5,1h0ZM84.3,736.5c0,1,.5,1.5,1.5,1.5s1.5-.5,1.5-1.5-.5-1.5-1.5-1.5-1.5.5-1.5,1.5Z"/>
        <path class="st2" d="M92.7,743.2v-10h2.7v1.1c1.1-.7,2.2-1.1,3.2-1.3v2.7c-1.1.2-2,.5-2.8.7h-.4v6.8s-2.7,0-2.7,0Z"/>
        <path class="st2" d="M107.8,736.3v4.2c0,.3,0,.5.2.7s.2.2.5.3v2h-1.7c-.4,0-.8-.3-1.2-.6-1,.5-1.9.7-2.9.7-2.1,0-3.1-1.1-3.1-3.3s.3-1.8.9-2.3c.6-.4,1.5-.7,2.6-.8l2.1-.2v-.6c0-.4,0-.7-.3-.9-.2-.2-.5-.2-.9-.2l-3.8.2v-1.9c1.3-.4,2.7-.6,4-.6s2.2.3,2.8.8.8,1.4.8,2.6h0ZM103.3,739c-.7,0-1.1.5-1.1,1.2s.3,1.1,1,1.1,1.1,0,1.7-.2h.3v-2.2l-1.8.2h0Z"/>
        <path class="st2" d="M115.9,735.5h-2.5v5c0,.2,0,.3.2.4,0,0,.3.2.6.2h1.5v2.1c-.8.2-1.5.3-1.9.3-1.2,0-2-.3-2.5-.8s-.7-1.5-.7-3v-4.2h-1.2v-2.3h1.2v-2.8h2.7v2.8h2.5v2.3h.1Z"/>
        <path class="st2" d="M117.6,731.9v-2.7h2.7v2.7h-2.7ZM117.6,743.2v-10h2.7v10h-2.7Z"/>
        <path class="st2" d="M123.3,734.3c.7-.9,1.9-1.4,3.5-1.4s2.8.5,3.5,1.4,1.1,2.2,1.1,3.9c0,3.5-1.5,5.3-4.6,5.3s-4.6-1.8-4.6-5.3.4-2.9,1.1-3.9ZM125.4,740.4c.3.5.8.7,1.5.7s1.2-.2,1.5-.7.4-1.2.4-2.3,0-1.8-.4-2.2-.8-.7-1.5-.7-1.2.2-1.5.7-.4,1.2-.4,2.2,0,1.8.4,2.3Z"/>
        <path class="st2" d="M136.1,743.2h-2.7v-10h2.7v.6c.9-.5,1.7-.8,2.5-.8,1.3,0,2.3.4,2.8,1.2s.8,2,.8,3.6v5.4h-2.7v-5.3c0-.9,0-1.5-.3-1.9s-.6-.6-1.2-.6-1.1,0-1.6.3h-.2v7.6h-.1Z"/>
      </g>
    </g>
  </g>
  <g class="st6">
    <g class="st6">
      <g class="st6">
        <path class="st2" d="M81.7,1008.2v-13.6h4.7l2.4,9.9,2.4-9.9h4.7v13.6h-2.8v-10.5h-.3l-2.7,9.9h-2.8l-2.7-9.9h-.3v10.5h-2.8.2Z"/>
        <path class="st2" d="M106.3,1001.3v4.2c0,.3,0,.5.2.7s.2.2.5.3v2h-1.7c-.4,0-.8-.3-1.2-.6-1,.5-1.9.7-2.9.7-2.1,0-3.1-1.1-3.1-3.3s.3-1.8.9-2.3c.6-.4,1.5-.7,2.6-.8l2.1-.2v-.6c0-.4,0-.7-.3-.9-.2-.2-.5-.2-.9-.2l-3.8.2v-1.9c1.3-.4,2.7-.6,4-.6s2.2.3,2.8.8c.6.5.9,1.4.9,2.6h0ZM101.8,1004c-.7,0-1.1.5-1.1,1.2s.3,1.1,1,1.1,1.1,0,1.7-.2h.3v-2.2l-1.8.2h0Z"/>
        <path class="st2" d="M108.9,1008.2v-10h2.7v1.1c1.1-.7,2.2-1.1,3.2-1.3v2.7c-1.1.2-2,.5-2.8.7h-.4v6.8h-2.7,0Z"/>
        <path class="st2" d="M119,1008.2h-2.7v-14h2.7v8l1-.2,2-3.8h3l-2.6,4.7,2.7,5.3h-3l-2-3.9-1.1.2v3.7Z"/>
        <path class="st2" d="M129.1,1005.7c.3.3.8.4,1.3.4h3.9v1.9c-1.5.4-2.9.6-4.2.6s-2.6-.4-3.3-1.2-1-2.1-1-3.9c0-3.6,1.5-5.4,4.4-5.4s4.4,1.5,4.4,4.5l-.2,1.9h-5.9c0,.6.2,1.1.5,1.3h0ZM132.1,1002.3c0-.8,0-1.4-.4-1.7-.3-.3-.7-.5-1.3-.5s-1.1.2-1.3.5c-.3.3-.4.9-.4,1.6h3.5,0Z"/>
        <path class="st2" d="M142.2,1000.5h-2.5v5c0,.2,0,.3.2.4,0,0,.3.2.6.2h1.5v2.1c-.8.2-1.5.3-1.9.3-1.2,0-2-.3-2.5-.8s-.7-1.5-.7-3v-4.2h-1.2v-2.3h1.2v-2.8h2.7v2.8h2.5v2.3h.1Z"/>
      </g>
    </g>
  </g>
</svg>