<svg viewBox="0 0 1322.2 153.7" xmlns="http://www.w3.org/2000/svg" xmlns:xlink="http://www.w3.org/1999/xlink"><linearGradient id="a"><stop offset="0" stop-color="#4b62fb"/><stop offset="1" stop-color="#eb5c21"/></linearGradient><linearGradient id="b" gradientTransform="matrix(1 0 0 -1 0 -1852.3)" gradientUnits="userSpaceOnUse" x1="67.4" x2="1258.4" xlink:href="#a" y1="-1929.1" y2="-1929.1"/><linearGradient id="c" gradientTransform="matrix(0 -1 -1 0 1495.8 -2412.2)" gradientUnits="userSpaceOnUse" x1="-2489" x2="-2489" xlink:href="#a" y1="1433.3" y2="222.3"/><linearGradient id="d" gradientTransform="matrix(0 -1 -1 0 1495.8 -2412.2)" gradientUnits="userSpaceOnUse" x1="-2489" x2="-2489" xlink:href="#a" y1="1426.4" y2="236.9"/><linearGradient id="e" gradientTransform="matrix(0 -1 -1 0 1495.8 -2412.2)" gradientUnits="userSpaceOnUse" x1="-2489" x2="-2489" xlink:href="#a" y1="1423.7" y2="233.7"/><linearGradient id="f" gradientTransform="matrix(0 -1 -1 0 1495.8 -2412.2)" gradientUnits="userSpaceOnUse" x1="-2489" x2="-2489" xlink:href="#a" y1="1422.3" y2="232.8"/><linearGradient id="g" gradientTransform="matrix(0 -1 -1 0 1495.8 -2412.2)" gradientUnits="userSpaceOnUse" x1="-2489" x2="-2489" xlink:href="#a" y1="1420" y2="230.5"/><linearGradient id="h" gradientTransform="matrix(0 -1 -1 0 1495.8 -2412.2)" gradientUnits="userSpaceOnUse" x1="-2489" x2="-2489" xlink:href="#a" y1="1418.3" y2="228.3"/><linearGradient id="i" gradientTransform="matrix(0 -1 -1 0 1495.8 -2412.2)" gradientUnits="userSpaceOnUse" x1="-2489" x2="-2489" xlink:href="#a" y1="1425.1" y2="235.1"/><linearGradient id="j" gradientTransform="matrix(0 -1 -1 0 1495.8 -2412.2)" gradientUnits="userSpaceOnUse" x1="-2489" x2="-2489" xlink:href="#a" y1="1421.4" y2="231.4"/><path d="m67.4 76.8h1200" fill="none" stroke="url(#b)" stroke-width="2"/><path d="m62.4 71.8h10v10h-10z" fill="url(#c)"/><path d="m233.8 71.8h10v10h-10z" fill="url(#d)"/><path d="m576.6 71.8h10v10h-10z" fill="url(#e)"/><path d="m748 71.8h10v10h-10z" fill="url(#f)"/><path d="m1090.8 71.8h10v10h-10z" fill="url(#g)"/><path d="m1262.4 71.8h10v10h-10z" fill="url(#h)"/><path d="m405.2 71.8h10v10h-10z" fill="url(#i)"/><path d="m919.4 71.8h10v10h-10z" fill="url(#j)"/><g fill="#fff"><path d="m198.3 107.7v-2.4h10v2.4h-3.6v11.2h-2.8v-11.2z"/><path d="m211.1 116.4c.3.3.8.4 1.3.4 1.2 0 2.3 0 3.3-.1h.6v1.9c-1.5.4-2.9.6-4.2.6s-2.6-.4-3.3-1.2-1-2.1-1-3.9c0-3.6 1.5-5.4 4.4-5.4s4.4 1.5 4.4 4.5l-.2 1.9h-5.9c0 .6.2 1.1.5 1.3zm2.9-3.4c0-.8-.1-1.4-.4-1.7s-.7-.5-1.3-.5-1.1.2-1.3.5c-.3.3-.4.9-.4 1.6h3.5z"/><path d="m222.3 108.7c.7 0 1.6.1 2.7.3h.5v2.2c-1.1-.1-1.8-.2-2.3-.2-.9 0-1.5.2-1.8.6s-.5 1.1-.5 2.2.1 1.8.5 2.2c.3.4.9.6 1.8.6l2.3-.2v2.1c-1.3.3-2.4.4-3.2.4-1.5 0-2.5-.4-3.2-1.2-.6-.8-1-2.2-1-4s.3-3.2 1-4 1.7-1.2 3.2-1.2z"/><path d="m230.2 118.9h-2.7v-14h2.7v4.5c.9-.5 1.7-.7 2.5-.7 1.3 0 2.3.4 2.8 1.2s.8 2 .8 3.6v5.4h-2.7v-5.4c0-.8-.1-1.5-.3-1.9s-.6-.6-1.2-.6-1 0-1.6.2h-.3v7.6z"/><path d="m241.2 118.9h-2.7v-10h2.7v.6c.9-.5 1.7-.8 2.5-.8 1.3 0 2.3.4 2.8 1.2s.8 2 .8 3.6v5.4h-2.7v-5.3c0-.9-.1-1.5-.3-1.9s-.6-.6-1.2-.6-1.1 0-1.6.3h-.2v7.6z"/><path d="m249.6 107.6v-2.7h2.7v2.7zm0 11.3v-10h2.7v10z"/><path d="m258.5 108.7c.7 0 1.6.1 2.7.3h.5v2.2c-1.1-.1-1.8-.2-2.3-.2-.9 0-1.5.2-1.8.6s-.5 1.1-.5 2.2.1 1.8.5 2.2c.3.4.9.6 1.8.6l2.3-.2v2.1c-1.3.3-2.4.4-3.2.4-1.5 0-2.5-.4-3.2-1.2-.6-.8-1-2.2-1-4s.3-3.2 1-4 1.7-1.2 3.2-1.2z"/><path d="m271.4 112v4.2c0 .3 0 .5.2.7s.2.2.5.3v2c-.8 0-1.3 0-1.7-.1-.4 0-.8-.3-1.2-.6-1 .5-1.9.7-2.9.7-2.1 0-3.1-1.1-3.1-3.3s.3-1.8.9-2.3c.6-.4 1.5-.7 2.6-.8l2.1-.2v-.6c0-.4 0-.7-.3-.9-.2-.2-.5-.2-.9-.2l-3.8.2v-1.9c1.3-.4 2.7-.6 4-.6s2.2.3 2.8.8.9 1.4.9 2.6zm-4.5 2.7c-.7 0-1.1.5-1.1 1.2s.3 1.1 1 1.1 1.1 0 1.7-.2h.3v-2.2l-1.8.2z"/><path d="m274 118.9v-14h2.7v14z"/><path d="m200.1 141.2v7.7h-2.7v-7.7h-1.1v-2.3h1.1v-.4c0-1.4.2-2.4.6-3s1.2-.8 2.3-.8 1.1 0 1.9.2h.4v2.2c-.6 0-1.1 0-1.5 0s-.7.1-.8.3-.2.6-.2 1.1v.4h2.4v2.3z"/><path d="m206.7 146.4c.3.3.8.4 1.3.4 1.2 0 2.3 0 3.3-.1h.6v1.9c-1.5.4-2.9.6-4.2.6s-2.6-.4-3.3-1.2-1-2.1-1-3.9c0-3.6 1.5-5.4 4.4-5.4s4.4 1.5 4.4 4.5l-.2 1.9h-5.9c0 .6.2 1.1.5 1.3zm2.9-3.4c0-.8-.1-1.4-.4-1.7s-.7-.5-1.3-.5-1.1.2-1.3.5c-.3.3-.4.9-.4 1.6h3.5z"/><path d="m221.9 142v4.2c0 .3 0 .5.2.7s.2.2.5.3v2c-.8 0-1.3 0-1.7-.1-.4 0-.8-.3-1.2-.6-1 .5-1.9.7-2.9.7-2.1 0-3.1-1.1-3.1-3.3s.3-1.8.9-2.3c.6-.4 1.5-.7 2.6-.8l2.1-.2v-.6c0-.4 0-.7-.3-.9-.2-.2-.5-.2-.9-.2l-3.8.2v-1.9c1.3-.4 2.7-.6 4-.6s2.2.3 2.8.8.9 1.4.9 2.6zm-4.5 2.7c-.7 0-1.1.5-1.1 1.2s.3 1.1 1 1.1 1.1 0 1.7-.2h.3v-2.2l-1.8.2z"/><path d="m231.6 141.4c-1.7-.2-2.8-.3-3.5-.3s-1.1 0-1.3.2-.3.3-.3.6.1.4.4.5.9.2 2 .4 1.8.5 2.3 1c.5.4.7 1.2.7 2.1 0 2.2-1.3 3.2-4 3.2s-1.9-.1-3.2-.4h-.6c0-.1 0-2.4 0-2.4 1.7.2 2.8.3 3.5.3s1.1 0 1.3-.2c.2-.1.4-.3.4-.6s-.1-.4-.4-.6c-.2-.1-.9-.3-1.9-.4-1-.2-1.8-.5-2.3-.9s-.8-1.2-.8-2.2.4-1.9 1.1-2.4 1.6-.8 2.8-.8 1.9.1 3.2.4h.7v2.3z"/><path d="m233.9 137.6v-2.7h2.7v2.7zm0 11.3v-10h2.7v10z"/><path d="m243.9 138.7c1.4 0 2.4.4 3.1 1.2.6.8 1 2.1 1 4.1s-.4 3.3-1.1 4.1-2 1.1-3.9 1.1-1.6 0-3.1-.2h-.8v-14h2.7v4.3c.9-.4 1.6-.5 2.2-.5zm-1 8c.9 0 1.5-.2 1.8-.6s.5-1.2.5-2.3c0-1.8-.6-2.7-1.7-2.7s-1 0-1.5.2h-.3v5.4z"/><path d="m249.9 137.6v-2.7h2.7v2.7zm0 11.3v-10h2.7v10z"/><path d="m255.2 148.9v-14h2.7v14z"/><path d="m260.5 137.6v-2.7h2.7v2.7zm0 11.3v-10h2.7v10z"/><path d="m271.2 141.2h-2.5v4.1.9c0 .2 0 .3.2.4.1.1.3.2.6.2h1.5s.1 2.1.1 2.1c-.9.2-1.6.3-2 .3-1.2 0-2-.3-2.5-.8-.4-.5-.7-1.5-.7-3v-4.2h-1.2v-2.3h1.2v-2.8h2.7v2.8h2.5v2.3z"/><path d="m272 138.9h2.6l1.8 7.7h.5l1.8-7.7h2.6l-3.5 14.2h-2.6l1.1-4.2h-1.9l-2.5-10z"/><path d="m380.1 7.8c-1.5 0-2.2.5-2.2 1.4s.2.8.5 1 1.2.6 2.5 1 2.3.9 2.8 1.5.8 1.4.8 2.5-.4 2.5-1.3 3.2-2 1.1-3.4 1.1-2.3-.2-3.8-.5h-.7c0-.1.3-2.3.3-2.3 1.8.2 3.2.4 4.1.4 1.4 0 2.1-.6 2.1-1.8s-.2-.8-.5-1-1-.5-2-.8c-1.5-.4-2.6-1-3.3-1.6-.6-.6-.9-1.5-.9-2.5s.4-2.4 1.2-3 2-1 3.4-1 2.2.1 3.8.4h.7c0 .1-.2 2.3-.2 2.3-1.9-.2-3.2-.3-4-.3z"/><path d="m387.1 10.3c.7-.9 1.9-1.4 3.5-1.4s2.8.5 3.5 1.4 1.1 2.2 1.1 3.9c0 3.5-1.5 5.3-4.6 5.3s-4.6-1.8-4.6-5.3.4-2.9 1.1-3.9zm2 6.1c.3.5.8.7 1.5.7s1.2-.2 1.5-.7.4-1.2.4-2.3-.1-1.8-.4-2.2c-.3-.5-.8-.7-1.5-.7s-1.2.2-1.5.7-.4 1.2-.4 2.2.1 1.8.4 2.3z"/><path d="m397.3 19.2v-14h2.7v14z"/><path d="m408.5 9.2h2.7v10h-2.7v-.6c-1 .5-1.8.8-2.5.8-1.4 0-2.3-.4-2.8-1.2s-.7-2-.7-3.8v-5.2h2.7v5.3c0 1 0 1.7.2 2 .2.4.5.5 1.2.5s1.1 0 1.7-.3h.3v-7.6z"/><path d="m419.2 11.5h-2.5v4.1.9c0 .2 0 .3.2.4.1.1.3.2.6.2h1.5s.1 2.1.1 2.1c-.9.2-1.6.3-2 .3-1.2 0-2-.3-2.5-.8-.4-.5-.7-1.5-.7-3v-4.2h-1.2v-2.3h1.2v-2.8h2.7v2.8h2.5v2.3z"/><path d="m420.9 7.9v-2.7h2.7v2.7zm0 11.3v-10h2.7v10z"/><path d="m426.6 10.3c.7-.9 1.9-1.4 3.5-1.4s2.8.5 3.5 1.4 1.1 2.2 1.1 3.9c0 3.5-1.5 5.3-4.6 5.3s-4.6-1.8-4.6-5.3.4-2.9 1.1-3.9zm2.1 6.1c.3.5.8.7 1.5.7s1.2-.2 1.5-.7.4-1.2.4-2.3-.1-1.8-.4-2.2c-.3-.5-.8-.7-1.5-.7s-1.2.2-1.5.7-.4 1.2-.4 2.2.1 1.8.4 2.3z"/><path d="m439.4 19.2h-2.7v-10h2.7v.6c.9-.5 1.7-.8 2.5-.8 1.3 0 2.3.4 2.8 1.2s.8 2 .8 3.6v5.4h-2.7v-5.3c0-.9-.1-1.5-.3-1.9s-.6-.6-1.2-.6-1.1 0-1.6.3h-.2v7.6z"/><path d="m378.3 35.2v14h-2.7v-.4c-.9.4-1.7.7-2.4.7-1.5 0-2.5-.4-3-1.3-.6-.8-.9-2.2-.9-4s.3-3.1 1-4c.7-.8 1.7-1.2 3.1-1.2s1 0 1.8.2h.4v-4zm-3 11.6h.3v-5.3c-.7-.1-1.4-.2-2-.2-1.1 0-1.6 1-1.6 2.9s.1 1.8.4 2.2c.2.4.6.7 1.2.7s1.1 0 1.8-.2z"/><path d="m383.4 46.7c.3.3.8.4 1.3.4 1.2 0 2.3 0 3.3-.1h.6v1.9c-1.5.4-2.9.6-4.2.6s-2.6-.4-3.3-1.2-1-2.1-1-3.9c0-3.6 1.5-5.4 4.4-5.4s4.4 1.5 4.4 4.5l-.2 1.9h-5.9c0 .6.2 1.1.5 1.3zm3-3.4c0-.8-.1-1.4-.4-1.7s-.7-.5-1.3-.5-1.1.2-1.3.5c-.3.3-.4.9-.4 1.6h3.5z"/><path d="m394.1 41.5v7.7h-2.7v-7.7h-1.1v-2.3h1.1v-.4c0-1.4.2-2.4.6-3s1.2-.8 2.3-.8 1.1 0 1.9.2h.4v2.2c-.6 0-1.1 0-1.5 0s-.7.1-.8.3-.2.6-.2 1.1v.4h2.4v2.3z"/><path d="m398.1 37.9v-2.7h2.7v2.7zm0 11.3v-10h2.7v10z"/><path d="m405.9 49.2h-2.7v-10h2.7v.6c.9-.5 1.7-.8 2.5-.8 1.3 0 2.3.4 2.8 1.2s.8 2 .8 3.6v5.4h-2.7v-5.3c0-.9-.1-1.5-.3-1.9s-.6-.6-1.2-.6-1.1 0-1.6.3h-.2v7.6z"/><path d="m414.3 37.9v-2.7h2.7v2.7zm0 11.3v-10h2.7v10z"/><path d="m425 41.5h-2.5v4.1.9c0 .2 0 .3.2.4.1.1.3.2.6.2h1.5s.1 2.1.1 2.1c-.9.2-1.6.3-2 .3-1.2 0-2-.3-2.5-.8-.4-.5-.7-1.5-.7-3v-4.2h-1.2v-2.3h1.2v-2.8h2.7v2.8h2.5v2.3z"/><path d="m426.7 37.9v-2.7h2.7v2.7zm0 11.3v-10h2.7v10z"/><path d="m432.4 40.3c.7-.9 1.9-1.4 3.5-1.4s2.8.5 3.5 1.4 1.1 2.2 1.1 3.9c0 3.5-1.5 5.3-4.6 5.3s-4.6-1.8-4.6-5.3.4-2.9 1.1-3.9zm2.1 6.1c.3.5.8.7 1.5.7s1.2-.2 1.5-.7.4-1.2.4-2.3-.1-1.8-.4-2.2c-.3-.5-.8-.7-1.5-.7s-1.2.2-1.5.7-.4 1.2-.4 2.2.1 1.8.4 2.3z"/><path d="m445.2 49.2h-2.7v-10h2.7v.6c.9-.5 1.7-.8 2.5-.8 1.3 0 2.3.4 2.8 1.2s.8 2 .8 3.6v5.4h-2.7v-5.3c0-.9-.1-1.5-.3-1.9s-.6-.6-1.2-.6-1.1 0-1.6.3h-.2v7.6z"/><path d="m22.1 19.2h-4.6v-13.6h4.6c1.2 0 2.1.1 2.9.4.8.2 1.4.7 1.8 1.2s.7 1.2.9 2 .2 1.8.2 3 0 2.2-.2 3c-.1.8-.4 1.5-.8 2.2-.4.6-1 1.1-1.8 1.4s-1.8.4-3 .4zm2.9-5.4c0-.4 0-1 0-1.8s0-1.4 0-1.8c0-.5-.2-.9-.4-1.2s-.5-.6-.9-.8c-.4-.1-.9-.2-1.6-.2h-1.8v8.8h1.8c1 0 1.7-.3 2.2-.8.4-.4.6-1.2.7-2.2z"/><path d="m30.1 7.9v-2.7h2.7v2.7zm0 11.3v-10h2.7v10z"/><path d="m42.4 11.7c-1.7-.2-2.8-.3-3.5-.3s-1.1 0-1.3.2-.3.3-.3.6.1.4.4.5.9.2 2 .4 1.8.5 2.3 1c.5.4.7 1.2.7 2.1 0 2.2-1.3 3.2-4 3.2s-1.9-.1-3.2-.4h-.6c0-.1 0-2.4 0-2.4 1.7.2 2.8.3 3.5.3s1.1 0 1.3-.2c.2-.1.4-.3.4-.6s-.1-.4-.4-.6c-.2-.1-.9-.3-1.9-.4-1-.2-1.8-.5-2.3-.9s-.8-1.2-.8-2.2.4-1.9 1.1-2.4 1.6-.8 2.8-.8 1.9.1 3.2.4h.7v2.3z"/><path d="m48.4 9c.7 0 1.6.1 2.7.3h.5v2.2c-1.1-.1-1.8-.2-2.3-.2-.9 0-1.5.2-1.8.6s-.5 1.1-.5 2.2.1 1.8.5 2.2c.3.4.9.6 1.8.6l2.3-.2v2.1c-1.3.3-2.4.4-3.2.4-1.5 0-2.5-.4-3.2-1.2-.6-.8-1-2.2-1-4s.3-3.2 1-4 1.7-1.2 3.2-1.2z"/><path d="m54 10.3c.7-.9 1.9-1.4 3.5-1.4s2.8.5 3.5 1.4 1.1 2.2 1.1 3.9c0 3.5-1.5 5.3-4.6 5.3s-4.6-1.8-4.6-5.3.4-2.9 1.1-3.9zm2.1 6.1c.3.5.8.7 1.5.7s1.2-.2 1.5-.7.4-1.2.4-2.3-.1-1.8-.4-2.2c-.3-.5-.8-.7-1.5-.7s-1.2.2-1.5.7-.4 1.2-.4 2.2.1 1.8.4 2.3z"/><path d="m63.1 9.2h2.8l1.6 7.7h.6l1.7-7.7h2.7l-2.4 10h-4.6z"/><path d="m76.5 16.7c.3.3.8.4 1.3.4 1.2 0 2.3 0 3.3-.1h.6v1.9c-1.5.4-2.9.6-4.2.6s-2.6-.4-3.3-1.2-1-2.1-1-3.9c0-3.6 1.5-5.4 4.4-5.4s4.4 1.5 4.4 4.5l-.2 1.9h-5.9c0 .6.2 1.1.5 1.3zm3-3.4c0-.8-.1-1.4-.4-1.7s-.7-.5-1.3-.5-1.1.2-1.3.5c-.3.3-.4.9-.4 1.6h3.5z"/><path d="m84 19.2v-10h2.7v1.1c1.1-.7 2.2-1.1 3.2-1.3v2.7c-1.1.2-2 .5-2.8.7h-.4v6.8z"/><path d="m90.5 9.2h2.6l1.8 7.7h.5l1.8-7.7h2.6l-3.5 14.2h-2.6l1.1-4.2h-1.9l-2.5-10z"/><path d="m108 5.8c.7-.5 1.8-.8 3-.8s2.3.3 3 .8c.7.6 1.1 1.3 1.1 2.3s-.2 1.7-.6 2.3c-.4.5-1.1 1.2-2.1 1.9l2 2c0-.2.2-.6.2-1.2s.1-1 .1-1.4h2.6c-.2 1.6-.5 3-1 4.1l2.2 2-1.5 1.7-2.1-1.7c-.5.5-1.1.9-1.8 1.2s-1.5.5-2.3.5c-1.9 0-3.3-.4-4.1-1-.8-.7-1.2-1.7-1.2-3.1s.2-1.9.7-2.5 1.2-1.1 2.2-1.5c-.5-.7-.9-1.2-1.1-1.6s-.2-1-.2-1.6.4-1.7 1.1-2.2zm2.4 11.2c.5 0 1.1 0 1.6-.2s.9-.3 1.1-.6l-3.5-3.5c-1 .5-1.5 1.2-1.5 2.3s.8 2 2.3 2zm-.8-8.4c0 .5.3 1.1.9 1.8l.3.4c.5-.4.9-.8 1.2-1.1.2-.3.3-.7.3-1.1 0-.8-.5-1.3-1.4-1.3s-1.4.4-1.4 1.3z"/><path d="m15.2 49.2 3.1-13.6h5.2l3.1 13.6h-2.8l-.5-2.5h-4.8l-.5 2.5zm5.2-11.3-1.4 6.5h3.7l-1.4-6.5h-1z"/><path d="m35.3 41.7c-1.7-.2-2.8-.3-3.5-.3s-1.1 0-1.3.2-.3.3-.3.6.1.4.4.5.9.2 2 .4 1.8.5 2.3 1c.5.4.7 1.2.7 2.1 0 2.2-1.3 3.2-4 3.2s-1.9-.1-3.2-.4h-.6c0-.1 0-2.4 0-2.4 1.7.2 2.8.3 3.5.3s1.1 0 1.3-.2c.2-.1.4-.3.4-.6s-.1-.4-.4-.6c-.2-.1-.9-.3-1.9-.4-1-.2-1.8-.5-2.3-.9s-.8-1.2-.8-2.2.4-1.9 1.1-2.4 1.6-.8 2.8-.8 1.9.1 3.2.4h.7v2.3z"/><path d="m44.8 41.7c-1.7-.2-2.8-.3-3.5-.3s-1.1 0-1.3.2-.3.3-.3.6.1.4.4.5.9.2 2 .4 1.8.5 2.3 1c.5.4.7 1.2.7 2.1 0 2.2-1.3 3.2-4 3.2s-1.9-.1-3.2-.4h-.6c0-.1 0-2.4 0-2.4 1.7.2 2.8.3 3.5.3s1.1 0 1.3-.2c.2-.1.4-.3.4-.6s-.1-.4-.4-.6c-.2-.1-.9-.3-1.9-.4-1-.2-1.8-.5-2.3-.9s-.8-1.2-.8-2.2.4-1.9 1.1-2.4 1.6-.8 2.8-.8 1.9.1 3.2.4h.7v2.3z"/><path d="m49.7 46.7c.3.3.8.4 1.3.4 1.2 0 2.3 0 3.3-.1h.6v1.9c-1.5.4-2.9.6-4.2.6s-2.6-.4-3.3-1.2-1-2.1-1-3.9c0-3.6 1.5-5.4 4.4-5.4s4.4 1.5 4.4 4.5l-.2 1.9h-5.9c0 .6.2 1.1.5 1.3zm3-3.4c0-.8-.1-1.4-.4-1.7s-.7-.5-1.3-.5-1.1.2-1.3.5c-.3.3-.4.9-.4 1.6h3.5z"/><path d="m64.4 41.7c-1.7-.2-2.8-.3-3.5-.3s-1.1 0-1.3.2-.3.3-.3.6.1.4.4.5.9.2 2 .4 1.8.5 2.3 1c.5.4.7 1.2.7 2.1 0 2.2-1.3 3.2-4 3.2s-1.9-.1-3.2-.4h-.6c0-.1 0-2.4 0-2.4 1.7.2 2.8.3 3.5.3s1.1 0 1.3-.2c.2-.1.4-.3.4-.6s-.1-.4-.4-.6c-.2-.1-.9-.3-1.9-.4-1-.2-1.8-.5-2.3-.9s-.8-1.2-.8-2.2.4-1.9 1.1-2.4 1.6-.8 2.8-.8 1.9.1 3.2.4h.7v2.3z"/><path d="m73.8 41.7c-1.7-.2-2.8-.3-3.5-.3s-1.1 0-1.3.2-.3.3-.3.6.1.4.4.5.9.2 2 .4 1.8.5 2.3 1c.5.4.7 1.2.7 2.1 0 2.2-1.3 3.2-4 3.2s-1.9-.1-3.2-.4h-.6c0-.1 0-2.4 0-2.4 1.7.2 2.8.3 3.5.3s1.1 0 1.3-.2c.2-.1.4-.3.4-.6s-.1-.4-.4-.6c-.2-.1-.9-.3-1.9-.4-1-.2-1.8-.5-2.3-.9s-.8-1.2-.8-2.2.4-1.9 1.1-2.4 1.6-.8 2.8-.8 1.9.1 3.2.4h.7v2.3z"/><path d="m78.8 49.2h-2.7v-10h2.7v.6c.9-.5 1.7-.8 2.4-.8 1.1 0 1.9.3 2.5.9 1.2-.6 2.3-.9 3.4-.9s2.2.4 2.8 1.2c.5.8.8 2 .8 3.7v5.4h-2.7v-5.3c0-.9 0-1.5-.3-1.9-.2-.4-.6-.6-1.1-.6s-.9 0-1.6.3h-.3v2.4 5.2h-2.7v-5.1c0-1 0-1.7-.3-2.1-.2-.4-.6-.6-1.1-.6s-1 0-1.5.3h-.2v7.6z"/><path d="m95.6 46.7c.3.3.8.4 1.3.4 1.2 0 2.3 0 3.3-.1h.6v1.9c-1.5.4-2.9.6-4.2.6s-2.6-.4-3.3-1.2-1-2.1-1-3.9c0-3.6 1.5-5.4 4.4-5.4s4.4 1.5 4.4 4.5l-.2 1.9h-5.9c0 .6.2 1.1.5 1.3zm2.9-3.4c0-.8-.1-1.4-.4-1.7s-.7-.5-1.3-.5-1.1.2-1.3.5c-.3.3-.4.9-.4 1.6h3.5z"/><path d="m105.8 49.2h-2.7v-10h2.7v.6c.9-.5 1.7-.8 2.5-.8 1.3 0 2.3.4 2.8 1.2s.8 2 .8 3.6v5.4h-2.7v-5.3c0-.9-.1-1.5-.3-1.9s-.6-.6-1.2-.6-1.1 0-1.6.3h-.2v7.6z"/><path d="m119.7 41.5h-2.5v4.1.9c0 .2 0 .3.2.4.1.1.3.2.6.2h1.5s.1 2.1.1 2.1c-.9.2-1.6.3-2 .3-1.2 0-2-.3-2.5-.8-.4-.5-.7-1.5-.7-3v-4.2h-1.2v-2.3h1.2v-2.8h2.7v2.8h2.5v2.3z"/><path d="m546.6 107.2c-1.5 0-2.2.5-2.2 1.4s.2.8.5 1 1.2.6 2.5 1 2.3.9 2.8 1.5.8 1.4.8 2.5-.4 2.5-1.3 3.2-2 1.1-3.4 1.1-2.3-.2-3.8-.5h-.7c0-.1.3-2.3.3-2.3 1.8.2 3.2.4 4.1.4 1.4 0 2.1-.6 2.1-1.8s-.2-.8-.5-1-1-.5-2-.8c-1.5-.4-2.6-1-3.3-1.6-.6-.6-.9-1.5-.9-2.5s.4-2.4 1.2-3 2-1 3.4-1 2.2.1 3.8.4h.7c0 .1-.2 2.3-.2 2.3-1.9-.2-3.2-.3-4-.3z"/><path d="m553.6 109.7c.7-.9 1.9-1.4 3.5-1.4s2.8.5 3.5 1.4 1.1 2.2 1.1 3.9c0 3.5-1.5 5.3-4.6 5.3s-4.6-1.8-4.6-5.3.4-2.9 1.1-3.9zm2 6.1c.3.5.8.7 1.5.7s1.2-.2 1.5-.7.4-1.2.4-2.3-.1-1.8-.4-2.2c-.3-.5-.8-.7-1.5-.7s-1.2.2-1.5.7-.4 1.2-.4 2.2.1 1.8.4 2.3z"/><path d="m563.8 118.6v-14h2.7v14z"/><path d="m575 108.6h2.7v10h-2.7v-.6c-1 .5-1.8.8-2.5.8-1.4 0-2.3-.4-2.8-1.2s-.7-2-.7-3.8v-5.2h2.7v5.3c0 1 0 1.7.2 2 .2.4.5.5 1.2.5s1.1 0 1.7-.3h.3v-7.6z"/><path d="m585.7 110.9h-2.5v4.1.9c0 .2 0 .3.2.4.1.1.3.2.6.2h1.5s.1 2.1.1 2.1c-.9.2-1.6.3-2 .3-1.2 0-2-.3-2.5-.8-.4-.5-.7-1.5-.7-3v-4.2h-1.2v-2.3h1.2v-2.8h2.7v2.8h2.5v2.3z"/><path d="m587.4 107.3v-2.7h2.7v2.7zm0 11.3v-10h2.7v10z"/><path d="m593.1 109.7c.7-.9 1.9-1.4 3.5-1.4s2.8.5 3.5 1.4 1.1 2.2 1.1 3.9c0 3.5-1.5 5.3-4.6 5.3s-4.6-1.8-4.6-5.3.4-2.9 1.1-3.9zm2.1 6.1c.3.5.8.7 1.5.7s1.2-.2 1.5-.7.4-1.2.4-2.3-.1-1.8-.4-2.2c-.3-.5-.8-.7-1.5-.7s-1.2.2-1.5.7-.4 1.2-.4 2.2.1 1.8.4 2.3z"/><path d="m605.9 118.6h-2.7v-10h2.7v.6c.9-.5 1.7-.8 2.5-.8 1.3 0 2.3.4 2.8 1.2s.8 2 .8 3.6v5.4h-2.7v-5.3c0-.9-.1-1.5-.3-1.9s-.6-.6-1.2-.6-1.1 0-1.6.3h-.2v7.6z"/><path d="m621.4 111.1c-1.7-.2-2.8-.3-3.5-.3s-1.1 0-1.3.2-.3.3-.3.6.1.4.4.5.9.2 2 .4 1.8.5 2.3 1c.5.4.7 1.2.7 2.1 0 2.2-1.3 3.2-4 3.2s-1.9-.1-3.2-.4h-.6c0-.1 0-2.4 0-2.4 1.7.2 2.8.3 3.5.3s1.1 0 1.3-.2c.2-.1.4-.3.4-.6s-.1-.4-.4-.6c-.2-.1-.9-.3-1.9-.4-1-.2-1.8-.5-2.3-.9s-.8-1.2-.8-2.2.4-1.9 1.1-2.4 1.6-.8 2.8-.8 1.9.1 3.2.4h.7v2.3z"/><path d="m538 141.7v4.2c0 .3 0 .5.2.7s.2.2.5.3v2c-.8 0-1.3 0-1.7-.1-.4 0-.8-.3-1.2-.6-1 .5-1.9.7-2.9.7-2.1 0-3.1-1.1-3.1-3.3s.3-1.8.9-2.3c.6-.4 1.5-.7 2.6-.8l2.1-.2v-.6c0-.4 0-.7-.3-.9-.2-.2-.5-.2-.9-.2l-3.8.2v-1.9c1.3-.4 2.7-.6 4-.6s2.2.3 2.8.8.9 1.4.9 2.6zm-4.5 2.7c-.7 0-1.1.5-1.1 1.2s.3 1.1 1 1.1 1.1 0 1.7-.2h.3v-2.2l-1.8.2z"/><path d="m540.6 148.6v-10h2.7v1.1c1.1-.7 2.2-1.1 3.2-1.3v2.7c-1.1.2-2 .5-2.8.7h-.4v6.8z"/><path d="m551.7 138.4c.7 0 1.6.1 2.7.3h.5v2.2c-1.1-.1-1.8-.2-2.3-.2-.9 0-1.5.2-1.8.6s-.5 1.1-.5 2.2.1 1.8.5 2.2c.3.4.9.6 1.8.6l2.3-.2v2.1c-1.3.3-2.4.4-3.2.4-1.5 0-2.5-.4-3.2-1.2-.6-.8-1-2.2-1-4s.3-3.2 1-4 1.7-1.2 3.2-1.2z"/><path d="m559.6 148.6h-2.7v-14h2.7v4.5c.9-.5 1.7-.7 2.5-.7 1.3 0 2.3.4 2.8 1.2s.8 2 .8 3.6v5.4h-2.7v-5.4c0-.8-.1-1.5-.3-1.9s-.6-.6-1.2-.6-1 0-1.6.2h-.3v7.6z"/><path d="m568 137.3v-2.7h2.7v2.7zm0 11.3v-10h2.7v10z"/><path d="m578.7 140.9h-2.5v4.1.9c0 .2 0 .3.2.4.1.1.3.2.6.2h1.5s.1 2.1.1 2.1c-.9.2-1.6.3-2 .3-1.2 0-2-.3-2.5-.8-.4-.5-.7-1.5-.7-3v-4.2h-1.2v-2.3h1.2v-2.8h2.7v2.8h2.5v2.3z"/><path d="m583.1 146.1c.3.3.8.4 1.3.4 1.2 0 2.3 0 3.3-.1h.6v1.9c-1.5.4-2.9.6-4.2.6s-2.6-.4-3.3-1.2-1-2.1-1-3.9c0-3.6 1.5-5.4 4.4-5.4s4.4 1.5 4.4 4.5l-.2 1.9h-5.9c0 .6.2 1.1.5 1.3zm3-3.4c0-.8-.1-1.4-.4-1.7s-.7-.5-1.3-.5-1.1.2-1.3.5c-.3.3-.4.9-.4 1.6h3.5z"/><path d="m594.4 138.4c.7 0 1.6.1 2.7.3h.5v2.2c-1.1-.1-1.8-.2-2.3-.2-.9 0-1.5.2-1.8.6s-.5 1.1-.5 2.2.1 1.8.5 2.2c.3.4.9.6 1.8.6l2.3-.2v2.1c-1.3.3-2.4.4-3.2.4-1.5 0-2.5-.4-3.2-1.2-.6-.8-1-2.2-1-4s.3-3.2 1-4 1.7-1.2 3.2-1.2z"/><path d="m605.1 140.9h-2.5v4.1.9c0 .2 0 .3.2.4.1.1.3.2.6.2h1.5s.1 2.1.1 2.1c-.9.2-1.6.3-2 .3-1.2 0-2-.3-2.5-.8-.4-.5-.7-1.5-.7-3v-4.2h-1.2v-2.3h1.2v-2.8h2.7v2.8h2.5v2.3z"/><path d="m612.7 138.6h2.7v10h-2.7v-.6c-1 .5-1.8.8-2.5.8-1.4 0-2.3-.4-2.8-1.2s-.7-2-.7-3.8v-5.2h2.7v5.3c0 1 0 1.7.2 2 .2.4.5.5 1.2.5s1.1 0 1.7-.3h.3v-7.6z"/><path d="m617.9 148.6v-10h2.7v1.1c1.1-.7 2.2-1.1 3.2-1.3v2.7c-1.1.2-2 .5-2.8.7h-.4v6.8z"/><path d="m628 146.1c.3.3.8.4 1.3.4 1.2 0 2.3 0 3.3-.1h.6v1.9c-1.5.4-2.9.6-4.2.6s-2.6-.4-3.3-1.2-1-2.1-1-3.9c0-3.6 1.5-5.4 4.4-5.4s4.4 1.5 4.4 4.5l-.2 1.9h-5.9c0 .6.2 1.1.5 1.3zm3-3.4c0-.8-.1-1.4-.4-1.7s-.7-.5-1.3-.5-1.1.2-1.3.5c-.3.3-.4.9-.4 1.6h3.5z"/><path d="m701.1 49.2h-4.6v-13.6h4.6c1.2 0 2.1.1 2.9.4.8.2 1.4.7 1.8 1.2s.7 1.2.9 2 .2 1.8.2 3 0 2.2-.2 3-.4 1.5-.8 2.2c-.4.6-1 1.1-1.8 1.4s-1.8.4-3 .4zm2.9-5.4c0-.4 0-1 0-1.8s0-1.4 0-1.8c0-.5-.2-.9-.4-1.2s-.5-.6-.9-.8c-.4-.1-.9-.2-1.6-.2h-1.8v8.8h1.8c1 0 1.7-.3 2.2-.8.4-.4.6-1.2.7-2.2z"/><path d="m711.7 46.7c.3.3.8.4 1.3.4 1.2 0 2.3 0 3.3-.1h.6v1.9c-1.5.4-2.9.6-4.2.6s-2.6-.4-3.3-1.2-1-2.1-1-3.9c0-3.6 1.5-5.4 4.4-5.4s4.4 1.5 4.4 4.5l-.2 1.9h-5.9c0 .6.2 1.1.5 1.3zm2.9-3.4c0-.8-.1-1.4-.4-1.7s-.7-.5-1.3-.5-1.1.2-1.3.5-.4.9-.4 1.6h3.5z"/><path d="m718.1 39.2h2.8l1.6 7.7h.6l1.7-7.7h2.7l-2.4 10h-4.6z"/><path d="m731.6 46.7c.3.3.8.4 1.3.4 1.2 0 2.3 0 3.3-.1h.6v1.9c-1.5.4-2.9.6-4.2.6s-2.6-.4-3.3-1.2-1-2.1-1-3.9c0-3.6 1.5-5.4 4.4-5.4s4.4 1.5 4.4 4.5l-.2 1.9h-5.9c0 .6.2 1.1.5 1.3zm2.9-3.4c0-.8-.1-1.4-.4-1.7s-.7-.5-1.3-.5-1.1.2-1.3.5c-.3.3-.4.9-.4 1.6h3.5z"/><path d="m739.2 49.2v-14h2.7v14z"/><path d="m745 40.3c.7-.9 1.9-1.4 3.5-1.4s2.8.5 3.5 1.4 1.1 2.2 1.1 3.9c0 3.5-1.5 5.3-4.6 5.3s-4.6-1.8-4.6-5.3.4-2.9 1.1-3.9zm2.1 6.1c.3.5.8.7 1.5.7s1.2-.2 1.5-.7.4-1.2.4-2.3-.1-1.8-.4-2.2c-.3-.5-.8-.7-1.5-.7s-1.2.2-1.5.7-.4 1.2-.4 2.2.1 1.8.4 2.3z"/><path d="m755.1 53.4v-14.2h2.7v.5c.9-.5 1.6-.8 2.3-.8 1.3 0 2.3.4 3 1.2.6.8 1 2.2 1 4.1s-.4 3.3-1.1 4c-.7.8-1.9 1.1-3.5 1.1s-.9 0-1.4-.1h-.2s0 4.1 0 4.1h-2.7zm4.5-12c-.5 0-1 0-1.5.3h-.2v5.3c.6 0 1.1.1 1.5.1.8 0 1.3-.2 1.6-.7s.4-1.2.4-2.3c0-1.8-.6-2.8-1.7-2.8z"/><path d="m768.7 49.2h-2.7v-10h2.7v.6c.9-.5 1.7-.8 2.4-.8 1.1 0 1.9.3 2.5.9 1.2-.6 2.3-.9 3.4-.9s2.2.4 2.8 1.2.8 2 .8 3.7v5.4h-2.7v-5.3c0-.9 0-1.5-.3-1.9-.2-.4-.6-.6-1.1-.6s-.9 0-1.6.3h-.3v2.4 5.2h-2.7v-5.1c0-1 0-1.7-.3-2.1-.2-.4-.6-.6-1.1-.6s-1 0-1.5.3h-.2v7.6z"/><path d="m785.5 46.7c.3.3.8.4 1.3.4 1.2 0 2.3 0 3.3-.1h.6v1.9c-1.5.4-2.9.6-4.2.6s-2.6-.4-3.3-1.2-1-2.1-1-3.9c0-3.6 1.5-5.4 4.4-5.4s4.4 1.5 4.4 4.5l-.2 1.9h-5.9c0 .6.2 1.1.5 1.3zm2.9-3.4c0-.8-.1-1.4-.4-1.7s-.7-.5-1.3-.5-1.1.2-1.3.5-.4.9-.4 1.6h3.5z"/><path d="m795.7 49.2h-2.7v-10h2.7v.6c.9-.5 1.7-.8 2.5-.8 1.3 0 2.3.4 2.8 1.2s.8 2 .8 3.6v5.4h-2.7v-5.3c0-.9 0-1.5-.3-1.9-.2-.4-.6-.6-1.2-.6s-1.1 0-1.6.3h-.2v7.6z"/><path d="m809.6 41.5h-2.5v4.1.9c0 .2 0 .3.2.4s.3.2.6.2h1.5s.1 2.1.1 2.1c-.9.2-1.6.3-2 .3-1.2 0-2-.3-2.5-.8-.4-.5-.7-1.5-.7-3v-4.2h-1.2v-2.3h1.2v-2.8h2.7v2.8h2.5v2.3z"/><path d="m1064.7 7.5v-2.4h10v2.4h-3.6v11.2h-2.8v-11.2z"/><path d="m1077.5 16.2c.3.3.8.4 1.3.4 1.2 0 2.3 0 3.3-.1h.6v1.9c-1.5.4-2.9.6-4.2.6s-2.6-.4-3.3-1.2-1-2.1-1-3.9c0-3.6 1.5-5.4 4.4-5.4s4.4 1.5 4.4 4.5l-.2 1.9h-5.9c0 .6.2 1.1.5 1.3zm2.9-3.4c0-.8-.1-1.4-.4-1.7s-.7-.5-1.3-.5-1.1.2-1.3.5-.4.9-.4 1.6h3.5z"/><path d="m1092.2 11.2c-1.7-.2-2.8-.3-3.5-.3s-1.1 0-1.3.2-.3.3-.3.6.1.4.4.5.9.2 2 .4 1.8.5 2.3 1c.5.4.7 1.2.7 2.1 0 2.2-1.3 3.2-4 3.2s-1.9-.1-3.2-.4h-.6c0-.1 0-2.4 0-2.4 1.7.2 2.8.3 3.5.3s1.1 0 1.3-.2.4-.3.4-.6-.1-.4-.4-.6c-.2-.1-.9-.3-1.9-.4-1-.2-1.8-.5-2.3-.9s-.8-1.2-.8-2.2.4-1.9 1.1-2.4 1.6-.8 2.8-.8 1.9.1 3.2.4h.7v2.3z"/><path d="m1100 11h-2.5v4.1.9c0 .2 0 .3.2.4s.3.2.6.2h1.5s.1 2.1.1 2.1c-.9.2-1.6.3-2 .3-1.2 0-2-.3-2.5-.8-.4-.5-.7-1.5-.7-3v-4.2h-1.2v-2.3h1.2v-2.8h2.7v2.8h2.5v2.3z"/><path d="m1101.7 7.4v-2.7h2.7v2.7zm0 11.3v-10h2.7v10z"/><path d="m1109.6 18.7h-2.7v-10h2.7v.6c.9-.5 1.7-.8 2.5-.8 1.3 0 2.3.4 2.8 1.2s.8 2 .8 3.6v5.4h-2.7v-5.3c0-.9-.1-1.5-.3-1.9s-.6-.6-1.2-.6-1.1 0-1.6.3h-.2v7.6z"/><path d="m1127 20c0 1.1-.4 2-1.3 2.5s-2.1.8-3.6.8-2.7-.2-3.5-.6-1.2-1.1-1.2-2.2.5-1.6 1.4-2.4c-.5-.3-.7-.8-.7-1.5s.2-.7.6-1.3l.2-.3c-.9-.7-1.4-1.6-1.4-2.9s.4-2.2 1.2-2.8 1.8-.9 3-.9 1.1 0 1.7.2h.3 3.2v2.1h-1.5c.3.3.4.8.4 1.2 0 1.3-.3 2.3-1 2.8s-1.7.8-3.2.8-.6 0-.8 0c-.1.3-.2.6-.2.8s.1.4.3.5.8.1 1.6.1c1.7 0 2.8.2 3.4.7.6.4.9 1.2.9 2.4zm-6.9.2c0 .6.7.9 2.1.9s2.1-.3 2.1-1-.1-.6-.4-.7c-.2 0-.7-.2-1.5-.2h-1.8c-.4.2-.5.6-.5 1zm.1-8.2c0 1 .5 1.5 1.5 1.5s1.5-.5 1.5-1.5-.5-1.5-1.5-1.5-1.5.5-1.5 1.5z"/><path d="m1078.2 35.3c.7-.5 1.8-.8 3-.8s2.3.3 3 .8c.7.6 1.1 1.3 1.1 2.3s-.2 1.7-.6 2.3c-.4.5-1.1 1.2-2.1 1.9l2 2c0-.2.2-.6.2-1.2s.1-1 .1-1.4h2.6c-.2 1.6-.5 3-1 4.1l2.2 2-1.5 1.7-2.1-1.7c-.5.5-1.1.9-1.8 1.2s-1.5.5-2.3.5c-1.9 0-3.3-.4-4.1-1-.8-.7-1.2-1.7-1.2-3.1s.2-1.9.7-2.5 1.2-1.1 2.2-1.5c-.5-.7-.9-1.2-1.1-1.6s-.2-1-.2-1.6.4-1.7 1.1-2.2zm2.4 11.2c.5 0 1.1 0 1.6-.2s.9-.3 1.1-.6l-3.5-3.5c-1 .5-1.5 1.2-1.5 2.3s.8 2 2.3 2zm-.8-8.4c0 .5.3 1.1.9 1.8l.3.4c.5-.4.9-.8 1.2-1.1.2-.3.3-.7.3-1.1 0-.8-.5-1.3-1.4-1.3s-1.4.4-1.4 1.3z"/><path d="m1099.8 48.9c-2.1 0-3.5-.6-4.4-1.7-.8-1.1-1.3-2.9-1.3-5.3s.4-4.2 1.3-5.4 2.3-1.8 4.4-1.8 3.5.6 4.4 1.8 1.3 3 1.3 5.4-.7 5-2.1 6l1.7 2.7-2.5 1.2-1.8-2.9c-.1 0-.4 0-.9 0zm-2.2-3.4c.4.7 1.1 1 2.2 1s1.8-.3 2.2-1 .6-1.9.6-3.5-.2-2.9-.6-3.6-1.1-1.1-2.2-1.1-1.8.4-2.2 1.1-.6 1.9-.6 3.6.2 2.8.6 3.5z"/><path d="m1106.4 48.7 3.1-13.6h5.2l3.1 13.6h-2.8l-.5-2.5h-4.8l-.5 2.5zm5.2-11.3-1.4 6.5h3.7l-1.4-6.5h-1z"/><path d="m877.4 118.5v-13.6h2.8v13.6z"/><path d="m885.5 118.5h-2.7v-10h2.7v.6c.9-.5 1.7-.8 2.5-.8 1.3 0 2.3.4 2.8 1.2s.8 2 .8 3.6v5.4h-2.7v-5.3c0-.9 0-1.5-.3-1.9-.2-.4-.6-.6-1.2-.6s-1.1 0-1.6.3h-.2v7.6z"/><path d="m899.5 110.8h-2.5v4.1.9c0 .2 0 .3.2.4.1.1.3.2.6.2h1.5s.1 2.1.1 2.1c-.9.2-1.6.3-2 .3-1.2 0-2-.3-2.5-.8s-.7-1.5-.7-3v-4.2h-1.2v-2.3h1.2v-2.8h2.7v2.8h2.5v2.3z"/><path d="m903.9 116c.3.3.8.4 1.3.4 1.2 0 2.3 0 3.3-.1h.6v1.9c-1.5.4-2.9.6-4.2.6s-2.6-.4-3.3-1.2-1-2.1-1-3.9c0-3.6 1.5-5.4 4.4-5.4s4.4 1.5 4.4 4.5l-.2 1.9h-5.9c0 .6.2 1.1.5 1.3zm2.9-3.4c0-.8-.1-1.4-.4-1.7s-.7-.5-1.3-.5-1.1.2-1.3.5-.4.9-.4 1.6h3.5z"/><path d="m920.5 119.8c0 1.1-.4 2-1.3 2.5s-2.1.8-3.6.8-2.7-.2-3.5-.6-1.2-1.1-1.2-2.2.5-1.6 1.4-2.4c-.5-.3-.7-.8-.7-1.5s.2-.7.6-1.3l.2-.3c-.9-.7-1.4-1.6-1.4-2.9s.4-2.2 1.1-2.8 1.8-.9 3.1-.9 1.1 0 1.7.2h.3 3.2v2.1h-1.5c.3.3.4.8.4 1.2 0 1.3-.3 2.3-1 2.8s-1.7.8-3.2.8-.6 0-.8 0c-.1.3-.2.6-.2.8s.1.4.3.5.8.1 1.6.1c1.7 0 2.8.2 3.4.7.6.4.9 1.2.9 2.4zm-7 .2c0 .6.7.9 2.1.9s2.1-.3 2.1-1-.1-.6-.4-.7-.7-.2-1.5-.2h-1.8c-.4.2-.5.6-.5 1zm.2-8.2c0 1 .5 1.5 1.5 1.5s1.5-.5 1.5-1.5-.5-1.5-1.5-1.5-1.5.5-1.5 1.5z"/><path d="m922.1 118.5v-10h2.7v1.1c1.1-.7 2.2-1.1 3.2-1.3v2.7c-1.1.2-2 .5-2.8.7h-.4v6.8z"/><path d="m937.2 111.6v4.2c0 .3 0 .5.2.7s.2.2.5.3v2c-.8 0-1.3 0-1.7-.1-.4 0-.8-.3-1.2-.6-1 .5-1.9.7-2.9.7-2.1 0-3.1-1.1-3.1-3.3s.3-1.8.9-2.3c.6-.4 1.5-.7 2.6-.8l2.1-.2v-.6c0-.4 0-.7-.3-.9-.2-.2-.5-.2-.9-.2l-3.8.2v-1.9c1.3-.4 2.7-.6 4-.6s2.2.3 2.8.8.8 1.4.8 2.6zm-4.5 2.7c-.7 0-1.1.5-1.1 1.2s.3 1.1 1 1.1 1.1 0 1.7-.2h.3v-2.2l-1.8.2z"/><path d="m945.3 110.8h-2.5v4.1.9c0 .2 0 .3.2.4.1.1.3.2.6.2h1.5s.1 2.1.1 2.1c-.9.2-1.6.3-2 .3-1.2 0-2-.3-2.5-.8s-.7-1.5-.7-3v-4.2h-1.2v-2.3h1.2v-2.8h2.7v2.8h2.5v2.3z"/><path d="m947 107.2v-2.7h2.7v2.7zm0 11.3v-10h2.7v10z"/><path d="m952.7 109.6c.7-.9 1.9-1.4 3.5-1.4s2.8.5 3.5 1.4 1.1 2.2 1.1 3.9c0 3.5-1.5 5.3-4.6 5.3s-4.6-1.8-4.6-5.3.4-2.9 1.1-3.9zm2.1 6.1c.3.5.8.7 1.5.7s1.2-.2 1.5-.7.4-1.2.4-2.3-.1-1.8-.4-2.2-.8-.7-1.5-.7-1.2.2-1.5.7-.4 1.2-.4 2.2.1 1.8.4 2.3z"/><path d="m965.5 118.5h-2.7v-10h2.7v.6c.9-.5 1.7-.8 2.5-.8 1.3 0 2.3.4 2.8 1.2s.8 2 .8 3.6v5.4h-2.7v-5.3c0-.9-.1-1.5-.3-1.9s-.6-.6-1.2-.6-1.1 0-1.6.3h-.2v7.6z"/><path d="m1237.2 118.5v-13.6h4.7l2.4 9.9 2.4-9.9h4.7v13.6h-2.8v-10.5h-.3l-2.7 9.9h-2.8l-2.7-9.9h-.3v10.5h-2.8z"/><path d="m1261.8 111.6v4.2c0 .3 0 .5.2.7s.2.2.5.3v2c-.8 0-1.3 0-1.7-.1-.4 0-.8-.3-1.2-.6-1 .5-1.9.7-2.9.7-2.1 0-3.1-1.1-3.1-3.3s.3-1.8.9-2.3c.6-.4 1.5-.7 2.6-.8l2.1-.2v-.6c0-.4 0-.7-.3-.9-.2-.2-.5-.2-.9-.2l-3.8.2v-1.9c1.3-.4 2.7-.6 4-.6s2.2.3 2.8.8.9 1.4.9 2.6zm-4.5 2.7c-.7 0-1.1.5-1.1 1.2s.3 1.1 1 1.1 1.1 0 1.7-.2h.3v-2.2l-1.8.2z"/><path d="m1264.4 118.5v-10h2.7v1.1c1.1-.7 2.2-1.1 3.2-1.3v2.7c-1.1.2-2 .5-2.8.7h-.4v6.8z"/><path d="m1274.5 118.5h-2.7v-14h2.7v8l1-.2 2-3.8h3l-2.6 4.7 2.7 5.3h-3l-2-3.9-1.1.2z"/><path d="m1284.6 116c.3.3.8.4 1.3.4 1.2 0 2.3 0 3.3-.1h.6v1.9c-1.5.4-2.9.6-4.2.6s-2.6-.4-3.3-1.2-1-2.1-1-3.9c0-3.6 1.5-5.4 4.4-5.4s4.4 1.5 4.4 4.5l-.2 1.9h-5.9c0 .6.2 1.1.5 1.3zm3-3.4c0-.8-.1-1.4-.4-1.7s-.7-.5-1.3-.5-1.1.2-1.3.5c-.3.3-.4.9-.4 1.6h3.5z"/><path d="m1297.7 110.8h-2.5v4.1.9c0 .2 0 .3.2.4.1.1.3.2.6.2h1.5s.1 2.1.1 2.1c-.9.2-1.6.3-2 .3-1.2 0-2-.3-2.5-.8s-.7-1.5-.7-3v-4.2h-1.2v-2.3h1.2v-2.8h2.7v2.8h2.5v2.3z"/></g></svg>