<svg viewBox="0 0 394.5 1067.5" xmlns="http://www.w3.org/2000/svg" xmlns:xlink="http://www.w3.org/1999/xlink"><linearGradient id="a"><stop offset="0" stop-color="#4b62fb"/><stop offset="1" stop-color="#eb5c21"/></linearGradient><linearGradient id="b" gradientTransform="matrix(0 -1 -1 -0 -2962.5 -42.8)" gradientUnits="userSpaceOnUse" x1="-1044.1" x2="-131" xlink:href="#a" y1="-3159.7" y2="-3159.7"/><linearGradient id="c" gradientTransform="matrix(-1 -0 -0 1 -4220.3 -840.8)" gradientUnits="userSpaceOnUse" x1="-4417.6" x2="-4417.6" xlink:href="#a" y1="1847" y2="636"/><linearGradient id="d" gradientTransform="matrix(-1 -0 -0 1 -4220.3 -840.8)" gradientUnits="userSpaceOnUse" x1="-4417.6" x2="-4417.6" xlink:href="#a" y1="1880.1" y2="690.6"/><linearGradient id="e" gradientTransform="matrix(-1 -0 -0 1 -4220.3 -840.8)" gradientUnits="userSpaceOnUse" x1="-4417.6" x2="-4417.6" xlink:href="#a" y1="1957.4" y2="767.4"/><linearGradient id="f" gradientTransform="matrix(-1 -0 -0 1 -4220.3 -840.8)" gradientUnits="userSpaceOnUse" x1="-4417.6" x2="-4417.6" xlink:href="#a" y1="1996" y2="806.5"/><linearGradient id="g" gradientTransform="matrix(-1 -0 -0 1 -4220.3 -840.8)" gradientUnits="userSpaceOnUse" x1="-4417.6" x2="-4417.6" xlink:href="#a" y1="2073.7" y2="884.2"/><linearGradient id="h" gradientTransform="matrix(-1 -0 -0 1 -4220.3 -840.8)" gradientUnits="userSpaceOnUse" x1="-4417.6" x2="-4417.6" xlink:href="#a" y1="2112" y2="922"/><linearGradient id="i" gradientTransform="matrix(-1 -0 -0 1 -4220.3 -840.8)" gradientUnits="userSpaceOnUse" x1="-4417.6" x2="-4417.6" xlink:href="#a" y1="1918.8" y2="728.8"/><linearGradient id="j" gradientTransform="matrix(-1 -0 -0 1 -4220.3 -840.8)" gradientUnits="userSpaceOnUse" x1="-4417.6" x2="-4417.6" xlink:href="#a" y1="2035.1" y2="845.1"/><path d="m197.2 1001.3v-920" fill="none" stroke="url(#b)" stroke-width="2"/><path d="m192.2 996.3h10v10h-10z" fill="url(#c)"/><path d="m192.2 864.9h10v10h-10z" fill="url(#d)"/><path d="m192.2 602.1h10v10h-10z" fill="url(#e)"/><path d="m192.2 470.7h10v10h-10z" fill="url(#f)"/><path d="m192.2 207.9h10v10h-10z" fill="url(#g)"/><path d="m192.2 76.3h10v10h-10z" fill="url(#h)"/><path d="m192.2 733.5h10v10h-10z" fill="url(#i)"/><path d="m192.2 339.3h10v10h-10z" fill="url(#j)"/><g fill="#fff"><path d="m59.2 191.6v-2.4h10v2.4h-3.6v11.2h-2.8v-11.2z"/><path d="m72 200.3c.3.3.8.4 1.3.4h3.9v1.9c-1.5.4-2.9.6-4.2.6s-2.6-.4-3.3-1.2-1-2.1-1-3.9c0-3.6 1.5-5.4 4.4-5.4s4.4 1.5 4.4 4.5l-.2 1.9h-5.9c0 .6.2 1.1.5 1.3h.1zm2.9-3.4c0-.8 0-1.4-.4-1.7-.3-.3-.7-.5-1.3-.5s-1.1.2-1.3.5c-.3.3-.4.9-.4 1.6h3.5z"/><path d="m83.2 192.6c.7 0 1.6 0 2.7.3h.5v2.2c-1.1 0-1.8-.2-2.3-.2-.9 0-1.5.2-1.8.6s-.5 1.1-.5 2.2 0 1.8.5 2.2c.3.4.9.6 1.8.6l2.3-.2v2.1c-1.3.3-2.4.4-3.2.4-1.5 0-2.5-.4-3.2-1.2-.6-.8-1-2.2-1-4s.3-3.2 1-4 1.7-1.2 3.2-1.2z"/><path d="m91.1 202.8h-2.7v-14h2.7v4.5c.9-.5 1.7-.7 2.5-.7 1.3 0 2.3.4 2.8 1.2s.8 2 .8 3.6v5.4h-2.7v-5.4c0-.8 0-1.5-.3-1.9s-.6-.6-1.2-.6-1 0-1.6.2h-.3v7.6z"/><path d="m102.1 202.8h-2.7v-10h2.7v.6c.9-.5 1.7-.8 2.5-.8 1.3 0 2.3.4 2.8 1.2s.8 2 .8 3.6v5.4h-2.7v-5.3c0-.9 0-1.5-.3-1.9s-.6-.6-1.2-.6-1.1 0-1.6.3h-.2v7.6h-.1z"/><path d="m110.5 191.5v-2.7h2.7v2.7zm0 11.3v-10h2.7v10z"/><path d="m119.4 192.6c.7 0 1.6 0 2.7.3h.5v2.2c-1.1 0-1.8-.2-2.3-.2-.9 0-1.5.2-1.8.6s-.5 1.1-.5 2.2 0 1.8.5 2.2c.3.4.9.6 1.8.6l2.3-.2v2.1c-1.3.3-2.4.4-3.2.4-1.5 0-2.5-.4-3.2-1.2-.6-.8-1-2.2-1-4s.3-3.2 1-4 1.7-1.2 3.2-1.2z"/><path d="m132.3 195.9v4.2c0 .3 0 .5.2.7s.2.2.5.3v2h-1.7c-.4 0-.8-.3-1.2-.6-1 .5-1.9.7-2.9.7-2.1 0-3.1-1.1-3.1-3.3s.3-1.8.9-2.3c.6-.4 1.5-.7 2.6-.8l2.1-.2v-.6c0-.4 0-.7-.3-.9-.2-.2-.5-.2-.9-.2l-3.8.2v-1.9c1.3-.4 2.7-.6 4-.6s2.2.3 2.8.8.9 1.4.9 2.6zm-4.5 2.7c-.7 0-1.1.5-1.1 1.2s.3 1.1 1 1.1 1.1 0 1.7-.2h.3v-2.2l-1.8.2z"/><path d="m134.9 202.8v-14h2.7v14z"/><path d="m61 225.1v7.7h-2.7v-7.7h-1.1v-2.3h1.1v-.4c0-1.4.2-2.4.6-3s1.2-.8 2.3-.8 1.1 0 1.9.2h.4v2.2h-1.5c-.4 0-.7.1-.8.3s-.2.6-.2 1.1v.4h2.4v2.3z"/><path d="m67.6 230.3c.3.3.8.4 1.3.4 1.2 0 2.3 0 3.3-.1h.6v1.9c-1.5.4-2.9.6-4.2.6s-2.6-.4-3.3-1.2-1-2.1-1-3.9c0-3.6 1.5-5.4 4.4-5.4s4.4 1.5 4.4 4.5l-.2 1.9h-5.9c0 .6.2 1.1.5 1.3zm2.9-3.4c0-.8 0-1.4-.4-1.7-.3-.3-.7-.5-1.3-.5s-1.1.2-1.3.5c-.3.3-.4.9-.4 1.6h3.5z"/><path d="m82.8 225.9v4.2c0 .3 0 .5.2.7s.2.2.5.3v2c-.8 0-1.3 0-1.7-.1-.4 0-.8-.3-1.2-.6-1 .5-1.9.7-2.9.7-2.1 0-3.1-1.1-3.1-3.3s.3-1.8.9-2.3c.6-.4 1.5-.7 2.6-.8l2.1-.2v-.6c0-.4 0-.7-.3-.9-.2-.2-.5-.2-.9-.2l-3.8.2v-1.9c1.3-.4 2.7-.6 4-.6s2.2.3 2.8.8.9 1.4.9 2.6zm-4.5 2.7c-.7 0-1.1.5-1.1 1.2s.3 1.1 1 1.1 1.1 0 1.7-.2h.3v-2.2l-1.8.2h-.1z"/><path d="m92.5 225.3c-1.7-.2-2.8-.3-3.5-.3s-1.1 0-1.3.2-.3.3-.3.6 0 .4.4.5.9.2 2 .4 1.8.5 2.3 1c.5.4.7 1.2.7 2.1 0 2.2-1.3 3.2-4 3.2s-1.9-.1-3.2-.4h-.6v-2.4c1.7.2 2.8.3 3.5.3s1.1 0 1.3-.2c.2-.1.4-.3.4-.6s0-.4-.4-.6c-.2-.1-.9-.3-1.9-.4-1-.2-1.8-.5-2.3-.9s-.8-1.2-.8-2.2.4-1.9 1.1-2.4 1.6-.8 2.8-.8 1.9.1 3.2.4h.7v2.5z"/><path d="m94.8 221.5v-2.7h2.7v2.7zm0 11.3v-10h2.7v10z"/><path d="m104.8 222.6c1.4 0 2.4.4 3.1 1.2.6.8 1 2.1 1 4.1s-.4 3.3-1.1 4.1-2 1.1-3.9 1.1-1.6 0-3.1-.2h-.8v-14h2.7v4.3c.9-.4 1.6-.5 2.2-.5zm-1 8c.9 0 1.5-.2 1.8-.6s.5-1.2.5-2.3c0-1.8-.6-2.7-1.7-2.7s-1 0-1.5.2h-.3v5.4z"/><path d="m110.8 221.5v-2.7h2.7v2.7zm0 11.3v-10h2.7v10z"/><path d="m116.1 232.8v-14h2.7v14z"/><path d="m121.4 221.5v-2.7h2.7v2.7zm0 11.3v-10h2.7v10z"/><path d="m132.1 225.1h-2.5v5c0 .2 0 .3.2.4 0 .1.3.2.6.2h1.5v2.1c-.8.2-1.5.3-1.9.3-1.2 0-2-.3-2.5-.8-.4-.5-.7-1.5-.7-3v-4.2h-1.2v-2.3h1.2v-2.8h2.7v2.8h2.5v2.3z"/><path d="m132.9 222.8h2.6l1.8 7.7h.5l1.8-7.7h2.6l-3.5 14.2h-2.6l1.1-4.2h-1.9l-2.5-10z"/><path d="m262.9 324.8c-1.5 0-2.2.5-2.2 1.4s.2.8.5 1 1.2.6 2.5 1 2.3.9 2.8 1.5.8 1.4.8 2.5-.4 2.5-1.3 3.2-2 1.1-3.4 1.1-2.3-.2-3.8-.5h-.7c0-.1.3-2.3.3-2.3 1.8.2 3.2.4 4.1.4 1.4 0 2.1-.6 2.1-1.8s-.2-.8-.5-1-1-.5-2-.8c-1.5-.4-2.6-1-3.3-1.6-.6-.6-.9-1.5-.9-2.5s.4-2.4 1.2-3 2-1 3.4-1 2.2 0 3.8.4h.7l-.2 2.3c-1.9-.2-3.2-.3-4-.3z"/><path d="m269.9 327.3c.7-.9 1.9-1.4 3.5-1.4s2.8.5 3.5 1.4 1.1 2.2 1.1 3.9c0 3.5-1.5 5.3-4.6 5.3s-4.6-1.8-4.6-5.3.4-2.9 1.1-3.9zm2 6.1c.3.5.8.7 1.5.7s1.2-.2 1.5-.7.4-1.2.4-2.3-.1-1.8-.4-2.2c-.3-.5-.8-.7-1.5-.7s-1.2.2-1.5.7-.4 1.2-.4 2.2.1 1.8.4 2.3z"/><path d="m280.1 336.2v-14h2.7v14z"/><path d="m291.3 326.2h2.7v10h-2.7v-.6c-1 .5-1.8.8-2.5.8-1.4 0-2.3-.4-2.8-1.2s-.7-2-.7-3.8v-5.2h2.7v5.3c0 1 0 1.7.2 2 .2.4.5.5 1.2.5s1.1 0 1.7-.3h.3v-7.6h-.1z"/><path d="m302 328.5h-2.5v5c0 .2 0 .3.2.4.1.1.3.2.6.2h1.5v2.1c-.8.2-1.5.3-1.9.3-1.2 0-2-.3-2.5-.8-.4-.5-.7-1.5-.7-3v-4.2h-1.2v-2.3h1.2v-2.8h2.7v2.8h2.5v2.3z"/><path d="m303.7 324.9v-2.7h2.7v2.7zm0 11.3v-10h2.7v10z"/><path d="m309.4 327.3c.7-.9 1.9-1.4 3.5-1.4s2.8.5 3.5 1.4 1.1 2.2 1.1 3.9c0 3.5-1.5 5.3-4.6 5.3s-4.6-1.8-4.6-5.3.4-2.9 1.1-3.9zm2.1 6.1c.3.5.8.7 1.5.7s1.2-.2 1.5-.7.4-1.2.4-2.3-.1-1.8-.4-2.2c-.3-.5-.8-.7-1.5-.7s-1.2.2-1.5.7-.4 1.2-.4 2.2.1 1.8.4 2.3z"/><path d="m322.2 336.2h-2.7v-10h2.7v.6c.9-.5 1.7-.8 2.5-.8 1.3 0 2.3.4 2.8 1.2s.8 2 .8 3.6v5.4h-2.7v-5.3c0-.9-.1-1.5-.3-1.9s-.6-.6-1.2-.6-1.1 0-1.6.3h-.2v7.6z"/><path d="m261.1 352.2v14h-2.7v-.4c-.9.4-1.7.7-2.4.7-1.5 0-2.5-.4-3-1.3-.6-.8-.9-2.2-.9-4s.3-3.1 1-4c.7-.8 1.7-1.2 3.1-1.2s1 0 1.8.2h.4v-4zm-3 11.6h.3v-5.3c-.7 0-1.4-.2-2-.2-1.1 0-1.6 1-1.6 2.9s.1 1.8.4 2.2c.2.4.6.7 1.2.7s1.1 0 1.8-.2z"/><path d="m266.2 363.7c.3.3.8.4 1.3.4h3.9v1.9c-1.5.4-2.9.6-4.2.6s-2.6-.4-3.3-1.2-1-2.1-1-3.9c0-3.6 1.5-5.4 4.4-5.4s4.4 1.5 4.4 4.5l-.2 1.9h-5.9c0 .6.2 1.1.5 1.3h.1zm3-3.4c0-.8-.1-1.4-.4-1.7s-.7-.5-1.3-.5-1.1.2-1.3.5c-.3.3-.4.9-.4 1.6h3.5-.1z"/><path d="m276.9 358.5v7.7h-2.7v-7.7h-1.1v-2.3h1.1v-.4c0-1.4.2-2.4.6-3s1.2-.8 2.3-.8 1.1 0 1.9.2h.4v2.2h-1.5c-.4 0-.7 0-.8.3-.1.2-.2.6-.2 1.1v.4h2.4v2.3z"/><path d="m280.9 354.9v-2.7h2.7v2.7zm0 11.3v-10h2.7v10z"/><path d="m288.7 366.2h-2.7v-10h2.7v.6c.9-.5 1.7-.8 2.5-.8 1.3 0 2.3.4 2.8 1.2s.8 2 .8 3.6v5.4h-2.7v-5.3c0-.9-.1-1.5-.3-1.9s-.6-.6-1.2-.6-1.1 0-1.6.3h-.2v7.6z"/><path d="m297.1 354.9v-2.7h2.7v2.7zm0 11.3v-10h2.7v10z"/><path d="m307.8 358.5h-2.5v5c0 .2 0 .3.2.4.1 0 .3.2.6.2h1.5v2.1c-.8.2-1.5.3-1.9.3-1.2 0-2-.3-2.5-.8-.4-.5-.7-1.5-.7-3v-4.2h-1.2v-2.3h1.2v-2.8h2.7v2.8h2.5v2.3z"/><path d="m309.5 354.9v-2.7h2.7v2.7zm0 11.3v-10h2.7v10z"/><path d="m315.2 357.3c.7-.9 1.9-1.4 3.5-1.4s2.8.5 3.5 1.4 1.1 2.2 1.1 3.9c0 3.5-1.5 5.3-4.6 5.3s-4.6-1.8-4.6-5.3.4-2.9 1.1-3.9zm2.1 6.1c.3.5.8.7 1.5.7s1.2-.2 1.5-.7.4-1.2.4-2.3-.1-1.8-.4-2.2c-.3-.5-.8-.7-1.5-.7s-1.2.2-1.5.7-.4 1.2-.4 2.2.1 1.8.4 2.3z"/><path d="m328 366.2h-2.7v-10h2.7v.6c.9-.5 1.7-.8 2.5-.8 1.3 0 2.3.4 2.8 1.2s.8 2 .8 3.6v5.4h-2.7v-5.3c0-.9-.1-1.5-.3-1.9s-.6-.6-1.2-.6-1.1 0-1.6.3h-.2v7.6z"/><path d="m259.1 73.3h-4.6v-13.6h4.6c1.2 0 2.1 0 2.9.4.8.2 1.4.7 1.8 1.2s.7 1.2.9 2 .2 1.8.2 3 0 2.2-.2 3c-.1.8-.4 1.5-.8 2.2-.4.6-1 1.1-1.8 1.4s-1.8.4-3 .4zm2.9-5.4v-3.6c0-.5-.2-.9-.4-1.2s-.5-.6-.9-.8c-.4 0-.9-.2-1.6-.2h-1.8v8.8h1.8c1 0 1.7-.3 2.2-.8.4-.4.6-1.2.7-2.2z"/><path d="m267.1 62v-2.7h2.7v2.7zm0 11.3v-10h2.7v10z"/><path d="m279.4 65.8c-1.7-.2-2.8-.3-3.5-.3s-1.1 0-1.3.2-.3.3-.3.6 0 .4.4.5c.3 0 .9.2 2 .4s1.8.5 2.3 1c.5.4.7 1.2.7 2.1 0 2.2-1.3 3.2-4 3.2s-1.9 0-3.2-.4h-.6v-2.4c1.7.2 2.8.3 3.5.3s1.1 0 1.3-.2c.2 0 .4-.3.4-.6s0-.4-.4-.6c-.2 0-.9-.3-1.9-.4-1-.2-1.8-.5-2.3-.9s-.8-1.2-.8-2.2.4-1.9 1.1-2.4 1.6-.8 2.8-.8 1.9 0 3.2.4h.7v2.5z"/><path d="m285.4 63.1c.7 0 1.6 0 2.7.3h.5v2.2c-1.1 0-1.8-.2-2.3-.2-.9 0-1.5.2-1.8.6s-.5 1.1-.5 2.2 0 1.8.5 2.2c.3.4.9.6 1.8.6l2.3-.2v2.1c-1.3.3-2.4.4-3.2.4-1.5 0-2.5-.4-3.2-1.2-.6-.8-1-2.2-1-4s.3-3.2 1-4 1.7-1.2 3.2-1.2z"/><path d="m291 64.4c.7-.9 1.9-1.4 3.5-1.4s2.8.5 3.5 1.4 1.1 2.2 1.1 3.9c0 3.5-1.5 5.3-4.6 5.3s-4.6-1.8-4.6-5.3.4-2.9 1.1-3.9zm2.1 6.1c.3.5.8.7 1.5.7s1.2-.2 1.5-.7.4-1.2.4-2.3 0-1.8-.4-2.2c-.3-.5-.8-.7-1.5-.7s-1.2.2-1.5.7-.4 1.2-.4 2.2 0 1.8.4 2.3z"/><path d="m300.1 63.3h2.8l1.6 7.7h.6l1.7-7.7h2.7l-2.4 10h-4.6z"/><path d="m313.5 70.8c.3.3.8.4 1.3.4h3.3.6v1.9c-1.5.4-2.9.6-4.2.6s-2.6-.4-3.3-1.2-1-2.1-1-3.9c0-3.6 1.5-5.4 4.4-5.4s4.4 1.5 4.4 4.5l-.2 1.9h-5.9c0 .6.2 1.1.5 1.3h.1zm3-3.4c0-.8 0-1.4-.4-1.7s-.7-.5-1.3-.5-1.1.2-1.3.5c-.3.3-.4.9-.4 1.6h3.5-.1z"/><path d="m321 73.3v-10h2.7v1.1c1.1-.7 2.2-1.1 3.2-1.3v2.7c-1.1.2-2 .5-2.8.7h-.4v6.8z"/><path d="m327.5 63.3h2.6l1.8 7.7h.5l1.8-7.7h2.6l-3.5 14.2h-2.6l1.1-4.2h-1.9l-2.5-10z"/><path d="m345 59.9c.7-.5 1.8-.8 3-.8s2.3.3 3 .8c.7.6 1.1 1.3 1.1 2.3s-.2 1.7-.6 2.3c-.4.5-1.1 1.2-2.1 1.9l2 2c0-.2.2-.6.2-1.2v-1.4h2.6c-.2 1.6-.5 3-1 4.1l2.2 2-1.5 1.7-2.1-1.7c-.5.5-1.1.9-1.8 1.2s-1.5.5-2.3.5c-1.9 0-3.3-.4-4.1-1-.8-.7-1.2-1.7-1.2-3.1s.2-1.9.7-2.5 1.2-1.1 2.2-1.5c-.5-.7-.9-1.2-1.1-1.6s-.2-1-.2-1.6.4-1.7 1.1-2.2l-.2-.2zm2.4 11.2c.5 0 1.1 0 1.6-.2s.9-.3 1.1-.6l-3.5-3.5c-1 .5-1.5 1.2-1.5 2.3s.8 2 2.3 2zm-.8-8.4c0 .5.3 1.1.9 1.8l.3.4c.5-.4.9-.8 1.2-1.1.2-.3.3-.7.3-1.1 0-.8-.5-1.3-1.4-1.3s-1.4.4-1.4 1.3z"/><path d="m252.2 103.3 3.1-13.6h5.2l3.1 13.6h-2.8l-.5-2.5h-4.8l-.5 2.5zm5.2-11.3-1.4 6.5h3.7l-1.4-6.5h-1z"/><path d="m272.3 95.8c-1.7-.2-2.8-.3-3.5-.3s-1.1 0-1.3.2-.3.3-.3.6.1.4.4.5.9.2 2 .4 1.8.5 2.3 1c.5.4.7 1.2.7 2.1 0 2.2-1.3 3.2-4 3.2s-1.9 0-3.2-.4h-.6v-2.4c1.7.2 2.8.3 3.5.3s1.1 0 1.3-.2c.2 0 .4-.3.4-.6s0-.4-.4-.6c-.2 0-.9-.3-1.9-.4-1-.2-1.8-.5-2.3-.9s-.8-1.2-.8-2.2.4-1.9 1.1-2.4 1.6-.8 2.8-.8 1.9 0 3.2.4h.7v2.5z"/><path d="m281.8 95.8c-1.7-.2-2.8-.3-3.5-.3s-1.1 0-1.3.2-.3.3-.3.6 0 .4.4.5c.3 0 .9.2 2 .4s1.8.5 2.3 1c.5.4.7 1.2.7 2.1 0 2.2-1.3 3.2-4 3.2s-1.9 0-3.2-.4h-.6v-2.4c1.7.2 2.8.3 3.5.3s1.1 0 1.3-.2c.2 0 .4-.3.4-.6s0-.4-.4-.6c-.2 0-.9-.3-1.9-.4-1-.2-1.8-.5-2.3-.9s-.8-1.2-.8-2.2.4-1.9 1.1-2.4 1.6-.8 2.8-.8 1.9 0 3.2.4h.7v2.5z"/><path d="m286.7 100.8c.3.3.8.4 1.3.4h3.9v1.9c-1.5.4-2.9.6-4.2.6s-2.6-.4-3.3-1.2-1-2.1-1-3.9c0-3.6 1.5-5.4 4.4-5.4s4.4 1.5 4.4 4.5l-.2 1.9h-5.9c0 .6.2 1.1.5 1.3h.1zm3-3.4c0-.8 0-1.4-.4-1.7-.3-.3-.7-.5-1.3-.5s-1.1.2-1.3.5c-.3.3-.4.9-.4 1.6h3.5-.1z"/><path d="m301.4 95.8c-1.7-.2-2.8-.3-3.5-.3s-1.1 0-1.3.2-.3.3-.3.6 0 .4.4.5c.3 0 .9.2 2 .4s1.8.5 2.3 1c.5.4.7 1.2.7 2.1 0 2.2-1.3 3.2-4 3.2s-1.9 0-3.2-.4h-.6v-2.4c1.7.2 2.8.3 3.5.3s1.1 0 1.3-.2c.2 0 .4-.3.4-.6s0-.4-.4-.6c-.2 0-.9-.3-1.9-.4-1-.2-1.8-.5-2.3-.9s-.8-1.2-.8-2.2.4-1.9 1.1-2.4 1.6-.8 2.8-.8 1.9 0 3.2.4h.7v2.5z"/><path d="m310.8 95.8c-1.7-.2-2.8-.3-3.5-.3s-1.1 0-1.3.2-.3.3-.3.6 0 .4.4.5.9.2 2 .4 1.8.5 2.3 1c.5.4.7 1.2.7 2.1 0 2.2-1.3 3.2-4 3.2s-1.9 0-3.2-.4h-.6v-2.4c1.7.2 2.8.3 3.5.3s1.1 0 1.3-.2c.2 0 .4-.3.4-.6s0-.4-.4-.6c-.2 0-.9-.3-1.9-.4-1-.2-1.8-.5-2.3-.9s-.8-1.2-.8-2.2.4-1.9 1.1-2.4 1.6-.8 2.8-.8 1.9 0 3.2.4h.7v2.5z"/><path d="m315.8 103.3h-2.7v-10h2.7v.6c.9-.5 1.7-.8 2.4-.8 1.1 0 1.9.3 2.5.9 1.2-.6 2.3-.9 3.4-.9s2.2.4 2.8 1.2c.5.8.8 2 .8 3.7v5.4h-2.7v-5.3c0-.9 0-1.5-.3-1.9-.2-.4-.6-.6-1.1-.6s-.9 0-1.6.3h-.3v7.6h-2.7v-5.1c0-1 0-1.7-.3-2.1-.2-.4-.6-.6-1.1-.6s-1 0-1.5.3h-.2v7.6-.3z"/><path d="m332.6 100.8c.3.3.8.4 1.3.4h3.9v1.9c-1.5.4-2.9.6-4.2.6s-2.6-.4-3.3-1.2-1-2.1-1-3.9c0-3.6 1.5-5.4 4.4-5.4s4.4 1.5 4.4 4.5l-.2 1.9h-5.9c0 .6.2 1.1.5 1.3h.1zm2.9-3.4c0-.8 0-1.4-.4-1.7s-.7-.5-1.3-.5-1.1.2-1.3.5c-.3.3-.4.9-.4 1.6h3.5-.1z"/><path d="m342.8 103.3h-2.7v-10h2.7v.6c.9-.5 1.7-.8 2.5-.8 1.3 0 2.3.4 2.8 1.2s.8 2 .8 3.6v5.4h-2.7v-5.3c0-.9 0-1.5-.3-1.9-.2-.4-.6-.6-1.2-.6s-1.1 0-1.6.3h-.2v7.6h-.1z"/><path d="m356.7 95.6h-2.5v5c0 .2 0 .3.2.4 0 0 .3.2.6.2h1.5v2.1c-.8.2-1.5.3-1.9.3-1.2 0-2-.3-2.5-.8-.4-.5-.7-1.5-.7-3v-4.2h-1.2v-2.3h1.2v-2.8h2.7v2.8h2.5v2.3z"/><path d="m55.3 456.2c-1.5 0-2.2.5-2.2 1.4s.2.8.5 1 1.2.6 2.5 1 2.3.9 2.8 1.5.8 1.4.8 2.5-.4 2.5-1.3 3.2-2 1.1-3.4 1.1-2.3-.2-3.8-.5h-.7l.3-2.3c1.8.2 3.2.4 4.1.4 1.4 0 2.1-.6 2.1-1.8s-.2-.8-.5-1-1-.5-2-.8c-1.5-.4-2.6-1-3.3-1.6-.6-.6-.9-1.5-.9-2.5s.4-2.4 1.2-3 2-1 3.4-1 2.2 0 3.8.4h.7l-.2 2.3c-1.9-.2-3.2-.3-4-.3z"/><path d="m62.3 458.7c.7-.9 1.9-1.4 3.5-1.4s2.8.5 3.5 1.4 1.1 2.2 1.1 3.9c0 3.5-1.5 5.3-4.6 5.3s-4.6-1.8-4.6-5.3.4-2.9 1.1-3.9zm2 6.1c.3.5.8.7 1.5.7s1.2-.2 1.5-.7.4-1.2.4-2.3 0-1.8-.4-2.2c-.3-.5-.8-.7-1.5-.7s-1.2.2-1.5.7-.4 1.2-.4 2.2 0 1.8.4 2.3z"/><path d="m72.5 467.6v-14h2.7v14z"/><path d="m83.7 457.6h2.7v10h-2.7v-.6c-1 .5-1.8.8-2.5.8-1.4 0-2.3-.4-2.8-1.2s-.7-2-.7-3.8v-5.2h2.7v5.3c0 1 0 1.7.2 2 .2.4.5.5 1.2.5s1.1 0 1.7-.3h.3v-7.6h-.1z"/><path d="m94.4 459.9h-2.5v5c0 .2 0 .3.2.4 0 0 .3.2.6.2h1.5v2.1c-.8.2-1.5.3-1.9.3-1.2 0-2-.3-2.5-.8-.4-.5-.7-1.5-.7-3v-4.2h-1.2v-2.3h1.2v-2.8h2.7v2.8h2.5v2.3z"/><path d="m96.1 456.3v-2.7h2.7v2.7zm0 11.3v-10h2.7v10z"/><path d="m101.8 458.7c.7-.9 1.9-1.4 3.5-1.4s2.8.5 3.5 1.4 1.1 2.2 1.1 3.9c0 3.5-1.5 5.3-4.6 5.3s-4.6-1.8-4.6-5.3.4-2.9 1.1-3.9zm2.1 6.1c.3.5.8.7 1.5.7s1.2-.2 1.5-.7.4-1.2.4-2.3 0-1.8-.4-2.2c-.3-.5-.8-.7-1.5-.7s-1.2.2-1.5.7-.4 1.2-.4 2.2 0 1.8.4 2.3z"/><path d="m114.6 467.6h-2.7v-10h2.7v.6c.9-.5 1.7-.8 2.5-.8 1.3 0 2.3.4 2.8 1.2s.8 2 .8 3.6v5.4h-2.7v-5.3c0-.9 0-1.5-.3-1.9s-.6-.6-1.2-.6-1.1 0-1.6.3h-.2v7.6h-.1z"/><path d="m130.1 460.1c-1.7-.2-2.8-.3-3.5-.3s-1.1 0-1.3.2-.3.3-.3.6 0 .4.4.5c.3 0 .9.2 2 .4s1.8.5 2.3 1c.5.4.7 1.2.7 2.1 0 2.2-1.3 3.2-4 3.2s-1.9 0-3.2-.4h-.6v-2.4c1.7.2 2.8.3 3.5.3s1.1 0 1.3-.2c.2 0 .4-.3.4-.6s0-.4-.4-.6c-.2 0-.9-.3-1.9-.4-1-.2-1.8-.5-2.3-.9s-.8-1.2-.8-2.2.4-1.9 1.1-2.4 1.6-.8 2.8-.8 1.9 0 3.2.4h.7v2.5z"/><path d="m46.7 490.7v4.2c0 .3 0 .5.2.7s.2.2.5.3v2c-.8 0-1.3 0-1.7-.1-.4 0-.8-.3-1.2-.6-1 .5-1.9.7-2.9.7-2.1 0-3.1-1.1-3.1-3.3s.3-1.8.9-2.3c.6-.4 1.5-.7 2.6-.8l2.1-.2v-.6c0-.4 0-.7-.3-.9-.2-.2-.5-.2-.9-.2l-3.8.2v-1.9c1.3-.4 2.7-.6 4-.6s2.2.3 2.8.8.9 1.4.9 2.6zm-4.5 2.7c-.7 0-1.1.5-1.1 1.2s.3 1.1 1 1.1 1.1 0 1.7-.2h.3v-2.2l-1.8.2h-.1z"/><path d="m49.3 497.6v-10h2.7v1.1c1.1-.7 2.2-1.1 3.2-1.3v2.7c-1.1.2-2 .5-2.8.7h-.4v6.8z"/><path d="m60.4 487.4c.7 0 1.6.1 2.7.3h.5v2.2c-1.1-.1-1.8-.2-2.3-.2-.9 0-1.5.2-1.8.6s-.5 1.1-.5 2.2 0 1.8.5 2.2c.3.4.9.6 1.8.6l2.3-.2v2.1c-1.3.3-2.4.4-3.2.4-1.5 0-2.5-.4-3.2-1.2-.6-.8-1-2.2-1-4s.3-3.2 1-4 1.7-1.2 3.2-1.2z"/><path d="m68.3 497.6h-2.7v-14h2.7v4.5c.9-.5 1.7-.7 2.5-.7 1.3 0 2.3.4 2.8 1.2s.8 2 .8 3.6v5.4h-2.7v-5.4c0-.8 0-1.5-.3-1.9s-.6-.6-1.2-.6-1 0-1.6.2h-.3v7.6z"/><path d="m76.7 486.3v-2.7h2.7v2.7zm0 11.3v-10h2.7v10z"/><path d="m87.4 489.9h-2.5v5c0 .2 0 .3.2.4 0 .1.3.2.6.2h1.5v2.1c-.8.2-1.5.3-1.9.3-1.2 0-2-.3-2.5-.8-.4-.5-.7-1.5-.7-3v-4.2h-1.2v-2.3h1.2v-2.8h2.7v2.8h2.5v2.3z"/><path d="m91.8 495.1c.3.3.8.4 1.3.4 1.2 0 2.3 0 3.3-.1h.6v1.9c-1.5.4-2.9.6-4.2.6s-2.6-.4-3.3-1.2-1-2.1-1-3.9c0-3.6 1.5-5.4 4.4-5.4s4.4 1.5 4.4 4.5l-.2 1.9h-5.9c0 .6.2 1.1.5 1.3zm3-3.4c0-.8 0-1.4-.4-1.7-.3-.3-.7-.5-1.3-.5s-1.1.2-1.3.5c-.3.3-.4.9-.4 1.6h3.5z"/><path d="m103.1 487.4c.7 0 1.6.1 2.7.3h.5v2.2c-1.1-.1-1.8-.2-2.3-.2-.9 0-1.5.2-1.8.6s-.5 1.1-.5 2.2 0 1.8.5 2.2c.3.4.9.6 1.8.6l2.3-.2v2.1c-1.3.3-2.4.4-3.2.4-1.5 0-2.5-.4-3.2-1.2-.6-.8-1-2.2-1-4s.3-3.2 1-4 1.7-1.2 3.2-1.2z"/><path d="m113.8 489.9h-2.5v5c0 .2 0 .3.2.4 0 .1.3.2.6.2h1.5v2.1c-.8.2-1.5.3-1.9.3-1.2 0-2-.3-2.5-.8-.4-.5-.7-1.5-.7-3v-4.2h-1.2v-2.3h1.2v-2.8h2.7v2.8h2.5v2.3z"/><path d="m121.4 487.6h2.7v10h-2.7v-.6c-1 .5-1.8.8-2.5.8-1.4 0-2.3-.4-2.8-1.2s-.7-2-.7-3.8v-5.2h2.7v5.3c0 1 0 1.7.2 2 .2.4.5.5 1.2.5s1.1 0 1.7-.3h.3v-7.6z"/><path d="m126.6 497.6v-10h2.7v1.1c1.1-.7 2.2-1.1 3.2-1.3v2.7c-1.1.2-2 .5-2.8.7h-.4v6.8z"/><path d="m136.7 495.1c.3.3.8.4 1.3.4 1.2 0 2.3 0 3.3-.1h.6v1.9c-1.5.4-2.9.6-4.2.6s-2.6-.4-3.3-1.2-1-2.1-1-3.9c0-3.6 1.5-5.4 4.4-5.4s4.4 1.5 4.4 4.5l-.2 1.9h-5.9c0 .6.2 1.1.5 1.3zm3-3.4c0-.8 0-1.4-.4-1.7-.3-.3-.7-.5-1.3-.5s-1.1.2-1.3.5c-.3.3-.4.9-.4 1.6h3.5z"/><path d="m256.8 612h-4.6v-13.6h4.6c1.2 0 2.1 0 2.9.4.8.2 1.4.7 1.8 1.2s.7 1.2.9 2 .2 1.8.2 3 0 2.2-.2 3-.4 1.5-.8 2.2c-.4.6-1 1.1-1.8 1.4s-1.8.4-3 .4zm2.9-5.4v-3.6c0-.5-.2-.9-.4-1.2s-.5-.6-.9-.8c-.4 0-.9-.2-1.6-.2h-1.8v8.8h1.8c1 0 1.7-.3 2.2-.8.4-.4.6-1.2.7-2.2z"/><path d="m267.4 609.5c.3.3.8.4 1.3.4h3.9v1.9c-1.5.4-2.9.6-4.2.6s-2.6-.4-3.3-1.2-1-2.1-1-3.9c0-3.6 1.5-5.4 4.4-5.4s4.4 1.5 4.4 4.5l-.2 1.9h-5.9c0 .6.2 1.1.5 1.3h.1zm2.9-3.4c0-.8 0-1.4-.4-1.7-.3-.3-.7-.5-1.3-.5s-1.1.2-1.3.5-.4.9-.4 1.6h3.5-.1z"/><path d="m273.8 602h2.8l1.6 7.7h.6l1.7-7.7h2.7l-2.4 10h-4.6z"/><path d="m287.3 609.5c.3.3.8.4 1.3.4h3.9v1.9c-1.5.4-2.9.6-4.2.6s-2.6-.4-3.3-1.2-1-2.1-1-3.9c0-3.6 1.5-5.4 4.4-5.4s4.4 1.5 4.4 4.5l-.2 1.9h-5.9c0 .6.2 1.1.5 1.3h.1zm2.9-3.4c0-.8 0-1.4-.4-1.7-.3-.3-.7-.5-1.3-.5s-1.1.2-1.3.5c-.3.3-.4.9-.4 1.6h3.5-.1z"/><path d="m294.9 612v-14h2.7v14z"/><path d="m300.7 603.1c.7-.9 1.9-1.4 3.5-1.4s2.8.5 3.5 1.4 1.1 2.2 1.1 3.9c0 3.5-1.5 5.3-4.6 5.3s-4.6-1.8-4.6-5.3.4-2.9 1.1-3.9zm2.1 6.1c.3.5.8.7 1.5.7s1.2-.2 1.5-.7.4-1.2.4-2.3 0-1.8-.4-2.2c-.3-.5-.8-.7-1.5-.7s-1.2.2-1.5.7-.4 1.2-.4 2.2 0 1.8.4 2.3z"/><path d="m310.8 616.2v-14.2h2.7v.5c.9-.5 1.6-.8 2.3-.8 1.3 0 2.3.4 3 1.2.6.8 1 2.2 1 4.1s-.4 3.3-1.1 4c-.7.8-1.9 1.1-3.5 1.1s-.9 0-1.4 0h-.2v4.1zm4.5-12c-.5 0-1 0-1.5.3h-.2v5.3h1.5c.8 0 1.3-.2 1.6-.7s.4-1.2.4-2.3c0-1.8-.6-2.8-1.7-2.8v.2z"/><path d="m324.4 612h-2.7v-10h2.7v.6c.9-.5 1.7-.8 2.4-.8 1.1 0 1.9.3 2.5.9 1.2-.6 2.3-.9 3.4-.9s2.2.4 2.8 1.2.8 2 .8 3.7v5.4h-2.7v-5.3c0-.9 0-1.5-.3-1.9-.2-.4-.6-.6-1.1-.6s-.9 0-1.6.3h-.3v7.6h-2.7v-5.1c0-1 0-1.7-.3-2.1-.2-.4-.6-.6-1.1-.6s-1 0-1.5.3h-.2v7.6-.3z"/><path d="m341.2 609.5c.3.3.8.4 1.3.4h3.9v1.9c-1.5.4-2.9.6-4.2.6s-2.6-.4-3.3-1.2-1-2.1-1-3.9c0-3.6 1.5-5.4 4.4-5.4s4.4 1.5 4.4 4.5l-.2 1.9h-5.9c0 .6.2 1.1.5 1.3h.1zm2.9-3.4c0-.8 0-1.4-.4-1.7-.3-.3-.7-.5-1.3-.5s-1.1.2-1.3.5-.4.9-.4 1.6h3.5-.1z"/><path d="m351.4 612h-2.7v-10h2.7v.6c.9-.5 1.7-.8 2.5-.8 1.3 0 2.3.4 2.8 1.2s.8 2 .8 3.6v5.4h-2.7v-5.3c0-.9 0-1.5-.3-1.9-.2-.4-.6-.6-1.2-.6s-1.1 0-1.6.3h-.2v7.6z"/><path d="m365.3 604.3h-2.5v5c0 .2 0 .3.2.4s.3.2.6.2h1.5v2.1c-.8.2-1.5.3-1.9.3-1.2 0-2-.3-2.5-.8-.4-.5-.7-1.5-.7-3v-4.2h-1.2v-2.3h1.2v-2.8h2.7v2.8h2.5v2.3z"/><path d="m252.2 849.2v-2.4h10v2.4h-3.6v11.2h-2.8v-11.2z"/><path d="m265 857.9c.3.3.8.4 1.3.4h3.3.6v1.9c-1.5.4-2.9.6-4.2.6s-2.6-.4-3.3-1.2-1-2.1-1-3.9c0-3.6 1.5-5.4 4.4-5.4s4.4 1.5 4.4 4.5l-.2 1.9h-5.9c0 .6.2 1.1.5 1.3zm2.9-3.4c0-.8 0-1.4-.4-1.7s-.7-.5-1.3-.5-1.1.2-1.3.5-.4.9-.4 1.6h3.5-.1z"/><path d="m279.7 852.9c-1.7-.2-2.8-.3-3.5-.3s-1.1 0-1.3.2-.3.3-.3.6 0 .4.4.5.9.2 2 .4 1.8.5 2.3 1c.5.4.7 1.2.7 2.1 0 2.2-1.3 3.2-4 3.2s-1.9 0-3.2-.4h-.6v-2.4c1.7.2 2.8.3 3.5.3s1.1 0 1.3-.2.4-.3.4-.6 0-.4-.4-.6c-.2 0-.9-.3-1.9-.4-1-.2-1.8-.5-2.3-.9s-.8-1.2-.8-2.2.4-1.9 1.1-2.4 1.6-.8 2.8-.8 1.9 0 3.2.4h.7v2.5z"/><path d="m287.5 852.7h-2.5v5c0 .2 0 .3.2.4s.3.2.6.2h1.5v2.1c-.8.2-1.5.3-1.9.3-1.2 0-2-.3-2.5-.8-.4-.5-.7-1.5-.7-3v-4.2h-1.2v-2.3h1.2v-2.8h2.7v2.8h2.5v2.3z"/><path d="m289.2 849.1v-2.7h2.7v2.7zm0 11.3v-10h2.7v10z"/><path d="m297.1 860.4h-2.7v-10h2.7v.6c.9-.5 1.7-.8 2.5-.8 1.3 0 2.3.4 2.8 1.2s.8 2 .8 3.6v5.4h-2.7v-5.3c0-.9 0-1.5-.3-1.9-.2-.4-.6-.6-1.2-.6s-1.1 0-1.6.3h-.2v7.6h-.1z"/><path d="m314.5 861.7c0 1.1-.4 2-1.3 2.5s-2.1.8-3.6.8-2.7-.2-3.5-.6-1.2-1.1-1.2-2.2.5-1.6 1.4-2.4c-.5-.3-.7-.8-.7-1.5s.2-.7.6-1.3l.2-.3c-.9-.7-1.4-1.6-1.4-2.9s.4-2.2 1.2-2.8 1.8-.9 3-.9 1.1 0 1.7.2h3.5v2.1h-1.5c.3.3.4.8.4 1.2 0 1.3-.3 2.3-1 2.8s-1.7.8-3.2.8-.6 0-.8 0c0 .3-.2.6-.2.8s0 .4.3.5.8 0 1.6 0c1.7 0 2.8.2 3.4.7.6.4.9 1.2.9 2.4h.2zm-6.9.2c0 .6.7.9 2.1.9s2.1-.3 2.1-1 0-.6-.4-.7c-.2 0-.7-.2-1.5-.2h-1.8c-.4.2-.5.6-.5 1zm.1-8.2c0 1 .5 1.5 1.5 1.5s1.5-.5 1.5-1.5-.5-1.5-1.5-1.5-1.5.5-1.5 1.5z"/><path d="m265.7 877c.7-.5 1.8-.8 3-.8s2.3.3 3 .8c.7.6 1.1 1.3 1.1 2.3s-.2 1.7-.6 2.3c-.4.5-1.1 1.2-2.1 1.9l2 2c0-.2.2-.6.2-1.2v-1.4h2.6c-.2 1.6-.5 3-1 4.1l2.2 2-1.5 1.7-2.1-1.7c-.5.5-1.1.9-1.8 1.2s-1.5.5-2.3.5c-1.9 0-3.3-.4-4.1-1-.8-.7-1.2-1.7-1.2-3.1s.2-1.9.7-2.5 1.2-1.1 2.2-1.5c-.5-.7-.9-1.2-1.1-1.6s-.2-1-.2-1.6.4-1.7 1.1-2.2l-.2-.2zm2.4 11.2c.5 0 1.1 0 1.6-.2s.9-.3 1.1-.6l-3.5-3.5c-1 .5-1.5 1.2-1.5 2.3s.8 2 2.3 2zm-.8-8.4c0 .5.3 1.1.9 1.8l.3.4c.5-.4.9-.8 1.2-1.1.2-.3.3-.7.3-1.1 0-.8-.5-1.3-1.4-1.3s-1.4.4-1.4 1.3z"/><path d="m287.3 890.6c-2.1 0-3.5-.6-4.4-1.7-.8-1.1-1.3-2.9-1.3-5.3s.4-4.2 1.3-5.4 2.3-1.8 4.4-1.8 3.5.6 4.4 1.8 1.3 3 1.3 5.4-.7 5-2.1 6l1.7 2.7-2.5 1.2-1.8-2.9zm-2.2-3.4c.4.7 1.1 1 2.2 1s1.8-.3 2.2-1 .6-1.9.6-3.5-.2-2.9-.6-3.6-1.1-1.1-2.2-1.1-1.8.4-2.2 1.1-.6 1.9-.6 3.6.2 2.8.6 3.5z"/><path d="m293.9 890.4 3.1-13.6h5.2l3.1 13.6h-2.8l-.5-2.5h-4.8l-.5 2.5zm5.2-11.3-1.4 6.5h3.7l-1.4-6.5h-1z"/><path d="m48 743.2v-13.6h2.8v13.6z"/><path d="m56.1 743.2h-2.7v-10h2.7v.6c.9-.5 1.7-.8 2.5-.8 1.3 0 2.3.4 2.8 1.2s.8 2 .8 3.6v5.4h-2.7v-5.3c0-.9 0-1.5-.3-1.9-.2-.4-.6-.6-1.2-.6s-1.1 0-1.6.3h-.2v7.6z"/><path d="m70.1 735.5h-2.5v5c0 .2 0 .3.2.4 0 0 .3.2.6.2h1.5v2.1c-.8.2-1.5.3-1.9.3-1.2 0-2-.3-2.5-.8s-.7-1.5-.7-3v-4.2h-1.2v-2.3h1.2v-2.8h2.7v2.8h2.5v2.3z"/><path d="m74.5 740.7c.3.3.8.4 1.3.4h3.9v1.9c-1.5.4-2.9.6-4.2.6s-2.6-.4-3.3-1.2-1-2.1-1-3.9c0-3.6 1.5-5.4 4.4-5.4s4.4 1.5 4.4 4.5l-.2 1.9h-5.9c0 .6.2 1.1.5 1.3h.1zm2.9-3.4c0-.8 0-1.4-.4-1.7-.3-.3-.7-.5-1.3-.5s-1.1.2-1.3.5-.4.9-.4 1.6h3.5z"/><path d="m91.1 744.5c0 1.1-.4 2-1.3 2.5s-2.1.8-3.6.8-2.7-.2-3.5-.6-1.2-1.1-1.2-2.2.5-1.6 1.4-2.4c-.5-.3-.7-.8-.7-1.5s.2-.7.6-1.3l.2-.3c-.9-.7-1.4-1.6-1.4-2.9s.4-2.2 1.1-2.8 1.8-.9 3.1-.9 1.1 0 1.7.2h3.5v2.1h-1.5c.3.3.4.8.4 1.2 0 1.3-.3 2.3-1 2.8s-1.7.8-3.2.8-.6 0-.8 0c0 .3-.2.6-.2.8s0 .4.3.5.8 0 1.6 0c1.7 0 2.8.2 3.4.7.6.4.9 1.2.9 2.4h.2zm-7 .2c0 .6.7.9 2.1.9s2.1-.3 2.1-1 0-.6-.4-.7-.7-.2-1.5-.2h-1.8c-.4.2-.5.6-.5 1zm.2-8.2c0 1 .5 1.5 1.5 1.5s1.5-.5 1.5-1.5-.5-1.5-1.5-1.5-1.5.5-1.5 1.5z"/><path d="m92.7 743.2v-10h2.7v1.1c1.1-.7 2.2-1.1 3.2-1.3v2.7c-1.1.2-2 .5-2.8.7h-.4v6.8s-2.7 0-2.7 0z"/><path d="m107.8 736.3v4.2c0 .3 0 .5.2.7s.2.2.5.3v2h-1.7c-.4 0-.8-.3-1.2-.6-1 .5-1.9.7-2.9.7-2.1 0-3.1-1.1-3.1-3.3s.3-1.8.9-2.3c.6-.4 1.5-.7 2.6-.8l2.1-.2v-.6c0-.4 0-.7-.3-.9-.2-.2-.5-.2-.9-.2l-3.8.2v-1.9c1.3-.4 2.7-.6 4-.6s2.2.3 2.8.8.8 1.4.8 2.6zm-4.5 2.7c-.7 0-1.1.5-1.1 1.2s.3 1.1 1 1.1 1.1 0 1.7-.2h.3v-2.2l-1.8.2z"/><path d="m115.9 735.5h-2.5v5c0 .2 0 .3.2.4 0 0 .3.2.6.2h1.5v2.1c-.8.2-1.5.3-1.9.3-1.2 0-2-.3-2.5-.8s-.7-1.5-.7-3v-4.2h-1.2v-2.3h1.2v-2.8h2.7v2.8h2.5v2.3z"/><path d="m117.6 731.9v-2.7h2.7v2.7zm0 11.3v-10h2.7v10z"/><path d="m123.3 734.3c.7-.9 1.9-1.4 3.5-1.4s2.8.5 3.5 1.4 1.1 2.2 1.1 3.9c0 3.5-1.5 5.3-4.6 5.3s-4.6-1.8-4.6-5.3.4-2.9 1.1-3.9zm2.1 6.1c.3.5.8.7 1.5.7s1.2-.2 1.5-.7.4-1.2.4-2.3 0-1.8-.4-2.2-.8-.7-1.5-.7-1.2.2-1.5.7-.4 1.2-.4 2.2 0 1.8.4 2.3z"/><path d="m136.1 743.2h-2.7v-10h2.7v.6c.9-.5 1.7-.8 2.5-.8 1.3 0 2.3.4 2.8 1.2s.8 2 .8 3.6v5.4h-2.7v-5.3c0-.9 0-1.5-.3-1.9s-.6-.6-1.2-.6-1.1 0-1.6.3h-.2v7.6h-.1z"/><path d="m81.7 1008.2v-13.6h4.7l2.4 9.9 2.4-9.9h4.7v13.6h-2.8v-10.5h-.3l-2.7 9.9h-2.8l-2.7-9.9h-.3v10.5h-2.8z"/><path d="m106.3 1001.3v4.2c0 .3 0 .5.2.7s.2.2.5.3v2h-1.7c-.4 0-.8-.3-1.2-.6-1 .5-1.9.7-2.9.7-2.1 0-3.1-1.1-3.1-3.3s.3-1.8.9-2.3c.6-.4 1.5-.7 2.6-.8l2.1-.2v-.6c0-.4 0-.7-.3-.9-.2-.2-.5-.2-.9-.2l-3.8.2v-1.9c1.3-.4 2.7-.6 4-.6s2.2.3 2.8.8.9 1.4.9 2.6zm-4.5 2.7c-.7 0-1.1.5-1.1 1.2s.3 1.1 1 1.1 1.1 0 1.7-.2h.3v-2.2l-1.8.2z"/><path d="m108.9 1008.2v-10h2.7v1.1c1.1-.7 2.2-1.1 3.2-1.3v2.7c-1.1.2-2 .5-2.8.7h-.4v6.8z"/><path d="m119 1008.2h-2.7v-14h2.7v8l1-.2 2-3.8h3l-2.6 4.7 2.7 5.3h-3l-2-3.9-1.1.2z"/><path d="m129.1 1005.7c.3.3.8.4 1.3.4h3.9v1.9c-1.5.4-2.9.6-4.2.6s-2.6-.4-3.3-1.2-1-2.1-1-3.9c0-3.6 1.5-5.4 4.4-5.4s4.4 1.5 4.4 4.5l-.2 1.9h-5.9c0 .6.2 1.1.5 1.3zm3-3.4c0-.8 0-1.4-.4-1.7-.3-.3-.7-.5-1.3-.5s-1.1.2-1.3.5c-.3.3-.4.9-.4 1.6h3.5z"/><path d="m142.2 1000.5h-2.5v5c0 .2 0 .3.2.4 0 0 .3.2.6.2h1.5v2.1c-.8.2-1.5.3-1.9.3-1.2 0-2-.3-2.5-.8s-.7-1.5-.7-3v-4.2h-1.2v-2.3h1.2v-2.8h2.7v2.8h2.5v2.3z"/></g></svg>