<?xml version="1.0" encoding="UTF-8"?>
<svg id="Capa_1" xmlns="http://www.w3.org/2000/svg" version="1.1" xmlns:xlink="http://www.w3.org/1999/xlink" viewBox="0 0 455.5 1067.5">
  <!-- Generator: Adobe Illustrator 29.0.0, SVG Export Plug-In . SVG Version: 2.1.0 Build 186)  -->
  <defs>
    <style>
      .st0 {
        fill: url(#Degradado_sin_nombre_6);
      }

      .st1 {
        fill: url(#Degradado_sin_nombre_5);
      }

      .st2 {
        fill: #fff;
      }

      .st3 {
        fill: url(#Degradado_sin_nombre_4);
      }

      .st4 {
        fill: none;
        stroke: url(#Degradado_sin_nombre);
        stroke-width: 2px;
      }

      .st5 {
        fill: url(#Degradado_sin_nombre_2);
      }

      .st6 {
        fill: url(#Degradado_sin_nombre_9);
      }

      .st7 {
        fill: url(#Degradado_sin_nombre_7);
      }

      .st8 {
        fill: url(#Degradado_sin_nombre_3);
      }

      .st9 {
        fill: url(#Degradado_sin_nombre_8);
      }
    </style>
    <linearGradient id="Degradado_sin_nombre" data-name="Degradado sin nombre" x1="-999.1" y1="3300.3" x2="-86" y2="3300.3" gradientTransform="translate(-3072.6 3.3) rotate(-90)" gradientUnits="userSpaceOnUse">
      <stop offset="0" stop-color="#4b62fb"/>
      <stop offset="1" stop-color="#eb5c21"/>
    </linearGradient>
    <linearGradient id="Degradado_sin_nombre_2" data-name="Degradado sin nombre 2" x1="-3588.8" y1="-694.9" x2="-3588.8" y2="516.1" gradientTransform="translate(-3361.1 312.4) rotate(-180)" gradientUnits="userSpaceOnUse">
      <stop offset="0" stop-color="#4b62fb"/>
      <stop offset="1" stop-color="#eb5c21"/>
    </linearGradient>
    <linearGradient id="Degradado_sin_nombre_3" data-name="Degradado sin nombre 3" x1="-3588.8" y1="-728" x2="-3588.8" y2="461.5" gradientTransform="translate(-3361.1 312.4) rotate(-180)" gradientUnits="userSpaceOnUse">
      <stop offset="0" stop-color="#4b62fb"/>
      <stop offset="1" stop-color="#eb5c21"/>
    </linearGradient>
    <linearGradient id="Degradado_sin_nombre_4" data-name="Degradado sin nombre 4" x1="-3588.8" y1="-805.3" x2="-3588.8" y2="384.7" gradientTransform="translate(-3361.1 312.4) rotate(-180)" gradientUnits="userSpaceOnUse">
      <stop offset="0" stop-color="#4b62fb"/>
      <stop offset="1" stop-color="#eb5c21"/>
    </linearGradient>
    <linearGradient id="Degradado_sin_nombre_5" data-name="Degradado sin nombre 5" x1="-3588.8" y1="-843.9" x2="-3588.8" y2="345.6" gradientTransform="translate(-3361.1 312.4) rotate(-180)" gradientUnits="userSpaceOnUse">
      <stop offset="0" stop-color="#4b62fb"/>
      <stop offset="1" stop-color="#eb5c21"/>
    </linearGradient>
    <linearGradient id="Degradado_sin_nombre_6" data-name="Degradado sin nombre 6" x1="-3588.8" y1="-921.6" x2="-3588.8" y2="267.9" gradientTransform="translate(-3361.1 312.4) rotate(-180)" gradientUnits="userSpaceOnUse">
      <stop offset="0" stop-color="#4b62fb"/>
      <stop offset="1" stop-color="#eb5c21"/>
    </linearGradient>
    <linearGradient id="Degradado_sin_nombre_7" data-name="Degradado sin nombre 7" x1="-3588.8" y1="-959.9" x2="-3588.8" y2="230.1" gradientTransform="translate(-3361.1 312.4) rotate(-180)" gradientUnits="userSpaceOnUse">
      <stop offset="0" stop-color="#4b62fb"/>
      <stop offset="1" stop-color="#eb5c21"/>
    </linearGradient>
    <linearGradient id="Degradado_sin_nombre_8" data-name="Degradado sin nombre 8" x1="-3588.8" y1="-766.7" x2="-3588.8" y2="423.3" gradientTransform="translate(-3361.1 312.4) rotate(-180)" gradientUnits="userSpaceOnUse">
      <stop offset="0" stop-color="#4b62fb"/>
      <stop offset="1" stop-color="#eb5c21"/>
    </linearGradient>
    <linearGradient id="Degradado_sin_nombre_9" data-name="Degradado sin nombre 9" x1="-3588.8" y1="-883" x2="-3588.8" y2="307" gradientTransform="translate(-3361.1 312.4) rotate(-180)" gradientUnits="userSpaceOnUse">
      <stop offset="0" stop-color="#4b62fb"/>
      <stop offset="1" stop-color="#eb5c21"/>
    </linearGradient>
  </defs>
  <path class="st4" d="M227.8,1002.4V82.4"/>
  <rect class="st5" x="222.8" y="997.4" width="10" height="10"/>
  <rect class="st8" x="222.8" y="866" width="10" height="10"/>
  <rect class="st3" x="222.8" y="603.2" width="10" height="10"/>
  <rect class="st1" x="222.8" y="471.8" width="10" height="10"/>
  <rect class="st0" x="222.8" y="209" width="10" height="10"/>
  <rect class="st7" x="222.8" y="77.4" width="10" height="10"/>
  <rect class="st9" x="222.8" y="734.6" width="10" height="10"/>
  <rect class="st6" x="222.8" y="340.4" width="10" height="10"/>
  <g>
    <path class="st2" d="M289.5,71.9h-4.6v-13.6h4.6c1.2,0,2.1,0,2.9.4.8.2,1.4.7,1.8,1.2.4.6.7,1.2.9,2s.2,1.8.2,3,0,2.2-.2,3c-.1.8-.4,1.5-.8,2.2s-1,1.1-1.8,1.4-1.8.4-3,.4h0ZM292.4,66.5v-3.6c0-.5-.2-.9-.4-1.2-.2-.4-.5-.6-.9-.8-.4,0-.9-.2-1.6-.2h-1.8v8.8h1.8c1,0,1.7-.3,2.2-.8s.6-1.2.7-2.2Z"/>
    <path class="st2" d="M300.1,69.4c.3.3.8.4,1.3.4,1.2,0,2.3,0,3.3,0h.6v1.9c-1.5.4-2.9.6-4.2.6s-2.6-.4-3.3-1.2c-.7-.8-1-2.1-1-3.9,0-3.6,1.5-5.4,4.4-5.4s4.4,1.5,4.4,4.5l-.2,1.9h-5.9c0,.6.2,1.1.5,1.3h.1,0ZM303.1,66c0-.8,0-1.4-.4-1.7-.3-.3-.7-.5-1.3-.5s-1.1.2-1.3.5c-.3.3-.4.9-.4,1.6h3.5-.1Z"/>
    <path class="st2" d="M314.8,64.4c-1.7-.2-2.8-.3-3.5-.3s-1.1,0-1.3.2c-.2,0-.3.3-.3.6s0,.4.4.5c.3,0,.9.2,2,.4s1.8.5,2.3.9.7,1.2.7,2.1c0,2.2-1.3,3.2-4,3.2s-1.9,0-3.2-.4h-.6v-2.4c1.7.2,2.8.3,3.5.3s1.1,0,1.3-.2c.2,0,.4-.3.4-.6s0-.4-.4-.6c-.2,0-.9-.3-1.9-.4-1-.2-1.8-.5-2.3-.9s-.8-1.2-.8-2.2.4-1.9,1.1-2.4,1.6-.8,2.8-.8,1.9,0,3.2.4h.7v2.6h-.1Z"/>
    <path class="st2" d="M320.8,61.7c.7,0,1.6,0,2.7.3h.5v2.2c-1.1,0-1.8-.2-2.3-.2-.9,0-1.5.2-1.8.6s-.5,1.1-.5,2.2,0,1.8.5,2.2c.3.4.9.6,1.8.6l2.3-.2v2.1c-1.3.3-2.4.4-3.2.4-1.5,0-2.5-.4-3.2-1.2-.6-.8-1-2.2-1-4s.3-3.2,1-4,1.7-1.2,3.2-1.2v.2Z"/>
    <path class="st2" d="M326.4,63.1c.7-.9,1.9-1.4,3.5-1.4s2.8.5,3.5,1.4,1.1,2.2,1.1,3.9c0,3.5-1.5,5.3-4.6,5.3s-4.6-1.8-4.6-5.3.4-2.9,1.1-3.9ZM328.5,69.2c.3.5.8.7,1.5.7s1.2-.2,1.5-.7.4-1.2.4-2.3,0-1.8-.4-2.2c-.3-.5-.8-.7-1.5-.7s-1.2.2-1.5.7-.4,1.2-.4,2.2,0,1.8.4,2.3Z"/>
    <path class="st2" d="M341.4,61.7c1.4,0,2.4.4,3.1,1.2.6.8,1,2.1,1,4.1s-.4,3.3-1.1,4.1c-.7.8-2,1.1-3.9,1.1s-1.6,0-3.1-.2h-.8v-14.1h2.7v4.3c.9-.4,1.6-.5,2.2-.5h-.1ZM340.4,69.8c.9,0,1.5-.2,1.8-.6s.5-1.2.5-2.3c0-1.8-.6-2.7-1.7-2.7s-1,0-1.5.2h-.3v5.4h1.2Z"/>
    <path class="st2" d="M350.1,69.4c.3.3.8.4,1.3.4,1.2,0,2.3,0,3.3,0h.6v1.9c-1.5.4-2.9.6-4.2.6s-2.6-.4-3.3-1.2c-.7-.8-1-2.1-1-3.9,0-3.6,1.5-5.4,4.4-5.4s4.4,1.5,4.4,4.5l-.2,1.9h-5.9c0,.6.2,1.1.5,1.3h.1ZM353.1,66c0-.8,0-1.4-.4-1.7s-.7-.5-1.3-.5-1.1.2-1.3.5c-.3.3-.4.9-.4,1.6h3.5-.1Z"/>
    <path class="st2" d="M357.6,71.9v-10h2.7v1.1c1.1-.7,2.2-1.1,3.2-1.3v2.7c-1.1.2-2,.5-2.8.7h-.4v6.8h-2.7Z"/>
    <path class="st2" d="M370.6,64.2h-2.5v5c0,.2,0,.3.2.4,0,0,.3.2.6.2h1.5v2.1c-.8.2-1.5.3-1.9.3-1.2,0-2-.3-2.5-.8-.4-.5-.7-1.5-.7-3v-4.2h-1.2v-2.3h1.2v-2.8h2.7v2.8h2.5v2.3h.1,0Z"/>
    <path class="st2" d="M380,65.1v4.2c0,.3,0,.5.2.7,0,0,.2.2.5.3v2c-.8,0-1.3,0-1.7,0-.4,0-.8-.3-1.2-.6-1,.5-1.9.7-2.9.7-2.1,0-3.1-1.1-3.1-3.3s.3-1.8.9-2.3c.6-.4,1.5-.7,2.6-.8l2.1-.2v-.6c0-.4,0-.7-.3-.9-.2-.2-.5-.2-.9-.2l-3.8.2v-1.9c1.3-.4,2.7-.6,4-.6s2.2.3,2.8.8.9,1.4.9,2.6h-.1ZM375.5,67.7c-.7,0-1.1.5-1.1,1.2s.3,1.1,1,1.1,1.1,0,1.7-.2h.3v-2.2l-1.8.2h-.1Z"/>
    <path class="st2" d="M285.3,88.5c.7-.5,1.8-.8,3-.8s2.3.3,3,.8c.7.6,1.1,1.3,1.1,2.3s-.2,1.7-.6,2.3c-.4.5-1.1,1.2-2.1,1.9l2,2c0-.2.2-.6.2-1.2s.1-1,.1-1.4h2.6c-.2,1.6-.5,3-1,4.1l2.2,2-1.5,1.7-2.1-1.7c-.5.5-1.1.9-1.8,1.2-.7.3-1.5.5-2.3.5-1.9,0-3.3-.4-4.1-1.1s-1.2-1.7-1.2-3.1.2-1.9.7-2.6c.5-.6,1.2-1.1,2.2-1.5-.5-.7-.9-1.2-1.1-1.6-.2-.4-.2-1-.2-1.6s.4-1.7,1.1-2.2h-.2,0ZM287.7,99.8c.5,0,1.1,0,1.6-.2.5,0,.9-.3,1.1-.6l-3.5-3.5c-1,.5-1.5,1.2-1.5,2.3s.8,2,2.3,2h0ZM286.9,91.3c0,.5.3,1.1.9,1.8l.3.4c.5-.4.9-.8,1.2-1.1s.3-.7.3-1.1c0-.8-.5-1.3-1.4-1.3s-1.4.4-1.4,1.3h.1,0Z"/>
    <path class="st2" d="M300.7,101.9l3.1-13.6h5.2l3.1,13.6h-2.8l-.5-2.5h-4.8l-.5,2.5h-2.8ZM305.9,90.6l-1.4,6.5h3.7l-1.4-6.5h-1,.1,0Z"/>
    <path class="st2" d="M312.4,91.9h2.8l1.6,7.7h.6l1.7-7.7h2.7l-2.4,10h-4.6l-2.4-10h0Z"/>
    <path class="st2" d="M330.9,95.1v4.2c0,.3,0,.5.2.7,0,0,.2.2.5.3v2h-1.7c-.4,0-.8-.3-1.2-.6-1,.5-1.9.7-2.9.7-2.1,0-3.1-1.1-3.1-3.3s.3-1.8.9-2.3c.6-.4,1.5-.7,2.6-.8l2.1-.2v-.6c0-.4,0-.7-.3-.9-.2-.2-.5-.2-.9-.2l-3.8.2v-1.9c1.3-.4,2.7-.6,4-.6s2.2.3,2.8.8.9,1.4.9,2.6h-.1ZM326.4,97.7c-.7,0-1.1.5-1.1,1.2s.3,1.1,1,1.1,1.1,0,1.7-.2h.3v-2.2l-1.8.2h-.1Z"/>
    <path class="st2" d="M333.6,101.9v-14h2.7v14h-2.7Z"/>
    <path class="st2" d="M338.8,90.7v-2.7h2.7v2.7h-2.7ZM338.8,101.9v-10h2.7v10h-2.7Z"/>
    <path class="st2" d="M351.7,95.1v4.2c0,.3,0,.5.2.7,0,0,.2.2.5.3v2h-1.7c-.4,0-.8-.3-1.2-.6-1,.5-1.9.7-2.9.7-2.1,0-3.1-1.1-3.1-3.3s.3-1.8.9-2.3c.6-.4,1.5-.7,2.6-.8l2.1-.2v-.6c0-.4,0-.7-.3-.9-.2-.2-.5-.2-.9-.2l-3.8.2v-1.9c1.3-.4,2.7-.6,4-.6s2.2.3,2.8.8.9,1.4.9,2.6h-.1ZM347.2,97.7c-.7,0-1.1.5-1.1,1.2s.3,1.1,1,1.1,1.1,0,1.7-.2h.3v-2.2l-1.8.2h-.1Z"/>
    <path class="st2" d="M360,103.1c.4.2.6.7.6,1.5s-.2,1.3-.6,1.7-.9.6-1.6.6-1.1,0-1.6-.2h-.3v-1.6h1c.5,0,.8-.2.8-.5s-.3-.4-.8-.4h-.5v-1.9c-1.2,0-2-.6-2.5-1.5-.5-.8-.8-2.1-.8-3.9s.3-3,1-3.8,1.7-1.2,3.2-1.2,1.6,0,2.7.3h.5v2.2c-1.1,0-1.8-.2-2.3-.2-.9,0-1.5.2-1.8.6s-.5,1.1-.5,2.2,0,1.8.5,2.2c.3.4.9.6,1.8.6l2.3-.2v2.1c-1.2.3-2.2.4-3,.4v.5c.9,0,1.5,0,1.9.4h0Z"/>
    <path class="st2" d="M370.8,95.1v4.2c0,.3,0,.5.2.7,0,0,.2.2.5.3v2h-1.7c-.4,0-.8-.3-1.2-.6-1,.5-1.9.7-2.9.7-2.1,0-3.1-1.1-3.1-3.3s.3-1.8.9-2.3c.6-.4,1.5-.7,2.6-.8l2.1-.2v-.6c0-.4,0-.7-.3-.9-.2-.2-.5-.2-.9-.2l-3.8.2v-1.9c1.3-.4,2.7-.6,4-.6s2.2.3,2.8.8.9,1.4.9,2.6h-.1ZM369.5,89.3s-.4.3-.8.5-.7.3-1,.3-.8,0-1.4-.4c-.6-.2-1-.4-1.2-.4-.4,0-.8.2-1.3.5l-.3.2-.6-1.5c.3-.3.6-.6,1-.8s.8-.4,1.1-.4.8,0,1.4.4c.6.2,1,.4,1.2.4.3,0,.8-.2,1.3-.5l.3-.2.6,1.5s-.2.2-.3.4h0ZM366.3,97.7c-.7,0-1.1.5-1.1,1.2s.3,1.1,1,1.1,1.1,0,1.7-.2h.3v-2.2l-1.8.2h-.1Z"/>
    <path class="st2" d="M373.9,93.1c.7-.9,1.9-1.4,3.5-1.4s2.8.5,3.5,1.4,1.1,2.2,1.1,3.9c0,3.5-1.5,5.3-4.6,5.3s-4.6-1.8-4.6-5.3.4-2.9,1.1-3.9ZM376,99.2c.3.5.8.7,1.5.7s1.2-.2,1.5-.7.4-1.2.4-2.3,0-1.8-.4-2.2c-.3-.5-.8-.7-1.5-.7s-1.2.2-1.5.7-.4,1.2-.4,2.2,0,1.8.4,2.3Z"/>
  </g>
  <g>
    <path class="st2" d="M85.1,192.3h2.9l-3.2,13.6h-5.1l-3.2-13.6h2.9l2.4,11.2h.9l2.4-11.2h0Z"/>
    <path class="st2" d="M89.5,194.6v-2.7h2.7v2.7h-2.7ZM89.5,205.9v-10h2.7v10h-2.7Z"/>
    <path class="st2" d="M102.3,199v4.2c0,.3,0,.5.2.7s.2.2.5.3v2h-1.7c-.4,0-.8-.3-1.2-.6-1,.5-1.9.7-2.9.7-2.1,0-3.1-1.1-3.1-3.3s.3-1.8.9-2.3,1.5-.7,2.6-.8l2.1-.2v-.6c0-.4,0-.7-.3-.8-.2-.2-.5-.2-.9-.2l-3.8.2v-1.9c1.3-.4,2.7-.6,4-.6s2.2.3,2.8.8.9,1.4.9,2.6h0v-.2ZM97.8,201.7c-.7,0-1.1.5-1.1,1.2s.3,1.1,1,1.1,1.1,0,1.7-.2h.3v-2.2l-1.8.2h-.1Z"/>
    <path class="st2" d="M109.7,195.7c1.4,0,2.4.4,3.1,1.2.6.8,1,2.1,1,4.1s-.4,3.3-1.1,4.1c-.7.8-2,1.1-3.9,1.1s-1.6,0-3.1-.2h-.8v-14h2.7v4.3c.9-.4,1.6-.5,2.2-.5h-.1ZM108.8,203.7c.9,0,1.5-.2,1.8-.6s.5-1.2.5-2.3c0-1.8-.6-2.7-1.7-2.7s-1,0-1.5.2h-.3v5.4h1.2Z"/>
    <path class="st2" d="M115.8,194.6v-2.7h2.7v2.7h-2.7ZM115.8,205.9v-10h2.7v10h-2.7Z"/>
    <path class="st2" d="M121.1,205.9v-14h2.7v14h-2.7Z"/>
    <path class="st2" d="M126.3,194.6v-2.7h2.7v2.7h-2.7ZM126.3,205.9v-10h2.7v10h-2.7Z"/>
    <path class="st2" d="M140,191.9v14h-2.7v-.4c-.9.4-1.7.7-2.4.7-1.5,0-2.5-.4-3-1.3-.6-.8-.9-2.2-.9-4s.3-3.1,1-4c.7-.8,1.7-1.2,3.1-1.2s1,0,1.8.2h.4v-4h2.7ZM137,203.5h.3v-5.3c-.7,0-1.4-.2-2-.2-1.1,0-1.6,1-1.6,2.9s0,1.8.4,2.2c.2.4.6.7,1.2.7s1.1,0,1.8-.2h-.1Z"/>
    <path class="st2" d="M150.1,199v4.2c0,.3,0,.5.2.7s.2.2.5.3v2h-1.7c-.4,0-.8-.3-1.2-.6-1,.5-1.9.7-2.9.7-2.1,0-3.1-1.1-3.1-3.3s.3-1.8.9-2.3,1.5-.7,2.6-.8l2.1-.2v-.6c0-.4,0-.7-.3-.8-.2-.2-.5-.2-.9-.2l-3.8.2v-1.9c1.3-.4,2.7-.6,4-.6s2.2.3,2.8.8.9,1.4.9,2.6h0v-.2ZM145.6,201.7c-.7,0-1.1.5-1.1,1.2s.3,1.1,1,1.1,1.1,0,1.7-.2h.3v-2.2l-1.8.2h0Z"/>
    <path class="st2" d="M161.2,191.9v14h-2.7v-.4c-.9.4-1.7.7-2.4.7-1.5,0-2.5-.4-3-1.3-.6-.8-.9-2.2-.9-4s.3-3.1,1-4c.7-.8,1.7-1.2,3.1-1.2s1,0,1.8.2h.4v-4h2.7ZM158.2,203.5h.3v-5.3c-.7,0-1.4-.2-2-.2-1.1,0-1.6,1-1.6,2.9s0,1.8.4,2.2c.2.4.6.7,1.2.7s1.1,0,1.8-.2h-.1Z"/>
    <path class="st2" d="M166.4,203.4c.3.3.8.4,1.3.4h3.9v1.9c-1.5.4-2.9.6-4.2.6s-2.6-.4-3.3-1.2c-.7-.8-1-2.1-1-3.9,0-3.6,1.5-5.4,4.4-5.4s4.4,1.5,4.4,4.5l-.2,1.9h-5.9c0,.6.2,1.1.5,1.3h0,0ZM169.3,200c0-.8,0-1.4-.4-1.7s-.7-.5-1.3-.5-1.1.2-1.3.5c-.3.3-.4.9-.4,1.7h3.5s0,0,0,0Z"/>
    <path class="st2" d="M100.3,228.2h-2.5v5c0,.2,0,.3.2.4,0,.1.3.2.6.2h1.5v2.1c-.8.2-1.5.3-1.9.3-1.2,0-2-.3-2.5-.8-.4-.5-.7-1.5-.7-3v-4.2h-1.2v-2.3h1.2v-2.8h2.7v2.8h2.5v2.3h.1Z"/>
    <path class="st2" d="M104.8,233.4c.3.3.8.4,1.3.4,1.2,0,2.3,0,3.3-.1h.6v1.9c-1.5.4-2.9.6-4.2.6s-2.6-.4-3.3-1.2-1-2.1-1-3.9c0-3.6,1.5-5.4,4.4-5.4s4.4,1.5,4.4,4.5l-.2,1.9h-5.9c0,.6.2,1.1.5,1.3h.1ZM102.9,222.9l5-2,.8,2.3-5.2,1.5-.6-1.7h0ZM107.7,230c0-.8,0-1.4-.4-1.7-.3-.3-.7-.5-1.3-.5s-1.1.2-1.3.5c-.3.3-.4.9-.4,1.7h3.5,0Z"/>
    <path class="st2" d="M116,225.7c.7,0,1.6.1,2.7.3h.5v2.2c-1.1-.1-1.8-.2-2.3-.2-.9,0-1.5.2-1.8.6-.3.4-.5,1.1-.5,2.2s0,1.8.5,2.2c.3.4.9.6,1.8.6l2.3-.2v2.1c-1.3.3-2.4.4-3.2.4-1.5,0-2.5-.4-3.2-1.2-.6-.8-1-2.2-1-4s.3-3.2,1-4,1.7-1.2,3.2-1.2v.2h0Z"/>
    <path class="st2" d="M123.9,235.9h-2.7v-10h2.7v.6c.9-.5,1.7-.8,2.5-.8,1.3,0,2.3.4,2.8,1.2s.8,2,.8,3.6v5.4h-2.7v-5.3c0-.9,0-1.5-.3-1.9s-.6-.6-1.2-.6-1.1,0-1.6.3h-.2v7.6h-.1Z"/>
    <path class="st2" d="M132.3,224.6v-2.7h2.7v2.7h-2.7ZM132.3,235.9v-10h2.7v10h-2.7Z"/>
    <path class="st2" d="M141.1,225.7c.7,0,1.6.1,2.7.3h.5v2.2c-1.1-.1-1.8-.2-2.3-.2-.9,0-1.5.2-1.8.6-.3.4-.5,1.1-.5,2.2s0,1.8.5,2.2c.3.4.9.6,1.8.6l2.3-.2v2.1c-1.3.3-2.4.4-3.2.4-1.5,0-2.5-.4-3.2-1.2-.6-.8-1-2.2-1-4s.3-3.2,1-4,1.7-1.2,3.2-1.2v.2h0Z"/>
    <path class="st2" d="M154,229v4.2c0,.3,0,.5.2.7s.2.2.5.3v2c-.8,0-1.3,0-1.7-.1-.4,0-.8-.3-1.2-.6-1,.5-1.9.7-2.9.7-2.1,0-3.1-1.1-3.1-3.3s.3-1.8.9-2.3,1.5-.7,2.6-.8l2.1-.2v-.6c0-.4,0-.7-.3-.8-.2-.2-.5-.2-.9-.2l-3.8.2v-1.9c1.3-.4,2.7-.6,4-.6s2.2.3,2.8.8.9,1.4.9,2.6h0ZM149.5,231.7c-.7,0-1.1.5-1.1,1.2s.3,1.1,1,1.1,1.1,0,1.7-.2h.3v-2.2l-1.8.2h0Z"/>
  </g>
  <g>
    <path class="st2" d="M293.5,335.3h-4.6v-13.6h4.6c1.2,0,2.1,0,2.9.4.8.2,1.4.7,1.8,1.2.4.6.7,1.2.9,2s.2,1.8.2,3,0,2.2-.2,3c-.1.8-.4,1.5-.8,2.2s-1,1.1-1.8,1.4-1.8.4-3,.4h0ZM296.4,329.9v-3.6c0-.5-.2-.9-.4-1.2-.2-.4-.5-.6-.9-.8-.4-.1-.9-.2-1.6-.2h-1.8v8.8h1.8c1,0,1.7-.3,2.2-.8s.6-1.2.7-2.2h0Z"/>
    <path class="st2" d="M304.1,332.8c.3.3.8.4,1.3.4,1.2,0,2.3,0,3.3-.1h.6v1.9c-1.5.4-2.9.6-4.2.6s-2.6-.4-3.3-1.2c-.7-.8-1-2.1-1-3.9,0-3.6,1.5-5.4,4.4-5.4s4.4,1.5,4.4,4.5l-.2,1.9h-5.9c0,.6.2,1.1.5,1.3h.1ZM307,329.4c0-.8-.1-1.4-.4-1.7s-.7-.5-1.3-.5-1.1.2-1.3.5c-.3.3-.4.9-.4,1.6h3.5-.1Z"/>
    <path class="st2" d="M314.8,327.6v7.7h-2.7v-7.7h-1.1v-2.3h1.1v-.4c0-1.4.2-2.4.6-3s1.2-.8,2.3-.8,1.1,0,1.9.2h.4v2.2h-1.5c-.4,0-.7.1-.8.3-.1.2-.2.6-.2,1.1v.4h2.4v2.3h-2.4,0Z"/>
    <path class="st2" d="M318.7,324v-2.7h2.7v2.7h-2.7ZM318.7,335.3v-10h2.7v10h-2.7Z"/>
    <path class="st2" d="M326.6,335.3h-2.7v-10h2.7v.6c.9-.5,1.7-.8,2.5-.8,1.3,0,2.3.4,2.8,1.2s.8,2,.8,3.6v5.4h-2.7v-5.3c0-.9-.1-1.5-.3-1.9-.2-.4-.6-.6-1.2-.6s-1.1,0-1.6.3h-.2v7.6h0Z"/>
    <path class="st2" d="M335,324v-2.7h2.7v2.7h-2.7ZM335,335.3v-10h2.7v10h-2.7Z"/>
    <path class="st2" d="M345.9,336.4c.4.2.6.7.6,1.5s-.2,1.3-.6,1.7-.9.6-1.6.6-1.1,0-1.6-.2h-.3v-1.6h1c.5,0,.8-.2.8-.5s-.3-.4-.8-.4h-.5v-1.9c-1.2-.1-2-.6-2.5-1.5-.5-.8-.8-2.1-.8-3.9s.3-3,1-3.8,1.7-1.2,3.2-1.2,1.6.1,2.7.3h.5v2.2c-1.1-.1-1.8-.2-2.3-.2-.9,0-1.5.2-1.8.6s-.5,1.1-.5,2.2.1,1.8.5,2.2c.3.4.9.6,1.8.6l2.3-.2v2.1c-1.2.3-2.2.4-3,.4v.5c.9,0,1.5.1,1.9.4h0Z"/>
    <path class="st2" d="M356.7,328.4v4.2c0,.3,0,.5.2.7,0,.1.2.2.5.3v2c-.8,0-1.3,0-1.7-.1-.4,0-.8-.3-1.2-.6-1,.5-1.9.7-2.9.7-2.1,0-3.1-1.1-3.1-3.3s.3-1.8.9-2.3c.6-.4,1.5-.7,2.6-.8l2.1-.2v-.6c0-.4,0-.7-.3-.9-.2-.2-.5-.2-.9-.2l-3.8.2v-1.9c1.3-.4,2.7-.6,4-.6s2.2.3,2.8.8.9,1.4.9,2.6h-.1ZM355.4,322.7c-.1,0-.4.3-.8.5s-.7.3-1,.3-.8,0-1.4-.4c-.6-.2-1-.4-1.2-.4-.4,0-.8.2-1.3.5l-.3.2-.6-1.5c.3-.3.6-.6,1-.8s.8-.4,1.1-.4.8,0,1.4.4c.6.2,1,.4,1.2.4.3,0,.8-.2,1.3-.5l.3-.2.6,1.5s-.2.2-.3.4h0ZM352.2,331.1c-.7,0-1.1.5-1.1,1.2s.3,1.1,1,1.1,1.1,0,1.7-.2h.3v-2.2l-1.8.2h-.1Z"/>
    <path class="st2" d="M359.8,326.4c.7-.9,1.9-1.4,3.5-1.4s2.8.5,3.5,1.4,1.1,2.2,1.1,3.9c0,3.5-1.5,5.3-4.6,5.3s-4.6-1.8-4.6-5.3.4-2.9,1.1-3.9ZM361.9,332.5c.3.5.8.7,1.5.7s1.2-.2,1.5-.7.4-1.2.4-2.3-.1-1.8-.4-2.2c-.3-.5-.8-.7-1.5-.7s-1.2.2-1.5.7-.4,1.2-.4,2.2.1,1.8.4,2.3Z"/>
    <path class="st2" d="M291.8,351.3v14h-2.7v-.4c-.9.4-1.7.7-2.4.7-1.5,0-2.5-.4-3-1.3-.6-.8-.9-2.2-.9-4s.3-3.1,1-4c.7-.8,1.7-1.2,3.1-1.2s1,0,1.8.2h.4v-4h2.7,0ZM288.9,362.9h.3v-5.3c-.7,0-1.4-.2-2-.2-1.1,0-1.6,1-1.6,2.9s.1,1.8.4,2.2c.2.4.6.7,1.2.7s1.1,0,1.8-.2h0Z"/>
    <path class="st2" d="M302,358.4v4.2c0,.3,0,.5.2.7,0,0,.2.2.5.3v2h-1.7c-.4,0-.8-.3-1.2-.6-1,.5-1.9.7-2.9.7-2.1,0-3.1-1.1-3.1-3.3s.3-1.8.9-2.3c.6-.4,1.5-.7,2.6-.8l2.1-.2v-.6c0-.4,0-.7-.3-.9-.2-.2-.5-.2-.9-.2l-3.8.2v-1.9c1.3-.4,2.7-.6,4-.6s2.2.3,2.8.8.9,1.4.9,2.6h-.1ZM297.5,361.1c-.7,0-1.1.5-1.1,1.2s.3,1.1,1,1.1,1.1,0,1.7-.2h.3v-2.2l-1.8.2h-.1,0Z"/>
    <path class="st2" d="M316.1,357.8c-1.7-.2-2.8-.3-3.5-.3s-1.1,0-1.3.2c-.2,0-.3.3-.3.6s.1.4.4.5c.3,0,.9.2,2,.4s1.8.5,2.3.9.7,1.2.7,2.1c0,2.2-1.3,3.2-4,3.2s-1.9,0-3.2-.4h-.6v-2.4c1.7.2,2.8.3,3.5.3s1.1,0,1.3-.2c.2,0,.4-.3.4-.6s-.1-.4-.4-.6c-.2,0-.9-.3-1.9-.4-1-.2-1.8-.5-2.3-.9s-.8-1.2-.8-2.2.4-1.9,1.1-2.4,1.6-.8,2.8-.8,1.9,0,3.2.4h.7v2.6h-.1Z"/>
    <path class="st2" d="M318.9,356.4c.7-.9,1.9-1.4,3.5-1.4s2.8.5,3.5,1.4,1.1,2.2,1.1,3.9c0,3.5-1.5,5.3-4.6,5.3s-4.6-1.8-4.6-5.3.4-2.9,1.1-3.9ZM321,362.5c.3.5.8.7,1.5.7s1.2-.2,1.5-.7.4-1.2.4-2.3-.1-1.8-.4-2.2c-.3-.5-.8-.7-1.5-.7s-1.2.2-1.5.7-.4,1.2-.4,2.2.1,1.8.4,2.3Z"/>
    <path class="st2" d="M329.1,365.3v-14h2.7v14h-2.7Z"/>
    <path class="st2" d="M340.3,355.3h2.7v10h-2.7v-.6c-1,.5-1.8.8-2.5.8-1.4,0-2.3-.4-2.8-1.2s-.7-2-.7-3.8v-5.2h2.7v5.3c0,1,0,1.7.2,2,.2.4.5.5,1.2.5s1.1,0,1.7-.3h.3v-7.6h-.1Z"/>
    <path class="st2" d="M351.2,366.4c.4.2.6.7.6,1.5s-.2,1.3-.6,1.7-.9.6-1.6.6-1.1,0-1.6-.2h-.3v-1.6h1c.5,0,.8-.2.8-.5s-.3-.4-.8-.4h-.5v-1.9c-1.2,0-2-.6-2.5-1.5-.5-.8-.8-2.1-.8-3.9s.3-3,1-3.8,1.7-1.2,3.2-1.2,1.6,0,2.7.3h.5v2.2c-1.1,0-1.8-.2-2.3-.2-.9,0-1.5.2-1.8.6s-.5,1.1-.5,2.2.1,1.8.5,2.2c.3.4.9.6,1.8.6l2.3-.2v2.1c-1.2.3-2.2.4-3,.4v.5c.9,0,1.5,0,1.9.4h0Z"/>
    <path class="st2" d="M362,358.4v4.2c0,.3,0,.5.2.7,0,0,.2.2.5.3v2h-1.7c-.4,0-.8-.3-1.2-.6-1,.5-1.9.7-2.9.7-2.1,0-3.1-1.1-3.1-3.3s.3-1.8.9-2.3c.6-.4,1.5-.7,2.6-.8l2.1-.2v-.6c0-.4,0-.7-.3-.9-.2-.2-.5-.2-.9-.2l-3.8.2v-1.9c1.3-.4,2.7-.6,4-.6s2.2.3,2.8.8.9,1.4.9,2.6h-.1ZM360.7,352.7c-.1,0-.4.3-.8.5s-.7.3-1,.3-.8,0-1.4-.4c-.6-.2-1-.4-1.2-.4-.4,0-.8.2-1.3.5l-.3.2-.6-1.5c.3-.3.6-.6,1-.8s.8-.4,1.1-.4.8,0,1.4.4c.6.2,1,.4,1.2.4.3,0,.8-.2,1.3-.5l.3-.2.6,1.5s-.2.2-.3.4h0ZM357.5,361.1c-.7,0-1.1.5-1.1,1.2s.3,1.1,1,1.1,1.1,0,1.7-.2h.3v-2.2l-1.8.2h-.1Z"/>
    <path class="st2" d="M365.1,356.4c.7-.9,1.9-1.4,3.5-1.4s2.8.5,3.5,1.4,1.1,2.2,1.1,3.9c0,3.5-1.5,5.3-4.6,5.3s-4.6-1.8-4.6-5.3.4-2.9,1.1-3.9ZM367.2,362.5c.3.5.8.7,1.5.7s1.2-.2,1.5-.7.4-1.2.4-2.3-.1-1.8-.4-2.2c-.3-.5-.8-.7-1.5-.7s-1.2.2-1.5.7-.4,1.2-.4,2.2.1,1.8.4,2.3Z"/>
  </g>
  <g>
    <path class="st2" d="M73.5,466.4l3.1-13.6h5.2l3.1,13.6h-2.8l-.5-2.5h-4.8l-.5,2.5h-2.8ZM78.7,455.1l-1.4,6.5h3.7l-1.4-6.5h-1s.1,0,0,0Z"/>
    <path class="st2" d="M86.5,466.4v-10h2.7v1.1c1.1-.7,2.2-1.1,3.2-1.3v2.7c-1.1.2-2,.5-2.8.7h-.4v6.8h-2.7Z"/>
    <path class="st2" d="M97.5,466.6c-1.4,0-2.4-.4-3.1-1.2-.6-.8-1-2.1-1-4.1s.4-3.3,1.1-4.1c.7-.7,2-1.1,3.9-1.1s1.9,0,3.2.2h.7v14.2h-2.7v-4.5c-.9.4-1.6.5-2.2.5h0ZM98.4,458.5c-.9,0-1.5.2-1.8.7s-.5,1.2-.5,2.4c0,1.8.6,2.7,1.7,2.7s1,0,1.5-.2h.3v-5.5h-1.2Z"/>
    <path class="st2" d="M110.7,456.4h2.7v10h-2.7v-.6c-1,.5-1.8.8-2.5.8-1.4,0-2.3-.4-2.8-1.2s-.7-2-.7-3.8v-5.2h2.7v5.3c0,1,0,1.7.2,2s.5.5,1.2.5,1.1,0,1.7-.3h.3v-7.6h-.1Z"/>
    <path class="st2" d="M115.8,455.1v-2.7h2.7v2.7h-2.7ZM115.8,466.4v-10h2.7v10h-2.7Z"/>
    <path class="st2" d="M126.5,458.7h-2.5v4.9c0,.2,0,.3.2.4,0,0,.3.2.6.2h1.5v2.1c-.8.2-1.5.3-1.9.3-1.2,0-2-.3-2.5-.8-.4-.5-.7-1.5-.7-3v-4.2h-1.2v-2.3h1.2v-2.8h2.7v2.8h2.5v2.3h.1Z"/>
    <path class="st2" d="M131,463.9c.3.3.8.4,1.3.4h3.9v1.9c-1.5.4-2.9.6-4.2.6s-2.6-.4-3.3-1.2c-.7-.8-1-2.1-1-3.9,0-3.6,1.5-5.4,4.4-5.4s4.4,1.5,4.4,4.5l-.2,1.9h-5.9c0,.6.2,1.1.5,1.3h0,0ZM133.9,460.5c0-.8,0-1.4-.4-1.7-.3-.3-.7-.5-1.3-.5s-1.1.2-1.3.5c-.3.3-.4.9-.4,1.6h3.5,0Z"/>
    <path class="st2" d="M144,458.7h-2.5v4.9c0,.2,0,.3.2.4,0,0,.3.2.6.2h1.5v2.1c-.8.2-1.5.3-1.9.3-1.2,0-2-.3-2.5-.8-.4-.5-.7-1.5-.7-3v-4.2h-1.2v-2.3h1.2v-2.8h2.7v2.8h2.5v2.3h.1Z"/>
    <path class="st2" d="M151.7,456.4h2.7v10h-2.7v-.6c-1,.5-1.8.8-2.5.8-1.4,0-2.3-.4-2.8-1.2s-.7-2-.7-3.8v-5.2h2.7v5.3c0,1,0,1.7.2,2s.5.5,1.2.5,1.1,0,1.7-.3h.3v-7.6h0,0Z"/>
    <path class="st2" d="M156.8,466.4v-10h2.7v1.1c1.1-.7,2.2-1.1,3.2-1.3v2.7c-1.1.2-2,.5-2.8.7h-.4v6.8h-2.7,0Z"/>
    <path class="st2" d="M171.9,459.5v4.2c0,.3,0,.5.2.7,0,0,.2.2.5.3v2h-1.7c-.4,0-.8-.3-1.2-.6-1,.5-1.9.7-2.9.7-2.1,0-3.1-1.1-3.1-3.3s.3-1.8.9-2.3c.6-.4,1.5-.7,2.6-.8l2.1-.2v-.6c0-.4,0-.7-.3-.9-.2-.2-.5-.2-.9-.2l-3.8.2v-1.9c1.3-.4,2.7-.6,4-.6s2.2.3,2.8.8.9,1.4.9,2.6h0ZM167.4,462.1c-.7,0-1.1.5-1.1,1.2s.3,1.1,1,1.1,1.1,0,1.7-.2h.3v-2.2l-1.8.2h0Z"/>
    <path class="st2" d="M82.3,482.4v14h-2.7v-.4c-.9.4-1.7.7-2.4.7-1.5,0-2.5-.4-3-1.3-.6-.8-.9-2.2-.9-4s.3-3.1,1-4c.7-.8,1.7-1.2,3.1-1.2s1,0,1.8.2h.4v-4h2.7ZM79.4,494h.3v-5.3c-.7-.1-1.4-.2-2-.2-1.1,0-1.6,1-1.6,2.9s0,1.8.4,2.2c.2.4.6.7,1.2.7s1.1,0,1.8-.2h-.1,0Z"/>
    <path class="st2" d="M87.5,493.9c.3.3.8.4,1.3.4,1.2,0,2.3,0,3.3-.1h.6v1.9c-1.5.4-2.9.6-4.2.6s-2.6-.4-3.3-1.2-1-2.1-1-3.9c0-3.6,1.5-5.4,4.4-5.4s4.4,1.5,4.4,4.5l-.2,1.9h-5.9c0,.6.2,1.1.5,1.3h.1ZM90.5,490.5c0-.8,0-1.4-.4-1.7-.3-.3-.7-.5-1.3-.5s-1.1.2-1.3.5c-.3.3-.4.9-.4,1.6h3.5,0Z"/>
    <path class="st2" d="M106.6,488.9c-1.7-.2-2.8-.3-3.5-.3s-1.1,0-1.3.2c-.2.1-.3.3-.3.6s0,.4.4.5c.3,0,.9.2,2,.4s1.8.5,2.3.9.7,1.2.7,2.1c0,2.2-1.3,3.2-4,3.2s-1.9-.1-3.2-.4h-.6v-2.4c1.7.2,2.8.3,3.5.3s1.1,0,1.3-.2c.2-.1.4-.3.4-.6s0-.4-.4-.6-.9-.3-1.9-.4c-1-.2-1.8-.5-2.3-.9s-.8-1.2-.8-2.2.4-1.9,1.1-2.4c.7-.5,1.6-.8,2.8-.8s1.9.1,3.2.4h.7v2.6h-.1Z"/>
    <path class="st2" d="M109.4,487.5c.7-.9,1.9-1.4,3.5-1.4s2.8.5,3.5,1.4,1.1,2.2,1.1,3.8c0,3.5-1.5,5.3-4.6,5.3s-4.6-1.8-4.6-5.3.4-2.9,1.1-3.8ZM111.5,493.6c.3.5.8.7,1.5.7s1.2-.2,1.5-.7.4-1.2.4-2.3,0-1.8-.4-2.2c-.3-.5-.8-.7-1.5-.7s-1.2.2-1.5.7-.4,1.2-.4,2.2,0,1.8.4,2.3Z"/>
    <path class="st2" d="M119.6,496.4v-14h2.7v14h-2.7Z"/>
    <path class="st2" d="M130.8,486.4h2.7v10h-2.7v-.6c-1,.5-1.8.8-2.5.8-1.4,0-2.3-.4-2.8-1.2s-.7-2-.7-3.8v-5.2h2.7v5.3c0,1,0,1.7.2,2s.5.5,1.2.5,1.1,0,1.7-.3h.3v-7.6h0,0Z"/>
    <path class="st2" d="M141.7,497.5c.4.2.6.7.6,1.5s-.2,1.3-.6,1.7-.9.6-1.6.6-1.1,0-1.6-.2h-.3v-1.6h1c.5,0,.8-.2.8-.5s-.3-.4-.8-.4h-.5v-1.9c-1.2-.1-2-.6-2.5-1.5-.5-.8-.8-2.1-.8-3.9s.3-3,1-3.8,1.7-1.2,3.2-1.2,1.6.1,2.7.3h.5v2.2c-1.1-.1-1.8-.2-2.3-.2-.9,0-1.5.2-1.8.6s-.5,1.1-.5,2.2,0,1.8.5,2.2c.3.4.9.6,1.8.6l2.3-.2v2.1c-1.2.3-2.2.4-3,.4v.5c.9,0,1.5.1,1.9.4h0Z"/>
    <path class="st2" d="M145.3,487.5c.7-.9,1.9-1.4,3.5-1.4s2.8.5,3.5,1.4,1.1,2.2,1.1,3.8c0,3.5-1.5,5.3-4.6,5.3s-4.6-1.8-4.6-5.3.4-2.9,1.1-3.8ZM151.9,483.8c0,.1-.4.3-.8.5s-.7.3-1,.3-.8-.1-1.4-.4c-.6-.2-1-.4-1.2-.4-.4,0-.8.2-1.3.5l-.3.2-.6-1.5c.3-.3.6-.6,1-.8s.8-.4,1.1-.4.8.1,1.4.4c.6.2,1,.4,1.2.4.3,0,.8-.2,1.3-.5l.3-.2.6,1.5s-.2.2-.3.4ZM147.4,493.6c.3.5.8.7,1.5.7s1.2-.2,1.5-.7.4-1.2.4-2.3,0-1.8-.4-2.2c-.3-.5-.8-.7-1.5-.7s-1.2.2-1.5.7-.4,1.2-.4,2.2,0,1.8.4,2.3Z"/>
    <path class="st2" d="M158.1,493.9c.3.3.8.4,1.3.4,1.2,0,2.3,0,3.3-.1h.6v1.9c-1.5.4-2.9.6-4.2.6s-2.6-.4-3.3-1.2-1-2.1-1-3.9c0-3.6,1.5-5.4,4.4-5.4s4.4,1.5,4.4,4.5l-.2,1.9h-5.9c0,.6.2,1.1.5,1.3h0,0ZM161.1,490.5c0-.8,0-1.4-.4-1.7-.3-.3-.7-.5-1.3-.5s-1.1.2-1.3.5c-.3.3-.4.9-.4,1.6h3.5,0Z"/>
    <path class="st2" d="M172.8,488.9c-1.7-.2-2.8-.3-3.5-.3s-1.1,0-1.3.2c-.2.1-.3.3-.3.6s0,.4.4.5c.3,0,.9.2,2,.4s1.8.5,2.3.9.7,1.2.7,2.1c0,2.2-1.3,3.2-4,3.2s-1.9-.1-3.2-.4h-.6v-2.4c1.7.2,2.8.3,3.5.3s1.1,0,1.3-.2c.2-.1.4-.3.4-.6s0-.4-.4-.6c-.2-.1-.9-.3-1.9-.4-1-.2-1.8-.5-2.3-.9s-.8-1.2-.8-2.2.4-1.9,1.1-2.4,1.6-.8,2.8-.8,1.9.1,3.2.4h.7v2.6h0Z"/>
  </g>
  <g>
    <path class="st2" d="M287.4,615.1h-4.6v-13.6h4.6c1.2,0,2.1,0,2.9.4.8.2,1.4.7,1.8,1.2.4.6.7,1.2.9,2s.2,1.8.2,3,0,2.2-.2,3c0,.8-.4,1.5-.8,2.2-.4.6-1,1.1-1.8,1.4-.8.3-1.8.4-3,.4h0ZM290.3,609.7v-3.6c0-.5-.2-.9-.4-1.2-.2-.4-.5-.6-.9-.8-.4,0-.9-.2-1.6-.2h-1.8v8.8h1.8c1,0,1.7-.3,2.2-.8.4-.4.6-1.2.7-2.2Z"/>
    <path class="st2" d="M298,612.6c.3.3.8.4,1.3.4h3.9v1.9c-1.5.4-2.9.6-4.2.6s-2.6-.4-3.3-1.2-1-2.1-1-3.9c0-3.6,1.5-5.4,4.4-5.4s4.4,1.5,4.4,4.5l-.2,1.9h-5.9c0,.6.2,1.1.5,1.3h.1,0ZM301,609.2c0-.8,0-1.4-.4-1.7s-.7-.5-1.3-.5-1.1.2-1.3.5-.4.9-.4,1.6h3.5-.1Z"/>
    <path class="st2" d="M312.7,607.6c-1.7-.2-2.8-.3-3.5-.3s-1.1,0-1.3.2c-.2,0-.3.3-.3.6s0,.4.4.5c.3,0,.9.2,2,.4s1.8.5,2.3.9.7,1.2.7,2.1c0,2.2-1.3,3.2-4,3.2s-1.9,0-3.2-.4h-.6v-2.4c1.7.2,2.8.3,3.5.3s1.1,0,1.3-.2c.2,0,.4-.3.4-.6s0-.4-.4-.6c-.2,0-.9-.3-1.9-.4-1-.2-1.8-.5-2.3-.9s-.8-1.2-.8-2.2.4-1.9,1.1-2.4,1.6-.8,2.8-.8,1.9,0,3.2.4h.7v2.6h0Z"/>
    <path class="st2" d="M317.6,612.6c.3.3.8.4,1.3.4h3.9v1.9c-1.5.4-2.9.6-4.2.6s-2.6-.4-3.3-1.2-1-2.1-1-3.9c0-3.6,1.5-5.4,4.4-5.4s4.4,1.5,4.4,4.5l-.2,1.9h-5.9c0,.6.2,1.1.5,1.3h.1ZM320.6,609.2c0-.8,0-1.4-.4-1.7s-.7-.5-1.3-.5-1.1.2-1.3.5-.4.9-.4,1.6h3.5-.1Z"/>
    <path class="st2" d="M327.8,615.1h-2.7v-10h2.7v.6c.9-.5,1.7-.8,2.5-.8,1.3,0,2.3.4,2.8,1.2s.8,2,.8,3.6v5.4h-2.7v-5.3c0-.9,0-1.5-.3-1.9s-.6-.6-1.2-.6-1.1,0-1.6.3h-.2v7.6h0Z"/>
    <path class="st2" d="M335.2,605.1h2.8l1.6,7.7h.6l1.7-7.7h2.7l-2.4,10h-4.6l-2.4-10h0Z"/>
    <path class="st2" d="M346.5,606.2c.7-.9,1.9-1.4,3.5-1.4s2.8.5,3.5,1.4,1.1,2.2,1.1,3.9c0,3.5-1.5,5.3-4.6,5.3s-4.6-1.8-4.6-5.3.4-2.9,1.1-3.9ZM348.6,612.3c.3.5.8.7,1.5.7s1.2-.2,1.5-.7.4-1.2.4-2.3,0-1.8-.4-2.2-.8-.7-1.5-.7-1.2.2-1.5.7-.4,1.2-.4,2.2,0,1.8.4,2.3Z"/>
    <path class="st2" d="M356.7,615.1v-14h2.7v14h-2.7Z"/>
    <path class="st2" d="M361.1,605.1h2.8l1.6,7.7h.6l1.7-7.7h2.7l-2.4,10h-4.6l-2.4-10h0Z"/>
    <path class="st2" d="M372,603.8v-2.7h2.7v2.7h-2.7ZM372,615.1v-10h2.7v10h-2.7Z"/>
    <path class="st2" d="M379.8,615.1h-2.7v-10h2.7v.6c.9-.5,1.7-.8,2.4-.8,1.1,0,1.9.3,2.5.9,1.2-.6,2.3-.9,3.4-.9s2.2.4,2.8,1.2.8,2,.8,3.7v5.4h-2.7v-5.3c0-.9,0-1.5-.3-1.9-.2-.4-.6-.6-1.1-.6s-.9,0-1.6.3h-.3v7.6h-2.7v-5.1c0-1,0-1.7-.3-2.1-.2-.4-.6-.6-1.1-.6s-1,0-1.5.3h-.2v7.6-.3h0Z"/>
    <path class="st2" d="M396.6,612.6c.3.3.8.4,1.3.4h3.9v1.9c-1.5.4-2.9.6-4.2.6s-2.6-.4-3.3-1.2-1-2.1-1-3.9c0-3.6,1.5-5.4,4.4-5.4s4.4,1.5,4.4,4.5l-.2,1.9h-5.9c0,.6.2,1.1.5,1.3h.1ZM399.5,609.2c0-.8,0-1.4-.4-1.7-.3-.3-.7-.5-1.3-.5s-1.1.2-1.3.5c-.3.3-.4.9-.4,1.6h3.5-.1Z"/>
    <path class="st2" d="M406.8,615.1h-2.7v-10h2.7v.6c.9-.5,1.7-.8,2.5-.8,1.3,0,2.3.4,2.8,1.2s.8,2,.8,3.6v5.4h-2.7v-5.3c0-.9,0-1.5-.3-1.9s-.6-.6-1.2-.6-1.1,0-1.6.3h-.2v7.6h0Z"/>
    <path class="st2" d="M420.7,607.4h-2.5v5c0,.2,0,.3.2.4,0,0,.3.2.6.2h1.5v2.1c-.8.2-1.5.3-1.9.3-1.2,0-2-.3-2.5-.8s-.7-1.5-.7-3v-4.2h-1.2v-2.3h1.2v-2.8h2.7v2.8h2.5v2.3h.1,0Z"/>
    <path class="st2" d="M423,606.2c.7-.9,1.9-1.4,3.5-1.4s2.8.5,3.5,1.4,1.1,2.2,1.1,3.9c0,3.5-1.5,5.3-4.6,5.3s-4.6-1.8-4.6-5.3.4-2.9,1.1-3.9ZM425,612.3c.3.5.8.7,1.5.7s1.2-.2,1.5-.7.4-1.2.4-2.3,0-1.8-.4-2.2-.8-.7-1.5-.7-1.2.2-1.5.7-.4,1.2-.4,2.2,0,1.8.4,2.3Z"/>
  </g>
  <g>
    <path class="st2" d="M82.5,744.5v-13.6h2.8v13.6h-2.8Z"/>
    <path class="st2" d="M90.6,744.5h-2.7v-10h2.7v.6c.9-.5,1.7-.8,2.5-.8,1.3,0,2.3.4,2.8,1.2s.8,2,.8,3.6v5.4h-2.7v-5.3c0-.9,0-1.5-.3-1.9s-.6-.6-1.2-.6-1.1,0-1.6.3h-.2v7.6h0Z"/>
    <path class="st2" d="M104.5,736.8h-2.5v4.9c0,.2,0,.3.2.4,0,0,.3.2.6.2h1.5v2.1c-.8.2-1.5.3-1.9.3-1.2,0-2-.3-2.5-.8-.4-.5-.7-1.5-.7-3v-4.2h-1.2v-2.3h1.2v-2.8h2.7v2.8h2.5v2.3h.1Z"/>
    <path class="st2" d="M109,742c.3.3.8.4,1.3.4h3.9v1.9c-1.5.4-2.9.6-4.2.6s-2.6-.4-3.3-1.2-1-2.1-1-3.9c0-3.6,1.5-5.4,4.4-5.4s4.4,1.5,4.4,4.5l-.2,1.9h-5.9c0,.6.2,1.1.5,1.3h.1ZM111.9,738.6c0-.8,0-1.4-.4-1.7-.3-.3-.7-.5-1.3-.5s-1.1.2-1.3.5c-.3.3-.4.9-.4,1.6h3.5,0Z"/>
    <path class="st2" d="M125.5,745.7c0,1.1-.4,2-1.3,2.5s-2.1.8-3.6.8-2.7-.2-3.5-.6-1.2-1.1-1.2-2.2.5-1.6,1.4-2.4c-.5-.3-.7-.8-.7-1.5s.2-.7.6-1.3l.2-.3c-.9-.7-1.4-1.6-1.4-2.9s.4-2.2,1.1-2.8,1.8-.9,3.1-.9,1.1,0,1.7.2h3.5v2.1h-1.5c.3.3.4.8.4,1.2,0,1.3-.3,2.3-1,2.8s-1.7.8-3.2.8-.6,0-.8,0c0,.3-.2.6-.2.9s0,.4.3.5.8,0,1.6,0c1.7,0,2.8.2,3.4.7.6.4.9,1.2.9,2.4h.2ZM118.6,746c0,.6.7.9,2.1.9s2.1-.3,2.1-1,0-.6-.4-.7c-.2,0-.7-.2-1.5-.2h-1.8c-.4.2-.5.6-.5,1h0ZM118.8,737.8c0,1,.5,1.5,1.5,1.5s1.5-.5,1.5-1.5-.5-1.5-1.5-1.5-1.5.5-1.5,1.5Z"/>
    <path class="st2" d="M127.2,744.5v-10h2.7v1.1c1.1-.7,2.2-1.1,3.2-1.3v2.7c-1.1.2-2,.5-2.8.7h-.4v6.8s-2.7,0-2.7,0Z"/>
    <path class="st2" d="M142.3,737.6v4.2c0,.3,0,.5.2.7,0,0,.2.2.5.3v2h-1.7c-.4,0-.8-.3-1.2-.6-1,.5-1.9.7-2.9.7-2.1,0-3.1-1.1-3.1-3.3s.3-1.8.9-2.3c.6-.4,1.5-.7,2.6-.8l2.1-.2v-.6c0-.4,0-.7-.3-.9-.2-.2-.5-.2-.9-.2l-3.8.2v-1.9c1.3-.4,2.7-.6,4-.6s2.2.3,2.8.8.9,1.4.9,2.6h0ZM137.8,740.2c-.7,0-1.1.5-1.1,1.2s.3,1.1,1,1.1,1.1,0,1.7-.2h.3v-2.2l-1.8.2h0Z"/>
    <path class="st2" d="M150.6,745.6c.4.2.6.7.6,1.5s-.2,1.3-.6,1.7-.9.6-1.6.6-1.1,0-1.6-.2h-.3v-1.6h1c.5,0,.8-.2.8-.5s-.3-.4-.8-.4h-.5v-1.9c-1.2,0-2-.6-2.5-1.5-.5-.8-.8-2.1-.8-3.9s.3-3,1-3.8,1.7-1.2,3.2-1.2,1.6,0,2.7.3h.5v2.2c-1.1,0-1.8-.2-2.3-.2-.9,0-1.5.2-1.8.6s-.5,1.1-.5,2.2,0,1.8.5,2.2c.3.4.9.6,1.8.6l2.3-.2v2.1c-1.2.3-2.2.4-3,.4v.5c.9,0,1.5,0,1.9.4h0Z"/>
    <path class="st2" d="M161.4,737.6v4.2c0,.3,0,.5.2.7,0,0,.2.2.5.3v2h-1.7c-.4,0-.8-.3-1.2-.6-1,.5-1.9.7-2.9.7-2.1,0-3.1-1.1-3.1-3.3s.3-1.8.9-2.3c.6-.4,1.5-.7,2.6-.8l2.1-.2v-.6c0-.4,0-.7-.3-.9-.2-.2-.5-.2-.9-.2l-3.8.2v-1.9c1.3-.4,2.7-.6,4-.6s2.2.3,2.8.8.9,1.4.9,2.6h0ZM160.1,731.9s-.4.3-.8.5-.7.3-1,.3-.8,0-1.4-.4c-.6-.2-1-.4-1.2-.4-.4,0-.8.2-1.3.5l-.3.2-.6-1.5c.3-.3.6-.6,1-.8s.8-.4,1.1-.4.8,0,1.4.4c.6.2,1,.4,1.2.4.3,0,.8-.2,1.3-.5l.3-.2.6,1.5s-.2.2-.3.4ZM156.9,740.2c-.7,0-1.1.5-1.1,1.2s.3,1.1,1,1.1,1.1,0,1.7-.2h.3v-2.2l-1.8.2h0Z"/>
    <path class="st2" d="M164.5,735.6c.7-.9,1.9-1.4,3.5-1.4s2.8.5,3.5,1.4,1.1,2.2,1.1,3.8c0,3.5-1.5,5.3-4.6,5.3s-4.6-1.8-4.6-5.3.4-2.9,1.1-3.8ZM166.6,741.7c.3.5.8.7,1.5.7s1.2-.2,1.5-.7.4-1.2.4-2.3,0-1.8-.4-2.2-.8-.7-1.5-.7-1.2.2-1.5.7-.4,1.2-.4,2.2,0,1.8.4,2.3Z"/>
  </g>
  <g>
    <path class="st2" d="M284.5,850.3v-2.4h10v2.4h-3.6v11.2h-2.8v-11.2h-3.6,0Z"/>
    <path class="st2" d="M297.3,859c.3.3.8.4,1.3.4,1.2,0,2.3,0,3.3,0h.6v1.9c-1.5.4-2.9.6-4.2.6s-2.6-.4-3.3-1.2-1-2.1-1-3.9c0-3.6,1.5-5.4,4.4-5.4s4.4,1.5,4.4,4.5l-.2,1.9h-5.9c0,.6.2,1.1.5,1.3h0ZM300.2,855.6c0-.8,0-1.4-.4-1.7s-.7-.5-1.3-.5-1.1.2-1.3.5-.4.9-.4,1.6h3.5-.1Z"/>
    <path class="st2" d="M312,854c-1.7-.2-2.8-.3-3.5-.3s-1.1,0-1.3.2c-.2,0-.3.3-.3.6s0,.4.4.5c.3,0,.9.2,2,.4s1.8.5,2.3.9.7,1.2.7,2.1c0,2.2-1.3,3.2-4,3.2s-1.9,0-3.2-.4h-.6v-2.4c1.7.2,2.8.3,3.5.3s1.1,0,1.3-.2c.2,0,.4-.3.4-.6s0-.4-.4-.6c-.2,0-.9-.3-1.9-.4-1-.2-1.8-.5-2.3-.9s-.8-1.2-.8-2.2.4-1.9,1.1-2.4,1.6-.8,2.8-.8,1.9,0,3.2.4h.7v2.6h-.1Z"/>
    <path class="st2" d="M319.8,853.8h-2.5v5c0,.2,0,.3.2.4,0,0,.3.2.6.2h1.5v2.1c-.8.2-1.5.3-1.9.3-1.2,0-2-.3-2.5-.8s-.7-1.5-.7-3v-4.2h-1.2v-2.3h1.2v-2.8h2.7v2.8h2.5v2.3h.1,0Z"/>
    <path class="st2" d="M324.2,859c.3.3.8.4,1.3.4,1.2,0,2.3,0,3.3,0h.6v1.9c-1.5.4-2.9.6-4.2.6s-2.6-.4-3.3-1.2c-.7-.8-1-2.1-1-3.9,0-3.6,1.5-5.4,4.4-5.4s4.4,1.5,4.4,4.5l-.2,1.9h-5.9c0,.6.2,1.1.5,1.3h.1ZM327.1,855.6c0-.8,0-1.4-.4-1.7s-.7-.5-1.3-.5-1.1.2-1.3.5-.4.9-.4,1.6h3.5-.1Z"/>
    <path class="st2" d="M338.9,854c-1.7-.2-2.8-.3-3.5-.3s-1.1,0-1.3.2c-.2,0-.3.3-.3.6s0,.4.4.5c.3,0,.9.2,2,.4s1.8.5,2.3.9.7,1.2.7,2.1c0,2.2-1.3,3.2-4,3.2s-1.9,0-3.2-.4h-.6v-2.4c1.7.2,2.8.3,3.5.3s1.1,0,1.3-.2c.2,0,.4-.3.4-.6s0-.4-.4-.6c-.2,0-.9-.3-1.9-.4-1-.2-1.8-.5-2.3-.9s-.8-1.2-.8-2.2.4-1.9,1.1-2.4,1.6-.8,2.8-.8,1.9,0,3.2.4h.7v2.6h-.1Z"/>
    <path class="st2" d="M348.2,859c.3.3.8.4,1.3.4,1.2,0,2.3,0,3.3,0h.6v1.9c-1.5.4-2.9.6-4.2.6s-2.6-.4-3.3-1.2c-.7-.8-1-2.1-1-3.9,0-3.6,1.5-5.4,4.4-5.4s4.4,1.5,4.4,4.5l-.2,1.9h-5.9c0,.6.2,1.1.5,1.3h.1ZM351.2,855.6c0-.8,0-1.4-.4-1.7s-.7-.5-1.3-.5-1.1.2-1.3.5-.4.9-.4,1.6h3.5-.1Z"/>
    <path class="st2" d="M366,856.6v-2.4h4v7.1c-1.9.3-3.5.5-4.6.5-2.1,0-3.6-.6-4.4-1.7s-1.2-2.9-1.2-5.4.4-4.2,1.2-5.3c.8-1.1,2.2-1.6,4.2-1.6s2.6,0,4,.4h.7v2.3c-1.6-.2-2.9-.3-3.9-.3s-1.7,0-2.1.4c-.4.2-.7.7-.9,1.3-.2.6-.3,1.8-.3,3.3s.2,2.7.6,3.3,1.2.9,2.4.9h1.7v-2.7h-1.4Z"/>
    <path class="st2" d="M380,854.6v4.2c0,.3,0,.5.2.7,0,0,.2.2.5.3v2c-.8,0-1.3,0-1.7,0-.4,0-.8-.3-1.2-.6-1,.5-1.9.7-2.9.7-2.1,0-3.1-1.1-3.1-3.3s.3-1.8.9-2.3c.6-.4,1.5-.7,2.6-.8l2.1-.2v-.6c0-.4,0-.7-.3-.9-.2-.2-.5-.2-.9-.2l-3.8.2v-1.9c1.3-.4,2.7-.6,4-.6s2.2.3,2.8.8c.6.5.9,1.4.9,2.6h-.1ZM375.5,857.3c-.7,0-1.1.5-1.1,1.2s.3,1.1,1,1.1,1.1,0,1.7-.2h.3v-2.2l-1.8.2h-.1Z"/>
    <path class="st2" d="M382.6,861.5v-10h2.7v1.1c1.1-.7,2.2-1.1,3.2-1.3v2.7c-1.1.2-2,.5-2.8.7h-.4v6.8h-2.7Z"/>
    <path class="st2" d="M397.7,854.6v4.2c0,.3,0,.5.2.7,0,0,.2.2.5.3v2c-.8,0-1.3,0-1.7,0-.4,0-.8-.3-1.2-.6-1,.5-1.9.7-2.9.7-2.1,0-3.1-1.1-3.1-3.3s.3-1.8.9-2.3c.6-.4,1.5-.7,2.6-.8l2.1-.2v-.6c0-.4,0-.7-.3-.9s-.5-.2-.9-.2l-3.8.2v-1.9c1.3-.4,2.7-.6,4-.6s2.2.3,2.8.8c.6.5.8,1.4.8,2.6h0ZM393.2,857.3c-.7,0-1.1.5-1.1,1.2s.3,1.1,1,1.1,1.1,0,1.7-.2h.3v-2.2l-1.8.2h-.1Z"/>
    <path class="st2" d="M402.9,861.5h-2.7v-10h2.7v.6c.9-.5,1.7-.8,2.5-.8,1.3,0,2.3.4,2.8,1.2s.8,2,.8,3.6v5.4h-2.7v-5.3c0-.9,0-1.5-.3-1.9-.2-.4-.6-.6-1.2-.6s-1.1,0-1.6.3h-.2v7.6h-.1,0Z"/>
    <path class="st2" d="M416.8,853.8h-2.5v5c0,.2,0,.3.2.4,0,0,.3.2.6.2h1.5v2.1c-.8.2-1.5.3-1.9.3-1.2,0-2-.3-2.5-.8-.4-.5-.7-1.5-.7-3v-4.2h-1.2v-2.3h1.2v-2.8h2.7v2.8h2.5v2.3h.1,0Z"/>
    <path class="st2" d="M418.6,850.2v-2.7h2.7v2.7h-2.7ZM418.6,861.5v-10h2.7v10h-2.7Z"/>
    <path class="st2" d="M431.4,854.6v4.2c0,.3,0,.5.2.7,0,0,.2.2.5.3v2c-.8,0-1.3,0-1.7,0-.4,0-.8-.3-1.2-.6-1,.5-1.9.7-2.9.7-2.1,0-3.1-1.1-3.1-3.3s.3-1.8.9-2.3c.6-.4,1.5-.7,2.6-.8l2.1-.2v-.6c0-.4,0-.7-.3-.9s-.5-.2-.9-.2l-3.8.2v-1.9c1.3-.4,2.7-.6,4-.6s2.2.3,2.8.8c.6.5.8,1.4.8,2.6h0ZM426.9,857.3c-.7,0-1.1.5-1.1,1.2s.3,1.1,1,1.1,1.1,0,1.7-.2h.3v-2.2l-1.8.2h-.1Z"/>
    <path class="st2" d="M311.8,877.5v14h-2.7v-.4c-.9.4-1.7.7-2.4.7-1.5,0-2.5-.4-3-1.3s-.9-2.2-.9-4,.3-3.1,1-4c.7-.8,1.7-1.2,3.1-1.2s1,0,1.8.2h.4v-4h2.7ZM308.8,889.1h.3v-5.3c-.7,0-1.4-.2-2-.2-1.1,0-1.6,1-1.6,2.9s0,1.8.4,2.2c.2.4.6.7,1.2.7s1.1,0,1.8-.2h-.1,0Z"/>
    <path class="st2" d="M316.9,889c.3.3.8.4,1.3.4h3.9v1.9c-1.5.4-2.9.6-4.2.6s-2.6-.4-3.3-1.2-1-2.1-1-3.9c0-3.6,1.5-5.4,4.4-5.4s4.4,1.5,4.4,4.5l-.2,1.9h-5.9c0,.6.2,1.1.5,1.3h.1ZM319.9,885.6c0-.8,0-1.4-.4-1.7s-.7-.5-1.3-.5-1.1.2-1.3.5c-.3.3-.4.9-.4,1.6h3.5-.1Z"/>
    <path class="st2" d="M334.1,891.7c-2.1,0-3.5-.6-4.4-1.7s-1.3-2.9-1.3-5.3.4-4.2,1.3-5.4,2.3-1.8,4.4-1.8,3.5.6,4.4,1.8,1.3,3,1.3,5.4-.7,5-2.1,6l1.7,2.7-2.5,1.2-1.8-2.9h-1ZM331.9,888.3c.4.7,1.1,1,2.2,1s1.8-.3,2.2-1c.4-.7.6-1.9.6-3.5s-.2-2.9-.6-3.6-1.1-1.1-2.2-1.1-1.8.4-2.2,1.1c-.4.7-.6,1.9-.6,3.6s.2,2.8.6,3.5Z"/>
    <path class="st2" d="M347.8,881.5h2.7v10h-2.7v-.6c-1,.5-1.8.8-2.5.8-1.4,0-2.3-.4-2.8-1.2s-.7-2-.7-3.8v-5.2h2.7v5.3c0,1,0,1.7.2,2,.2.4.5.5,1.2.5s1.1,0,1.7-.3h.3v-7.6h-.1Z"/>
    <path class="st2" d="M360.6,884.6v4.2c0,.3,0,.5.2.7,0,0,.2.2.5.3v2h-1.7c-.4,0-.8-.3-1.2-.6-1,.5-1.9.7-2.9.7-2.1,0-3.1-1.1-3.1-3.3s.3-1.8.9-2.3c.6-.4,1.5-.7,2.6-.8l2.1-.2v-.6c0-.4,0-.7-.3-.9-.2-.2-.5-.2-.9-.2l-3.8.2v-1.9c1.3-.4,2.7-.6,4-.6s2.2.3,2.8.8c.6.5.9,1.4.9,2.6h-.1ZM356.1,887.3c-.7,0-1.1.5-1.1,1.2s.3,1.1,1,1.1,1.1,0,1.7-.2h.3v-2.2l-1.8.2h-.1Z"/>
    <path class="st2" d="M363.3,891.5v-14h2.7v14h-2.7Z"/>
    <path class="st2" d="M368.6,880.2v-2.7h2.7v2.7h-2.7ZM368.6,891.5v-10h2.7v10h-2.7Z"/>
    <path class="st2" d="M382.2,877.5v14h-2.7v-.4c-.9.4-1.7.7-2.4.7-1.5,0-2.5-.4-3-1.3-.6-.8-.9-2.2-.9-4s.3-3.1,1-4c.7-.8,1.7-1.2,3.1-1.2s1,0,1.8.2h.4v-4h2.7ZM379.3,889.1h.3v-5.3c-.7,0-1.4-.2-2-.2-1.1,0-1.6,1-1.6,2.9s0,1.8.4,2.2.6.7,1.2.7,1.1,0,1.8-.2h-.1,0Z"/>
    <path class="st2" d="M392.4,884.6v4.2c0,.3,0,.5.2.7,0,0,.2.2.5.3v2h-1.7c-.4,0-.8-.3-1.2-.6-1,.5-1.9.7-2.9.7-2.1,0-3.1-1.1-3.1-3.3s.3-1.8.9-2.3c.6-.4,1.5-.7,2.6-.8l2.1-.2v-.6c0-.4,0-.7-.3-.9-.2-.2-.5-.2-.9-.2l-3.8.2v-1.9c1.3-.4,2.7-.6,4-.6s2.2.3,2.8.8c.6.5.9,1.4.9,2.6h-.1ZM387.9,887.3c-.7,0-1.1.5-1.1,1.2s.3,1.1,1,1.1,1.1,0,1.7-.2h.3v-2.2l-1.8.2h-.1Z"/>
    <path class="st2" d="M403.4,877.5v14h-2.7v-.4c-.9.4-1.7.7-2.4.7-1.5,0-2.5-.4-3-1.3s-.9-2.2-.9-4,.3-3.1,1-4c.7-.8,1.7-1.2,3.1-1.2s1,0,1.8.2h.4v-4h2.7ZM400.5,889.1h.3v-5.3c-.7,0-1.4-.2-2-.2-1.1,0-1.6,1-1.6,2.9s0,1.8.4,2.2c.2.4.6.7,1.2.7s1.1,0,1.8-.2h-.1,0Z"/>
    <path class="st2" d="M408.6,889c.3.3.8.4,1.3.4h3.9v1.9c-1.5.4-2.9.6-4.2.6s-2.6-.4-3.3-1.2-1-2.1-1-3.9c0-3.6,1.5-5.4,4.4-5.4s4.4,1.5,4.4,4.5l-.2,1.9h-5.9c0,.6.2,1.1.5,1.3h.1ZM411.6,885.6c0-.8,0-1.4-.4-1.7s-.7-.5-1.3-.5-1.1.2-1.3.5c-.3.3-.4.9-.4,1.6h3.5-.1Z"/>
  </g>
  <g>
    <path class="st2" d="M99.6,1009.2v-13.6h4.7l2.4,9.9,2.4-9.9h4.7v13.6h-2.8v-10.5h-.3l-2.7,9.9h-2.8l-2.7-9.9h-.3v10.5h-2.8s.2,0,.2,0Z"/>
    <path class="st2" d="M119.1,1006.7c.3.3.8.4,1.3.4h3.9v1.9c-1.5.4-2.9.6-4.2.6s-2.6-.4-3.3-1.2c-.7-.8-1-2.1-1-3.9,0-3.6,1.5-5.4,4.4-5.4s4.4,1.5,4.4,4.5l-.2,1.9h-5.9c0,.6.2,1.1.5,1.3h0ZM122.1,1003.3c0-.8,0-1.4-.4-1.7s-.7-.5-1.3-.5-1.1.2-1.3.5c-.3.3-.4.9-.4,1.6h3.5,0Z"/>
    <path class="st2" d="M126.6,1009.2v-10h2.7v1.1c1.1-.7,2.2-1.1,3.2-1.3v2.7c-1.1.2-2,.5-2.8.7h-.4v6.8h-2.7,0Z"/>
    <path class="st2" d="M137.8,999c.7,0,1.6,0,2.7.3h.5v2.2c-1.1,0-1.8-.2-2.3-.2-.9,0-1.5.2-1.8.6s-.5,1.1-.5,2.2,0,1.8.5,2.2c.3.4.9.6,1.8.6l2.3-.2v2.1c-1.3.3-2.4.4-3.2.4-1.5,0-2.5-.4-3.2-1.2-.6-.8-1-2.2-1-4s.3-3.2,1-4,1.7-1.2,3.2-1.2v.2h0Z"/>
    <path class="st2" d="M150.7,1002.4v4.2c0,.3,0,.5.2.7,0,0,.2.2.5.3v2h-1.7c-.4,0-.8-.3-1.2-.6-1,.5-1.9.7-2.9.7-2.1,0-3.1-1.1-3.1-3.3s.3-1.8.9-2.3c.6-.4,1.5-.7,2.6-.8l2.1-.2v-.6c0-.4,0-.7-.3-.9-.2-.2-.5-.2-.9-.2l-3.8.2v-1.9c1.3-.4,2.7-.6,4-.6s2.2.3,2.8.8c.6.5.9,1.4.9,2.6h0ZM146.2,1005c-.7,0-1.1.5-1.1,1.2s.3,1.1,1,1.1,1.1,0,1.7-.2h.3v-2.2l-1.8.2h0Z"/>
    <path class="st2" d="M161.7,995.2v14h-2.7v-.4c-.9.4-1.7.7-2.4.7-1.5,0-2.5-.4-3-1.3s-.9-2.2-.9-4,.3-3.1,1-4,1.7-1.2,3.1-1.2,1,0,1.8.2h.4v-4h2.7ZM158.8,1006.8h.3v-5.3c-.7,0-1.4-.2-2-.2-1.1,0-1.6,1-1.6,2.9s0,1.8.4,2.2c.2.4.6.7,1.2.7s1.1,0,1.8-.2h-.1Z"/>
    <path class="st2" d="M164.7,1000.4c.7-.9,1.9-1.4,3.5-1.4s2.8.5,3.5,1.4,1.1,2.2,1.1,3.8c0,3.5-1.5,5.3-4.6,5.3s-4.6-1.8-4.6-5.3.4-2.9,1.1-3.8ZM166.8,1006.5c.3.5.8.7,1.5.7s1.2-.2,1.5-.7.4-1.2.4-2.3,0-1.8-.4-2.2c-.3-.5-.8-.7-1.5-.7s-1.2.2-1.5.7-.4,1.2-.4,2.2,0,1.8.4,2.3Z"/>
  </g>
</svg>