<svg viewBox="0 0 385.2 1067.5" xmlns="http://www.w3.org/2000/svg" xmlns:xlink="http://www.w3.org/1999/xlink"><linearGradient id="a"><stop offset="0" stop-color="#4b62fb"/><stop offset="1" stop-color="#eb5c21"/></linearGradient><linearGradient id="b" gradientTransform="matrix(0 1 -1 0 2683.7 392.2)" gradientUnits="userSpaceOnUse" x1="-310.9" x2="602.2" xlink:href="#a" y1="2491.1" y2="2491.1"/><linearGradient id="c" gradientUnits="userSpaceOnUse" x1="192.6" x2="192.6" xlink:href="#a" y1="76.4" y2="1287.4"/><linearGradient id="d" gradientUnits="userSpaceOnUse" x1="192.6" x2="192.6" xlink:href="#a" y1="43.3" y2="1232.8"/><linearGradient id="e" gradientUnits="userSpaceOnUse" x1="192.6" x2="192.6" xlink:href="#a" y1="-34" y2="1156"/><linearGradient id="f" gradientUnits="userSpaceOnUse" x1="192.6" x2="192.6" xlink:href="#a" y1="-72.6" y2="1116.9"/><linearGradient id="g" gradientUnits="userSpaceOnUse" x1="192.6" x2="192.6" xlink:href="#a" y1="-150.3" y2="1039.2"/><linearGradient id="h" gradientUnits="userSpaceOnUse" x1="192.6" x2="192.6" xlink:href="#a" y1="-188.6" y2="1001.4"/><linearGradient id="i" gradientUnits="userSpaceOnUse" x1="192.6" x2="192.6" xlink:href="#a" y1="4.6" y2="1194.6"/><linearGradient id="j" gradientUnits="userSpaceOnUse" x1="192.6" x2="192.6" xlink:href="#a" y1="-111.7" y2="1078.3"/><path d="m192.6 81.3v920" fill="none" stroke="url(#b)" stroke-width="2"/><path d="m187.6 76.3h10v10h-10z" fill="url(#c)"/><path d="m187.6 207.7h10v10h-10z" fill="url(#d)"/><path d="m187.6 470.5h10v10h-10z" fill="url(#e)"/><path d="m187.6 601.9h10v10h-10z" fill="url(#f)"/><path d="m187.6 864.7h10v10h-10z" fill="url(#g)"/><path d="m187.6 996.3h10v10h-10z" fill="url(#h)"/><path d="m187.6 339.1h10v10h-10z" fill="url(#i)"/><path d="m187.6 733.3h10v10h-10z" fill="url(#j)"/><g fill="#fff"><path d="m59.6 204.6v-13.6h8.7v2.4h-5.9v4h4.8v2.4h-4.8v4.8zm17.7-6.9v4.2c0 .3 0 .5.2.7 0 0 .2.2.5.3v2h-1.7c-.4 0-.8-.3-1.2-.6-1 .5-1.9.7-2.9.7-2.1 0-3.1-1.1-3.1-3.3s.3-1.8.9-2.3 1.5-.7 2.6-.8l2.1-.2v-.6c0-.4 0-.7-.3-.8-.2-.2-.5-.2-.9-.2l-3.8.2v-1.9c1.3-.4 2.7-.6 4-.6s2.2.3 2.8.8.9 1.4.9 2.6v-.2zm-4.5 2.7c-.7 0-1.1.5-1.1 1.2s.3 1.1 1 1.1 1.1 0 1.7-.2h.3v-2.2l-1.8.2h-.1zm10.8-6c.7 0 1.6 0 2.7.3h.5v2.2c-1.1 0-1.8-.2-2.3-.2-.9 0-1.5.2-1.8.6s-.4 1.1-.4 2.2 0 1.8.4 2.3c.3.4.9.6 1.9.6l2.3-.2v2.1c-1.3.3-2.4.4-3.2.4-1.5 0-2.5-.4-3.2-1.2-.6-.8-1-2.2-1-4s.3-3.2 1-4 1.7-1.2 3.2-1.2zm10.7 2.5h-2.5v5c0 .2 0 .3.2.4 0 0 .3.2.6.2h1.5v2.1c-.8.2-1.5.3-1.9.3-1.2 0-2-.3-2.5-.8-.4-.5-.7-1.5-.7-3v-4.2h-1.2v-2.3h1.2v-2.8h2.7v2.8h2.5v2.3zm1.7 7.7v-10h2.7v10zm0-11.3v-2.7h2.7v2.7zm10 1.1c1.4 0 2.4.4 3.1 1.2s1 2.1 1 4.1-.4 3.3-1.1 4.1c-.7.7-2 1.1-3.9 1.1s-1.6 0-3.1-.2h-.8v-14h2.7v4.3c.9-.4 1.6-.5 2.2-.5zm-.9 8c.9 0 1.5-.2 1.8-.6s.5-1.2.5-2.3c0-1.8-.6-2.7-1.7-2.7s-1 0-1.5.2h-.3v5.4zm7 2.2v-10h2.7v10zm0-11.3v-2.7h2.7v2.7zm5.3 11.3v-14h2.7v14zm5.2 0v-10h2.7v10zm0-11.3v-2.7h2.7v2.7zm13.7-2.7v14h-2.7v-.4c-.9.4-1.7.7-2.4.7-1.5 0-2.5-.4-3-1.3-.6-.8-.9-2.2-.9-4s.3-3.2 1-4 1.7-1.3 3.1-1.3 1 0 1.8.2h.4v-4h2.7zm-3 11.6h.3v-5.3c-.7 0-1.4-.2-2-.2-1.1 0-1.6 1-1.6 2.9s0 1.8.4 2.2c.2.4.6.7 1.2.7s1.1 0 1.8-.2h-.1zm13.1-4.5v4.2c0 .3 0 .5.2.7 0 0 .2.2.5.3v2h-1.7c-.4 0-.8-.3-1.2-.6-1 .5-1.9.7-2.9.7-2.1 0-3.1-1.1-3.1-3.3s.3-1.8.9-2.3 1.5-.7 2.6-.8l2.1-.2v-.6c0-.4 0-.7-.3-.8-.2-.2-.5-.2-.9-.2l-3.8.2v-1.9c1.3-.4 2.7-.6 4-.6s2.2.3 2.8.8.9 1.4.9 2.6h-.1zm-4.5 2.7c-.7 0-1.1.5-1.1 1.2s.3 1.1 1 1.1 1.1 0 1.7-.2h.3v-2.2l-1.8.2h-.1zm15.6-9.8v14h-2.7v-.4c-.9.4-1.7.7-2.4.7-1.5 0-2.5-.4-3-1.3-.6-.8-.9-2.2-.9-4s.3-3.2 1-4 1.7-1.3 3.1-1.3 1 0 1.8.2h.4v-4h2.7zm-3 11.6h.3v-5.3c-.7 0-1.4-.2-2-.2-1.1 0-1.6 1-1.6 2.9s.1 1.8.4 2.2c.2.4.6.7 1.2.7s1.1 0 1.8-.2zm-70.2 24.7h-2.5v5c0 .2 0 .3.2.4s.3.2.6.2h1.5v2.1c-.8.2-1.5.3-1.9.3-1.2 0-2-.3-2.5-.8-.4-.5-.7-1.5-.7-3v-4.2h-1.2v-2.3h1.2v-2.8h2.7v2.8h2.5v2.3zm3.9 3.8c0 .6.2 1.1.5 1.3.3.3.8.4 1.4.4 1.2 0 2.3 0 3.3-.1h.6v1.9c-1.5.4-2.9.6-4.2.6s-2.6-.4-3.3-1.2-1-2.1-1-3.9c0-3.6 1.5-5.4 4.4-5.4s4.4 1.5 4.4 4.5l-.2 1.9zm3.5-2c0-.8 0-1.4-.4-1.7s-.7-.5-1.3-.5-1.1.2-1.3.5c-.3.3-.4.9-.4 1.6h3.5zm-4.8-7.1 5-2 .8 2.3-5.2 1.5-.6-1.7zm13.1 2.8c.7 0 1.6.1 2.7.3h.5v2.2c-1.1-.1-1.8-.2-2.3-.2-.9 0-1.5.2-1.8.6s-.4 1.1-.4 2.2 0 1.8.4 2.3c.3.4.9.6 1.9.6l2.3-.2v2.1c-1.3.3-2.4.4-3.2.4-1.5 0-2.5-.4-3.2-1.2-.6-.8-1-2.2-1-4s.3-3.2 1-4 1.7-1.2 3.2-1.2zm7.8 10.2h-2.7v-10h2.7v.6c.9-.5 1.7-.8 2.5-.8 1.3 0 2.3.4 2.8 1.2s.8 2 .8 3.6v5.4h-2.7v-5.3c0-.9 0-1.5-.3-1.9-.2-.4-.6-.6-1.2-.6s-1.1 0-1.6.3h-.2v7.6h-.1zm8.4 0v-10h2.7v10zm0-11.3v-2.7h2.7v2.7zm8.9 1.1c.7 0 1.6.1 2.7.3h.5v2.2c-1.1-.1-1.8-.2-2.3-.2-.9 0-1.5.2-1.8.6s-.4 1.1-.4 2.2 0 1.8.4 2.3c.3.4.9.6 1.9.6l2.3-.2v2.1c-1.3.3-2.4.4-3.2.4-1.5 0-2.5-.4-3.2-1.2-.6-.8-1-2.2-1-4s.3-3.2 1-4 1.7-1.2 3.2-1.2zm12.9 3.3v4.2c0 .3 0 .5.2.7 0 .1.2.2.5.3v2c-.8 0-1.3 0-1.7-.1-.4 0-.8-.3-1.2-.6-1 .5-1.9.7-2.9.7-2.1 0-3.1-1.1-3.1-3.3s.3-1.8.9-2.3 1.5-.7 2.6-.8l2.1-.2v-.6c0-.4 0-.7-.3-.8-.2-.2-.5-.2-.9-.2l-3.8.2v-1.9c1.3-.4 2.7-.6 4-.6s2.2.3 2.8.8.9 1.4.9 2.6zm-4.5 2.7c-.7 0-1.1.5-1.1 1.2s.3 1.1 1 1.1 1.1 0 1.7-.2h.3v-2.2l-1.8.2z"/><path d="m232.2 336.3h-4.6v-13.6h4.6c1.2 0 2.1 0 2.9.4.8.2 1.3.6 1.8 1.2.4.6.7 1.2.9 2s.2 1.8.2 3 0 2.2-.2 3.1c-.1.8-.4 1.5-.8 2.2-.4.6-1 1.1-1.8 1.4s-1.8.4-3 .4zm2.9-5.4v-3.6c0-.5-.2-.9-.4-1.2-.2-.4-.5-.6-.9-.8-.4-.1-.9-.2-1.6-.2h-1.8v8.8h1.8c1 0 1.7-.3 2.2-.8s.6-1.2.7-2.2zm7.2 1.6c0 .6.2 1.1.5 1.3.3.3.8.4 1.4.4 1.2 0 2.3 0 3.3-.1h.6v1.9c-1.5.4-2.9.6-4.2.6s-2.6-.4-3.3-1.2-1-2.1-1-3.9c0-3.6 1.5-5.4 4.4-5.4s4.4 1.5 4.4 4.5l-.2 1.9zm3.4-2.1c0-.8-.1-1.4-.4-1.7s-.7-.5-1.3-.5-1.1.2-1.3.5c-.3.3-.4.9-.4 1.6h3.5-.1zm7.8-1.8v7.7h-2.7v-7.7h-1.1v-2.3h1.1v-.4c0-1.4.2-2.4.6-3 .4-.5 1.2-.8 2.3-.8s1.1 0 1.9.2h.4v2.2h-1.5c-.4 0-.7 0-.8.3-.1.2-.2.6-.2 1.1v.4h2.4v2.3zm3.9 7.7v-10h2.7v10zm0-11.2v-2.7h2.7v2.7zm7.9 11.2h-2.7v-10h2.7v.6c.9-.5 1.7-.8 2.5-.8 1.3 0 2.3.4 2.8 1.2s.8 2 .8 3.6v5.4h-2.7v-5.3c0-.9 0-1.5-.3-1.9-.2-.4-.6-.6-1.2-.6s-1.1 0-1.6.3h-.2v7.6zm8.4 0v-10h2.7v10zm0-11.2v-2.7h2.7v2.7zm8.8 1c.7 0 1.6.1 2.7.3h.5v2.2c-1.1-.1-1.8-.2-2.3-.2-.9 0-1.5.2-1.8.6s-.4 1.1-.4 2.2.1 1.8.4 2.3c.3.4.9.6 1.9.6l2.3-.2v2.1c-1.3.3-2.4.4-3.2.4-1.5 0-2.5-.4-3.2-1.2-.6-.8-1-2.2-1-4s.3-3.2 1-4 1.7-1.2 3.2-1.2h-.1zm5.2 10.2v-10h2.7v10zm0-11.2v-2.7h2.7v2.7zm5.7 2.4c.7-.9 1.9-1.4 3.5-1.4s2.8.5 3.5 1.4 1.1 2.2 1.1 3.8c0 3.5-1.5 5.3-4.6 5.3s-4.6-1.8-4.6-5.3.4-2.9 1.1-3.8zm2.1 6.1c.3.5.8.7 1.5.7s1.2-.2 1.5-.7.4-1.2.4-2.3-.1-1.8-.4-2.2c-.3-.5-.8-.7-1.5-.7s-1.2.2-1.5.7-.4 1.2-.4 2.2.1 1.8.4 2.3zm-1.5-10.3 5-2 .8 2.3-5.2 1.5-.6-1.7zm12.2 13h-2.7v-10h2.7v.6c.9-.5 1.7-.8 2.5-.8 1.3 0 2.3.4 2.8 1.2s.8 2 .8 3.6v5.4h-2.7v-5.3c0-.9 0-1.5-.3-1.9-.2-.4-.6-.6-1.2-.6s-1.1 0-1.6.3h-.2v7.6zm21.3-14v14h-2.7v-.4c-.9.4-1.7.7-2.4.7-1.5 0-2.5-.4-3-1.3-.6-.8-.9-2.2-.9-4s.3-3.2 1-4 1.7-1.3 3.1-1.3 1 0 1.8.2h.4v-4h2.7zm-3 11.6h.3v-5.3c-.7-.1-1.4-.2-2-.2-1.1 0-1.6 1-1.6 2.9s.1 1.8.4 2.2c.2.4.6.7 1.2.7s1.1 0 1.8-.2zm7.7-1.4c0 .6.2 1.1.5 1.3.3.3.8.4 1.4.4 1.2 0 2.3 0 3.3-.1h.6v1.9c-1.5.4-2.9.6-4.2.6s-2.6-.4-3.3-1.2-1-2.1-1-3.9c0-3.6 1.5-5.4 4.4-5.4s4.4 1.5 4.4 4.5l-.2 1.9zm3.4-2.1c0-.8-.1-1.4-.4-1.7s-.7-.5-1.3-.5-1.1.2-1.3.5c-.3.3-.4.9-.4 1.6h3.5-.1zm-97.9 35.9v-14h2.7v14zm12.9-6.8v4.2c0 .3 0 .5.2.7 0 0 .2.2.5.3v2h-1.7c-.4 0-.8-.3-1.2-.6-1 .5-1.9.7-2.9.7-2.1 0-3.1-1.1-3.1-3.3s.3-1.8.9-2.3 1.5-.7 2.6-.8l2.1-.2v-.6c0-.4 0-.7-.3-.8-.2-.2-.5-.2-.9-.2l-3.8.2v-1.9c1.3-.4 2.7-.6 4-.6s2.2.3 2.8.8.9 1.4.9 2.6h-.1zm-4.5 2.6c-.7 0-1.1.5-1.1 1.2s.3 1.1 1 1.1 1.1 0 1.7-.2h.3v-2.2l-1.8.2h-.1zm18.7-3.3c-1.7-.2-2.8-.3-3.5-.3s-1.1 0-1.3.2c-.2 0-.3.3-.3.6s.1.4.4.5c.3 0 .9.2 2 .4s1.8.5 2.3.9.7 1.2.7 2.1c0 2.2-1.3 3.2-4 3.2s-1.9 0-3.2-.4h-.6v-2.4c1.7.2 2.8.3 3.4.3s1.1 0 1.3-.2c.2 0 .4-.3.4-.6s-.1-.4-.4-.6c-.2 0-.9-.3-1.9-.4-1-.2-1.8-.5-2.3-.9s-.8-1.1-.8-2.2.4-1.9 1.1-2.4 1.6-.8 2.8-.8 1.9 0 3.2.4h.7zm2.8-1.3c.7-.9 1.9-1.4 3.5-1.4s2.8.5 3.5 1.4 1.1 2.2 1.1 3.8c0 3.5-1.5 5.3-4.6 5.3s-4.6-1.8-4.6-5.3.4-2.9 1.1-3.8zm2 6.1c.3.5.8.7 1.5.7s1.2-.2 1.5-.7.4-1.2.4-2.3-.1-1.8-.4-2.2c-.3-.5-.8-.7-1.5-.7s-1.2.2-1.5.7-.4 1.2-.4 2.2.1 1.8.4 2.3zm8.2 2.7v-14h2.7v14zm11.2-10h2.7v10h-2.7v-.6c-1 .5-1.8.8-2.5.8-1.4 0-2.3-.4-2.8-1.1-.5-.8-.7-2.1-.7-3.9v-5.2h2.7v5.3c0 1 0 1.7.2 2s.5.5 1.2.5 1.1 0 1.7-.3h.3v-7.6h-.1zm8.9-.2c.7 0 1.6 0 2.7.3h.5v2.2c-1.1 0-1.8-.2-2.3-.2-.9 0-1.5.2-1.8.6s-.4 1.1-.4 2.2.1 1.8.4 2.3c.3.4.9.6 1.9.6l2.3-.2v2.1c-1.3.3-2.4.4-3.2.4-1.5 0-2.5-.4-3.2-1.2-.6-.8-1-2.2-1-4s.3-3.2 1-4 1.7-1.2 3.2-1.2h-.1zm5.1 10.2v-10h2.7v10zm0-11.2v-2.7h2.7v2.7zm5.7 2.4c.7-.9 1.9-1.4 3.5-1.4s2.8.5 3.5 1.4 1.1 2.2 1.1 3.8c0 3.5-1.5 5.3-4.6 5.3s-4.6-1.8-4.6-5.3.4-2.9 1.1-3.8zm2.1 6.1c.3.5.8.7 1.5.7s1.2-.2 1.5-.7.4-1.2.4-2.3-.1-1.8-.4-2.2c-.3-.5-.8-.7-1.5-.7s-1.2.2-1.5.7-.4 1.2-.4 2.2.1 1.8.4 2.3zm-1.5-10.3 5-2 .8 2.3-5.2 1.5-.6-1.7zm12.2 13h-2.7v-10h2.7v.6c.9-.5 1.7-.8 2.5-.8 1.3 0 2.3.4 2.8 1.2s.8 2 .8 3.6v5.4h-2.7v-5.3c0-.9 0-1.5-.3-1.9-.2-.4-.6-.6-1.2-.6s-1.1 0-1.6.3h-.2v7.6z"/><path d="m23.9 467.4 3.1-13.6h5.2l3.1 13.6h-2.8l-.5-2.5h-4.8l-.5 2.5zm5.2-11.3-1.4 6.5h3.7l-1.4-6.5h-1s.1 0 0 0zm7.7 11.3v-10h2.7v1.1c1.1-.7 2.2-1.1 3.2-1.3v2.7c-1.1.2-2 .5-2.8.7h-.4v6.8zm11 .2c-1.4 0-2.4-.4-3.1-1.1-.6-.8-1-2.1-1-4.1s.4-3.4 1.1-4.1 2-1.1 3.9-1.1 1.9 0 3.2.2h.7v14.2h-2.7v-4.5c-.9.4-1.6.5-2.2.5zm.9-8.1c-.9 0-1.5.2-1.8.7s-.5 1.2-.5 2.4c0 1.8.6 2.7 1.7 2.7s1 0 1.5-.2h.3v-5.5h-1.2zm12.3-2.1h2.7v10h-2.7v-.6c-1 .5-1.8.8-2.5.8-1.4 0-2.3-.4-2.8-1.1-.5-.8-.7-2.1-.7-3.9v-5.2h2.7v5.3c0 1 0 1.7.2 2 .2.4.5.5 1.2.5s1.1 0 1.7-.3h.3v-7.6h-.1zm5.1 10v-10h2.7v10zm0-11.3v-2.7h2.7v2.7zm10.7 3.6h-2.5v5c0 .2 0 .3.2.4 0 0 .3.2.6.2h1.5v2.1c-.8.2-1.5.3-1.9.3-1.2 0-2-.3-2.5-.8-.4-.5-.7-1.5-.7-3v-4.2h-1.2v-2.3h1.2v-2.8h2.7v2.8h2.5v2.3zm4 3.8c0 .6.2 1.1.5 1.3.3.3.8.4 1.4.4h3.9v1.9c-1.5.4-2.9.6-4.2.6s-2.6-.4-3.3-1.2-1-2.1-1-3.9c0-3.6 1.5-5.4 4.4-5.4s4.4 1.5 4.4 4.5l-.2 1.9h-5.9zm3.4-2c0-.8 0-1.4-.4-1.7-.3-.3-.7-.5-1.3-.5s-1.1.2-1.3.5c-.3.3-.4.9-.4 1.6h3.5zm8.3-4.3c.7 0 1.6 0 2.7.3h.5v2.2c-1.1 0-1.8-.2-2.3-.2-.9 0-1.5.2-1.8.6s-.4 1.1-.4 2.2 0 1.8.4 2.3c.3.4.9.6 1.9.6l2.3-.2v2.1c-1.3.3-2.4.4-3.2.4-1.5 0-2.5-.4-3.2-1.2-.6-.8-1-2.2-1-4s.3-3.2 1-4 1.7-1.2 3.2-1.2zm10.7 2.5h-2.5v5c0 .2 0 .3.2.4 0 0 .3.2.6.2h1.5v2.1c-.8.2-1.5.3-1.9.3-1.2 0-2-.3-2.5-.8-.4-.5-.7-1.5-.7-3v-4.2h-1.2v-2.3h1.2v-2.8h2.7v2.8h2.5v2.3zm7.7-2.3h2.7v10h-2.7v-.6c-1 .5-1.8.8-2.5.8-1.4 0-2.3-.4-2.8-1.1-.5-.8-.7-2.1-.7-3.9v-5.2h2.7v5.3c0 1 0 1.7.2 2 .2.4.5.5 1.2.5s1.1 0 1.7-.3h.3v-7.6zm5.1 10v-10h2.7v1.1c1.1-.7 2.2-1.1 3.2-1.3v2.7c-1.1.2-2 .5-2.8.7h-.4v6.8zm15.1-6.9v4.2c0 .3 0 .5.2.7 0 0 .2.2.5.3v2h-1.7c-.4 0-.8-.3-1.2-.6-1 .5-1.9.7-2.9.7-2.1 0-3.1-1.1-3.1-3.3s.3-1.8.9-2.3 1.5-.7 2.6-.8l2.1-.2v-.6c0-.4 0-.7-.3-.8-.2-.2-.5-.2-.9-.2l-3.8.2v-1.9c1.3-.4 2.7-.6 4-.6s2.2.3 2.8.8.9 1.4.9 2.6v-.2zm-4.5 2.7c-.7 0-1.1.5-1.1 1.2s.3 1.1 1 1.1 1.1 0 1.7-.2h.3v-2.2l-1.8.2zm20-9.8v14h-2.7v-.4c-.9.4-1.7.7-2.4.7-1.5 0-2.5-.4-3-1.3-.6-.8-.9-2.2-.9-4s.3-3.2 1-4 1.7-1.3 3.1-1.3 1 0 1.8.2h.4v-4h2.7zm-3 11.6h.3v-5.3c-.7 0-1.4-.2-2-.2-1.1 0-1.6 1-1.6 2.9s0 1.8.4 2.2c.2.4.6.7 1.2.7s1.1 0 1.8-.2h-.1zm7.7-1.5c0 .6.2 1.1.5 1.3.3.3.8.4 1.4.4h3.9v1.9c-1.5.4-2.9.6-4.2.6s-2.6-.4-3.3-1.2-1-2.1-1-3.9c0-3.6 1.5-5.4 4.4-5.4s4.4 1.5 4.4 4.5l-.2 1.9h-5.9zm3.4-2c0-.8 0-1.4-.4-1.7-.3-.3-.7-.5-1.3-.5s-1.1.2-1.3.5c-.3.3-.4.9-.4 1.6h3.5-.1zm-101.5 28.4c-1.7-.2-2.8-.3-3.5-.3s-1.1 0-1.3.2c-.2.1-.3.3-.3.6s0 .4.4.5c.3 0 .9.2 2 .4s1.8.5 2.3.9.7 1.2.7 2.1c0 2.2-1.3 3.2-4 3.2s-1.9-.1-3.2-.4h-.6v-2.4c1.7.2 2.8.3 3.4.3s1.1 0 1.3-.2c.2-.1.4-.3.4-.6s0-.4-.4-.6-.9-.3-1.9-.4c-1-.2-1.8-.5-2.3-.9s-.8-1.1-.8-2.2.4-1.9 1.1-2.4 1.6-.8 2.8-.8 1.9.1 3.2.4h.7zm2.8-1.4c.7-.9 1.9-1.4 3.5-1.4s2.8.5 3.5 1.4 1.1 2.2 1.1 3.8c0 3.5-1.5 5.3-4.6 5.3s-4.6-1.8-4.6-5.3.4-2.9 1.1-3.8zm2.1 6.1c.3.5.8.7 1.5.7s1.2-.2 1.5-.7.4-1.2.4-2.3 0-1.8-.4-2.2c-.3-.5-.8-.7-1.5-.7s-1.2.2-1.5.7-.4 1.2-.4 2.2 0 1.8.4 2.3zm8.1 2.8v-14h2.7v14zm11.2-10h2.7v10h-2.7v-.6c-1 .5-1.8.8-2.5.8-1.4 0-2.3-.4-2.8-1.1-.5-.8-.7-2.1-.7-3.9v-5.2h2.7v5.3c0 1 0 1.7.2 2s.5.5 1.2.5 1.1 0 1.7-.3h.3v-7.6zm8.9-.2c.7 0 1.6.1 2.7.3h.5v2.2c-1.1-.1-1.8-.2-2.3-.2-.9 0-1.5.2-1.8.6s-.4 1.1-.4 2.2 0 1.8.4 2.3c.3.4.9.6 1.9.6l2.3-.2v2.1c-1.3.3-2.4.4-3.2.4-1.5 0-2.5-.4-3.2-1.2-.6-.8-1-2.2-1-4s.3-3.2 1-4 1.7-1.2 3.2-1.2zm5.2 10.2v-10h2.7v10zm0-11.3v-2.7h2.7v2.7zm5.7 2.4c.7-.9 1.9-1.4 3.5-1.4s2.8.5 3.5 1.4 1.1 2.2 1.1 3.8c0 3.5-1.5 5.3-4.6 5.3s-4.6-1.8-4.6-5.3.4-2.9 1.1-3.8zm2 6.1c.3.5.8.7 1.5.7s1.2-.2 1.5-.7.4-1.2.4-2.3 0-1.8-.4-2.2c-.3-.5-.8-.7-1.5-.7s-1.2.2-1.5.7-.4 1.2-.4 2.2 0 1.8.4 2.3zm10.8 2.8h-2.7v-10h2.7v.6c.9-.5 1.7-.8 2.5-.8 1.3 0 2.3.4 2.8 1.2s.8 2 .8 3.6v5.4h-2.7v-5.3c0-.9 0-1.5-.3-1.9-.2-.4-.6-.6-1.2-.6s-1.1 0-1.6.3h-.2v7.6h-.1zm10.5-3.9c0 .6.2 1.1.5 1.3.3.3.8.4 1.4.4 1.2 0 2.3 0 3.3-.1h.6v1.9c-1.5.4-2.9.6-4.2.6s-2.6-.4-3.3-1.2-1-2.1-1-3.9c0-3.6 1.5-5.4 4.4-5.4s4.4 1.5 4.4 4.5l-.2 1.9zm3.5-2c0-.8 0-1.4-.4-1.7-.3-.3-.7-.5-1.3-.5s-1.1.2-1.3.5c-.3.3-.4.9-.4 1.6h3.5zm11.7-1.6c-1.7-.2-2.8-.3-3.5-.3s-1.1 0-1.3.2c-.2.1-.3.3-.3.6s0 .4.4.5c.3 0 .9.2 2 .4s1.8.5 2.3.9.7 1.2.7 2.1c0 2.2-1.3 3.2-4 3.2s-1.9-.1-3.2-.4h-.6v-2.4c1.7.2 2.8.3 3.4.3s1.1 0 1.3-.2c.2-.1.4-.3.4-.6s0-.4-.4-.6-.9-.3-1.9-.4c-1-.2-1.8-.5-2.3-.9s-.8-1.1-.8-2.2.4-1.9 1.1-2.4 1.6-.8 2.8-.8 1.9.1 3.2.4h.7z"/><path d="m232.2 613.7h-4.6v-13.6h4.6c1.2 0 2.1 0 2.9.4.8.2 1.3.6 1.8 1.2.4.6.7 1.2.9 2s.2 1.8.2 3 0 2.2-.2 3.1c0 .8-.4 1.5-.8 2.2-.4.6-1 1.1-1.8 1.4s-1.8.4-3 .4zm2.9-5.4v-3.6c0-.5-.2-.9-.4-1.2-.2-.4-.5-.6-.9-.8-.4 0-.9-.2-1.6-.2h-1.8v8.8h1.8c1 0 1.7-.3 2.2-.8.4-.4.6-1.2.7-2.2zm7.2 1.5c0 .6.2 1.1.5 1.3.3.3.8.4 1.4.4h3.9v1.9c-1.5.4-2.9.6-4.2.6s-2.6-.4-3.3-1.2-1-2.1-1-3.9c0-3.6 1.5-5.4 4.4-5.4s4.4 1.5 4.4 4.5l-.2 1.9h-5.9zm3.5-2c0-.8 0-1.4-.4-1.7-.3-.3-.7-.5-1.3-.5s-1.1.2-1.3.5c-.3.3-.4.9-.4 1.6h3.5-.1zm11.7-1.6c-1.7-.2-2.8-.3-3.5-.3s-1.1 0-1.3.2c-.2 0-.3.3-.3.6s0 .4.4.5c.3 0 .9.2 2 .4s1.8.5 2.3.9.7 1.2.7 2.1c0 2.2-1.3 3.2-4 3.2s-1.9 0-3.2-.4h-.6v-2.4c1.7.2 2.8.3 3.4.3s1.1 0 1.3-.2c.2 0 .4-.3.4-.6s0-.4-.4-.6c-.2 0-.9-.3-1.9-.4-1-.2-1.8-.5-2.3-.9s-.8-1.1-.8-2.2.4-1.9 1.1-2.4 1.6-.8 2.8-.8 1.9 0 3.2.4h.7zm9.9.6v4.2c0 .3 0 .5.2.7 0 0 .2.2.5.3v2h-1.7c-.4 0-.8-.3-1.2-.6-1 .5-1.9.7-2.9.7-2.1 0-3.1-1.1-3.1-3.3s.3-1.8.9-2.3 1.5-.7 2.6-.8l2.1-.2v-.6c0-.4 0-.7-.3-.8-.2-.2-.5-.2-.9-.2l-3.8.2v-1.9c1.3-.4 2.7-.6 4-.6s2.2.3 2.8.8.9 1.4.9 2.6v-.2zm-4.5 2.7c-.7 0-1.1.5-1.1 1.2s.3 1.1 1 1.1 1.1 0 1.7-.2h.3v-2.2l-1.8.2h-.1zm7.1 4.2v-10h2.7v1.1c1.1-.7 2.2-1.1 3.2-1.3v2.7c-1.1.2-2 .5-2.8.7h-.4v6.8zm7.4 0v-10h2.7v1.1c1.1-.7 2.2-1.1 3.2-1.3v2.7c-1.1.2-2 .5-2.8.7h-.4v6.8zm8-8.9c.7-.9 1.9-1.4 3.5-1.4s2.8.5 3.5 1.4 1.1 2.2 1.1 3.8c0 3.5-1.5 5.3-4.6 5.3s-4.6-1.8-4.6-5.3.4-2.9 1.1-3.8zm2.1 6.1c.3.5.8.7 1.5.7s1.2-.2 1.5-.7.4-1.2.4-2.3 0-1.8-.4-2.2c-.3-.5-.8-.7-1.5-.7s-1.2.2-1.5.7-.4 1.2-.4 2.2 0 1.8.4 2.3zm8.1 2.8v-14h2.7v14zm5.4 0v-14h2.7v14zm5.8-8.9c.7-.9 1.9-1.4 3.5-1.4s2.8.5 3.5 1.4 1.1 2.2 1.1 3.8c0 3.5-1.5 5.3-4.6 5.3s-4.6-1.8-4.6-5.3.4-2.9 1.1-3.8zm2.1 6.1c.3.5.8.7 1.5.7s1.2-.2 1.5-.7.4-1.2.4-2.3 0-1.8-.4-2.2c-.3-.5-.8-.7-1.5-.7s-1.2.2-1.5.7-.4 1.2-.4 2.2 0 1.8.4 2.3z"/><path d="m61.7 743.5v-13.6h2.8v13.6zm8.2 0h-2.7v-10h2.7v.6c.9-.5 1.7-.8 2.5-.8 1.3 0 2.3.4 2.8 1.2s.8 2 .8 3.6v5.4h-2.7v-5.3c0-.9 0-1.5-.3-1.9s-.6-.6-1.2-.6-1.1 0-1.6.3h-.2v7.6h-.1zm13.9-7.7h-2.5v5c0 .2 0 .3.2.4 0 0 .3.2.6.2h1.5v2.1c-.8.2-1.5.3-1.9.3-1.2 0-2-.3-2.5-.8-.4-.5-.7-1.5-.7-3v-4.2h-1.2v-2.3h1.2v-2.8h2.7v2.8h2.5v2.3zm3.9 3.8c0 .6.2 1.1.5 1.3.3.3.8.4 1.4.4h3.9v1.9c-1.5.4-2.9.6-4.2.6s-2.6-.4-3.3-1.2-1-2.1-1-3.9c0-3.6 1.5-5.4 4.4-5.4s4.4 1.5 4.4 4.5l-.2 1.9h-5.9zm3.5-2c0-.8 0-1.4-.4-1.7-.3-.3-.7-.5-1.3-.5s-1.1.2-1.3.5c-.3.3-.4.9-.4 1.6h3.5zm13.6 7.1c0 1.1-.4 2-1.3 2.5s-2.1.8-3.6.8-2.6-.2-3.5-.6c-.8-.4-1.2-1.1-1.2-2.2s.5-1.6 1.4-2.4c-.5-.3-.7-.8-.7-1.5s.2-.7.6-1.3l.2-.3c-.9-.7-1.4-1.6-1.4-2.9s.4-2.2 1.1-2.8c.8-.6 1.8-.9 3.1-.9s1.1 0 1.7.2h3.5v2.1h-1.5c.3.3.4.8.4 1.2 0 1.3-.3 2.3-1 2.8s-1.7.8-3.2.8-.6 0-.8 0c0 .3-.2.6-.2.9s0 .4.3.4h1.6c1.7 0 2.8.2 3.4.7.6.4.9 1.2.9 2.3h.2zm-6.9.3c0 .6.7.9 2.1.9s2.1-.3 2.1-1 0-.6-.4-.7c-.2 0-.7 0-1.5-.2h-1.8c-.4.2-.5.6-.5 1zm.1-8.1c0 1 .5 1.5 1.5 1.5s1.5-.5 1.5-1.5-.5-1.5-1.5-1.5-1.5.5-1.5 1.5zm8.4 6.6v-10h2.7v1.1c1.1-.7 2.2-1.1 3.2-1.3v2.7c-1.1.2-2 .5-2.8.7h-.4v6.8s-2.7 0-2.7 0zm15.1-6.9v4.2c0 .3 0 .5.2.7 0 0 .2.2.5.3v2h-1.7c-.4 0-.8-.3-1.2-.6-1 .5-1.9.7-2.9.7-2.1 0-3.1-1.1-3.1-3.3s.3-1.8.9-2.3 1.5-.7 2.6-.8l2.1-.2v-.6c0-.4 0-.7-.3-.8-.2-.2-.5-.2-.9-.2l-3.8.2v-1.9c1.3-.4 2.7-.6 4-.6s2.2.3 2.8.8.9 1.4.9 2.6v-.2zm-4.5 2.7c-.7 0-1.1.5-1.1 1.2s.3 1.1 1 1.1 1.1 0 1.7-.2h.3v-2.2l-1.8.2zm10.8-6c.7 0 1.6 0 2.7.3h.5v2.2c-1.1 0-1.8-.2-2.3-.2-.9 0-1.5.2-1.8.6s-.4 1.1-.4 2.2 0 1.8.4 2.3c.3.4.9.6 1.9.6l2.3-.2v2.1c-1.3.3-2.4.4-3.2.4-1.5 0-2.5-.4-3.2-1.2-.6-.8-1-2.2-1-4s.3-3.2 1-4 1.7-1.2 3.2-1.2zm5.2 10.2v-10h2.7v10zm0-11.3v-2.7h2.7v2.7zm5.7 2.4c.7-.9 1.9-1.4 3.5-1.4s2.8.5 3.5 1.4 1.1 2.2 1.1 3.8c0 3.5-1.5 5.3-4.6 5.3s-4.6-1.8-4.6-5.3.4-2.9 1.1-3.8zm2 6.1c.3.5.8.7 1.5.7s1.2-.2 1.5-.7.4-1.2.4-2.3 0-1.8-.4-2.2c-.3-.5-.8-.7-1.5-.7s-1.2.2-1.5.7-.4 1.2-.4 2.2 0 1.8.4 2.3zm-1.5-10.2 5-2 .8 2.3-5.2 1.5-.6-1.7zm12.3 13h-2.7v-10h2.7v.6c.9-.5 1.7-.8 2.5-.8 1.3 0 2.3.4 2.8 1.2s.8 2 .8 3.6v5.4h-2.7v-5.3c0-.9 0-1.5-.3-1.9-.2-.4-.6-.6-1.2-.6s-1.1 0-1.6.3h-.2v7.6h-.1z"/><path d="m227.6 849v-2.4h10v2.4h-3.6v11.2h-2.8v-11.2zm12.3 7.3c0 .6.2 1.1.5 1.3.3.3.8.4 1.4.4h3.3.6v1.9c-1.5.4-2.9.6-4.2.6s-2.6-.4-3.3-1.2-1-2.1-1-3.9c0-3.6 1.5-5.4 4.4-5.4s4.4 1.5 4.4 4.5l-.2 1.9h-5.9zm3.5-2c0-.8 0-1.4-.4-1.7s-.7-.5-1.3-.5-1.1.2-1.3.5c-.3.3-.4.9-.4 1.6h3.5-.1zm11.7-1.6c-1.7-.2-2.8-.3-3.5-.3s-1.1 0-1.3.2c-.2 0-.3.3-.3.6s0 .4.4.5c.3 0 .9.2 2 .4s1.8.5 2.3.9.7 1.2.7 2.1c0 2.2-1.3 3.2-4 3.2s-1.9 0-3.2-.4h-.6v-2.4c1.7.2 2.8.3 3.4.3s1.1 0 1.3-.2c.2 0 .4-.3.4-.6s0-.4-.4-.6-.9-.3-1.9-.4c-1-.2-1.8-.5-2.3-.9s-.8-1.1-.8-2.2.4-1.9 1.1-2.4 1.6-.8 2.8-.8 1.9 0 3.2.4h.7zm7.8-.2h-2.5v5c0 .2 0 .3.2.4 0 0 .3.2.6.2h1.5v2.1c-.8.2-1.5.3-1.9.3-1.2 0-2-.3-2.5-.8-.4-.5-.7-1.5-.7-3v-4.2h-1.2v-2.3h1.2v-2.8h2.7v2.8h2.5v2.3zm1.7 7.7v-10h2.7v10zm0-11.3v-2.7h2.7v2.7zm7.9 11.3h-2.7v-10h2.7v.6c.9-.5 1.7-.8 2.5-.8 1.3 0 2.3.4 2.8 1.2s.8 2 .8 3.6v5.4h-2.7v-5.3c0-.9 0-1.5-.3-1.9-.2-.4-.6-.6-1.2-.6s-1.1 0-1.6.3h-.2v7.6h-.1zm17.4 1.2c0 1.1-.4 2-1.3 2.5s-2.1.8-3.6.8-2.6-.2-3.5-.6c-.8-.4-1.2-1.1-1.2-2.2s.5-1.6 1.4-2.4c-.5-.3-.7-.8-.7-1.5s.2-.7.6-1.3l.2-.3c-.9-.7-1.4-1.6-1.4-2.9s.4-2.2 1.1-2.8c.8-.6 1.8-.9 3.1-.9s1.1 0 1.7.2h3.5v2.1h-1.5c.3.3.4.8.4 1.2 0 1.3-.3 2.3-1 2.8s-1.7.8-3.2.8-.6 0-.8 0c0 .3-.2.6-.2.9s0 .4.3.4.8 0 1.6 0c1.7 0 2.8.2 3.4.7.6.4.9 1.2.9 2.3h.2zm-6.9.3c0 .6.7.9 2.1.9s2.1-.3 2.1-1 0-.6-.4-.7c-.2 0-.7 0-1.5-.2h-1.8c-.4.2-.5.6-.5 1zm.2-8.2c0 1 .5 1.5 1.5 1.5s1.5-.5 1.5-1.5-.5-1.5-1.5-1.5-1.5.5-1.5 1.5zm13.7-4.5c0-.9.4-1.7 1.1-2.2s1.8-.8 3-.8 2.3.3 3 .8 1.1 1.3 1.1 2.3-.2 1.7-.6 2.3c-.4.5-1.1 1.2-2.1 1.9l2 2c0-.2.2-.6.2-1.2v-1.4h2.6c-.2 1.6-.5 3-1 4.1l2.2 2-1.5 1.7-2.1-1.7c-.5.5-1.1.9-1.8 1.3-.7.3-1.5.5-2.3.5-1.9 0-3.3-.3-4.2-1-.8-.7-1.2-1.7-1.2-3.1s.2-1.9.7-2.5 1.2-1.1 2.2-1.5c-.5-.7-.9-1.2-1.1-1.6s-.2-1-.2-1.6zm3.5 9c.5 0 1.1 0 1.6-.2.5 0 .9-.3 1.1-.6l-3.5-3.5c-1 .5-1.5 1.2-1.5 2.3s.8 2 2.3 2zm-.8-8.4c0 .5.3 1.1.9 1.8l.3.4c.5-.4.9-.8 1.2-1.1.2-.3.3-.7.3-1.1 0-.8-.5-1.3-1.4-1.3s-1.4.4-1.4 1.3zm-37.5 40.8c-2.1 0-3.5-.6-4.4-1.7-.8-1.1-1.3-2.9-1.3-5.3s.4-4.2 1.3-5.4 2.3-1.8 4.4-1.8 3.5.6 4.4 1.8 1.3 2.9 1.3 5.4-.7 5-2.1 6l1.7 2.7-2.5 1.2-1.8-2.9zm-2.2-3.4c.4.7 1.1 1 2.2 1s1.8-.3 2.2-1 .6-1.9.6-3.5-.2-2.9-.6-3.6-1.1-1.1-2.2-1.1-1.8.4-2.2 1.1-.6 1.9-.6 3.6.2 2.8.6 3.5zm8.9 3.2 3.1-13.6h5.2l3.1 13.6h-2.8l-.5-2.5h-4.8l-.5 2.5zm5.2-11.3-1.4 6.5h3.7l-1.4-6.5h-1z"/><path d="m84.4 1008.1v-13.6h4.7l2.4 9.9 2.4-9.9h4.7v13.6h-2.8v-10.5h-.3l-2.7 9.9h-2.8l-2.7-9.9h-.3v10.5h-2.8zm19-3.9c0 .6.2 1.1.5 1.3.3.3.8.4 1.4.4h3.9v1.9c-1.5.4-2.9.6-4.2.6s-2.6-.4-3.3-1.2-1-2.1-1-3.9c0-3.6 1.5-5.4 4.4-5.4s4.4 1.5 4.4 4.5l-.2 1.9h-5.9zm3.5-2c0-.8 0-1.4-.4-1.7-.3-.3-.7-.5-1.3-.5s-1.1.2-1.3.5c-.3.3-.4.9-.4 1.6h3.5zm4.5 5.9v-10h2.7v1.1c1.1-.7 2.2-1.1 3.2-1.3v2.7c-1.1.2-2 .5-2.8.7h-.4v6.8zm11.2-10.3c.7 0 1.6 0 2.7.3h.5v2.2c-1.1 0-1.8-.2-2.3-.2-.9 0-1.5.2-1.8.6s-.4 1.1-.4 2.2 0 1.8.4 2.3c.3.4.9.6 1.9.6l2.3-.2v2.1c-1.3.3-2.4.4-3.2.4-1.5 0-2.5-.4-3.2-1.2-.6-.8-1-2.2-1-4s.3-3.2 1-4 1.7-1.2 3.2-1.2zm12.8 3.4v4.2c0 .3 0 .5.2.7 0 0 .2.2.5.3v2h-1.7c-.4 0-.8-.3-1.2-.6-1 .5-1.9.7-2.9.7-2.1 0-3.1-1.1-3.1-3.3s.3-1.8.9-2.3 1.5-.7 2.6-.8l2.1-.2v-.6c0-.4 0-.7-.3-.8-.2-.2-.5-.2-.9-.2l-3.8.2v-1.9c1.3-.4 2.7-.6 4-.6s2.2.3 2.8.8.9 1.4.9 2.6v-.2zm-4.5 2.6c-.7 0-1.1.5-1.1 1.2s.3 1.1 1 1.1 1.1 0 1.7-.2h.3v-2.2l-1.8.2zm15.6-9.7v14h-2.7v-.4c-.9.4-1.7.7-2.4.7-1.5 0-2.5-.4-3-1.3-.6-.8-.9-2.2-.9-4s.3-3.2 1-4 1.7-1.3 3.1-1.3 1 0 1.8.2h.4v-4h2.7zm-3 11.6h.3v-5.3c-.7 0-1.4-.2-2-.2-1.1 0-1.6 1-1.6 2.9s0 1.8.4 2.2c.2.4.6.7 1.2.7s1.1 0 1.8-.2h-.1zm6-6.5c.7-.9 1.9-1.4 3.5-1.4s2.8.5 3.5 1.4 1.1 2.2 1.1 3.8c0 3.5-1.5 5.3-4.6 5.3s-4.6-1.8-4.6-5.3.4-2.9 1.1-3.8zm2.1 6.1c.3.5.8.7 1.5.7s1.2-.2 1.5-.7.4-1.2.4-2.3 0-1.8-.4-2.2c-.3-.5-.8-.7-1.5-.7s-1.2.2-1.5.7-.4 1.2-.4 2.2 0 1.8.4 2.3z"/><path d="m232.2 73.1h-4.6v-13.7h4.6c1.2 0 2.2 0 2.9.4.8.2 1.4.7 1.8 1.2.4.6.7 1.2.9 2s.2 1.8.2 3 0 2.3-.2 3.1c-.1.8-.4 1.5-.8 2.2-.4.6-1 1.1-1.8 1.4s-1.8.4-3 .4zm2.9-5.5v-3.6c0-.5-.2-.9-.4-1.2-.2-.4-.5-.6-.9-.8-.4 0-.9-.2-1.6-.2h-1.8v8.8h1.8c1 0 1.7-.3 2.2-.8.4-.4.6-1.2.7-2.3z"/><path d="m242.9 70.5c.3.3.8.4 1.4.4h3.3.6v1.9c-1.5.4-2.9.6-4.2.6s-2.6-.4-3.3-1.2-1-2.1-1-3.9c0-3.6 1.5-5.4 4.4-5.4s4.4 1.5 4.4 4.5l-.2 1.9h-5.9c0 .6.2 1.1.5 1.3zm3-3.4c0-.8 0-1.4-.4-1.7-.3-.3-.7-.5-1.3-.5s-1.1.2-1.3.5c-.3.3-.4.9-.4 1.7h3.5z"/><path d="m257.7 65.5c-1.7-.2-2.8-.3-3.5-.3s-1.1 0-1.3.2-.3.3-.3.6 0 .4.4.5.9.2 2 .4 1.8.5 2.3 1c.5.4.7 1.2.7 2.2 0 2.2-1.3 3.3-4 3.3s-2 0-3.2-.4h-.6v-2.4c1.7.2 2.8.3 3.5.3s1.1 0 1.3-.2c.2 0 .4-.3.4-.6s0-.4-.4-.6-.9-.3-1.9-.4c-1-.2-1.8-.5-2.3-.9s-.8-1.2-.8-2.2.4-1.9 1.1-2.4 1.7-.8 2.8-.8 1.9 0 3.2.4h.7v2.4h-.1z"/><path d="m263.7 62.8c.7 0 1.6 0 2.7.3h.5v2.3c-1.1 0-1.8-.2-2.4-.2-.9 0-1.5.2-1.8.6s-.5 1.1-.5 2.2.2 1.9.5 2.3.9.6 1.9.6l2.3-.2v2.2c-1.4.3-2.4.4-3.2.4-1.5 0-2.6-.4-3.2-1.3-.7-.8-1-2.2-1-4s.3-3.2 1-4 1.7-1.2 3.2-1.2z"/><path d="m274.8 63h2.7v10.1h-2.7v-.6c-1 .5-1.8.8-2.5.8-1.4 0-2.3-.4-2.8-1.2s-.7-2.1-.7-3.9v-5.3h2.7v5.3c0 1 0 1.7.2 2 .2.4.5.5 1.2.5s1.1 0 1.7-.3h.3v-7.6.2z"/><path d="m284.9 62.8c1.4 0 2.4.4 3.1 1.2.6.8 1 2.1 1 4.1s-.4 3.4-1.1 4.1c-.8.8-2 1.1-3.9 1.1s-1.6 0-3.2-.2h-.8v-14.1h2.7v4.3c.9-.4 1.6-.5 2.2-.5zm-.9 8.1c.9 0 1.5-.2 1.8-.7.3-.4.5-1.2.5-2.3 0-1.8-.6-2.7-1.7-2.7s-1 0-1.5.2h-.3v5.4h1.2z"/><path d="m291 73.1v-10.1h2.7v1.1c1.1-.7 2.2-1.1 3.2-1.3v2.7c-1.1.2-2 .5-2.8.7h-.4v6.9z"/><path d="m298.5 61.7v-2.7h2.7v2.7zm0 11.4v-10.1h2.7v10.1z"/><path d="m306.3 73.1h-2.7v-10.1h2.7v.6c.9-.5 1.7-.8 2.4-.8 1.1 0 1.9.3 2.5.9 1.2-.6 2.4-.9 3.4-.9s2.2.4 2.8 1.2c.5.8.8 2 .8 3.7v5.5h-2.7v-5.4c0-.9 0-1.5-.3-1.9-.2-.4-.6-.6-1.1-.6s-1 0-1.6.3h-.3v7.6h-2.7v-5.2c0-1 0-1.7-.3-2.1-.2-.4-.6-.6-1.1-.6s-1 0-1.5.3h-.2v7.6h-.1z"/><path d="m320.5 61.7v-2.7h2.7v2.7zm0 11.4v-10.1h2.7v10.1z"/><path d="m328.4 70.5c.3.3.8.4 1.4.4h3.3.6v1.9c-1.5.4-2.9.6-4.2.6s-2.6-.4-3.3-1.2-1-2.1-1-3.9c0-3.6 1.5-5.4 4.4-5.4s4.4 1.5 4.4 4.5l-.2 1.9h-5.9c0 .6.2 1.1.5 1.3zm3-3.4c0-.8 0-1.4-.4-1.7s-.7-.5-1.3-.5-1.1.2-1.3.5c-.3.3-.4.9-.4 1.7h3.5z"/><path d="m338.7 73.1h-2.7v-10.1h2.7v.6c.9-.5 1.7-.8 2.5-.8 1.3 0 2.3.4 2.8 1.2s.8 2 .8 3.7v5.5h-2.7v-5.4c0-.9-.1-1.5-.3-1.9s-.6-.6-1.2-.6-1.1 0-1.6.3h-.2v7.6h-.1z"/><path d="m352.7 65.3h-2.5v5c0 .2 0 .3.2.4.1 0 .3.2.6.2h1.5v2.1c-.8.2-1.5.3-2 .3-1.2 0-2-.3-2.5-.8s-.7-1.5-.7-3v-4.2h-1.2v-2.3h1.2v-2.8h2.7v2.8h2.5v2.3z"/><path d="m354.9 64.2c.7-.9 1.9-1.4 3.6-1.4s2.8.5 3.6 1.4c.7.9 1.1 2.2 1.1 3.9 0 3.5-1.5 5.3-4.6 5.3s-4.6-1.8-4.6-5.3.4-3 1.1-3.9zm2.1 6.1c.3.5.8.7 1.5.7s1.2-.2 1.5-.7.4-1.2.4-2.3-.1-1.8-.4-2.3-.8-.7-1.5-.7-1.2.2-1.5.7-.4 1.2-.4 2.3.1 1.8.4 2.3z"/><path d="m242.5 89.6c.8-.5 1.8-.8 3-.8s2.3.3 3 .8c.7.6 1.1 1.3 1.1 2.3s-.2 1.7-.6 2.3-1.1 1.2-2.2 1.9l2 2c0-.2.2-.6.2-1.2v-1.4h2.6c-.2 1.6-.5 3-1 4.1l2.3 2-1.5 1.7-2.1-1.7c-.5.5-1.1.9-1.8 1.3-.7.3-1.5.5-2.3.5-2 0-3.3-.4-4.2-1.1-.8-.7-1.2-1.7-1.2-3.1s.2-1.9.7-2.6c.5-.6 1.2-1.1 2.2-1.5-.5-.7-.9-1.2-1.1-1.6s-.3-1-.3-1.6.4-1.7 1.1-2.2h.1zm2.4 11.3c.5 0 1.1 0 1.6-.2.5 0 .9-.3 1.1-.6l-3.5-3.5c-1 .5-1.5 1.2-1.5 2.3s.8 2 2.3 2zm-.8-8.5c0 .5.3 1.1.9 1.8l.3.4c.5-.4.9-.8 1.2-1.1.2-.3.3-.7.3-1.1 0-.8-.5-1.3-1.4-1.3s-1.4.4-1.4 1.3z"/><path d="m261.6 100.5c.3.3.8.4 1.4.4h3.9v1.9c-1.5.4-2.9.6-4.2.6s-2.6-.4-3.3-1.2-1-2.1-1-3.9c0-3.6 1.5-5.4 4.4-5.4s4.4 1.5 4.4 4.5l-.2 1.9h-5.9c0 .6.2 1.1.5 1.3zm3-3.4c0-.8 0-1.4-.4-1.7-.3-.3-.7-.5-1.3-.5s-1.1.2-1.3.5c-.3.3-.4.9-.4 1.7h3.5z"/><path d="m268.1 93h2.8l1.6 7.8h.6l1.7-7.8h2.7l-2.4 10.1h-4.6z"/><path d="m286.7 96.2v4.2c0 .3 0 .5.2.7 0 0 .2.2.5.3v2h-1.7c-.4 0-.8-.3-1.2-.6-1 .5-2 .7-3 .7-2.1 0-3.1-1.1-3.1-3.3s.3-1.8.9-2.3c.6-.4 1.5-.7 2.7-.8l2.2-.2v-.6c0-.4 0-.7-.3-.9-.2-.2-.5-.2-.9-.2l-3.8.2v-1.9c1.4-.4 2.7-.6 4-.6s2.2.3 2.8.8.9 1.4.9 2.6h-.2zm-4.6 2.6c-.8 0-1.1.5-1.1 1.2s.3 1.1 1 1.1 1.1 0 1.7-.2h.3v-2.2l-1.8.2h-.1z"/><path d="m289.4 103.1v-14.1h2.7v14.1z"/><path d="m300.6 93h2.7v10.1h-2.7v-.6c-1 .5-1.8.8-2.5.8-1.4 0-2.3-.4-2.8-1.2s-.7-2.1-.7-3.9v-5.3h2.7v5.3c0 1 0 1.7.2 2 .2.4.5.5 1.2.5s1.1 0 1.7-.3h.3v-7.6.2z"/><path d="m313.5 96.2v4.2c0 .3 0 .5.2.7 0 0 .2.2.5.3v2h-1.7c-.4 0-.8-.3-1.2-.6-1 .5-2 .7-3 .7-2.1 0-3.1-1.1-3.1-3.3s.3-1.8.9-2.3c.6-.4 1.5-.7 2.7-.8l2.2-.2v-.6c0-.4 0-.7-.3-.9-.2-.2-.5-.2-.9-.2l-3.8.2v-1.9c1.4-.4 2.7-.6 4-.6s2.2.3 2.8.8.9 1.4.9 2.6h-.2zm-4.5 2.6c-.8 0-1.1.5-1.1 1.2s.3 1.1 1 1.1 1.1 0 1.7-.2h.3v-2.2l-1.8.2h-.1z"/><path d="m319.8 92.8c.7 0 1.6 0 2.7.3h.5v2.3c-1.1 0-1.8-.2-2.4-.2-.9 0-1.5.2-1.8.6s-.5 1.1-.5 2.2.2 1.9.5 2.3.9.6 1.9.6l2.3-.2v2.2c-1.4.3-2.4.4-3.2.4-1.5 0-2.6-.4-3.2-1.3-.7-.8-1-2.2-1-4s.3-3.2 1-4 1.7-1.2 3.2-1.2z"/><path d="m325 91.7v-2.7h2.7v2.7zm0 11.4v-10.1h2.7v10.1z"/><path d="m330.8 94.2c.7-.9 1.9-1.4 3.6-1.4s2.8.5 3.6 1.4c.7.9 1.1 2.2 1.1 3.9 0 3.5-1.5 5.3-4.6 5.3s-4.6-1.8-4.6-5.3.4-3 1.1-3.9zm.5-4.2 5.1-2.1.8 2.3-5.3 1.5-.6-1.8zm1.6 10.3c.3.5.8.7 1.5.7s1.2-.2 1.5-.7.4-1.2.4-2.3 0-1.8-.4-2.3-.8-.7-1.5-.7-1.2.2-1.5.7-.4 1.2-.4 2.3 0 1.8.4 2.3z"/><path d="m343.6 103.1h-2.7v-10.1h2.7v.6c.9-.5 1.7-.8 2.5-.8 1.3 0 2.3.4 2.8 1.2s.8 2 .8 3.7v5.5h-2.7v-5.4c0-.9-.1-1.5-.3-1.9s-.6-.6-1.2-.6-1.1 0-1.6.3h-.2v7.6h-.1z"/></g></svg>