<svg viewBox="0 0 455.5 1067.5" xmlns="http://www.w3.org/2000/svg" xmlns:xlink="http://www.w3.org/1999/xlink"><linearGradient id="a"><stop offset="0" stop-color="#4b62fb"/><stop offset="1" stop-color="#eb5c21"/></linearGradient><linearGradient id="b" gradientTransform="matrix(0 -1 1 0 -3072.6 3.3)" gradientUnits="userSpaceOnUse" x1="-999.1" x2="-86" xlink:href="#a" y1="3300.3" y2="3300.3"/><linearGradient id="c" gradientTransform="matrix(-1 -0 0 -1 -3361.1 312.4)" gradientUnits="userSpaceOnUse" x1="-3588.8" x2="-3588.8" xlink:href="#a" y1="-694.9" y2="516.1"/><linearGradient id="d" gradientTransform="matrix(-1 -0 0 -1 -3361.1 312.4)" gradientUnits="userSpaceOnUse" x1="-3588.8" x2="-3588.8" xlink:href="#a" y1="-728" y2="461.5"/><linearGradient id="e" gradientTransform="matrix(-1 -0 0 -1 -3361.1 312.4)" gradientUnits="userSpaceOnUse" x1="-3588.8" x2="-3588.8" xlink:href="#a" y1="-805.3" y2="384.7"/><linearGradient id="f" gradientTransform="matrix(-1 -0 0 -1 -3361.1 312.4)" gradientUnits="userSpaceOnUse" x1="-3588.8" x2="-3588.8" xlink:href="#a" y1="-843.9" y2="345.6"/><linearGradient id="g" gradientTransform="matrix(-1 -0 0 -1 -3361.1 312.4)" gradientUnits="userSpaceOnUse" x1="-3588.8" x2="-3588.8" xlink:href="#a" y1="-921.6" y2="267.9"/><linearGradient id="h" gradientTransform="matrix(-1 -0 0 -1 -3361.1 312.4)" gradientUnits="userSpaceOnUse" x1="-3588.8" x2="-3588.8" xlink:href="#a" y1="-959.9" y2="230.1"/><linearGradient id="i" gradientTransform="matrix(-1 -0 0 -1 -3361.1 312.4)" gradientUnits="userSpaceOnUse" x1="-3588.8" x2="-3588.8" xlink:href="#a" y1="-766.7" y2="423.3"/><linearGradient id="j" gradientTransform="matrix(-1 -0 0 -1 -3361.1 312.4)" gradientUnits="userSpaceOnUse" x1="-3588.8" x2="-3588.8" xlink:href="#a" y1="-883" y2="307"/><path d="m227.8 1002.4v-920" fill="none" stroke="url(#b)" stroke-width="2"/><path d="m222.8 997.4h10v10h-10z" fill="url(#c)"/><path d="m222.8 866h10v10h-10z" fill="url(#d)"/><path d="m222.8 603.2h10v10h-10z" fill="url(#e)"/><path d="m222.8 471.8h10v10h-10z" fill="url(#f)"/><path d="m222.8 209h10v10h-10z" fill="url(#g)"/><path d="m222.8 77.4h10v10h-10z" fill="url(#h)"/><path d="m222.8 734.6h10v10h-10z" fill="url(#i)"/><path d="m222.8 340.4h10v10h-10z" fill="url(#j)"/><g fill="#fff"><path d="m289.5 71.9h-4.6v-13.6h4.6c1.2 0 2.1 0 2.9.4.8.2 1.4.7 1.8 1.2.4.6.7 1.2.9 2s.2 1.8.2 3 0 2.2-.2 3c-.1.8-.4 1.5-.8 2.2s-1 1.1-1.8 1.4-1.8.4-3 .4zm2.9-5.4v-3.6c0-.5-.2-.9-.4-1.2-.2-.4-.5-.6-.9-.8-.4 0-.9-.2-1.6-.2h-1.8v8.8h1.8c1 0 1.7-.3 2.2-.8s.6-1.2.7-2.2z"/><path d="m300.1 69.4c.3.3.8.4 1.3.4h3.3.6v1.9c-1.5.4-2.9.6-4.2.6s-2.6-.4-3.3-1.2-1-2.1-1-3.9c0-3.6 1.5-5.4 4.4-5.4s4.4 1.5 4.4 4.5l-.2 1.9h-5.9c0 .6.2 1.1.5 1.3h.1zm3-3.4c0-.8 0-1.4-.4-1.7-.3-.3-.7-.5-1.3-.5s-1.1.2-1.3.5c-.3.3-.4.9-.4 1.6h3.5-.1z"/><path d="m314.8 64.4c-1.7-.2-2.8-.3-3.5-.3s-1.1 0-1.3.2c-.2 0-.3.3-.3.6s0 .4.4.5c.3 0 .9.2 2 .4s1.8.5 2.3.9.7 1.2.7 2.1c0 2.2-1.3 3.2-4 3.2s-1.9 0-3.2-.4h-.6v-2.4c1.7.2 2.8.3 3.5.3s1.1 0 1.3-.2c.2 0 .4-.3.4-.6s0-.4-.4-.6c-.2 0-.9-.3-1.9-.4-1-.2-1.8-.5-2.3-.9s-.8-1.2-.8-2.2.4-1.9 1.1-2.4 1.6-.8 2.8-.8 1.9 0 3.2.4h.7v2.6z"/><path d="m320.8 61.7c.7 0 1.6 0 2.7.3h.5v2.2c-1.1 0-1.8-.2-2.3-.2-.9 0-1.5.2-1.8.6s-.5 1.1-.5 2.2 0 1.8.5 2.2c.3.4.9.6 1.8.6l2.3-.2v2.1c-1.3.3-2.4.4-3.2.4-1.5 0-2.5-.4-3.2-1.2-.6-.8-1-2.2-1-4s.3-3.2 1-4 1.7-1.2 3.2-1.2z"/><path d="m326.4 63.1c.7-.9 1.9-1.4 3.5-1.4s2.8.5 3.5 1.4 1.1 2.2 1.1 3.9c0 3.5-1.5 5.3-4.6 5.3s-4.6-1.8-4.6-5.3.4-2.9 1.1-3.9zm2.1 6.1c.3.5.8.7 1.5.7s1.2-.2 1.5-.7.4-1.2.4-2.3 0-1.8-.4-2.2c-.3-.5-.8-.7-1.5-.7s-1.2.2-1.5.7-.4 1.2-.4 2.2 0 1.8.4 2.3z"/><path d="m341.4 61.7c1.4 0 2.4.4 3.1 1.2.6.8 1 2.1 1 4.1s-.4 3.3-1.1 4.1-2 1.1-3.9 1.1-1.6 0-3.1-.2h-.8v-14.1h2.7v4.3c.9-.4 1.6-.5 2.2-.5zm-1 8.1c.9 0 1.5-.2 1.8-.6s.5-1.2.5-2.3c0-1.8-.6-2.7-1.7-2.7s-1 0-1.5.2h-.3v5.4z"/><path d="m350.1 69.4c.3.3.8.4 1.3.4h3.3.6v1.9c-1.5.4-2.9.6-4.2.6s-2.6-.4-3.3-1.2-1-2.1-1-3.9c0-3.6 1.5-5.4 4.4-5.4s4.4 1.5 4.4 4.5l-.2 1.9h-5.9c0 .6.2 1.1.5 1.3h.1zm3-3.4c0-.8 0-1.4-.4-1.7s-.7-.5-1.3-.5-1.1.2-1.3.5c-.3.3-.4.9-.4 1.6h3.5-.1z"/><path d="m357.6 71.9v-10h2.7v1.1c1.1-.7 2.2-1.1 3.2-1.3v2.7c-1.1.2-2 .5-2.8.7h-.4v6.8z"/><path d="m370.6 64.2h-2.5v5c0 .2 0 .3.2.4 0 0 .3.2.6.2h1.5v2.1c-.8.2-1.5.3-1.9.3-1.2 0-2-.3-2.5-.8-.4-.5-.7-1.5-.7-3v-4.2h-1.2v-2.3h1.2v-2.8h2.7v2.8h2.5v2.3z"/><path d="m380 65.1v4.2c0 .3 0 .5.2.7 0 0 .2.2.5.3v2c-.8 0-1.3 0-1.7 0s-.8-.3-1.2-.6c-1 .5-1.9.7-2.9.7-2.1 0-3.1-1.1-3.1-3.3s.3-1.8.9-2.3c.6-.4 1.5-.7 2.6-.8l2.1-.2v-.6c0-.4 0-.7-.3-.9-.2-.2-.5-.2-.9-.2l-3.8.2v-1.9c1.3-.4 2.7-.6 4-.6s2.2.3 2.8.8.9 1.4.9 2.6h-.1zm-4.5 2.6c-.7 0-1.1.5-1.1 1.2s.3 1.1 1 1.1 1.1 0 1.7-.2h.3v-2.2l-1.8.2h-.1z"/><path d="m285.3 88.5c.7-.5 1.8-.8 3-.8s2.3.3 3 .8c.7.6 1.1 1.3 1.1 2.3s-.2 1.7-.6 2.3c-.4.5-1.1 1.2-2.1 1.9l2 2c0-.2.2-.6.2-1.2s.1-1 .1-1.4h2.6c-.2 1.6-.5 3-1 4.1l2.2 2-1.5 1.7-2.1-1.7c-.5.5-1.1.9-1.8 1.2s-1.5.5-2.3.5c-1.9 0-3.3-.4-4.1-1.1s-1.2-1.7-1.2-3.1.2-1.9.7-2.6c.5-.6 1.2-1.1 2.2-1.5-.5-.7-.9-1.2-1.1-1.6s-.2-1-.2-1.6.4-1.7 1.1-2.2zm2.4 11.3c.5 0 1.1 0 1.6-.2.5 0 .9-.3 1.1-.6l-3.5-3.5c-1 .5-1.5 1.2-1.5 2.3s.8 2 2.3 2zm-.8-8.5c0 .5.3 1.1.9 1.8l.3.4c.5-.4.9-.8 1.2-1.1s.3-.7.3-1.1c0-.8-.5-1.3-1.4-1.3s-1.4.4-1.4 1.3z"/><path d="m300.7 101.9 3.1-13.6h5.2l3.1 13.6h-2.8l-.5-2.5h-4.8l-.5 2.5zm5.2-11.3-1.4 6.5h3.7l-1.4-6.5h-1z"/><path d="m312.4 91.9h2.8l1.6 7.7h.6l1.7-7.7h2.7l-2.4 10h-4.6z"/><path d="m330.9 95.1v4.2c0 .3 0 .5.2.7 0 0 .2.2.5.3v2h-1.7c-.4 0-.8-.3-1.2-.6-1 .5-1.9.7-2.9.7-2.1 0-3.1-1.1-3.1-3.3s.3-1.8.9-2.3c.6-.4 1.5-.7 2.6-.8l2.1-.2v-.6c0-.4 0-.7-.3-.9-.2-.2-.5-.2-.9-.2l-3.8.2v-1.9c1.3-.4 2.7-.6 4-.6s2.2.3 2.8.8.9 1.4.9 2.6h-.1zm-4.5 2.6c-.7 0-1.1.5-1.1 1.2s.3 1.1 1 1.1 1.1 0 1.7-.2h.3v-2.2l-1.8.2h-.1z"/><path d="m333.6 101.9v-14h2.7v14z"/><path d="m338.8 90.7v-2.7h2.7v2.7zm0 11.2v-10h2.7v10z"/><path d="m351.7 95.1v4.2c0 .3 0 .5.2.7 0 0 .2.2.5.3v2h-1.7c-.4 0-.8-.3-1.2-.6-1 .5-1.9.7-2.9.7-2.1 0-3.1-1.1-3.1-3.3s.3-1.8.9-2.3c.6-.4 1.5-.7 2.6-.8l2.1-.2v-.6c0-.4 0-.7-.3-.9-.2-.2-.5-.2-.9-.2l-3.8.2v-1.9c1.3-.4 2.7-.6 4-.6s2.2.3 2.8.8.9 1.4.9 2.6h-.1zm-4.5 2.6c-.7 0-1.1.5-1.1 1.2s.3 1.1 1 1.1 1.1 0 1.7-.2h.3v-2.2l-1.8.2h-.1z"/><path d="m360 103.1c.4.2.6.7.6 1.5s-.2 1.3-.6 1.7-.9.6-1.6.6-1.1 0-1.6-.2h-.3v-1.6h1c.5 0 .8-.2.8-.5s-.3-.4-.8-.4h-.5v-1.9c-1.2 0-2-.6-2.5-1.5-.5-.8-.8-2.1-.8-3.9s.3-3 1-3.8 1.7-1.2 3.2-1.2 1.6 0 2.7.3h.5v2.2c-1.1 0-1.8-.2-2.3-.2-.9 0-1.5.2-1.8.6s-.5 1.1-.5 2.2 0 1.8.5 2.2c.3.4.9.6 1.8.6l2.3-.2v2.1c-1.2.3-2.2.4-3 .4v.5c.9 0 1.5 0 1.9.4z"/><path d="m370.8 95.1v4.2c0 .3 0 .5.2.7 0 0 .2.2.5.3v2h-1.7c-.4 0-.8-.3-1.2-.6-1 .5-1.9.7-2.9.7-2.1 0-3.1-1.1-3.1-3.3s.3-1.8.9-2.3c.6-.4 1.5-.7 2.6-.8l2.1-.2v-.6c0-.4 0-.7-.3-.9-.2-.2-.5-.2-.9-.2l-3.8.2v-1.9c1.3-.4 2.7-.6 4-.6s2.2.3 2.8.8.9 1.4.9 2.6h-.1zm-1.3-5.8s-.4.3-.8.5-.7.3-1 .3-.8 0-1.4-.4c-.6-.2-1-.4-1.2-.4-.4 0-.8.2-1.3.5l-.3.2-.6-1.5c.3-.3.6-.6 1-.8s.8-.4 1.1-.4.8 0 1.4.4c.6.2 1 .4 1.2.4.3 0 .8-.2 1.3-.5l.3-.2.6 1.5s-.2.2-.3.4zm-3.2 8.4c-.7 0-1.1.5-1.1 1.2s.3 1.1 1 1.1 1.1 0 1.7-.2h.3v-2.2l-1.8.2h-.1z"/><path d="m373.9 93.1c.7-.9 1.9-1.4 3.5-1.4s2.8.5 3.5 1.4 1.1 2.2 1.1 3.9c0 3.5-1.5 5.3-4.6 5.3s-4.6-1.8-4.6-5.3.4-2.9 1.1-3.9zm2.1 6.1c.3.5.8.7 1.5.7s1.2-.2 1.5-.7.4-1.2.4-2.3 0-1.8-.4-2.2c-.3-.5-.8-.7-1.5-.7s-1.2.2-1.5.7-.4 1.2-.4 2.2 0 1.8.4 2.3z"/><path d="m85.1 192.3h2.9l-3.2 13.6h-5.1l-3.2-13.6h2.9l2.4 11.2h.9z"/><path d="m89.5 194.6v-2.7h2.7v2.7zm0 11.3v-10h2.7v10z"/><path d="m102.3 199v4.2c0 .3 0 .5.2.7s.2.2.5.3v2h-1.7c-.4 0-.8-.3-1.2-.6-1 .5-1.9.7-2.9.7-2.1 0-3.1-1.1-3.1-3.3s.3-1.8.9-2.3 1.5-.7 2.6-.8l2.1-.2v-.6c0-.4 0-.7-.3-.8-.2-.2-.5-.2-.9-.2l-3.8.2v-1.9c1.3-.4 2.7-.6 4-.6s2.2.3 2.8.8.9 1.4.9 2.6v-.2zm-4.5 2.7c-.7 0-1.1.5-1.1 1.2s.3 1.1 1 1.1 1.1 0 1.7-.2h.3v-2.2l-1.8.2h-.1z"/><path d="m109.7 195.7c1.4 0 2.4.4 3.1 1.2.6.8 1 2.1 1 4.1s-.4 3.3-1.1 4.1-2 1.1-3.9 1.1-1.6 0-3.1-.2h-.8v-14h2.7v4.3c.9-.4 1.6-.5 2.2-.5h-.1zm-.9 8c.9 0 1.5-.2 1.8-.6s.5-1.2.5-2.3c0-1.8-.6-2.7-1.7-2.7s-1 0-1.5.2h-.3v5.4z"/><path d="m115.8 194.6v-2.7h2.7v2.7zm0 11.3v-10h2.7v10z"/><path d="m121.1 205.9v-14h2.7v14z"/><path d="m126.3 194.6v-2.7h2.7v2.7zm0 11.3v-10h2.7v10z"/><path d="m140 191.9v14h-2.7v-.4c-.9.4-1.7.7-2.4.7-1.5 0-2.5-.4-3-1.3-.6-.8-.9-2.2-.9-4s.3-3.1 1-4c.7-.8 1.7-1.2 3.1-1.2s1 0 1.8.2h.4v-4zm-3 11.6h.3v-5.3c-.7 0-1.4-.2-2-.2-1.1 0-1.6 1-1.6 2.9s0 1.8.4 2.2c.2.4.6.7 1.2.7s1.1 0 1.8-.2h-.1z"/><path d="m150.1 199v4.2c0 .3 0 .5.2.7s.2.2.5.3v2h-1.7c-.4 0-.8-.3-1.2-.6-1 .5-1.9.7-2.9.7-2.1 0-3.1-1.1-3.1-3.3s.3-1.8.9-2.3 1.5-.7 2.6-.8l2.1-.2v-.6c0-.4 0-.7-.3-.8-.2-.2-.5-.2-.9-.2l-3.8.2v-1.9c1.3-.4 2.7-.6 4-.6s2.2.3 2.8.8.9 1.4.9 2.6v-.2zm-4.5 2.7c-.7 0-1.1.5-1.1 1.2s.3 1.1 1 1.1 1.1 0 1.7-.2h.3v-2.2l-1.8.2z"/><path d="m161.2 191.9v14h-2.7v-.4c-.9.4-1.7.7-2.4.7-1.5 0-2.5-.4-3-1.3-.6-.8-.9-2.2-.9-4s.3-3.1 1-4c.7-.8 1.7-1.2 3.1-1.2s1 0 1.8.2h.4v-4zm-3 11.6h.3v-5.3c-.7 0-1.4-.2-2-.2-1.1 0-1.6 1-1.6 2.9s0 1.8.4 2.2c.2.4.6.7 1.2.7s1.1 0 1.8-.2h-.1z"/><path d="m166.4 203.4c.3.3.8.4 1.3.4h3.9v1.9c-1.5.4-2.9.6-4.2.6s-2.6-.4-3.3-1.2-1-2.1-1-3.9c0-3.6 1.5-5.4 4.4-5.4s4.4 1.5 4.4 4.5l-.2 1.9h-5.9c0 .6.2 1.1.5 1.3zm2.9-3.4c0-.8 0-1.4-.4-1.7s-.7-.5-1.3-.5-1.1.2-1.3.5c-.3.3-.4.9-.4 1.7h3.5s0 0 0 0z"/><path d="m100.3 228.2h-2.5v5c0 .2 0 .3.2.4 0 .1.3.2.6.2h1.5v2.1c-.8.2-1.5.3-1.9.3-1.2 0-2-.3-2.5-.8-.4-.5-.7-1.5-.7-3v-4.2h-1.2v-2.3h1.2v-2.8h2.7v2.8h2.5v2.3z"/><path d="m104.8 233.4c.3.3.8.4 1.3.4 1.2 0 2.3 0 3.3-.1h.6v1.9c-1.5.4-2.9.6-4.2.6s-2.6-.4-3.3-1.2-1-2.1-1-3.9c0-3.6 1.5-5.4 4.4-5.4s4.4 1.5 4.4 4.5l-.2 1.9h-5.9c0 .6.2 1.1.5 1.3zm-1.9-10.5 5-2 .8 2.3-5.2 1.5-.6-1.7zm4.8 7.1c0-.8 0-1.4-.4-1.7-.3-.3-.7-.5-1.3-.5s-1.1.2-1.3.5c-.3.3-.4.9-.4 1.7h3.5z"/><path d="m116 225.7c.7 0 1.6.1 2.7.3h.5v2.2c-1.1-.1-1.8-.2-2.3-.2-.9 0-1.5.2-1.8.6s-.5 1.1-.5 2.2 0 1.8.5 2.2c.3.4.9.6 1.8.6l2.3-.2v2.1c-1.3.3-2.4.4-3.2.4-1.5 0-2.5-.4-3.2-1.2-.6-.8-1-2.2-1-4s.3-3.2 1-4 1.7-1.2 3.2-1.2z"/><path d="m123.9 235.9h-2.7v-10h2.7v.6c.9-.5 1.7-.8 2.5-.8 1.3 0 2.3.4 2.8 1.2s.8 2 .8 3.6v5.4h-2.7v-5.3c0-.9 0-1.5-.3-1.9s-.6-.6-1.2-.6-1.1 0-1.6.3h-.2v7.6h-.1z"/><path d="m132.3 224.6v-2.7h2.7v2.7zm0 11.3v-10h2.7v10z"/><path d="m141.1 225.7c.7 0 1.6.1 2.7.3h.5v2.2c-1.1-.1-1.8-.2-2.3-.2-.9 0-1.5.2-1.8.6s-.5 1.1-.5 2.2 0 1.8.5 2.2c.3.4.9.6 1.8.6l2.3-.2v2.1c-1.3.3-2.4.4-3.2.4-1.5 0-2.5-.4-3.2-1.2-.6-.8-1-2.2-1-4s.3-3.2 1-4 1.7-1.2 3.2-1.2z"/><path d="m154 229v4.2c0 .3 0 .5.2.7s.2.2.5.3v2c-.8 0-1.3 0-1.7-.1-.4 0-.8-.3-1.2-.6-1 .5-1.9.7-2.9.7-2.1 0-3.1-1.1-3.1-3.3s.3-1.8.9-2.3 1.5-.7 2.6-.8l2.1-.2v-.6c0-.4 0-.7-.3-.8-.2-.2-.5-.2-.9-.2l-3.8.2v-1.9c1.3-.4 2.7-.6 4-.6s2.2.3 2.8.8.9 1.4.9 2.6zm-4.5 2.7c-.7 0-1.1.5-1.1 1.2s.3 1.1 1 1.1 1.1 0 1.7-.2h.3v-2.2l-1.8.2z"/><path d="m293.5 335.3h-4.6v-13.6h4.6c1.2 0 2.1 0 2.9.4.8.2 1.4.7 1.8 1.2.4.6.7 1.2.9 2s.2 1.8.2 3 0 2.2-.2 3c-.1.8-.4 1.5-.8 2.2s-1 1.1-1.8 1.4-1.8.4-3 .4zm2.9-5.4v-3.6c0-.5-.2-.9-.4-1.2-.2-.4-.5-.6-.9-.8-.4-.1-.9-.2-1.6-.2h-1.8v8.8h1.8c1 0 1.7-.3 2.2-.8s.6-1.2.7-2.2z"/><path d="m304.1 332.8c.3.3.8.4 1.3.4 1.2 0 2.3 0 3.3-.1h.6v1.9c-1.5.4-2.9.6-4.2.6s-2.6-.4-3.3-1.2-1-2.1-1-3.9c0-3.6 1.5-5.4 4.4-5.4s4.4 1.5 4.4 4.5l-.2 1.9h-5.9c0 .6.2 1.1.5 1.3zm2.9-3.4c0-.8-.1-1.4-.4-1.7s-.7-.5-1.3-.5-1.1.2-1.3.5c-.3.3-.4.9-.4 1.6h3.5-.1z"/><path d="m314.8 327.6v7.7h-2.7v-7.7h-1.1v-2.3h1.1v-.4c0-1.4.2-2.4.6-3s1.2-.8 2.3-.8 1.1 0 1.9.2h.4v2.2h-1.5c-.4 0-.7.1-.8.3s-.2.6-.2 1.1v.4h2.4v2.3z"/><path d="m318.7 324v-2.7h2.7v2.7zm0 11.3v-10h2.7v10z"/><path d="m326.6 335.3h-2.7v-10h2.7v.6c.9-.5 1.7-.8 2.5-.8 1.3 0 2.3.4 2.8 1.2s.8 2 .8 3.6v5.4h-2.7v-5.3c0-.9-.1-1.5-.3-1.9s-.6-.6-1.2-.6-1.1 0-1.6.3h-.2v7.6z"/><path d="m335 324v-2.7h2.7v2.7zm0 11.3v-10h2.7v10z"/><path d="m345.9 336.4c.4.2.6.7.6 1.5s-.2 1.3-.6 1.7-.9.6-1.6.6-1.1 0-1.6-.2h-.3v-1.6h1c.5 0 .8-.2.8-.5s-.3-.4-.8-.4h-.5v-1.9c-1.2-.1-2-.6-2.5-1.5-.5-.8-.8-2.1-.8-3.9s.3-3 1-3.8 1.7-1.2 3.2-1.2 1.6.1 2.7.3h.5v2.2c-1.1-.1-1.8-.2-2.3-.2-.9 0-1.5.2-1.8.6s-.5 1.1-.5 2.2.1 1.8.5 2.2c.3.4.9.6 1.8.6l2.3-.2v2.1c-1.2.3-2.2.4-3 .4v.5c.9 0 1.5.1 1.9.4z"/><path d="m356.7 328.4v4.2c0 .3 0 .5.2.7 0 .1.2.2.5.3v2c-.8 0-1.3 0-1.7-.1-.4 0-.8-.3-1.2-.6-1 .5-1.9.7-2.9.7-2.1 0-3.1-1.1-3.1-3.3s.3-1.8.9-2.3c.6-.4 1.5-.7 2.6-.8l2.1-.2v-.6c0-.4 0-.7-.3-.9-.2-.2-.5-.2-.9-.2l-3.8.2v-1.9c1.3-.4 2.7-.6 4-.6s2.2.3 2.8.8.9 1.4.9 2.6zm-1.3-5.7c-.1 0-.4.3-.8.5s-.7.3-1 .3-.8 0-1.4-.4c-.6-.2-1-.4-1.2-.4-.4 0-.8.2-1.3.5l-.3.2-.6-1.5c.3-.3.6-.6 1-.8s.8-.4 1.1-.4.8 0 1.4.4c.6.2 1 .4 1.2.4.3 0 .8-.2 1.3-.5l.3-.2.6 1.5s-.2.2-.3.4zm-3.2 8.4c-.7 0-1.1.5-1.1 1.2s.3 1.1 1 1.1 1.1 0 1.7-.2h.3v-2.2l-1.8.2h-.1z"/><path d="m359.8 326.4c.7-.9 1.9-1.4 3.5-1.4s2.8.5 3.5 1.4 1.1 2.2 1.1 3.9c0 3.5-1.5 5.3-4.6 5.3s-4.6-1.8-4.6-5.3.4-2.9 1.1-3.9zm2.1 6.1c.3.5.8.7 1.5.7s1.2-.2 1.5-.7.4-1.2.4-2.3-.1-1.8-.4-2.2c-.3-.5-.8-.7-1.5-.7s-1.2.2-1.5.7-.4 1.2-.4 2.2.1 1.8.4 2.3z"/><path d="m291.8 351.3v14h-2.7v-.4c-.9.4-1.7.7-2.4.7-1.5 0-2.5-.4-3-1.3-.6-.8-.9-2.2-.9-4s.3-3.1 1-4c.7-.8 1.7-1.2 3.1-1.2s1 0 1.8.2h.4v-4zm-2.9 11.6h.3v-5.3c-.7 0-1.4-.2-2-.2-1.1 0-1.6 1-1.6 2.9s.1 1.8.4 2.2c.2.4.6.7 1.2.7s1.1 0 1.8-.2z"/><path d="m302 358.4v4.2c0 .3 0 .5.2.7 0 0 .2.2.5.3v2h-1.7c-.4 0-.8-.3-1.2-.6-1 .5-1.9.7-2.9.7-2.1 0-3.1-1.1-3.1-3.3s.3-1.8.9-2.3c.6-.4 1.5-.7 2.6-.8l2.1-.2v-.6c0-.4 0-.7-.3-.9-.2-.2-.5-.2-.9-.2l-3.8.2v-1.9c1.3-.4 2.7-.6 4-.6s2.2.3 2.8.8.9 1.4.9 2.6h-.1zm-4.5 2.7c-.7 0-1.1.5-1.1 1.2s.3 1.1 1 1.1 1.1 0 1.7-.2h.3v-2.2l-1.8.2h-.1z"/><path d="m316.1 357.8c-1.7-.2-2.8-.3-3.5-.3s-1.1 0-1.3.2c-.2 0-.3.3-.3.6s.1.4.4.5c.3 0 .9.2 2 .4s1.8.5 2.3.9.7 1.2.7 2.1c0 2.2-1.3 3.2-4 3.2s-1.9 0-3.2-.4h-.6v-2.4c1.7.2 2.8.3 3.5.3s1.1 0 1.3-.2c.2 0 .4-.3.4-.6s-.1-.4-.4-.6c-.2 0-.9-.3-1.9-.4-1-.2-1.8-.5-2.3-.9s-.8-1.2-.8-2.2.4-1.9 1.1-2.4 1.6-.8 2.8-.8 1.9 0 3.2.4h.7v2.6z"/><path d="m318.9 356.4c.7-.9 1.9-1.4 3.5-1.4s2.8.5 3.5 1.4 1.1 2.2 1.1 3.9c0 3.5-1.5 5.3-4.6 5.3s-4.6-1.8-4.6-5.3.4-2.9 1.1-3.9zm2.1 6.1c.3.5.8.7 1.5.7s1.2-.2 1.5-.7.4-1.2.4-2.3-.1-1.8-.4-2.2c-.3-.5-.8-.7-1.5-.7s-1.2.2-1.5.7-.4 1.2-.4 2.2.1 1.8.4 2.3z"/><path d="m329.1 365.3v-14h2.7v14z"/><path d="m340.3 355.3h2.7v10h-2.7v-.6c-1 .5-1.8.8-2.5.8-1.4 0-2.3-.4-2.8-1.2s-.7-2-.7-3.8v-5.2h2.7v5.3c0 1 0 1.7.2 2 .2.4.5.5 1.2.5s1.1 0 1.7-.3h.3v-7.6h-.1z"/><path d="m351.2 366.4c.4.2.6.7.6 1.5s-.2 1.3-.6 1.7-.9.6-1.6.6-1.1 0-1.6-.2h-.3v-1.6h1c.5 0 .8-.2.8-.5s-.3-.4-.8-.4h-.5v-1.9c-1.2 0-2-.6-2.5-1.5-.5-.8-.8-2.1-.8-3.9s.3-3 1-3.8 1.7-1.2 3.2-1.2 1.6 0 2.7.3h.5v2.2c-1.1 0-1.8-.2-2.3-.2-.9 0-1.5.2-1.8.6s-.5 1.1-.5 2.2.1 1.8.5 2.2c.3.4.9.6 1.8.6l2.3-.2v2.1c-1.2.3-2.2.4-3 .4v.5c.9 0 1.5 0 1.9.4z"/><path d="m362 358.4v4.2c0 .3 0 .5.2.7 0 0 .2.2.5.3v2h-1.7c-.4 0-.8-.3-1.2-.6-1 .5-1.9.7-2.9.7-2.1 0-3.1-1.1-3.1-3.3s.3-1.8.9-2.3c.6-.4 1.5-.7 2.6-.8l2.1-.2v-.6c0-.4 0-.7-.3-.9-.2-.2-.5-.2-.9-.2l-3.8.2v-1.9c1.3-.4 2.7-.6 4-.6s2.2.3 2.8.8.9 1.4.9 2.6h-.1zm-1.3-5.7c-.1 0-.4.3-.8.5s-.7.3-1 .3-.8 0-1.4-.4c-.6-.2-1-.4-1.2-.4-.4 0-.8.2-1.3.5l-.3.2-.6-1.5c.3-.3.6-.6 1-.8s.8-.4 1.1-.4.8 0 1.4.4c.6.2 1 .4 1.2.4.3 0 .8-.2 1.3-.5l.3-.2.6 1.5s-.2.2-.3.4zm-3.2 8.4c-.7 0-1.1.5-1.1 1.2s.3 1.1 1 1.1 1.1 0 1.7-.2h.3v-2.2l-1.8.2h-.1z"/><path d="m365.1 356.4c.7-.9 1.9-1.4 3.5-1.4s2.8.5 3.5 1.4 1.1 2.2 1.1 3.9c0 3.5-1.5 5.3-4.6 5.3s-4.6-1.8-4.6-5.3.4-2.9 1.1-3.9zm2.1 6.1c.3.5.8.7 1.5.7s1.2-.2 1.5-.7.4-1.2.4-2.3-.1-1.8-.4-2.2c-.3-.5-.8-.7-1.5-.7s-1.2.2-1.5.7-.4 1.2-.4 2.2.1 1.8.4 2.3z"/><path d="m73.5 466.4 3.1-13.6h5.2l3.1 13.6h-2.8l-.5-2.5h-4.8l-.5 2.5zm5.2-11.3-1.4 6.5h3.7l-1.4-6.5h-1s.1 0 0 0z"/><path d="m86.5 466.4v-10h2.7v1.1c1.1-.7 2.2-1.1 3.2-1.3v2.7c-1.1.2-2 .5-2.8.7h-.4v6.8z"/><path d="m97.5 466.6c-1.4 0-2.4-.4-3.1-1.2-.6-.8-1-2.1-1-4.1s.4-3.3 1.1-4.1c.7-.7 2-1.1 3.9-1.1s1.9 0 3.2.2h.7v14.2h-2.7v-4.5c-.9.4-1.6.5-2.2.5zm.9-8.1c-.9 0-1.5.2-1.8.7s-.5 1.2-.5 2.4c0 1.8.6 2.7 1.7 2.7s1 0 1.5-.2h.3v-5.5h-1.2z"/><path d="m110.7 456.4h2.7v10h-2.7v-.6c-1 .5-1.8.8-2.5.8-1.4 0-2.3-.4-2.8-1.2s-.7-2-.7-3.8v-5.2h2.7v5.3c0 1 0 1.7.2 2s.5.5 1.2.5 1.1 0 1.7-.3h.3v-7.6h-.1z"/><path d="m115.8 455.1v-2.7h2.7v2.7zm0 11.3v-10h2.7v10z"/><path d="m126.5 458.7h-2.5v4.9c0 .2 0 .3.2.4 0 0 .3.2.6.2h1.5v2.1c-.8.2-1.5.3-1.9.3-1.2 0-2-.3-2.5-.8-.4-.5-.7-1.5-.7-3v-4.2h-1.2v-2.3h1.2v-2.8h2.7v2.8h2.5v2.3h.1z"/><path d="m131 463.9c.3.3.8.4 1.3.4h3.9v1.9c-1.5.4-2.9.6-4.2.6s-2.6-.4-3.3-1.2-1-2.1-1-3.9c0-3.6 1.5-5.4 4.4-5.4s4.4 1.5 4.4 4.5l-.2 1.9h-5.9c0 .6.2 1.1.5 1.3zm2.9-3.4c0-.8 0-1.4-.4-1.7-.3-.3-.7-.5-1.3-.5s-1.1.2-1.3.5c-.3.3-.4.9-.4 1.6h3.5z"/><path d="m144 458.7h-2.5v4.9c0 .2 0 .3.2.4 0 0 .3.2.6.2h1.5v2.1c-.8.2-1.5.3-1.9.3-1.2 0-2-.3-2.5-.8-.4-.5-.7-1.5-.7-3v-4.2h-1.2v-2.3h1.2v-2.8h2.7v2.8h2.5v2.3h.1z"/><path d="m151.7 456.4h2.7v10h-2.7v-.6c-1 .5-1.8.8-2.5.8-1.4 0-2.3-.4-2.8-1.2s-.7-2-.7-3.8v-5.2h2.7v5.3c0 1 0 1.7.2 2s.5.5 1.2.5 1.1 0 1.7-.3h.3v-7.6z"/><path d="m156.8 466.4v-10h2.7v1.1c1.1-.7 2.2-1.1 3.2-1.3v2.7c-1.1.2-2 .5-2.8.7h-.4v6.8z"/><path d="m171.9 459.5v4.2c0 .3 0 .5.2.7 0 0 .2.2.5.3v2h-1.7c-.4 0-.8-.3-1.2-.6-1 .5-1.9.7-2.9.7-2.1 0-3.1-1.1-3.1-3.3s.3-1.8.9-2.3c.6-.4 1.5-.7 2.6-.8l2.1-.2v-.6c0-.4 0-.7-.3-.9-.2-.2-.5-.2-.9-.2l-3.8.2v-1.9c1.3-.4 2.7-.6 4-.6s2.2.3 2.8.8.9 1.4.9 2.6zm-4.5 2.6c-.7 0-1.1.5-1.1 1.2s.3 1.1 1 1.1 1.1 0 1.7-.2h.3v-2.2l-1.8.2z"/><path d="m82.3 482.4v14h-2.7v-.4c-.9.4-1.7.7-2.4.7-1.5 0-2.5-.4-3-1.3-.6-.8-.9-2.2-.9-4s.3-3.1 1-4c.7-.8 1.7-1.2 3.1-1.2s1 0 1.8.2h.4v-4zm-2.9 11.6h.3v-5.3c-.7-.1-1.4-.2-2-.2-1.1 0-1.6 1-1.6 2.9s0 1.8.4 2.2c.2.4.6.7 1.2.7s1.1 0 1.8-.2h-.1z"/><path d="m87.5 493.9c.3.3.8.4 1.3.4 1.2 0 2.3 0 3.3-.1h.6v1.9c-1.5.4-2.9.6-4.2.6s-2.6-.4-3.3-1.2-1-2.1-1-3.9c0-3.6 1.5-5.4 4.4-5.4s4.4 1.5 4.4 4.5l-.2 1.9h-5.9c0 .6.2 1.1.5 1.3zm3-3.4c0-.8 0-1.4-.4-1.7-.3-.3-.7-.5-1.3-.5s-1.1.2-1.3.5c-.3.3-.4.9-.4 1.6h3.5z"/><path d="m106.6 488.9c-1.7-.2-2.8-.3-3.5-.3s-1.1 0-1.3.2c-.2.1-.3.3-.3.6s0 .4.4.5c.3 0 .9.2 2 .4s1.8.5 2.3.9.7 1.2.7 2.1c0 2.2-1.3 3.2-4 3.2s-1.9-.1-3.2-.4h-.6v-2.4c1.7.2 2.8.3 3.5.3s1.1 0 1.3-.2c.2-.1.4-.3.4-.6s0-.4-.4-.6-.9-.3-1.9-.4c-1-.2-1.8-.5-2.3-.9s-.8-1.2-.8-2.2.4-1.9 1.1-2.4 1.6-.8 2.8-.8 1.9.1 3.2.4h.7v2.6z"/><path d="m109.4 487.5c.7-.9 1.9-1.4 3.5-1.4s2.8.5 3.5 1.4 1.1 2.2 1.1 3.8c0 3.5-1.5 5.3-4.6 5.3s-4.6-1.8-4.6-5.3.4-2.9 1.1-3.8zm2.1 6.1c.3.5.8.7 1.5.7s1.2-.2 1.5-.7.4-1.2.4-2.3 0-1.8-.4-2.2c-.3-.5-.8-.7-1.5-.7s-1.2.2-1.5.7-.4 1.2-.4 2.2 0 1.8.4 2.3z"/><path d="m119.6 496.4v-14h2.7v14z"/><path d="m130.8 486.4h2.7v10h-2.7v-.6c-1 .5-1.8.8-2.5.8-1.4 0-2.3-.4-2.8-1.2s-.7-2-.7-3.8v-5.2h2.7v5.3c0 1 0 1.7.2 2s.5.5 1.2.5 1.1 0 1.7-.3h.3v-7.6z"/><path d="m141.7 497.5c.4.2.6.7.6 1.5s-.2 1.3-.6 1.7-.9.6-1.6.6-1.1 0-1.6-.2h-.3v-1.6h1c.5 0 .8-.2.8-.5s-.3-.4-.8-.4h-.5v-1.9c-1.2-.1-2-.6-2.5-1.5-.5-.8-.8-2.1-.8-3.9s.3-3 1-3.8 1.7-1.2 3.2-1.2 1.6.1 2.7.3h.5v2.2c-1.1-.1-1.8-.2-2.3-.2-.9 0-1.5.2-1.8.6s-.5 1.1-.5 2.2 0 1.8.5 2.2c.3.4.9.6 1.8.6l2.3-.2v2.1c-1.2.3-2.2.4-3 .4v.5c.9 0 1.5.1 1.9.4z"/><path d="m145.3 487.5c.7-.9 1.9-1.4 3.5-1.4s2.8.5 3.5 1.4 1.1 2.2 1.1 3.8c0 3.5-1.5 5.3-4.6 5.3s-4.6-1.8-4.6-5.3.4-2.9 1.1-3.8zm6.6-3.7c0 .1-.4.3-.8.5s-.7.3-1 .3-.8-.1-1.4-.4c-.6-.2-1-.4-1.2-.4-.4 0-.8.2-1.3.5l-.3.2-.6-1.5c.3-.3.6-.6 1-.8s.8-.4 1.1-.4.8.1 1.4.4c.6.2 1 .4 1.2.4.3 0 .8-.2 1.3-.5l.3-.2.6 1.5s-.2.2-.3.4zm-4.5 9.8c.3.5.8.7 1.5.7s1.2-.2 1.5-.7.4-1.2.4-2.3 0-1.8-.4-2.2c-.3-.5-.8-.7-1.5-.7s-1.2.2-1.5.7-.4 1.2-.4 2.2 0 1.8.4 2.3z"/><path d="m158.1 493.9c.3.3.8.4 1.3.4 1.2 0 2.3 0 3.3-.1h.6v1.9c-1.5.4-2.9.6-4.2.6s-2.6-.4-3.3-1.2-1-2.1-1-3.9c0-3.6 1.5-5.4 4.4-5.4s4.4 1.5 4.4 4.5l-.2 1.9h-5.9c0 .6.2 1.1.5 1.3zm3-3.4c0-.8 0-1.4-.4-1.7-.3-.3-.7-.5-1.3-.5s-1.1.2-1.3.5c-.3.3-.4.9-.4 1.6h3.5z"/><path d="m172.8 488.9c-1.7-.2-2.8-.3-3.5-.3s-1.1 0-1.3.2c-.2.1-.3.3-.3.6s0 .4.4.5c.3 0 .9.2 2 .4s1.8.5 2.3.9.7 1.2.7 2.1c0 2.2-1.3 3.2-4 3.2s-1.9-.1-3.2-.4h-.6v-2.4c1.7.2 2.8.3 3.5.3s1.1 0 1.3-.2c.2-.1.4-.3.4-.6s0-.4-.4-.6c-.2-.1-.9-.3-1.9-.4-1-.2-1.8-.5-2.3-.9s-.8-1.2-.8-2.2.4-1.9 1.1-2.4 1.6-.8 2.8-.8 1.9.1 3.2.4h.7v2.6z"/><path d="m287.4 615.1h-4.6v-13.6h4.6c1.2 0 2.1 0 2.9.4.8.2 1.4.7 1.8 1.2.4.6.7 1.2.9 2s.2 1.8.2 3 0 2.2-.2 3c0 .8-.4 1.5-.8 2.2-.4.6-1 1.1-1.8 1.4s-1.8.4-3 .4zm2.9-5.4v-3.6c0-.5-.2-.9-.4-1.2-.2-.4-.5-.6-.9-.8-.4 0-.9-.2-1.6-.2h-1.8v8.8h1.8c1 0 1.7-.3 2.2-.8.4-.4.6-1.2.7-2.2z"/><path d="m298 612.6c.3.3.8.4 1.3.4h3.9v1.9c-1.5.4-2.9.6-4.2.6s-2.6-.4-3.3-1.2-1-2.1-1-3.9c0-3.6 1.5-5.4 4.4-5.4s4.4 1.5 4.4 4.5l-.2 1.9h-5.9c0 .6.2 1.1.5 1.3h.1zm3-3.4c0-.8 0-1.4-.4-1.7s-.7-.5-1.3-.5-1.1.2-1.3.5-.4.9-.4 1.6h3.5-.1z"/><path d="m312.7 607.6c-1.7-.2-2.8-.3-3.5-.3s-1.1 0-1.3.2c-.2 0-.3.3-.3.6s0 .4.4.5c.3 0 .9.2 2 .4s1.8.5 2.3.9.7 1.2.7 2.1c0 2.2-1.3 3.2-4 3.2s-1.9 0-3.2-.4h-.6v-2.4c1.7.2 2.8.3 3.5.3s1.1 0 1.3-.2c.2 0 .4-.3.4-.6s0-.4-.4-.6c-.2 0-.9-.3-1.9-.4-1-.2-1.8-.5-2.3-.9s-.8-1.2-.8-2.2.4-1.9 1.1-2.4 1.6-.8 2.8-.8 1.9 0 3.2.4h.7v2.6z"/><path d="m317.6 612.6c.3.3.8.4 1.3.4h3.9v1.9c-1.5.4-2.9.6-4.2.6s-2.6-.4-3.3-1.2-1-2.1-1-3.9c0-3.6 1.5-5.4 4.4-5.4s4.4 1.5 4.4 4.5l-.2 1.9h-5.9c0 .6.2 1.1.5 1.3h.1zm3-3.4c0-.8 0-1.4-.4-1.7s-.7-.5-1.3-.5-1.1.2-1.3.5-.4.9-.4 1.6h3.5-.1z"/><path d="m327.8 615.1h-2.7v-10h2.7v.6c.9-.5 1.7-.8 2.5-.8 1.3 0 2.3.4 2.8 1.2s.8 2 .8 3.6v5.4h-2.7v-5.3c0-.9 0-1.5-.3-1.9s-.6-.6-1.2-.6-1.1 0-1.6.3h-.2v7.6z"/><path d="m335.2 605.1h2.8l1.6 7.7h.6l1.7-7.7h2.7l-2.4 10h-4.6z"/><path d="m346.5 606.2c.7-.9 1.9-1.4 3.5-1.4s2.8.5 3.5 1.4 1.1 2.2 1.1 3.9c0 3.5-1.5 5.3-4.6 5.3s-4.6-1.8-4.6-5.3.4-2.9 1.1-3.9zm2.1 6.1c.3.5.8.7 1.5.7s1.2-.2 1.5-.7.4-1.2.4-2.3 0-1.8-.4-2.2-.8-.7-1.5-.7-1.2.2-1.5.7-.4 1.2-.4 2.2 0 1.8.4 2.3z"/><path d="m356.7 615.1v-14h2.7v14z"/><path d="m361.1 605.1h2.8l1.6 7.7h.6l1.7-7.7h2.7l-2.4 10h-4.6z"/><path d="m372 603.8v-2.7h2.7v2.7zm0 11.3v-10h2.7v10z"/><path d="m379.8 615.1h-2.7v-10h2.7v.6c.9-.5 1.7-.8 2.4-.8 1.1 0 1.9.3 2.5.9 1.2-.6 2.3-.9 3.4-.9s2.2.4 2.8 1.2.8 2 .8 3.7v5.4h-2.7v-5.3c0-.9 0-1.5-.3-1.9-.2-.4-.6-.6-1.1-.6s-.9 0-1.6.3h-.3v7.6h-2.7v-5.1c0-1 0-1.7-.3-2.1-.2-.4-.6-.6-1.1-.6s-1 0-1.5.3h-.2v7.6-.3z"/><path d="m396.6 612.6c.3.3.8.4 1.3.4h3.9v1.9c-1.5.4-2.9.6-4.2.6s-2.6-.4-3.3-1.2-1-2.1-1-3.9c0-3.6 1.5-5.4 4.4-5.4s4.4 1.5 4.4 4.5l-.2 1.9h-5.9c0 .6.2 1.1.5 1.3h.1zm2.9-3.4c0-.8 0-1.4-.4-1.7-.3-.3-.7-.5-1.3-.5s-1.1.2-1.3.5c-.3.3-.4.9-.4 1.6h3.5-.1z"/><path d="m406.8 615.1h-2.7v-10h2.7v.6c.9-.5 1.7-.8 2.5-.8 1.3 0 2.3.4 2.8 1.2s.8 2 .8 3.6v5.4h-2.7v-5.3c0-.9 0-1.5-.3-1.9s-.6-.6-1.2-.6-1.1 0-1.6.3h-.2v7.6z"/><path d="m420.7 607.4h-2.5v5c0 .2 0 .3.2.4 0 0 .3.2.6.2h1.5v2.1c-.8.2-1.5.3-1.9.3-1.2 0-2-.3-2.5-.8s-.7-1.5-.7-3v-4.2h-1.2v-2.3h1.2v-2.8h2.7v2.8h2.5v2.3z"/><path d="m423 606.2c.7-.9 1.9-1.4 3.5-1.4s2.8.5 3.5 1.4 1.1 2.2 1.1 3.9c0 3.5-1.5 5.3-4.6 5.3s-4.6-1.8-4.6-5.3.4-2.9 1.1-3.9zm2 6.1c.3.5.8.7 1.5.7s1.2-.2 1.5-.7.4-1.2.4-2.3 0-1.8-.4-2.2-.8-.7-1.5-.7-1.2.2-1.5.7-.4 1.2-.4 2.2 0 1.8.4 2.3z"/><path d="m82.5 744.5v-13.6h2.8v13.6z"/><path d="m90.6 744.5h-2.7v-10h2.7v.6c.9-.5 1.7-.8 2.5-.8 1.3 0 2.3.4 2.8 1.2s.8 2 .8 3.6v5.4h-2.7v-5.3c0-.9 0-1.5-.3-1.9s-.6-.6-1.2-.6-1.1 0-1.6.3h-.2v7.6z"/><path d="m104.5 736.8h-2.5v4.9c0 .2 0 .3.2.4 0 0 .3.2.6.2h1.5v2.1c-.8.2-1.5.3-1.9.3-1.2 0-2-.3-2.5-.8-.4-.5-.7-1.5-.7-3v-4.2h-1.2v-2.3h1.2v-2.8h2.7v2.8h2.5v2.3h.1z"/><path d="m109 742c.3.3.8.4 1.3.4h3.9v1.9c-1.5.4-2.9.6-4.2.6s-2.6-.4-3.3-1.2-1-2.1-1-3.9c0-3.6 1.5-5.4 4.4-5.4s4.4 1.5 4.4 4.5l-.2 1.9h-5.9c0 .6.2 1.1.5 1.3h.1zm2.9-3.4c0-.8 0-1.4-.4-1.7-.3-.3-.7-.5-1.3-.5s-1.1.2-1.3.5c-.3.3-.4.9-.4 1.6h3.5z"/><path d="m125.5 745.7c0 1.1-.4 2-1.3 2.5s-2.1.8-3.6.8-2.7-.2-3.5-.6-1.2-1.1-1.2-2.2.5-1.6 1.4-2.4c-.5-.3-.7-.8-.7-1.5s.2-.7.6-1.3l.2-.3c-.9-.7-1.4-1.6-1.4-2.9s.4-2.2 1.1-2.8 1.8-.9 3.1-.9 1.1 0 1.7.2h3.5v2.1h-1.5c.3.3.4.8.4 1.2 0 1.3-.3 2.3-1 2.8s-1.7.8-3.2.8-.6 0-.8 0c0 .3-.2.6-.2.9s0 .4.3.5.8 0 1.6 0c1.7 0 2.8.2 3.4.7.6.4.9 1.2.9 2.4zm-6.9.3c0 .6.7.9 2.1.9s2.1-.3 2.1-1 0-.6-.4-.7c-.2 0-.7-.2-1.5-.2h-1.8c-.4.2-.5.6-.5 1zm.2-8.2c0 1 .5 1.5 1.5 1.5s1.5-.5 1.5-1.5-.5-1.5-1.5-1.5-1.5.5-1.5 1.5z"/><path d="m127.2 744.5v-10h2.7v1.1c1.1-.7 2.2-1.1 3.2-1.3v2.7c-1.1.2-2 .5-2.8.7h-.4v6.8s-2.7 0-2.7 0z"/><path d="m142.3 737.6v4.2c0 .3 0 .5.2.7 0 0 .2.2.5.3v2h-1.7c-.4 0-.8-.3-1.2-.6-1 .5-1.9.7-2.9.7-2.1 0-3.1-1.1-3.1-3.3s.3-1.8.9-2.3c.6-.4 1.5-.7 2.6-.8l2.1-.2v-.6c0-.4 0-.7-.3-.9-.2-.2-.5-.2-.9-.2l-3.8.2v-1.9c1.3-.4 2.7-.6 4-.6s2.2.3 2.8.8.9 1.4.9 2.6zm-4.5 2.6c-.7 0-1.1.5-1.1 1.2s.3 1.1 1 1.1 1.1 0 1.7-.2h.3v-2.2l-1.8.2z"/><path d="m150.6 745.6c.4.2.6.7.6 1.5s-.2 1.3-.6 1.7-.9.6-1.6.6-1.1 0-1.6-.2h-.3v-1.6h1c.5 0 .8-.2.8-.5s-.3-.4-.8-.4h-.5v-1.9c-1.2 0-2-.6-2.5-1.5-.5-.8-.8-2.1-.8-3.9s.3-3 1-3.8 1.7-1.2 3.2-1.2 1.6 0 2.7.3h.5v2.2c-1.1 0-1.8-.2-2.3-.2-.9 0-1.5.2-1.8.6s-.5 1.1-.5 2.2 0 1.8.5 2.2c.3.4.9.6 1.8.6l2.3-.2v2.1c-1.2.3-2.2.4-3 .4v.5c.9 0 1.5 0 1.9.4z"/><path d="m161.4 737.6v4.2c0 .3 0 .5.2.7 0 0 .2.2.5.3v2h-1.7c-.4 0-.8-.3-1.2-.6-1 .5-1.9.7-2.9.7-2.1 0-3.1-1.1-3.1-3.3s.3-1.8.9-2.3c.6-.4 1.5-.7 2.6-.8l2.1-.2v-.6c0-.4 0-.7-.3-.9-.2-.2-.5-.2-.9-.2l-3.8.2v-1.9c1.3-.4 2.7-.6 4-.6s2.2.3 2.8.8.9 1.4.9 2.6zm-1.3-5.7s-.4.3-.8.5-.7.3-1 .3-.8 0-1.4-.4c-.6-.2-1-.4-1.2-.4-.4 0-.8.2-1.3.5l-.3.2-.6-1.5c.3-.3.6-.6 1-.8s.8-.4 1.1-.4.8 0 1.4.4c.6.2 1 .4 1.2.4.3 0 .8-.2 1.3-.5l.3-.2.6 1.5s-.2.2-.3.4zm-3.2 8.3c-.7 0-1.1.5-1.1 1.2s.3 1.1 1 1.1 1.1 0 1.7-.2h.3v-2.2l-1.8.2z"/><path d="m164.5 735.6c.7-.9 1.9-1.4 3.5-1.4s2.8.5 3.5 1.4 1.1 2.2 1.1 3.8c0 3.5-1.5 5.3-4.6 5.3s-4.6-1.8-4.6-5.3.4-2.9 1.1-3.8zm2.1 6.1c.3.5.8.7 1.5.7s1.2-.2 1.5-.7.4-1.2.4-2.3 0-1.8-.4-2.2-.8-.7-1.5-.7-1.2.2-1.5.7-.4 1.2-.4 2.2 0 1.8.4 2.3z"/><path d="m284.5 850.3v-2.4h10v2.4h-3.6v11.2h-2.8v-11.2z"/><path d="m297.3 859c.3.3.8.4 1.3.4h3.3.6v1.9c-1.5.4-2.9.6-4.2.6s-2.6-.4-3.3-1.2-1-2.1-1-3.9c0-3.6 1.5-5.4 4.4-5.4s4.4 1.5 4.4 4.5l-.2 1.9h-5.9c0 .6.2 1.1.5 1.3zm2.9-3.4c0-.8 0-1.4-.4-1.7s-.7-.5-1.3-.5-1.1.2-1.3.5-.4.9-.4 1.6h3.5-.1z"/><path d="m312 854c-1.7-.2-2.8-.3-3.5-.3s-1.1 0-1.3.2c-.2 0-.3.3-.3.6s0 .4.4.5c.3 0 .9.2 2 .4s1.8.5 2.3.9.7 1.2.7 2.1c0 2.2-1.3 3.2-4 3.2s-1.9 0-3.2-.4h-.6v-2.4c1.7.2 2.8.3 3.5.3s1.1 0 1.3-.2c.2 0 .4-.3.4-.6s0-.4-.4-.6c-.2 0-.9-.3-1.9-.4-1-.2-1.8-.5-2.3-.9s-.8-1.2-.8-2.2.4-1.9 1.1-2.4 1.6-.8 2.8-.8 1.9 0 3.2.4h.7v2.6z"/><path d="m319.8 853.8h-2.5v5c0 .2 0 .3.2.4 0 0 .3.2.6.2h1.5v2.1c-.8.2-1.5.3-1.9.3-1.2 0-2-.3-2.5-.8s-.7-1.5-.7-3v-4.2h-1.2v-2.3h1.2v-2.8h2.7v2.8h2.5v2.3z"/><path d="m324.2 859c.3.3.8.4 1.3.4h3.3.6v1.9c-1.5.4-2.9.6-4.2.6s-2.6-.4-3.3-1.2-1-2.1-1-3.9c0-3.6 1.5-5.4 4.4-5.4s4.4 1.5 4.4 4.5l-.2 1.9h-5.9c0 .6.2 1.1.5 1.3h.1zm2.9-3.4c0-.8 0-1.4-.4-1.7s-.7-.5-1.3-.5-1.1.2-1.3.5-.4.9-.4 1.6h3.5-.1z"/><path d="m338.9 854c-1.7-.2-2.8-.3-3.5-.3s-1.1 0-1.3.2c-.2 0-.3.3-.3.6s0 .4.4.5c.3 0 .9.2 2 .4s1.8.5 2.3.9.7 1.2.7 2.1c0 2.2-1.3 3.2-4 3.2s-1.9 0-3.2-.4h-.6v-2.4c1.7.2 2.8.3 3.5.3s1.1 0 1.3-.2c.2 0 .4-.3.4-.6s0-.4-.4-.6c-.2 0-.9-.3-1.9-.4-1-.2-1.8-.5-2.3-.9s-.8-1.2-.8-2.2.4-1.9 1.1-2.4 1.6-.8 2.8-.8 1.9 0 3.2.4h.7v2.6z"/><path d="m348.2 859c.3.3.8.4 1.3.4h3.3.6v1.9c-1.5.4-2.9.6-4.2.6s-2.6-.4-3.3-1.2-1-2.1-1-3.9c0-3.6 1.5-5.4 4.4-5.4s4.4 1.5 4.4 4.5l-.2 1.9h-5.9c0 .6.2 1.1.5 1.3h.1zm3-3.4c0-.8 0-1.4-.4-1.7s-.7-.5-1.3-.5-1.1.2-1.3.5-.4.9-.4 1.6h3.5-.1z"/><path d="m366 856.6v-2.4h4v7.1c-1.9.3-3.5.5-4.6.5-2.1 0-3.6-.6-4.4-1.7s-1.2-2.9-1.2-5.4.4-4.2 1.2-5.3 2.2-1.6 4.2-1.6 2.6 0 4 .4h.7v2.3c-1.6-.2-2.9-.3-3.9-.3s-1.7 0-2.1.4c-.4.2-.7.7-.9 1.3s-.3 1.8-.3 3.3.2 2.7.6 3.3 1.2.9 2.4.9h1.7v-2.7h-1.4z"/><path d="m380 854.6v4.2c0 .3 0 .5.2.7 0 0 .2.2.5.3v2c-.8 0-1.3 0-1.7 0s-.8-.3-1.2-.6c-1 .5-1.9.7-2.9.7-2.1 0-3.1-1.1-3.1-3.3s.3-1.8.9-2.3c.6-.4 1.5-.7 2.6-.8l2.1-.2v-.6c0-.4 0-.7-.3-.9-.2-.2-.5-.2-.9-.2l-3.8.2v-1.9c1.3-.4 2.7-.6 4-.6s2.2.3 2.8.8.9 1.4.9 2.6h-.1zm-4.5 2.7c-.7 0-1.1.5-1.1 1.2s.3 1.1 1 1.1 1.1 0 1.7-.2h.3v-2.2l-1.8.2h-.1z"/><path d="m382.6 861.5v-10h2.7v1.1c1.1-.7 2.2-1.1 3.2-1.3v2.7c-1.1.2-2 .5-2.8.7h-.4v6.8z"/><path d="m397.7 854.6v4.2c0 .3 0 .5.2.7 0 0 .2.2.5.3v2c-.8 0-1.3 0-1.7 0s-.8-.3-1.2-.6c-1 .5-1.9.7-2.9.7-2.1 0-3.1-1.1-3.1-3.3s.3-1.8.9-2.3c.6-.4 1.5-.7 2.6-.8l2.1-.2v-.6c0-.4 0-.7-.3-.9s-.5-.2-.9-.2l-3.8.2v-1.9c1.3-.4 2.7-.6 4-.6s2.2.3 2.8.8.8 1.4.8 2.6zm-4.5 2.7c-.7 0-1.1.5-1.1 1.2s.3 1.1 1 1.1 1.1 0 1.7-.2h.3v-2.2l-1.8.2h-.1z"/><path d="m402.9 861.5h-2.7v-10h2.7v.6c.9-.5 1.7-.8 2.5-.8 1.3 0 2.3.4 2.8 1.2s.8 2 .8 3.6v5.4h-2.7v-5.3c0-.9 0-1.5-.3-1.9-.2-.4-.6-.6-1.2-.6s-1.1 0-1.6.3h-.2v7.6h-.1z"/><path d="m416.8 853.8h-2.5v5c0 .2 0 .3.2.4 0 0 .3.2.6.2h1.5v2.1c-.8.2-1.5.3-1.9.3-1.2 0-2-.3-2.5-.8-.4-.5-.7-1.5-.7-3v-4.2h-1.2v-2.3h1.2v-2.8h2.7v2.8h2.5v2.3z"/><path d="m418.6 850.2v-2.7h2.7v2.7zm0 11.3v-10h2.7v10z"/><path d="m431.4 854.6v4.2c0 .3 0 .5.2.7 0 0 .2.2.5.3v2c-.8 0-1.3 0-1.7 0s-.8-.3-1.2-.6c-1 .5-1.9.7-2.9.7-2.1 0-3.1-1.1-3.1-3.3s.3-1.8.9-2.3c.6-.4 1.5-.7 2.6-.8l2.1-.2v-.6c0-.4 0-.7-.3-.9s-.5-.2-.9-.2l-3.8.2v-1.9c1.3-.4 2.7-.6 4-.6s2.2.3 2.8.8.8 1.4.8 2.6zm-4.5 2.7c-.7 0-1.1.5-1.1 1.2s.3 1.1 1 1.1 1.1 0 1.7-.2h.3v-2.2l-1.8.2h-.1z"/><path d="m311.8 877.5v14h-2.7v-.4c-.9.4-1.7.7-2.4.7-1.5 0-2.5-.4-3-1.3s-.9-2.2-.9-4 .3-3.1 1-4c.7-.8 1.7-1.2 3.1-1.2s1 0 1.8.2h.4v-4zm-3 11.6h.3v-5.3c-.7 0-1.4-.2-2-.2-1.1 0-1.6 1-1.6 2.9s0 1.8.4 2.2c.2.4.6.7 1.2.7s1.1 0 1.8-.2h-.1z"/><path d="m316.9 889c.3.3.8.4 1.3.4h3.9v1.9c-1.5.4-2.9.6-4.2.6s-2.6-.4-3.3-1.2-1-2.1-1-3.9c0-3.6 1.5-5.4 4.4-5.4s4.4 1.5 4.4 4.5l-.2 1.9h-5.9c0 .6.2 1.1.5 1.3h.1zm3-3.4c0-.8 0-1.4-.4-1.7s-.7-.5-1.3-.5-1.1.2-1.3.5c-.3.3-.4.9-.4 1.6h3.5-.1z"/><path d="m334.1 891.7c-2.1 0-3.5-.6-4.4-1.7s-1.3-2.9-1.3-5.3.4-4.2 1.3-5.4 2.3-1.8 4.4-1.8 3.5.6 4.4 1.8 1.3 3 1.3 5.4-.7 5-2.1 6l1.7 2.7-2.5 1.2-1.8-2.9zm-2.2-3.4c.4.7 1.1 1 2.2 1s1.8-.3 2.2-1 .6-1.9.6-3.5-.2-2.9-.6-3.6-1.1-1.1-2.2-1.1-1.8.4-2.2 1.1-.6 1.9-.6 3.6.2 2.8.6 3.5z"/><path d="m347.8 881.5h2.7v10h-2.7v-.6c-1 .5-1.8.8-2.5.8-1.4 0-2.3-.4-2.8-1.2s-.7-2-.7-3.8v-5.2h2.7v5.3c0 1 0 1.7.2 2 .2.4.5.5 1.2.5s1.1 0 1.7-.3h.3v-7.6h-.1z"/><path d="m360.6 884.6v4.2c0 .3 0 .5.2.7 0 0 .2.2.5.3v2h-1.7c-.4 0-.8-.3-1.2-.6-1 .5-1.9.7-2.9.7-2.1 0-3.1-1.1-3.1-3.3s.3-1.8.9-2.3c.6-.4 1.5-.7 2.6-.8l2.1-.2v-.6c0-.4 0-.7-.3-.9-.2-.2-.5-.2-.9-.2l-3.8.2v-1.9c1.3-.4 2.7-.6 4-.6s2.2.3 2.8.8.9 1.4.9 2.6h-.1zm-4.5 2.7c-.7 0-1.1.5-1.1 1.2s.3 1.1 1 1.1 1.1 0 1.7-.2h.3v-2.2l-1.8.2h-.1z"/><path d="m363.3 891.5v-14h2.7v14z"/><path d="m368.6 880.2v-2.7h2.7v2.7zm0 11.3v-10h2.7v10z"/><path d="m382.2 877.5v14h-2.7v-.4c-.9.4-1.7.7-2.4.7-1.5 0-2.5-.4-3-1.3-.6-.8-.9-2.2-.9-4s.3-3.1 1-4c.7-.8 1.7-1.2 3.1-1.2s1 0 1.8.2h.4v-4zm-2.9 11.6h.3v-5.3c-.7 0-1.4-.2-2-.2-1.1 0-1.6 1-1.6 2.9s0 1.8.4 2.2.6.7 1.2.7 1.1 0 1.8-.2h-.1z"/><path d="m392.4 884.6v4.2c0 .3 0 .5.2.7 0 0 .2.2.5.3v2h-1.7c-.4 0-.8-.3-1.2-.6-1 .5-1.9.7-2.9.7-2.1 0-3.1-1.1-3.1-3.3s.3-1.8.9-2.3c.6-.4 1.5-.7 2.6-.8l2.1-.2v-.6c0-.4 0-.7-.3-.9-.2-.2-.5-.2-.9-.2l-3.8.2v-1.9c1.3-.4 2.7-.6 4-.6s2.2.3 2.8.8.9 1.4.9 2.6h-.1zm-4.5 2.7c-.7 0-1.1.5-1.1 1.2s.3 1.1 1 1.1 1.1 0 1.7-.2h.3v-2.2l-1.8.2h-.1z"/><path d="m403.4 877.5v14h-2.7v-.4c-.9.4-1.7.7-2.4.7-1.5 0-2.5-.4-3-1.3s-.9-2.2-.9-4 .3-3.1 1-4c.7-.8 1.7-1.2 3.1-1.2s1 0 1.8.2h.4v-4zm-2.9 11.6h.3v-5.3c-.7 0-1.4-.2-2-.2-1.1 0-1.6 1-1.6 2.9s0 1.8.4 2.2c.2.4.6.7 1.2.7s1.1 0 1.8-.2h-.1z"/><path d="m408.6 889c.3.3.8.4 1.3.4h3.9v1.9c-1.5.4-2.9.6-4.2.6s-2.6-.4-3.3-1.2-1-2.1-1-3.9c0-3.6 1.5-5.4 4.4-5.4s4.4 1.5 4.4 4.5l-.2 1.9h-5.9c0 .6.2 1.1.5 1.3h.1zm3-3.4c0-.8 0-1.4-.4-1.7s-.7-.5-1.3-.5-1.1.2-1.3.5c-.3.3-.4.9-.4 1.6h3.5-.1z"/><path d="m99.6 1009.2v-13.6h4.7l2.4 9.9 2.4-9.9h4.7v13.6h-2.8v-10.5h-.3l-2.7 9.9h-2.8l-2.7-9.9h-.3v10.5h-2.8s.2 0 .2 0z"/><path d="m119.1 1006.7c.3.3.8.4 1.3.4h3.9v1.9c-1.5.4-2.9.6-4.2.6s-2.6-.4-3.3-1.2-1-2.1-1-3.9c0-3.6 1.5-5.4 4.4-5.4s4.4 1.5 4.4 4.5l-.2 1.9h-5.9c0 .6.2 1.1.5 1.3zm3-3.4c0-.8 0-1.4-.4-1.7s-.7-.5-1.3-.5-1.1.2-1.3.5c-.3.3-.4.9-.4 1.6h3.5z"/><path d="m126.6 1009.2v-10h2.7v1.1c1.1-.7 2.2-1.1 3.2-1.3v2.7c-1.1.2-2 .5-2.8.7h-.4v6.8z"/><path d="m137.8 999c.7 0 1.6 0 2.7.3h.5v2.2c-1.1 0-1.8-.2-2.3-.2-.9 0-1.5.2-1.8.6s-.5 1.1-.5 2.2 0 1.8.5 2.2c.3.4.9.6 1.8.6l2.3-.2v2.1c-1.3.3-2.4.4-3.2.4-1.5 0-2.5-.4-3.2-1.2-.6-.8-1-2.2-1-4s.3-3.2 1-4 1.7-1.2 3.2-1.2z"/><path d="m150.7 1002.4v4.2c0 .3 0 .5.2.7 0 0 .2.2.5.3v2h-1.7c-.4 0-.8-.3-1.2-.6-1 .5-1.9.7-2.9.7-2.1 0-3.1-1.1-3.1-3.3s.3-1.8.9-2.3c.6-.4 1.5-.7 2.6-.8l2.1-.2v-.6c0-.4 0-.7-.3-.9-.2-.2-.5-.2-.9-.2l-3.8.2v-1.9c1.3-.4 2.7-.6 4-.6s2.2.3 2.8.8.9 1.4.9 2.6zm-4.5 2.6c-.7 0-1.1.5-1.1 1.2s.3 1.1 1 1.1 1.1 0 1.7-.2h.3v-2.2l-1.8.2z"/><path d="m161.7 995.2v14h-2.7v-.4c-.9.4-1.7.7-2.4.7-1.5 0-2.5-.4-3-1.3s-.9-2.2-.9-4 .3-3.1 1-4 1.7-1.2 3.1-1.2 1 0 1.8.2h.4v-4zm-2.9 11.6h.3v-5.3c-.7 0-1.4-.2-2-.2-1.1 0-1.6 1-1.6 2.9s0 1.8.4 2.2c.2.4.6.7 1.2.7s1.1 0 1.8-.2h-.1z"/><path d="m164.7 1000.4c.7-.9 1.9-1.4 3.5-1.4s2.8.5 3.5 1.4 1.1 2.2 1.1 3.8c0 3.5-1.5 5.3-4.6 5.3s-4.6-1.8-4.6-5.3.4-2.9 1.1-3.8zm2.1 6.1c.3.5.8.7 1.5.7s1.2-.2 1.5-.7.4-1.2.4-2.3 0-1.8-.4-2.2c-.3-.5-.8-.7-1.5-.7s-1.2.2-1.5.7-.4 1.2-.4 2.2 0 1.8.4 2.3z"/></g></svg>