<?xml version="1.0" encoding="UTF-8"?>
<svg id="Capa_1" xmlns="http://www.w3.org/2000/svg" version="1.1" xmlns:xlink="http://www.w3.org/1999/xlink" viewBox="0 0 385.2 1067.5">
  <!-- Generator: Adobe Illustrator 29.0.0, SVG Export Plug-In . SVG Version: 2.1.0 Build 186)  -->
  <defs>
    <style>
      .st0 {
        fill: url(#Degradado_sin_nombre_6);
      }

      .st1 {
        fill: url(#Degradado_sin_nombre_5);
      }

      .st2 {
        fill: #fff;
      }

      .st3 {
        fill: url(#Degradado_sin_nombre_4);
      }

      .st4 {
        fill: none;
        stroke: url(#Degradado_sin_nombre);
        stroke-width: 2px;
      }

      .st5 {
        fill: url(#Degradado_sin_nombre_2);
      }

      .st6 {
        fill: url(#Degradado_sin_nombre_9);
      }

      .st7 {
        fill: url(#Degradado_sin_nombre_7);
      }

      .st8 {
        fill: url(#Degradado_sin_nombre_3);
      }

      .st9 {
        fill: url(#Degradado_sin_nombre_8);
      }
    </style>
    <linearGradient id="Degradado_sin_nombre" data-name="Degradado sin nombre" x1="-310.9" y1="2491.1" x2="602.2" y2="2491.1" gradientTransform="translate(2683.7 392.2) rotate(90)" gradientUnits="userSpaceOnUse">
      <stop offset="0" stop-color="#4b62fb"/>
      <stop offset="1" stop-color="#eb5c21"/>
    </linearGradient>
    <linearGradient id="Degradado_sin_nombre_2" data-name="Degradado sin nombre 2" x1="-2933.8" y1="-126" x2="-2933.8" y2="1085" gradientTransform="translate(3126.4 202.4)" gradientUnits="userSpaceOnUse">
      <stop offset="0" stop-color="#4b62fb"/>
      <stop offset="1" stop-color="#eb5c21"/>
    </linearGradient>
    <linearGradient id="Degradado_sin_nombre_3" data-name="Degradado sin nombre 3" x1="-2933.8" y1="-159.1" x2="-2933.8" y2="1030.4" gradientTransform="translate(3126.4 202.4)" gradientUnits="userSpaceOnUse">
      <stop offset="0" stop-color="#4b62fb"/>
      <stop offset="1" stop-color="#eb5c21"/>
    </linearGradient>
    <linearGradient id="Degradado_sin_nombre_4" data-name="Degradado sin nombre 4" x1="-2933.8" y1="-236.4" x2="-2933.8" y2="953.6" gradientTransform="translate(3126.4 202.4)" gradientUnits="userSpaceOnUse">
      <stop offset="0" stop-color="#4b62fb"/>
      <stop offset="1" stop-color="#eb5c21"/>
    </linearGradient>
    <linearGradient id="Degradado_sin_nombre_5" data-name="Degradado sin nombre 5" x1="-2933.8" y1="-275" x2="-2933.8" y2="914.5" gradientTransform="translate(3126.4 202.4)" gradientUnits="userSpaceOnUse">
      <stop offset="0" stop-color="#4b62fb"/>
      <stop offset="1" stop-color="#eb5c21"/>
    </linearGradient>
    <linearGradient id="Degradado_sin_nombre_6" data-name="Degradado sin nombre 6" x1="-2933.8" y1="-352.7" x2="-2933.8" y2="836.8" gradientTransform="translate(3126.4 202.4)" gradientUnits="userSpaceOnUse">
      <stop offset="0" stop-color="#4b62fb"/>
      <stop offset="1" stop-color="#eb5c21"/>
    </linearGradient>
    <linearGradient id="Degradado_sin_nombre_7" data-name="Degradado sin nombre 7" x1="-2933.8" y1="-391" x2="-2933.8" y2="799" gradientTransform="translate(3126.4 202.4)" gradientUnits="userSpaceOnUse">
      <stop offset="0" stop-color="#4b62fb"/>
      <stop offset="1" stop-color="#eb5c21"/>
    </linearGradient>
    <linearGradient id="Degradado_sin_nombre_8" data-name="Degradado sin nombre 8" x1="-2933.8" y1="-197.8" x2="-2933.8" y2="992.2" gradientTransform="translate(3126.4 202.4)" gradientUnits="userSpaceOnUse">
      <stop offset="0" stop-color="#4b62fb"/>
      <stop offset="1" stop-color="#eb5c21"/>
    </linearGradient>
    <linearGradient id="Degradado_sin_nombre_9" data-name="Degradado sin nombre 9" x1="-2933.8" y1="-314.1" x2="-2933.8" y2="875.9" gradientTransform="translate(3126.4 202.4)" gradientUnits="userSpaceOnUse">
      <stop offset="0" stop-color="#4b62fb"/>
      <stop offset="1" stop-color="#eb5c21"/>
    </linearGradient>
  </defs>
  <path class="st4" d="M192.6,81.3v920"/>
  <rect class="st5" x="187.6" y="76.3" width="10" height="10"/>
  <rect class="st8" x="187.6" y="207.7" width="10" height="10"/>
  <rect class="st3" x="187.6" y="470.5" width="10" height="10"/>
  <rect class="st1" x="187.6" y="601.9" width="10" height="10"/>
  <rect class="st0" x="187.6" y="864.7" width="10" height="10"/>
  <rect class="st7" x="187.6" y="996.3" width="10" height="10"/>
  <rect class="st9" x="187.6" y="339.1" width="10" height="10"/>
  <rect class="st6" x="187.6" y="733.3" width="10" height="10"/>
  <path class="st2" d="M59.6,204.6v-13.6h8.7v2.4h-5.9v4h4.8v2.4h-4.8v4.8h-2.8ZM77.3,197.7v4.2c0,.3,0,.5.2.7,0,0,.2.2.5.3v2h-1.7c-.4,0-.8-.3-1.2-.6-1,.5-1.9.7-2.9.7-2.1,0-3.1-1.1-3.1-3.3s.3-1.8.9-2.3c.6-.5,1.5-.7,2.6-.8l2.1-.2v-.6c0-.4,0-.7-.3-.8-.2-.2-.5-.2-.9-.2l-3.8.2v-1.9c1.3-.4,2.7-.6,4-.6s2.2.3,2.8.8.9,1.4.9,2.6h0v-.2h0ZM72.8,200.4c-.7,0-1.1.5-1.1,1.2s.3,1.1,1,1.1,1.1,0,1.7-.2h.3v-2.2l-1.8.2h-.1ZM83.6,194.4c.7,0,1.6,0,2.7.3h.5v2.2c-1.1,0-1.8-.2-2.3-.2-.9,0-1.5.2-1.8.6s-.4,1.1-.4,2.2,0,1.8.4,2.3c.3.4.9.6,1.9.6l2.3-.2v2.1c-1.3.3-2.4.4-3.2.4-1.5,0-2.5-.4-3.2-1.2-.6-.8-1-2.2-1-4s.3-3.2,1-4,1.7-1.2,3.2-1.2h0ZM94.3,196.9h-2.5v5c0,.2,0,.3.2.4,0,0,.3.2.6.2h1.5v2.1c-.8.2-1.5.3-1.9.3-1.2,0-2-.3-2.5-.8-.4-.5-.7-1.5-.7-3v-4.2h-1.2v-2.3h1.2v-2.8h2.7v2.8h2.5v2.3h.1ZM96,204.6v-10h2.7v10h-2.7ZM96,193.3v-2.7h2.7v2.7h-2.7ZM106,194.4c1.4,0,2.4.4,3.1,1.2s1,2.1,1,4.1-.4,3.3-1.1,4.1c-.7.7-2,1.1-3.9,1.1s-1.6,0-3.1-.2h-.8v-14h2.7v4.3c.9-.4,1.6-.5,2.2-.5h0ZM105.1,202.4c.9,0,1.5-.2,1.8-.6s.5-1.2.5-2.3c0-1.8-.6-2.7-1.7-2.7s-1,0-1.5.2h-.3v5.4h1.2ZM112.1,204.6v-10h2.7v10h-2.7ZM112.1,193.3v-2.7h2.7v2.7h-2.7ZM117.4,204.6v-14h2.7v14h-2.7ZM122.6,204.6v-10h2.7v10h-2.7ZM122.6,193.3v-2.7h2.7v2.7h-2.7ZM136.3,190.6v14h-2.7v-.4c-.9.4-1.7.7-2.4.7-1.5,0-2.5-.4-3-1.3-.6-.8-.9-2.2-.9-4s.3-3.2,1-4,1.7-1.3,3.1-1.3,1,0,1.8.2h.4v-4h2.7ZM133.3,202.2h.3v-5.3c-.7,0-1.4-.2-2-.2-1.1,0-1.6,1-1.6,2.9s0,1.8.4,2.2c.2.4.6.7,1.2.7s1.1,0,1.8-.2h-.1ZM146.4,197.7v4.2c0,.3,0,.5.2.7,0,0,.2.2.5.3v2h-1.7c-.4,0-.8-.3-1.2-.6-1,.5-1.9.7-2.9.7-2.1,0-3.1-1.1-3.1-3.3s.3-1.8.9-2.3,1.5-.7,2.6-.8l2.1-.2v-.6c0-.4,0-.7-.3-.8-.2-.2-.5-.2-.9-.2l-3.8.2v-1.9c1.3-.4,2.7-.6,4-.6s2.2.3,2.8.8.9,1.4.9,2.6h-.1v-.2h0ZM141.9,200.4c-.7,0-1.1.5-1.1,1.2s.3,1.1,1,1.1,1.1,0,1.7-.2h.3v-2.2l-1.8.2h-.1,0ZM157.5,190.6v14h-2.7v-.4c-.9.4-1.7.7-2.4.7-1.5,0-2.5-.4-3-1.3-.6-.8-.9-2.2-.9-4s.3-3.2,1-4,1.7-1.3,3.1-1.3,1,0,1.8.2h.4v-4h2.7,0ZM154.5,202.2h.3v-5.3c-.7,0-1.4-.2-2-.2-1.1,0-1.6,1-1.6,2.9s.1,1.8.4,2.2c.2.4.6.7,1.2.7s1.1,0,1.8-.2h0ZM84.3,226.9h-2.5v5c0,.2,0,.3.2.4s.3.2.6.2h1.5v2.1c-.8.2-1.5.3-1.9.3-1.2,0-2-.3-2.5-.8-.4-.5-.7-1.5-.7-3v-4.2h-1.2v-2.3h1.2v-2.8h2.7v2.8h2.5v2.3h.1ZM88.2,230.7c0,.6.2,1.1.5,1.3.3.3.8.4,1.4.4,1.2,0,2.3,0,3.3-.1h.6v1.9c-1.5.4-2.9.6-4.2.6s-2.6-.4-3.3-1.2-1-2.1-1-3.9c0-3.6,1.5-5.4,4.4-5.4s4.4,1.5,4.4,4.5l-.2,1.9h-5.9ZM91.7,228.7c0-.8,0-1.4-.4-1.7s-.7-.5-1.3-.5-1.1.2-1.3.5c-.3.3-.4.9-.4,1.6h3.5,0,0ZM86.9,221.6l5-2,.8,2.3-5.2,1.5-.6-1.7h0ZM100,224.4c.7,0,1.6.1,2.7.3h.5v2.2c-1.1-.1-1.8-.2-2.3-.2-.9,0-1.5.2-1.8.6-.3.4-.4,1.1-.4,2.2s0,1.8.4,2.3c.3.4.9.6,1.9.6l2.3-.2v2.1c-1.3.3-2.4.4-3.2.4-1.5,0-2.5-.4-3.2-1.2-.6-.8-1-2.2-1-4s.3-3.2,1-4,1.7-1.2,3.2-1.2h0ZM107.8,234.6h-2.7v-10h2.7v.6c.9-.5,1.7-.8,2.5-.8,1.3,0,2.3.4,2.8,1.2s.8,2,.8,3.6v5.4h-2.7v-5.3c0-.9,0-1.5-.3-1.9-.2-.4-.6-.6-1.2-.6s-1.1,0-1.6.3h-.2v7.6h-.1ZM116.2,234.6v-10h2.7v10h-2.7ZM116.2,223.3v-2.7h2.7v2.7h-2.7ZM125.1,224.4c.7,0,1.6.1,2.7.3h.5v2.2c-1.1-.1-1.8-.2-2.3-.2-.9,0-1.5.2-1.8.6-.3.4-.4,1.1-.4,2.2s0,1.8.4,2.3c.3.4.9.6,1.9.6l2.3-.2v2.1c-1.3.3-2.4.4-3.2.4-1.5,0-2.5-.4-3.2-1.2-.6-.8-1-2.2-1-4s.3-3.2,1-4,1.7-1.2,3.2-1.2h0ZM138,227.7v4.2c0,.3,0,.5.2.7,0,.1.2.2.5.3v2c-.8,0-1.3,0-1.7-.1-.4,0-.8-.3-1.2-.6-1,.5-1.9.7-2.9.7-2.1,0-3.1-1.1-3.1-3.3s.3-1.8.9-2.3,1.5-.7,2.6-.8l2.1-.2v-.6c0-.4,0-.7-.3-.8-.2-.2-.5-.2-.9-.2l-3.8.2v-1.9c1.3-.4,2.7-.6,4-.6s2.2.3,2.8.8.9,1.4.9,2.6h0,0ZM133.5,230.4c-.7,0-1.1.5-1.1,1.2s.3,1.1,1,1.1,1.1,0,1.7-.2h.3v-2.2l-1.8.2h0Z"/>
  <path class="st2" d="M232.2,336.3h-4.6v-13.6h4.6c1.2,0,2.1,0,2.9.4.8.2,1.3.6,1.8,1.2.4.6.7,1.2.9,2s.2,1.8.2,3,0,2.2-.2,3.1c-.1.8-.4,1.5-.8,2.2-.4.6-1,1.1-1.8,1.4s-1.8.4-3,.4h0ZM235.1,330.9v-3.6c0-.5-.2-.9-.4-1.2-.2-.4-.5-.6-.9-.8-.4-.1-.9-.2-1.6-.2h-1.8v8.8h1.8c1,0,1.7-.3,2.2-.8s.6-1.2.7-2.2h0ZM242.3,332.5c0,.6.2,1.1.5,1.3.3.3.8.4,1.4.4,1.2,0,2.3,0,3.3-.1h.6v1.9c-1.5.4-2.9.6-4.2.6s-2.6-.4-3.3-1.2c-.7-.8-1-2.1-1-3.9,0-3.6,1.5-5.4,4.4-5.4s4.4,1.5,4.4,4.5l-.2,1.9h-5.9ZM245.7,330.4c0-.8-.1-1.4-.4-1.7s-.7-.5-1.3-.5-1.1.2-1.3.5c-.3.3-.4.9-.4,1.6h3.5-.1ZM253.5,328.6v7.7h-2.7v-7.7h-1.1v-2.3h1.1v-.4c0-1.4.2-2.4.6-3,.4-.5,1.2-.8,2.3-.8s1.1,0,1.9.2h.4v2.2h-1.5c-.4,0-.7,0-.8.3-.1.2-.2.6-.2,1.1v.4h2.4v2.3h-2.4ZM257.4,336.3v-10h2.7v10h-2.7ZM257.4,325.1v-2.7h2.7v2.7h-2.7ZM265.3,336.3h-2.7v-10h2.7v.6c.9-.5,1.7-.8,2.5-.8,1.3,0,2.3.4,2.8,1.2s.8,2,.8,3.6v5.4h-2.7v-5.3c0-.9,0-1.5-.3-1.9-.2-.4-.6-.6-1.2-.6s-1.1,0-1.6.3h-.2v7.6h0ZM273.7,336.3v-10h2.7v10h-2.7ZM273.7,325.1v-2.7h2.7v2.7h-2.7ZM282.5,326.1c.7,0,1.6.1,2.7.3h.5v2.2c-1.1-.1-1.8-.2-2.3-.2-.9,0-1.5.2-1.8.6s-.4,1.1-.4,2.2.1,1.8.4,2.3c.3.4.9.6,1.9.6l2.3-.2v2.1c-1.3.3-2.4.4-3.2.4-1.5,0-2.5-.4-3.2-1.2-.6-.8-1-2.2-1-4s.3-3.2,1-4,1.7-1.2,3.2-1.2h-.1ZM287.7,336.3v-10h2.7v10h-2.7ZM287.7,325.1v-2.7h2.7v2.7h-2.7ZM293.4,327.5c.7-.9,1.9-1.4,3.5-1.4s2.8.5,3.5,1.4,1.1,2.2,1.1,3.8c0,3.5-1.5,5.3-4.6,5.3s-4.6-1.8-4.6-5.3.4-2.9,1.1-3.8ZM295.5,333.6c.3.5.8.7,1.5.7s1.2-.2,1.5-.7.4-1.2.4-2.3-.1-1.8-.4-2.2c-.3-.5-.8-.7-1.5-.7s-1.2.2-1.5.7-.4,1.2-.4,2.2.1,1.8.4,2.3ZM294,323.3l5-2,.8,2.3-5.2,1.5-.6-1.7h0ZM306.2,336.3h-2.7v-10h2.7v.6c.9-.5,1.7-.8,2.5-.8,1.3,0,2.3.4,2.8,1.2s.8,2,.8,3.6v5.4h-2.7v-5.3c0-.9,0-1.5-.3-1.9-.2-.4-.6-.6-1.2-.6s-1.1,0-1.6.3h-.2v7.6h0ZM327.5,322.3v14h-2.7v-.4c-.9.4-1.7.7-2.4.7-1.5,0-2.5-.4-3-1.3-.6-.8-.9-2.2-.9-4s.3-3.2,1-4,1.7-1.3,3.1-1.3,1,0,1.8.2h.4v-4h2.7ZM324.5,333.9h.3v-5.3c-.7-.1-1.4-.2-2-.2-1.1,0-1.6,1-1.6,2.9s.1,1.8.4,2.2c.2.4.6.7,1.2.7s1.1,0,1.8-.2h0ZM332.2,332.5c0,.6.2,1.1.5,1.3.3.3.8.4,1.4.4,1.2,0,2.3,0,3.3-.1h.6v1.9c-1.5.4-2.9.6-4.2.6s-2.6-.4-3.3-1.2-1-2.1-1-3.9c0-3.6,1.5-5.4,4.4-5.4s4.4,1.5,4.4,4.5l-.2,1.9h-5.9,0ZM335.6,330.4c0-.8-.1-1.4-.4-1.7s-.7-.5-1.3-.5-1.1.2-1.3.5c-.3.3-.4.9-.4,1.6h3.5-.1ZM237.7,366.3v-14h2.7v14h-2.7ZM250.6,359.5v4.2c0,.3,0,.5.2.7,0,0,.2.2.5.3v2h-1.7c-.4,0-.8-.3-1.2-.6-1,.5-1.9.7-2.9.7-2.1,0-3.1-1.1-3.1-3.3s.3-1.8.9-2.3,1.5-.7,2.6-.8l2.1-.2v-.6c0-.4,0-.7-.3-.8-.2-.2-.5-.2-.9-.2l-3.8.2v-1.9c1.3-.4,2.7-.6,4-.6s2.2.3,2.8.8.9,1.4.9,2.6h-.1v-.2h0ZM246.1,362.1c-.7,0-1.1.5-1.1,1.2s.3,1.1,1,1.1,1.1,0,1.7-.2h.3v-2.2l-1.8.2h-.1,0ZM264.8,358.8c-1.7-.2-2.8-.3-3.5-.3s-1.1,0-1.3.2c-.2,0-.3.3-.3.6s.1.4.4.5c.3,0,.9.2,2,.4s1.8.5,2.3.9.7,1.2.7,2.1c0,2.2-1.3,3.2-4,3.2s-1.9,0-3.2-.4h-.6v-2.4c1.7.2,2.8.3,3.4.3s1.1,0,1.3-.2c.2,0,.4-.3.4-.6s-.1-.4-.4-.6c-.2,0-.9-.3-1.9-.4-1-.2-1.8-.5-2.3-.9s-.8-1.1-.8-2.2.4-1.9,1.1-2.4,1.6-.8,2.8-.8,1.9,0,3.2.4h.7v2.6h0ZM267.6,357.5c.7-.9,1.9-1.4,3.5-1.4s2.8.5,3.5,1.4,1.1,2.2,1.1,3.8c0,3.5-1.5,5.3-4.6,5.3s-4.6-1.8-4.6-5.3.4-2.9,1.1-3.8ZM269.6,363.6c.3.5.8.7,1.5.7s1.2-.2,1.5-.7.4-1.2.4-2.3-.1-1.8-.4-2.2c-.3-.5-.8-.7-1.5-.7s-1.2.2-1.5.7-.4,1.2-.4,2.2.1,1.8.4,2.3ZM277.8,366.3v-14h2.7v14h-2.7ZM289,356.3h2.7v10h-2.7v-.6c-1,.5-1.8.8-2.5.8-1.4,0-2.3-.4-2.8-1.1-.5-.8-.7-2.1-.7-3.9v-5.2h2.7v5.3c0,1,0,1.7.2,2s.5.5,1.2.5,1.1,0,1.7-.3h.3v-7.6h-.1ZM297.9,356.1c.7,0,1.6,0,2.7.3h.5v2.2c-1.1,0-1.8-.2-2.3-.2-.9,0-1.5.2-1.8.6s-.4,1.1-.4,2.2.1,1.8.4,2.3c.3.4.9.6,1.9.6l2.3-.2v2.1c-1.3.3-2.4.4-3.2.4-1.5,0-2.5-.4-3.2-1.2-.6-.8-1-2.2-1-4s.3-3.2,1-4,1.7-1.2,3.2-1.2h-.1ZM303,366.3v-10h2.7v10h-2.7ZM303,355.1v-2.7h2.7v2.7h-2.7ZM308.7,357.5c.7-.9,1.9-1.4,3.5-1.4s2.8.5,3.5,1.4,1.1,2.2,1.1,3.8c0,3.5-1.5,5.3-4.6,5.3s-4.6-1.8-4.6-5.3.4-2.9,1.1-3.8ZM310.8,363.6c.3.5.8.7,1.5.7s1.2-.2,1.5-.7.4-1.2.4-2.3-.1-1.8-.4-2.2c-.3-.5-.8-.7-1.5-.7s-1.2.2-1.5.7-.4,1.2-.4,2.2.1,1.8.4,2.3ZM309.3,353.3l5-2,.8,2.3-5.2,1.5-.6-1.7h0ZM321.5,366.3h-2.7v-10h2.7v.6c.9-.5,1.7-.8,2.5-.8,1.3,0,2.3.4,2.8,1.2s.8,2,.8,3.6v5.4h-2.7v-5.3c0-.9,0-1.5-.3-1.9-.2-.4-.6-.6-1.2-.6s-1.1,0-1.6.3h-.2v7.6h0Z"/>
  <path class="st2" d="M23.9,467.4l3.1-13.6h5.2l3.1,13.6h-2.8l-.5-2.5h-4.8l-.5,2.5h-2.8ZM29.1,456.1l-1.4,6.5h3.7l-1.4-6.5h-1s.1,0,0,0ZM36.8,467.4v-10h2.7v1.1c1.1-.7,2.2-1.1,3.2-1.3v2.7c-1.1.2-2,.5-2.8.7h-.4v6.8h-2.7ZM47.8,467.6c-1.4,0-2.4-.4-3.1-1.1-.6-.8-1-2.1-1-4.1s.4-3.4,1.1-4.1c.7-.7,2-1.1,3.9-1.1s1.9,0,3.2.2h.7v14.2h-2.7v-4.5c-.9.4-1.6.5-2.2.5h0ZM48.7,459.5c-.9,0-1.5.2-1.8.7s-.5,1.2-.5,2.4c0,1.8.6,2.7,1.7,2.7s1,0,1.5-.2h.3v-5.5h-1.2ZM61,457.4h2.7v10h-2.7v-.6c-1,.5-1.8.8-2.5.8-1.4,0-2.3-.4-2.8-1.1-.5-.8-.7-2.1-.7-3.9v-5.2h2.7v5.3c0,1,0,1.7.2,2,.2.4.5.5,1.2.5s1.1,0,1.7-.3h.3v-7.6h-.1ZM66.1,467.4v-10h2.7v10h-2.7ZM66.1,456.1v-2.7h2.7v2.7h-2.7ZM76.8,459.7h-2.5v5c0,.2,0,.3.2.4,0,0,.3.2.6.2h1.5v2.1c-.8.2-1.5.3-1.9.3-1.2,0-2-.3-2.5-.8-.4-.5-.7-1.5-.7-3v-4.2h-1.2v-2.3h1.2v-2.8h2.7v2.8h2.5v2.3h.1ZM80.8,463.5c0,.6.2,1.1.5,1.3.3.3.8.4,1.4.4h3.9v1.9c-1.5.4-2.9.6-4.2.6s-2.6-.4-3.3-1.2c-.7-.8-1-2.1-1-3.9,0-3.6,1.5-5.4,4.4-5.4s4.4,1.5,4.4,4.5l-.2,1.9h-5.9ZM84.2,461.5c0-.8,0-1.4-.4-1.7-.3-.3-.7-.5-1.3-.5s-1.1.2-1.3.5c-.3.3-.4.9-.4,1.6h3.5,0ZM92.5,457.2c.7,0,1.6,0,2.7.3h.5v2.2c-1.1,0-1.8-.2-2.3-.2-.9,0-1.5.2-1.8.6s-.4,1.1-.4,2.2,0,1.8.4,2.3c.3.4.9.6,1.9.6l2.3-.2v2.1c-1.3.3-2.4.4-3.2.4-1.5,0-2.5-.4-3.2-1.2-.6-.8-1-2.2-1-4s.3-3.2,1-4,1.7-1.2,3.2-1.2h0ZM103.2,459.7h-2.5v5c0,.2,0,.3.2.4,0,0,.3.2.6.2h1.5v2.1c-.8.2-1.5.3-1.9.3-1.2,0-2-.3-2.5-.8-.4-.5-.7-1.5-.7-3v-4.2h-1.2v-2.3h1.2v-2.8h2.7v2.8h2.5v2.3h.1ZM110.9,457.4h2.7v10h-2.7v-.6c-1,.5-1.8.8-2.5.8-1.4,0-2.3-.4-2.8-1.1-.5-.8-.7-2.1-.7-3.9v-5.2h2.7v5.3c0,1,0,1.7.2,2,.2.4.5.5,1.2.5s1.1,0,1.7-.3h.3v-7.6h0,0ZM116,467.4v-10h2.7v1.1c1.1-.7,2.2-1.1,3.2-1.3v2.7c-1.1.2-2,.5-2.8.7h-.4v6.8h-2.7,0ZM131.1,460.5v4.2c0,.3,0,.5.2.7,0,0,.2.2.5.3v2h-1.7c-.4,0-.8-.3-1.2-.6-1,.5-1.9.7-2.9.7-2.1,0-3.1-1.1-3.1-3.3s.3-1.8.9-2.3,1.5-.7,2.6-.8l2.1-.2v-.6c0-.4,0-.7-.3-.8-.2-.2-.5-.2-.9-.2l-3.8.2v-1.9c1.3-.4,2.7-.6,4-.6s2.2.3,2.8.8.9,1.4.9,2.6h0v-.2h0ZM126.6,463.2c-.7,0-1.1.5-1.1,1.2s.3,1.1,1,1.1,1.1,0,1.7-.2h.3v-2.2l-1.8.2h0ZM146.6,453.4v14h-2.7v-.4c-.9.4-1.7.7-2.4.7-1.5,0-2.5-.4-3-1.3-.6-.8-.9-2.2-.9-4s.3-3.2,1-4c.7-.8,1.7-1.3,3.1-1.3s1,0,1.8.2h.4v-4h2.7ZM143.6,465h.3v-5.3c-.7,0-1.4-.2-2-.2-1.1,0-1.6,1-1.6,2.9s0,1.8.4,2.2c.2.4.6.7,1.2.7s1.1,0,1.8-.2h-.1,0ZM151.3,463.5c0,.6.2,1.1.5,1.3.3.3.8.4,1.4.4h3.9v1.9c-1.5.4-2.9.6-4.2.6s-2.6-.4-3.3-1.2-1-2.1-1-3.9c0-3.6,1.5-5.4,4.4-5.4s4.4,1.5,4.4,4.5l-.2,1.9h-5.9,0ZM154.7,461.5c0-.8,0-1.4-.4-1.7-.3-.3-.7-.5-1.3-.5s-1.1.2-1.3.5c-.3.3-.4.9-.4,1.6h3.5-.1ZM53.2,489.9c-1.7-.2-2.8-.3-3.5-.3s-1.1,0-1.3.2c-.2.1-.3.3-.3.6s0,.4.4.5c.3,0,.9.2,2,.4s1.8.5,2.3.9.7,1.2.7,2.1c0,2.2-1.3,3.2-4,3.2s-1.9-.1-3.2-.4h-.6v-2.4c1.7.2,2.8.3,3.4.3s1.1,0,1.3-.2c.2-.1.4-.3.4-.6s0-.4-.4-.6-.9-.3-1.9-.4c-1-.2-1.8-.5-2.3-.9s-.8-1.1-.8-2.2.4-1.9,1.1-2.4c.7-.5,1.6-.8,2.8-.8s1.9.1,3.2.4h.7v2.6h0ZM56,488.5c.7-.9,1.9-1.4,3.5-1.4s2.8.5,3.5,1.4,1.1,2.2,1.1,3.8c0,3.5-1.5,5.3-4.6,5.3s-4.6-1.8-4.6-5.3.4-2.9,1.1-3.8ZM58.1,494.6c.3.5.8.7,1.5.7s1.2-.2,1.5-.7.4-1.2.4-2.3,0-1.8-.4-2.2c-.3-.5-.8-.7-1.5-.7s-1.2.2-1.5.7-.4,1.2-.4,2.2,0,1.8.4,2.3ZM66.2,497.4v-14h2.7v14h-2.7ZM77.4,487.4h2.7v10h-2.7v-.6c-1,.5-1.8.8-2.5.8-1.4,0-2.3-.4-2.8-1.1-.5-.8-.7-2.1-.7-3.9v-5.2h2.7v5.3c0,1,0,1.7.2,2s.5.5,1.2.5,1.1,0,1.7-.3h.3v-7.6h0,0ZM86.3,487.2c.7,0,1.6.1,2.7.3h.5v2.2c-1.1-.1-1.8-.2-2.3-.2-.9,0-1.5.2-1.8.6s-.4,1.1-.4,2.2,0,1.8.4,2.3c.3.4.9.6,1.9.6l2.3-.2v2.1c-1.3.3-2.4.4-3.2.4-1.5,0-2.5-.4-3.2-1.2-.6-.8-1-2.2-1-4s.3-3.2,1-4,1.7-1.2,3.2-1.2h0ZM91.5,497.4v-10h2.7v10h-2.7ZM91.5,486.1v-2.7h2.7v2.7h-2.7ZM97.2,488.5c.7-.9,1.9-1.4,3.5-1.4s2.8.5,3.5,1.4,1.1,2.2,1.1,3.8c0,3.5-1.5,5.3-4.6,5.3s-4.6-1.8-4.6-5.3.4-2.9,1.1-3.8ZM99.2,494.6c.3.5.8.7,1.5.7s1.2-.2,1.5-.7.4-1.2.4-2.3,0-1.8-.4-2.2c-.3-.5-.8-.7-1.5-.7s-1.2.2-1.5.7-.4,1.2-.4,2.2,0,1.8.4,2.3ZM110,497.4h-2.7v-10h2.7v.6c.9-.5,1.7-.8,2.5-.8,1.3,0,2.3.4,2.8,1.2s.8,2,.8,3.6v5.4h-2.7v-5.3c0-.9,0-1.5-.3-1.9-.2-.4-.6-.6-1.2-.6s-1.1,0-1.6.3h-.2v7.6h-.1ZM120.5,493.5c0,.6.2,1.1.5,1.3.3.3.8.4,1.4.4,1.2,0,2.3,0,3.3-.1h.6v1.9c-1.5.4-2.9.6-4.2.6s-2.6-.4-3.3-1.2-1-2.1-1-3.9c0-3.6,1.5-5.4,4.4-5.4s4.4,1.5,4.4,4.5l-.2,1.9h-5.9ZM124,491.5c0-.8,0-1.4-.4-1.7-.3-.3-.7-.5-1.3-.5s-1.1.2-1.3.5c-.3.3-.4.9-.4,1.6h3.5,0ZM135.7,489.9c-1.7-.2-2.8-.3-3.5-.3s-1.1,0-1.3.2c-.2.1-.3.3-.3.6s0,.4.4.5c.3,0,.9.2,2,.4s1.8.5,2.3.9.7,1.2.7,2.1c0,2.2-1.3,3.2-4,3.2s-1.9-.1-3.2-.4h-.6v-2.4c1.7.2,2.8.3,3.4.3s1.1,0,1.3-.2c.2-.1.4-.3.4-.6s0-.4-.4-.6-.9-.3-1.9-.4c-1-.2-1.8-.5-2.3-.9s-.8-1.1-.8-2.2.4-1.9,1.1-2.4,1.6-.8,2.8-.8,1.9.1,3.2.4h.7v2.6h0Z"/>
  <path class="st2" d="M232.2,613.7h-4.6v-13.6h4.6c1.2,0,2.1,0,2.9.4.8.2,1.3.6,1.8,1.2.4.6.7,1.2.9,2s.2,1.8.2,3,0,2.2-.2,3.1c0,.8-.4,1.5-.8,2.2-.4.6-1,1.1-1.8,1.4-.8.3-1.8.4-3,.4h0ZM235.1,608.3v-3.6c0-.5-.2-.9-.4-1.2-.2-.4-.5-.6-.9-.8-.4,0-.9-.2-1.6-.2h-1.8v8.8h1.8c1,0,1.7-.3,2.2-.8.4-.4.6-1.2.7-2.2ZM242.3,609.8c0,.6.2,1.1.5,1.3.3.3.8.4,1.4.4h3.9v1.9c-1.5.4-2.9.6-4.2.6s-2.6-.4-3.3-1.2-1-2.1-1-3.9c0-3.6,1.5-5.4,4.4-5.4s4.4,1.5,4.4,4.5l-.2,1.9h-5.9,0ZM245.8,607.8c0-.8,0-1.4-.4-1.7-.3-.3-.7-.5-1.3-.5s-1.1.2-1.3.5c-.3.3-.4.9-.4,1.6h3.5-.1ZM257.5,606.2c-1.7-.2-2.8-.3-3.5-.3s-1.1,0-1.3.2c-.2,0-.3.3-.3.6s0,.4.4.5c.3,0,.9.2,2,.4s1.8.5,2.3.9.7,1.2.7,2.1c0,2.2-1.3,3.2-4,3.2s-1.9,0-3.2-.4h-.6v-2.4c1.7.2,2.8.3,3.4.3s1.1,0,1.3-.2c.2,0,.4-.3.4-.6s0-.4-.4-.6c-.2,0-.9-.3-1.9-.4-1-.2-1.8-.5-2.3-.9s-.8-1.1-.8-2.2.4-1.9,1.1-2.4c.7-.5,1.6-.8,2.8-.8s1.9,0,3.2.4h.7v2.6h0ZM267.4,606.8v4.2c0,.3,0,.5.2.7,0,0,.2.2.5.3v2h-1.7c-.4,0-.8-.3-1.2-.6-1,.5-1.9.7-2.9.7-2.1,0-3.1-1.1-3.1-3.3s.3-1.8.9-2.3c.6-.5,1.5-.7,2.6-.8l2.1-.2v-.6c0-.4,0-.7-.3-.8-.2-.2-.5-.2-.9-.2l-3.8.2v-1.9c1.3-.4,2.7-.6,4-.6s2.2.3,2.8.8.9,1.4.9,2.6h0v-.2h-.1ZM262.9,609.5c-.7,0-1.1.5-1.1,1.2s.3,1.1,1,1.1,1.1,0,1.7-.2h.3v-2.2l-1.8.2h-.1,0ZM270,613.7v-10h2.7v1.1c1.1-.7,2.2-1.1,3.2-1.3v2.7c-1.1.2-2,.5-2.8.7h-.4v6.8h-2.7ZM277.4,613.7v-10h2.7v1.1c1.1-.7,2.2-1.1,3.2-1.3v2.7c-1.1.2-2,.5-2.8.7h-.4v6.8h-2.7ZM285.4,604.8c.7-.9,1.9-1.4,3.5-1.4s2.8.5,3.5,1.4,1.1,2.2,1.1,3.8c0,3.5-1.5,5.3-4.6,5.3s-4.6-1.8-4.6-5.3.4-2.9,1.1-3.8ZM287.5,610.9c.3.5.8.7,1.5.7s1.2-.2,1.5-.7.4-1.2.4-2.3,0-1.8-.4-2.2c-.3-.5-.8-.7-1.5-.7s-1.2.2-1.5.7-.4,1.2-.4,2.2,0,1.8.4,2.3ZM295.6,613.7v-14h2.7v14h-2.7ZM301,613.7v-14h2.7v14h-2.7ZM306.8,604.8c.7-.9,1.9-1.4,3.5-1.4s2.8.5,3.5,1.4,1.1,2.2,1.1,3.8c0,3.5-1.5,5.3-4.6,5.3s-4.6-1.8-4.6-5.3.4-2.9,1.1-3.8ZM308.9,610.9c.3.5.8.7,1.5.7s1.2-.2,1.5-.7.4-1.2.4-2.3,0-1.8-.4-2.2c-.3-.5-.8-.7-1.5-.7s-1.2.2-1.5.7-.4,1.2-.4,2.2,0,1.8.4,2.3Z"/>
  <path class="st2" d="M61.7,743.5v-13.6h2.8v13.6h-2.8ZM69.9,743.5h-2.7v-10h2.7v.6c.9-.5,1.7-.8,2.5-.8,1.3,0,2.3.4,2.8,1.2s.8,2,.8,3.6v5.4h-2.7v-5.3c0-.9,0-1.5-.3-1.9s-.6-.6-1.2-.6-1.1,0-1.6.3h-.2v7.6h-.1ZM83.8,735.8h-2.5v5c0,.2,0,.3.2.4,0,0,.3.2.6.2h1.5v2.1c-.8.2-1.5.3-1.9.3-1.2,0-2-.3-2.5-.8-.4-.5-.7-1.5-.7-3v-4.2h-1.2v-2.3h1.2v-2.8h2.7v2.8h2.5v2.3h.1ZM87.7,739.6c0,.6.2,1.1.5,1.3.3.3.8.4,1.4.4h3.9v1.9c-1.5.4-2.9.6-4.2.6s-2.6-.4-3.3-1.2-1-2.1-1-3.9c0-3.6,1.5-5.4,4.4-5.4s4.4,1.5,4.4,4.5l-.2,1.9h-5.9ZM91.2,737.6c0-.8,0-1.4-.4-1.7-.3-.3-.7-.5-1.3-.5s-1.1.2-1.3.5c-.3.3-.4.9-.4,1.6h3.5,0ZM104.8,744.7c0,1.1-.4,2-1.3,2.5s-2.1.8-3.6.8-2.6-.2-3.5-.6c-.8-.4-1.2-1.1-1.2-2.2s.5-1.6,1.4-2.4c-.5-.3-.7-.8-.7-1.5s.2-.7.6-1.3l.2-.3c-.9-.7-1.4-1.6-1.4-2.9s.4-2.2,1.1-2.8c.8-.6,1.8-.9,3.1-.9s1.1,0,1.7.2h3.5v2.1h-1.5c.3.3.4.8.4,1.2,0,1.3-.3,2.3-1,2.8s-1.7.8-3.2.8-.6,0-.8,0c0,.3-.2.6-.2.9s0,.4.3.4h1.6c1.7,0,2.8.2,3.4.7.6.4.9,1.2.9,2.3h.2v.2ZM97.9,745c0,.6.7.9,2.1.9s2.1-.3,2.1-1,0-.6-.4-.7c-.2,0-.7,0-1.5-.2h-1.8c-.4.2-.5.6-.5,1h0ZM98,736.9c0,1,.5,1.5,1.5,1.5s1.5-.5,1.5-1.5-.5-1.5-1.5-1.5-1.5.5-1.5,1.5ZM106.4,743.5v-10h2.7v1.1c1.1-.7,2.2-1.1,3.2-1.3v2.7c-1.1.2-2,.5-2.8.7h-.4v6.8s-2.7,0-2.7,0ZM121.5,736.6v4.2c0,.3,0,.5.2.7,0,0,.2.2.5.3v2h-1.7c-.4,0-.8-.3-1.2-.6-1,.5-1.9.7-2.9.7-2.1,0-3.1-1.1-3.1-3.3s.3-1.8.9-2.3,1.5-.7,2.6-.8l2.1-.2v-.6c0-.4,0-.7-.3-.8-.2-.2-.5-.2-.9-.2l-3.8.2v-1.9c1.3-.4,2.7-.6,4-.6s2.2.3,2.8.8.9,1.4.9,2.6h0v-.2h0ZM117,739.3c-.7,0-1.1.5-1.1,1.2s.3,1.1,1,1.1,1.1,0,1.7-.2h.3v-2.2l-1.8.2h0ZM127.8,733.3c.7,0,1.6,0,2.7.3h.5v2.2c-1.1,0-1.8-.2-2.3-.2-.9,0-1.5.2-1.8.6s-.4,1.1-.4,2.2,0,1.8.4,2.3c.3.4.9.6,1.9.6l2.3-.2v2.1c-1.3.3-2.4.4-3.2.4-1.5,0-2.5-.4-3.2-1.2-.6-.8-1-2.2-1-4s.3-3.2,1-4,1.7-1.2,3.2-1.2h0ZM133,743.5v-10h2.7v10h-2.7ZM133,732.2v-2.7h2.7v2.7h-2.7ZM138.7,734.6c.7-.9,1.9-1.4,3.5-1.4s2.8.5,3.5,1.4,1.1,2.2,1.1,3.8c0,3.5-1.5,5.3-4.6,5.3s-4.6-1.8-4.6-5.3.4-2.9,1.1-3.8ZM140.7,740.7c.3.5.8.7,1.5.7s1.2-.2,1.5-.7.4-1.2.4-2.3,0-1.8-.4-2.2c-.3-.5-.8-.7-1.5-.7s-1.2.2-1.5.7-.4,1.2-.4,2.2,0,1.8.4,2.3ZM139.2,730.5l5-2,.8,2.3-5.2,1.5-.6-1.7h0ZM151.5,743.5h-2.7v-10h2.7v.6c.9-.5,1.7-.8,2.5-.8,1.3,0,2.3.4,2.8,1.2s.8,2,.8,3.6v5.4h-2.7v-5.3c0-.9,0-1.5-.3-1.9-.2-.4-.6-.6-1.2-.6s-1.1,0-1.6.3h-.2v7.6h-.1Z"/>
  <path class="st2" d="M227.6,849v-2.4h10v2.4h-3.6v11.2h-2.8v-11.2h-3.6,0ZM239.9,856.3c0,.6.2,1.1.5,1.3.3.3.8.4,1.4.4,1.2,0,2.3,0,3.3,0h.6v1.9c-1.5.4-2.9.6-4.2.6s-2.6-.4-3.3-1.2-1-2.1-1-3.9c0-3.6,1.5-5.4,4.4-5.4s4.4,1.5,4.4,4.5l-.2,1.9h-5.9ZM243.4,854.3c0-.8,0-1.4-.4-1.7s-.7-.5-1.3-.5-1.1.2-1.3.5c-.3.3-.4.9-.4,1.6h3.5-.1ZM255.1,852.7c-1.7-.2-2.8-.3-3.5-.3s-1.1,0-1.3.2c-.2,0-.3.3-.3.6s0,.4.4.5c.3,0,.9.2,2,.4s1.8.5,2.3.9.7,1.2.7,2.1c0,2.2-1.3,3.2-4,3.2s-1.9,0-3.2-.4h-.6v-2.4c1.7.2,2.8.3,3.4.3s1.1,0,1.3-.2c.2,0,.4-.3.4-.6s0-.4-.4-.6-.9-.3-1.9-.4c-1-.2-1.8-.5-2.3-.9s-.8-1.1-.8-2.2.4-1.9,1.1-2.4c.7-.5,1.6-.8,2.8-.8s1.9,0,3.2.4h.7v2.6h0ZM262.9,852.5h-2.5v5c0,.2,0,.3.2.4,0,0,.3.2.6.2h1.5v2.1c-.8.2-1.5.3-1.9.3-1.2,0-2-.3-2.5-.8-.4-.5-.7-1.5-.7-3v-4.2h-1.2v-2.3h1.2v-2.8h2.7v2.8h2.5v2.3h.1,0ZM264.6,860.2v-10h2.7v10h-2.7ZM264.6,848.9v-2.7h2.7v2.7h-2.7ZM272.5,860.2h-2.7v-10h2.7v.6c.9-.5,1.7-.8,2.5-.8,1.3,0,2.3.4,2.8,1.2s.8,2,.8,3.6v5.4h-2.7v-5.3c0-.9,0-1.5-.3-1.9-.2-.4-.6-.6-1.2-.6s-1.1,0-1.6.3h-.2v7.6h-.1,0ZM289.9,861.4c0,1.1-.4,2-1.3,2.5s-2.1.8-3.6.8-2.6-.2-3.5-.6c-.8-.4-1.2-1.1-1.2-2.2s.5-1.6,1.4-2.4c-.5-.3-.7-.8-.7-1.5s.2-.7.6-1.3l.2-.3c-.9-.7-1.4-1.6-1.4-2.9s.4-2.2,1.1-2.8c.8-.6,1.8-.9,3.1-.9s1.1,0,1.7.2h3.5v2.1h-1.5c.3.3.4.8.4,1.2,0,1.3-.3,2.3-1,2.8s-1.7.8-3.2.8-.6,0-.8,0c0,.3-.2.6-.2.9s0,.4.3.4.8,0,1.6,0c1.7,0,2.8.2,3.4.7.6.4.9,1.2.9,2.3h.2ZM283,861.7c0,.6.7.9,2.1.9s2.1-.3,2.1-1,0-.6-.4-.7c-.2,0-.7,0-1.5-.2h-1.8c-.4.2-.5.6-.5,1h0ZM283.2,853.5c0,1,.5,1.5,1.5,1.5s1.5-.5,1.5-1.5-.5-1.5-1.5-1.5-1.5.5-1.5,1.5ZM296.9,849c0-.9.4-1.7,1.1-2.2s1.8-.8,3-.8,2.3.3,3,.8,1.1,1.3,1.1,2.3-.2,1.7-.6,2.3c-.4.5-1.1,1.2-2.1,1.9l2,2c0-.2.2-.6.2-1.2v-1.4h2.6c-.2,1.6-.5,3-1,4.1l2.2,2-1.5,1.7-2.1-1.7c-.5.5-1.1.9-1.8,1.3-.7.3-1.5.5-2.3.5-1.9,0-3.3-.3-4.2-1-.8-.7-1.2-1.7-1.2-3.1s.2-1.9.7-2.5,1.2-1.1,2.2-1.5c-.5-.7-.9-1.2-1.1-1.6-.2-.4-.2-1-.2-1.6v-.3h0ZM300.4,858c.5,0,1.1,0,1.6-.2.5,0,.9-.3,1.1-.6l-3.5-3.5c-1,.5-1.5,1.2-1.5,2.3s.8,2,2.3,2ZM299.6,849.6c0,.5.3,1.1.9,1.8l.3.4c.5-.4.9-.8,1.2-1.1.2-.3.3-.7.3-1.1,0-.8-.5-1.3-1.4-1.3s-1.4.4-1.4,1.3h.1ZM262.1,890.4c-2.1,0-3.5-.6-4.4-1.7-.8-1.1-1.3-2.9-1.3-5.3s.4-4.2,1.3-5.4,2.3-1.8,4.4-1.8,3.5.6,4.4,1.8,1.3,2.9,1.3,5.4-.7,5-2.1,6l1.7,2.7-2.5,1.2-1.8-2.9h-1,0ZM259.9,887c.4.7,1.1,1,2.2,1s1.8-.3,2.2-1,.6-1.9.6-3.5-.2-2.9-.6-3.6c-.4-.7-1.1-1.1-2.2-1.1s-1.8.4-2.2,1.1c-.4.7-.6,1.9-.6,3.6s.2,2.8.6,3.5ZM268.8,890.2l3.1-13.6h5.2l3.1,13.6h-2.8l-.5-2.5h-4.8l-.5,2.5h-2.8ZM274,878.9l-1.4,6.5h3.7l-1.4-6.5h-1,.1,0Z"/>
  <path class="st2" d="M84.4,1008.1v-13.6h4.7l2.4,9.9,2.4-9.9h4.7v13.6h-2.8v-10.5h-.3l-2.7,9.9h-2.8l-2.7-9.9h-.3v10.5h-2.8.2ZM103.4,1004.2c0,.6.2,1.1.5,1.3.3.3.8.4,1.4.4h3.9v1.9c-1.5.4-2.9.6-4.2.6s-2.6-.4-3.3-1.2c-.7-.8-1-2.1-1-3.9,0-3.6,1.5-5.4,4.4-5.4s4.4,1.5,4.4,4.5l-.2,1.9h-5.9ZM106.9,1002.2c0-.8,0-1.4-.4-1.7-.3-.3-.7-.5-1.3-.5s-1.1.2-1.3.5c-.3.3-.4.9-.4,1.6h3.5,0ZM111.4,1008.1v-10h2.7v1.1c1.1-.7,2.2-1.1,3.2-1.3v2.7c-1.1.2-2,.5-2.8.7h-.4v6.8h-2.7,0ZM122.6,997.8c.7,0,1.6,0,2.7.3h.5v2.2c-1.1,0-1.8-.2-2.3-.2-.9,0-1.5.2-1.8.6s-.4,1.1-.4,2.2,0,1.8.4,2.3c.3.4.9.6,1.9.6l2.3-.2v2.1c-1.3.3-2.4.4-3.2.4-1.5,0-2.5-.4-3.2-1.2-.6-.8-1-2.2-1-4s.3-3.2,1-4,1.7-1.2,3.2-1.2h0ZM135.4,1001.2v4.2c0,.3,0,.5.2.7,0,0,.2.2.5.3v2h-1.7c-.4,0-.8-.3-1.2-.6-1,.5-1.9.7-2.9.7-2.1,0-3.1-1.1-3.1-3.3s.3-1.8.9-2.3,1.5-.7,2.6-.8l2.1-.2v-.6c0-.4,0-.7-.3-.8-.2-.2-.5-.2-.9-.2l-3.8.2v-1.9c1.3-.4,2.7-.6,4-.6s2.2.3,2.8.8c.6.5.9,1.4.9,2.6h0v-.2h0ZM130.9,1003.8c-.7,0-1.1.5-1.1,1.2s.3,1.1,1,1.1,1.1,0,1.7-.2h.3v-2.2l-1.8.2h0ZM146.5,994.1v14h-2.7v-.4c-.9.4-1.7.7-2.4.7-1.5,0-2.5-.4-3-1.3-.6-.8-.9-2.2-.9-4s.3-3.2,1-4c.7-.8,1.7-1.3,3.1-1.3s1,0,1.8.2h.4v-4h2.7ZM143.5,1005.7h.3v-5.3c-.7,0-1.4-.2-2-.2-1.1,0-1.6,1-1.6,2.9s0,1.8.4,2.2c.2.4.6.7,1.2.7s1.1,0,1.8-.2h-.1,0ZM149.5,999.2c.7-.9,1.9-1.4,3.5-1.4s2.8.5,3.5,1.4,1.1,2.2,1.1,3.8c0,3.5-1.5,5.3-4.6,5.3s-4.6-1.8-4.6-5.3.4-2.9,1.1-3.8ZM151.6,1005.3c.3.5.8.7,1.5.7s1.2-.2,1.5-.7.4-1.2.4-2.3,0-1.8-.4-2.2c-.3-.5-.8-.7-1.5-.7s-1.2.2-1.5.7-.4,1.2-.4,2.2,0,1.8.4,2.3Z"/>
  <g>
    <path class="st2" d="M232.2,73.1h-4.6v-13.7h4.6c1.2,0,2.2,0,2.9.4.8.2,1.4.7,1.8,1.2.4.6.7,1.2.9,2s.2,1.8.2,3,0,2.3-.2,3.1c-.1.8-.4,1.5-.8,2.2-.4.6-1,1.1-1.8,1.4s-1.8.4-3,.4h0ZM235.1,67.6v-3.6c0-.5-.2-.9-.4-1.2-.2-.4-.5-.6-.9-.8-.4,0-.9-.2-1.6-.2h-1.8v8.8h1.8c1,0,1.7-.3,2.2-.8.4-.4.6-1.2.7-2.3h0Z"/>
    <path class="st2" d="M242.9,70.5c.3.3.8.4,1.4.4,1.2,0,2.4,0,3.3,0h.6v1.9c-1.5.4-2.9.6-4.2.6s-2.6-.4-3.3-1.2c-.7-.8-1-2.1-1-3.9,0-3.6,1.5-5.4,4.4-5.4s4.4,1.5,4.4,4.5l-.2,1.9h-5.9c0,.6.2,1.1.5,1.3ZM245.9,67.1c0-.8,0-1.4-.4-1.7-.3-.3-.7-.5-1.3-.5s-1.1.2-1.3.5c-.3.3-.4.9-.4,1.7h3.5-.1Z"/>
    <path class="st2" d="M257.7,65.5c-1.7-.2-2.8-.3-3.5-.3s-1.1,0-1.3.2-.3.3-.3.6,0,.4.4.5.9.2,2,.4,1.8.5,2.3,1c.5.4.7,1.2.7,2.2,0,2.2-1.3,3.3-4,3.3s-2,0-3.2-.4h-.6v-2.4c1.7.2,2.8.3,3.5.3s1.1,0,1.3-.2c.2,0,.4-.3.4-.6s0-.4-.4-.6-.9-.3-1.9-.4c-1-.2-1.8-.5-2.3-.9s-.8-1.2-.8-2.2.4-1.9,1.1-2.4,1.7-.8,2.8-.8,1.9,0,3.2.4h.7v2.4h-.1,0Z"/>
    <path class="st2" d="M263.7,62.8c.7,0,1.6,0,2.7.3h.5v2.3c-1.1,0-1.8-.2-2.4-.2-.9,0-1.5.2-1.8.6s-.5,1.1-.5,2.2.2,1.9.5,2.3.9.6,1.9.6l2.3-.2v2.2c-1.4.3-2.4.4-3.2.4-1.5,0-2.6-.4-3.2-1.3-.7-.8-1-2.2-1-4s.3-3.2,1-4,1.7-1.2,3.2-1.2Z"/>
    <path class="st2" d="M274.8,63h2.7v10.1h-2.7v-.6c-1,.5-1.8.8-2.5.8-1.4,0-2.3-.4-2.8-1.2-.5-.8-.7-2.1-.7-3.9v-5.3h2.7v5.3c0,1,0,1.7.2,2,.2.4.5.5,1.2.5s1.1,0,1.7-.3h.3v-7.6.2h-.1Z"/>
    <path class="st2" d="M284.9,62.8c1.4,0,2.4.4,3.1,1.2.6.8,1,2.1,1,4.1s-.4,3.4-1.1,4.1c-.8.8-2,1.1-3.9,1.1s-1.6,0-3.2-.2h-.8v-14.1h2.7v4.3c.9-.4,1.6-.5,2.2-.5h0ZM284,70.9c.9,0,1.5-.2,1.8-.7.3-.4.5-1.2.5-2.3,0-1.8-.6-2.7-1.7-2.7s-1,0-1.5.2h-.3v5.4h1.2Z"/>
    <path class="st2" d="M291,73.1v-10.1h2.7v1.1c1.1-.7,2.2-1.1,3.2-1.3v2.7c-1.1.2-2,.5-2.8.7h-.4v6.9h-2.7Z"/>
    <path class="st2" d="M298.5,61.7v-2.7h2.7v2.7h-2.7ZM298.5,73.1v-10.1h2.7v10.1h-2.7Z"/>
    <path class="st2" d="M306.3,73.1h-2.7v-10.1h2.7v.6c.9-.5,1.7-.8,2.4-.8,1.1,0,1.9.3,2.5.9,1.2-.6,2.4-.9,3.4-.9s2.2.4,2.8,1.2c.5.8.8,2,.8,3.7v5.5h-2.7v-5.4c0-.9,0-1.5-.3-1.9-.2-.4-.6-.6-1.1-.6s-1,0-1.6.3h-.3v7.6h-2.7v-5.2c0-1,0-1.7-.3-2.1-.2-.4-.6-.6-1.1-.6s-1,0-1.5.3h-.2v7.6h-.1,0Z"/>
    <path class="st2" d="M320.5,61.7v-2.7h2.7v2.7h-2.7ZM320.5,73.1v-10.1h2.7v10.1h-2.7Z"/>
    <path class="st2" d="M328.4,70.5c.3.3.8.4,1.4.4,1.2,0,2.4,0,3.3,0h.6v1.9c-1.5.4-2.9.6-4.2.6s-2.6-.4-3.3-1.2c-.7-.8-1-2.1-1-3.9,0-3.6,1.5-5.4,4.4-5.4s4.4,1.5,4.4,4.5l-.2,1.9h-5.9c0,.6.2,1.1.5,1.3h0ZM331.4,67.1c0-.8,0-1.4-.4-1.7s-.7-.5-1.3-.5-1.1.2-1.3.5c-.3.3-.4.9-.4,1.7h3.5-.1Z"/>
    <path class="st2" d="M338.7,73.1h-2.7v-10.1h2.7v.6c.9-.5,1.7-.8,2.5-.8,1.3,0,2.3.4,2.8,1.2.5.8.8,2,.8,3.7v5.5h-2.7v-5.4c0-.9-.1-1.5-.3-1.9s-.6-.6-1.2-.6-1.1,0-1.6.3h-.2v7.6h-.1,0Z"/>
    <path class="st2" d="M352.7,65.3h-2.5v5c0,.2,0,.3.2.4.1,0,.3.2.6.2h1.5v2.1c-.8.2-1.5.3-2,.3-1.2,0-2-.3-2.5-.8s-.7-1.5-.7-3v-4.2h-1.2v-2.3h1.2v-2.8h2.7v2.8h2.5v2.3h.2,0Z"/>
    <path class="st2" d="M354.9,64.2c.7-.9,1.9-1.4,3.6-1.4s2.8.5,3.6,1.4c.7.9,1.1,2.2,1.1,3.9,0,3.5-1.5,5.3-4.6,5.3s-4.6-1.8-4.6-5.3.4-3,1.1-3.9h-.2ZM357,70.3c.3.5.8.7,1.5.7s1.2-.2,1.5-.7.4-1.2.4-2.3-.1-1.8-.4-2.3-.8-.7-1.5-.7-1.2.2-1.5.7-.4,1.2-.4,2.3.1,1.8.4,2.3Z"/>
    <path class="st2" d="M242.5,89.6c.8-.5,1.8-.8,3-.8s2.3.3,3,.8c.7.6,1.1,1.3,1.1,2.3s-.2,1.7-.6,2.3c-.4.6-1.1,1.2-2.2,1.9l2,2c0-.2.2-.6.2-1.2v-1.4h2.6c-.2,1.6-.5,3-1,4.1l2.3,2-1.5,1.7-2.1-1.7c-.5.5-1.1.9-1.8,1.3-.7.3-1.5.5-2.3.5-2,0-3.3-.4-4.2-1.1-.8-.7-1.2-1.7-1.2-3.1s.2-1.9.7-2.6c.5-.6,1.2-1.1,2.2-1.5-.5-.7-.9-1.2-1.1-1.6-.2-.4-.3-1-.3-1.6s.4-1.7,1.1-2.2h.1ZM244.9,100.9c.5,0,1.1,0,1.6-.2.5,0,.9-.3,1.1-.6l-3.5-3.5c-1,.5-1.5,1.2-1.5,2.3s.8,2,2.3,2h0ZM244.1,92.4c0,.5.3,1.1.9,1.8l.3.4c.5-.4.9-.8,1.2-1.1.2-.3.3-.7.3-1.1,0-.8-.5-1.3-1.4-1.3s-1.4.4-1.4,1.3h.1,0Z"/>
    <path class="st2" d="M261.6,100.5c.3.3.8.4,1.4.4h3.9v1.9c-1.5.4-2.9.6-4.2.6s-2.6-.4-3.3-1.2-1-2.1-1-3.9c0-3.6,1.5-5.4,4.4-5.4s4.4,1.5,4.4,4.5l-.2,1.9h-5.9c0,.6.2,1.1.5,1.3h0ZM264.6,97.1c0-.8,0-1.4-.4-1.7-.3-.3-.7-.5-1.3-.5s-1.1.2-1.3.5c-.3.3-.4.9-.4,1.7h3.5-.1Z"/>
    <path class="st2" d="M268.1,93h2.8l1.6,7.8h.6l1.7-7.8h2.7l-2.4,10.1h-4.6l-2.4-10.1h0Z"/>
    <path class="st2" d="M286.7,96.2v4.2c0,.3,0,.5.2.7,0,0,.2.2.5.3v2h-1.7c-.4,0-.8-.3-1.2-.6-1,.5-2,.7-3,.7-2.1,0-3.1-1.1-3.1-3.3s.3-1.8.9-2.3c.6-.4,1.5-.7,2.7-.8l2.2-.2v-.6c0-.4,0-.7-.3-.9-.2-.2-.5-.2-.9-.2l-3.8.2v-1.9c1.4-.4,2.7-.6,4-.6s2.2.3,2.8.8c.6.5.9,1.4.9,2.6h-.2ZM282.1,98.8c-.8,0-1.1.5-1.1,1.2s.3,1.1,1,1.1,1.1,0,1.7-.2h.3v-2.2l-1.8.2h-.1Z"/>
    <path class="st2" d="M289.4,103.1v-14.1h2.7v14.1h-2.7Z"/>
    <path class="st2" d="M300.6,93h2.7v10.1h-2.7v-.6c-1,.5-1.8.8-2.5.8-1.4,0-2.3-.4-2.8-1.2s-.7-2.1-.7-3.9v-5.3h2.7v5.3c0,1,0,1.7.2,2,.2.4.5.5,1.2.5s1.1,0,1.7-.3h.3v-7.6.2h-.1Z"/>
    <path class="st2" d="M313.5,96.2v4.2c0,.3,0,.5.2.7,0,0,.2.2.5.3v2h-1.7c-.4,0-.8-.3-1.2-.6-1,.5-2,.7-3,.7-2.1,0-3.1-1.1-3.1-3.3s.3-1.8.9-2.3c.6-.4,1.5-.7,2.7-.8l2.2-.2v-.6c0-.4,0-.7-.3-.9-.2-.2-.5-.2-.9-.2l-3.8.2v-1.9c1.4-.4,2.7-.6,4-.6s2.2.3,2.8.8c.6.5.9,1.4.9,2.6h-.2ZM309,98.8c-.8,0-1.1.5-1.1,1.2s.3,1.1,1,1.1,1.1,0,1.7-.2h.3v-2.2l-1.8.2h-.1Z"/>
    <path class="st2" d="M319.8,92.8c.7,0,1.6,0,2.7.3h.5v2.3c-1.1,0-1.8-.2-2.4-.2-.9,0-1.5.2-1.8.6s-.5,1.1-.5,2.2.2,1.9.5,2.3.9.6,1.9.6l2.3-.2v2.2c-1.4.3-2.4.4-3.2.4-1.5,0-2.6-.4-3.2-1.3-.7-.8-1-2.2-1-4s.3-3.2,1-4,1.7-1.2,3.2-1.2Z"/>
    <path class="st2" d="M325,91.7v-2.7h2.7v2.7h-2.7ZM325,103.1v-10.1h2.7v10.1h-2.7Z"/>
    <path class="st2" d="M330.8,94.2c.7-.9,1.9-1.4,3.6-1.4s2.8.5,3.6,1.4c.7.9,1.1,2.2,1.1,3.9,0,3.5-1.5,5.3-4.6,5.3s-4.6-1.8-4.6-5.3.4-3,1.1-3.9h-.2ZM331.3,90l5.1-2.1.8,2.3-5.3,1.5-.6-1.8h0ZM332.9,100.3c.3.5.8.7,1.5.7s1.2-.2,1.5-.7.4-1.2.4-2.3,0-1.8-.4-2.3-.8-.7-1.5-.7-1.2.2-1.5.7-.4,1.2-.4,2.3,0,1.8.4,2.3Z"/>
    <path class="st2" d="M343.6,103.1h-2.7v-10.1h2.7v.6c.9-.5,1.7-.8,2.5-.8,1.3,0,2.3.4,2.8,1.2s.8,2,.8,3.7v5.5h-2.7v-5.4c0-.9-.1-1.5-.3-1.9s-.6-.6-1.2-.6-1.1,0-1.6.3h-.2v7.6h-.1,0Z"/>
  </g>
</svg>