<svg viewBox="0 0 1321.4 153.7" xmlns="http://www.w3.org/2000/svg" xmlns:xlink="http://www.w3.org/1999/xlink"><linearGradient id="a"><stop offset="0" stop-color="#4b62fb"/><stop offset="1" stop-color="#eb5c21"/></linearGradient><linearGradient id="b" gradientUnits="userSpaceOnUse" x1="66.6" x2="1257.6" xlink:href="#a" y1="76.8" y2="76.8"/><linearGradient id="c" gradientTransform="matrix(0 -1 1 0 342 -1646)" gradientUnits="userSpaceOnUse" x1="-1722.8" x2="-1722.8" xlink:href="#a" y1="-280.3" y2="930.7"/><linearGradient id="d" gradientTransform="matrix(0 -1 1 0 342 -1646)" gradientUnits="userSpaceOnUse" x1="-1722.8" x2="-1722.8" xlink:href="#a" y1="-273.4" y2="916.1"/><linearGradient id="e" gradientTransform="matrix(0 -1 1 0 342 -1646)" gradientUnits="userSpaceOnUse" x1="-1722.8" x2="-1722.8" xlink:href="#a" y1="-270.7" y2="919.3"/><linearGradient id="f" gradientTransform="matrix(0 -1 1 0 342 -1646)" gradientUnits="userSpaceOnUse" x1="-1722.8" x2="-1722.8" xlink:href="#a" y1="-269.3" y2="920.2"/><linearGradient id="g" gradientTransform="matrix(0 -1 1 0 342 -1646)" gradientUnits="userSpaceOnUse" x1="-1722.8" x2="-1722.8" xlink:href="#a" y1="-267" y2="922.5"/><linearGradient id="h" gradientTransform="matrix(0 -1 1 0 342 -1646)" gradientUnits="userSpaceOnUse" x1="-1722.8" x2="-1722.8" xlink:href="#a" y1="-265.3" y2="924.7"/><linearGradient id="i" gradientTransform="matrix(0 -1 1 0 342 -1646)" gradientUnits="userSpaceOnUse" x1="-1722.8" x2="-1722.8" xlink:href="#a" y1="-272.1" y2="917.9"/><linearGradient id="j" gradientTransform="matrix(0 -1 1 0 342 -1646)" gradientUnits="userSpaceOnUse" x1="-1722.8" x2="-1722.8" xlink:href="#a" y1="-268.4" y2="921.6"/><path d="m66.6 76.8h1200" fill="none" stroke="url(#b)" stroke-width="2"/><path d="m61.6 71.8h10v10h-10z" fill="url(#c)"/><path d="m233 71.8h10v10h-10z" fill="url(#d)"/><path d="m575.8 71.8h10v10h-10z" fill="url(#e)"/><path d="m747.2 71.8h10v10h-10z" fill="url(#f)"/><path d="m1090 71.8h10v10h-10z" fill="url(#g)"/><path d="m1261.6 71.8h10v10h-10z" fill="url(#h)"/><path d="m404.4 71.8h10v10h-10z" fill="url(#i)"/><path d="m918.6 71.8h10v10h-10z" fill="url(#j)"/><g fill="#fff"><path d="m23.7 19.8h-4.6v-13.6h4.6c1.2 0 2.1.1 2.9.4.8.2 1.4.7 1.8 1.2.4.6.7 1.2.9 2s.2 1.8.2 3 0 2.2-.2 3c-.1.8-.4 1.5-.8 2.2s-1 1.1-1.8 1.4-1.8.4-3 .4zm2.9-5.4c0-.4 0-1 0-1.8s0-1.4 0-1.8c0-.5-.2-.9-.4-1.2-.2-.4-.5-.6-.9-.8-.4-.1-.9-.2-1.6-.2h-1.8v8.8h1.8c1 0 1.7-.3 2.2-.8.4-.4.6-1.2.7-2.2z"/><path d="m34.3 17.3c.3.3.8.4 1.3.4 1.2 0 2.3 0 3.3-.1h.6v1.9c-1.5.4-2.9.6-4.2.6s-2.6-.4-3.3-1.2-1-2.1-1-3.9c0-3.6 1.5-5.4 4.4-5.4s4.4 1.5 4.4 4.5l-.2 1.9h-5.9c0 .6.2 1.1.5 1.3zm3-3.4c0-.8-.1-1.4-.4-1.7s-.7-.5-1.3-.5-1.1.2-1.3.5c-.3.3-.4.9-.4 1.6h3.5z"/><path d="m49 12.3c-1.7-.2-2.8-.3-3.5-.3s-1.1 0-1.3.2c-.2.1-.3.3-.3.6s.1.4.4.5c.3 0 .9.2 2 .4s1.8.5 2.3.9.7 1.2.7 2.1c0 2.2-1.3 3.2-4 3.2s-1.9-.1-3.2-.4h-.6c0-.1 0-2.4 0-2.4 1.7.2 2.8.3 3.5.3s1.1 0 1.3-.2c.2-.1.4-.3.4-.6s-.1-.4-.4-.6c-.2-.1-.9-.3-1.9-.4-1-.2-1.8-.5-2.3-.9s-.8-1.2-.8-2.2.4-1.9 1.1-2.4 1.6-.8 2.8-.8 1.9.1 3.2.4h.7v2.3z"/><path d="m55 9.6c.7 0 1.6.1 2.7.3h.5v2.2c-1.1-.1-1.8-.2-2.3-.2-.9 0-1.5.2-1.8.6s-.5 1.1-.5 2.2.1 1.8.5 2.2c.3.4.9.6 1.8.6l2.3-.2v2.1c-1.3.3-2.4.4-3.2.4-1.5 0-2.5-.4-3.2-1.2-.6-.8-1-2.2-1-4s.3-3.2 1-4 1.7-1.2 3.2-1.2z"/><path d="m60.6 11c.7-.9 1.9-1.4 3.5-1.4s2.8.5 3.5 1.4 1.1 2.2 1.1 3.9c0 3.5-1.5 5.3-4.6 5.3s-4.6-1.8-4.6-5.3.4-2.9 1.1-3.9zm2.1 6.1c.3.5.8.7 1.5.7s1.2-.2 1.5-.7.4-1.2.4-2.3-.1-1.8-.4-2.2c-.3-.5-.8-.7-1.5-.7s-1.2.2-1.5.7-.4 1.2-.4 2.2.1 1.8.4 2.3z"/><path d="m75.6 9.6c1.4 0 2.4.4 3.1 1.2.6.8 1 2.1 1 4.1s-.4 3.3-1.1 4.1-2 1.1-3.9 1.1-1.6 0-3.1-.2h-.8v-14.1h2.7v4.3c.9-.4 1.6-.5 2.2-.5zm-1 8.1c.9 0 1.5-.2 1.8-.6s.5-1.2.5-2.3c0-1.8-.6-2.7-1.7-2.7s-1 0-1.5.2h-.3v5.4z"/><path d="m84.3 17.3c.3.3.8.4 1.3.4 1.2 0 2.3 0 3.3-.1h.6v1.9c-1.5.4-2.9.6-4.2.6s-2.6-.4-3.3-1.2-1-2.1-1-3.9c0-3.6 1.5-5.4 4.4-5.4s4.4 1.5 4.4 4.5l-.2 1.9h-5.9c0 .6.2 1.1.5 1.3zm3-3.4c0-.8-.1-1.4-.4-1.7s-.7-.5-1.3-.5-1.1.2-1.3.5c-.3.3-.4.9-.4 1.6h3.5z"/><path d="m91.8 19.8v-10h2.7v1.1c1.1-.7 2.2-1.1 3.2-1.3v2.7c-1.1.2-2 .5-2.8.7h-.4v6.8z"/><path d="m104.8 12.1h-2.5v4.1.9c0 .2 0 .3.2.4.1.1.3.2.6.2h1.5s.1 2.1.1 2.1c-.9.2-1.6.3-2 .3-1.2 0-2-.3-2.5-.8-.4-.5-.7-1.5-.7-3v-4.2h-1.2v-2.3h1.2v-2.8h2.7v2.8h2.5v2.3z"/><path d="m114.2 13v4.2c0 .3 0 .5.2.7 0 .1.2.2.5.3v2c-.8 0-1.3 0-1.7-.1-.4 0-.8-.3-1.2-.6-1 .5-1.9.7-2.9.7-2.1 0-3.1-1.1-3.1-3.3s.3-1.8.9-2.3c.6-.4 1.5-.7 2.6-.8l2.1-.2v-.6c0-.4 0-.7-.3-.9-.2-.2-.5-.2-.9-.2l-3.8.2v-1.9c1.3-.4 2.7-.6 4-.6s2.2.3 2.8.8.9 1.4.9 2.6zm-4.5 2.6c-.7 0-1.1.5-1.1 1.2s.3 1.1 1 1.1 1.1 0 1.7-.2h.3v-2.2l-1.8.2z"/><path d="m19.5 36.4c.7-.5 1.8-.8 3-.8s2.3.3 3 .8c.7.6 1.1 1.3 1.1 2.3s-.2 1.7-.6 2.3c-.4.5-1.1 1.2-2.1 1.9l2 2c0-.2.2-.6.2-1.2s.1-1 .1-1.4h2.6c-.2 1.6-.5 3-1 4.1l2.2 2-1.5 1.7-2.1-1.7c-.5.5-1.1.9-1.8 1.2s-1.5.5-2.3.5c-1.9 0-3.3-.4-4.1-1.1s-1.2-1.7-1.2-3.1.2-1.9.7-2.6c.5-.6 1.2-1.1 2.2-1.5-.5-.7-.9-1.2-1.1-1.6s-.2-1-.2-1.6.4-1.7 1.1-2.2zm2.4 11.3c.5 0 1.1 0 1.6-.2.5-.1.9-.3 1.1-.6l-3.5-3.5c-1 .5-1.5 1.2-1.5 2.3s.8 2 2.3 2zm-.8-8.5c0 .5.3 1.1.9 1.8l.3.4c.5-.4.9-.8 1.2-1.1s.3-.7.3-1.1c0-.8-.5-1.3-1.4-1.3s-1.4.4-1.4 1.3z"/><path d="m34.9 49.8 3.1-13.6h5.2l3.1 13.6h-2.8l-.5-2.5h-4.8l-.5 2.5zm5.2-11.3-1.4 6.5h3.7l-1.4-6.5h-1z"/><path d="m46.6 39.8h2.8l1.6 7.7h.6l1.7-7.7h2.7l-2.4 10h-4.6z"/><path d="m65.1 43v4.2c0 .3 0 .5.2.7 0 .1.2.2.5.3v2c-.8 0-1.3 0-1.7-.1-.4 0-.8-.3-1.2-.6-1 .5-1.9.7-2.9.7-2.1 0-3.1-1.1-3.1-3.3s.3-1.8.9-2.3c.6-.4 1.5-.7 2.6-.8l2.1-.2v-.6c0-.4 0-.7-.3-.9-.2-.2-.5-.2-.9-.2l-3.8.2v-1.9c1.3-.4 2.7-.6 4-.6s2.2.3 2.8.8.9 1.4.9 2.6zm-4.5 2.6c-.7 0-1.1.5-1.1 1.2s.3 1.1 1 1.1 1.1 0 1.7-.2h.3v-2.2l-1.8.2z"/><path d="m67.8 49.8v-14h2.7v14z"/><path d="m73 38.6v-2.7h2.7v2.7zm0 11.2v-10h2.7v10z"/><path d="m85.9 43v4.2c0 .3 0 .5.2.7 0 .1.2.2.5.3v2c-.8 0-1.3 0-1.7-.1-.4 0-.8-.3-1.2-.6-1 .5-1.9.7-2.9.7-2.1 0-3.1-1.1-3.1-3.3s.3-1.8.9-2.3c.6-.4 1.5-.7 2.6-.8l2.1-.2v-.6c0-.4 0-.7-.3-.9-.2-.2-.5-.2-.9-.2l-3.8.2v-1.9c1.3-.4 2.7-.6 4-.6s2.2.3 2.8.8.9 1.4.9 2.6zm-4.5 2.6c-.7 0-1.1.5-1.1 1.2s.3 1.1 1 1.1 1.1 0 1.7-.2h.3v-2.2l-1.8.2z"/><path d="m94.2 51c.4.2.6.7.6 1.5s-.2 1.3-.6 1.7-.9.6-1.6.6-1.1 0-1.6-.2h-.3v-1.6h1c.5 0 .8-.2.8-.5s-.3-.4-.8-.4h-.5v-1.9c-1.2-.1-2-.6-2.5-1.5-.5-.8-.8-2.1-.8-3.9s.3-3 1-3.8 1.7-1.2 3.2-1.2 1.6.1 2.7.3h.5v2.2c-1.1-.1-1.8-.2-2.3-.2-.9 0-1.5.2-1.8.6s-.5 1.1-.5 2.2.1 1.8.5 2.2c.3.4.9.6 1.8.6l2.3-.2v2.1c-1.2.3-2.2.4-3 .4v.5c.9 0 1.5.1 1.9.4z"/><path d="m105 43v4.2c0 .3 0 .5.2.7 0 .1.2.2.5.3v2c-.8 0-1.3 0-1.7-.1-.4 0-.8-.3-1.2-.6-1 .5-1.9.7-2.9.7-2.1 0-3.1-1.1-3.1-3.3s.3-1.8.9-2.3c.6-.4 1.5-.7 2.6-.8l2.1-.2v-.6c0-.4 0-.7-.3-.9-.2-.2-.5-.2-.9-.2l-3.8.2v-1.9c1.3-.4 2.7-.6 4-.6s2.2.3 2.8.8.9 1.4.9 2.6zm-1.3-5.8c-.1.1-.4.3-.8.5s-.7.3-1 .3-.8-.1-1.4-.4c-.6-.2-1-.4-1.2-.4-.4 0-.8.2-1.3.5l-.3.2-.6-1.5c.3-.3.6-.6 1-.8s.8-.4 1.1-.4.8.1 1.4.4c.6.2 1 .4 1.2.4.3 0 .8-.2 1.3-.5l.3-.2.6 1.5s-.2.2-.3.4zm-3.2 8.4c-.7 0-1.1.5-1.1 1.2s.3 1.1 1 1.1 1.1 0 1.7-.2h.3v-2.2l-1.8.2z"/><path d="m108.1 41c.7-.9 1.9-1.4 3.5-1.4s2.8.5 3.5 1.4 1.1 2.2 1.1 3.9c0 3.5-1.5 5.3-4.6 5.3s-4.6-1.8-4.6-5.3.4-2.9 1.1-3.9zm2.1 6.1c.3.5.8.7 1.5.7s1.2-.2 1.5-.7.4-1.2.4-2.3-.1-1.8-.4-2.2c-.3-.5-.8-.7-1.5-.7s-1.2.2-1.5.7-.4 1.2-.4 2.2.1 1.8.4 2.3z"/><path d="m198.8 103.8h2.9l-3.2 13.6h-5.1l-3.2-13.6h2.9l2.4 11.2h.9z"/><path d="m203.2 106.1v-2.7h2.7v2.7zm0 11.3v-10h2.7v10z"/><path d="m216 110.5v4.2c0 .3 0 .5.2.7s.2.2.5.3v2c-.8 0-1.3 0-1.7-.1-.4 0-.8-.3-1.2-.6-1 .5-1.9.7-2.9.7-2.1 0-3.1-1.1-3.1-3.3s.3-1.8.9-2.3 1.5-.7 2.6-.8l2.1-.2v-.6c0-.4 0-.7-.3-.8-.2-.2-.5-.2-.9-.2l-3.8.2v-1.9c1.3-.4 2.7-.6 4-.6s2.2.3 2.8.8.9 1.4.9 2.6zm-4.5 2.7c-.7 0-1.1.5-1.1 1.2s.3 1.1 1 1.1 1.1 0 1.7-.2h.3v-2.2l-1.8.2z"/><path d="m223.4 107.2c1.4 0 2.4.4 3.1 1.2.6.8 1 2.1 1 4.1s-.4 3.3-1.1 4.1-2 1.1-3.9 1.1-1.6 0-3.1-.2h-.8v-14h2.7v4.3c.9-.4 1.6-.5 2.2-.5zm-.9 8c.9 0 1.5-.2 1.8-.6s.5-1.2.5-2.3c0-1.8-.6-2.7-1.7-2.7s-1 0-1.5.2h-.3v5.4z"/><path d="m229.5 106.1v-2.7h2.7v2.7zm0 11.3v-10h2.7v10z"/><path d="m234.8 117.4v-14h2.7v14z"/><path d="m240 106.1v-2.7h2.7v2.7zm0 11.3v-10h2.7v10z"/><path d="m253.7 103.4v14h-2.7v-.4c-.9.4-1.7.7-2.4.7-1.5 0-2.5-.4-3-1.3-.6-.8-.9-2.2-.9-4s.3-3.1 1-4c.7-.8 1.7-1.2 3.1-1.2s1 0 1.8.2h.4v-4zm-3 11.6h.3v-5.3c-.7-.1-1.4-.2-2-.2-1.1 0-1.6 1-1.6 2.9s.1 1.8.4 2.2c.2.4.6.7 1.2.7s1.1 0 1.8-.2z"/><path d="m263.8 110.5v4.2c0 .3 0 .5.2.7s.2.2.5.3v2c-.8 0-1.3 0-1.7-.1-.4 0-.8-.3-1.2-.6-1 .5-1.9.7-2.9.7-2.1 0-3.1-1.1-3.1-3.3s.3-1.8.9-2.3 1.5-.7 2.6-.8l2.1-.2v-.6c0-.4 0-.7-.3-.8-.2-.2-.5-.2-.9-.2l-3.8.2v-1.9c1.3-.4 2.7-.6 4-.6s2.2.3 2.8.8.9 1.4.9 2.6zm-4.5 2.7c-.7 0-1.1.5-1.1 1.2s.3 1.1 1 1.1 1.1 0 1.7-.2h.3v-2.2l-1.8.2z"/><path d="m274.9 103.4v14h-2.7v-.4c-.9.4-1.7.7-2.4.7-1.5 0-2.5-.4-3-1.3-.6-.8-.9-2.2-.9-4s.3-3.1 1-4c.7-.8 1.7-1.2 3.1-1.2s1 0 1.8.2h.4v-4zm-3 11.6h.3v-5.3c-.7-.1-1.4-.2-2-.2-1.1 0-1.6 1-1.6 2.9s.1 1.8.4 2.2c.2.4.6.7 1.2.7s1.1 0 1.8-.2z"/><path d="m280.1 114.9c.3.3.8.4 1.3.4 1.2 0 2.3 0 3.3-.1h.6v1.9c-1.5.4-2.9.6-4.2.6s-2.6-.4-3.3-1.2-1-2.1-1-3.9c0-3.6 1.5-5.4 4.4-5.4s4.4 1.5 4.4 4.5l-.2 1.9h-5.9c0 .6.2 1.1.5 1.3zm2.9-3.4c0-.8-.1-1.4-.4-1.7s-.7-.5-1.3-.5-1.1.2-1.3.5c-.3.3-.4.9-.4 1.7h3.5z"/><path d="m214 139.7h-2.5v4.1.9s0 .3.2.4c.1.1.3.2.6.2h1.5s.1 2.1.1 2.1c-.9.2-1.6.3-2 .3-1.2 0-2-.3-2.5-.8-.4-.5-.7-1.5-.7-3v-4.2h-1.2v-2.3h1.2v-2.8h2.7v2.8h2.5v2.3z"/><path d="m218.5 144.9c.3.3.8.4 1.3.4 1.2 0 2.3 0 3.3-.1h.6v1.9c-1.5.4-2.9.6-4.2.6s-2.6-.4-3.3-1.2-1-2.1-1-3.9c0-3.6 1.5-5.4 4.4-5.4s4.4 1.5 4.4 4.5l-.2 1.9h-5.9c0 .6.2 1.1.5 1.3zm-1.9-10.5 5-2 .8 2.3-5.2 1.5-.6-1.7zm4.8 7.1c0-.8-.1-1.4-.4-1.7s-.7-.5-1.3-.5-1.1.2-1.3.5c-.3.3-.4.9-.4 1.7h3.5z"/><path d="m229.7 137.2c.7 0 1.6.1 2.7.3h.5v2.2c-1.1-.1-1.8-.2-2.3-.2-.9 0-1.5.2-1.8.6s-.5 1.1-.5 2.2.1 1.8.5 2.2c.3.4.9.6 1.8.6l2.3-.2v2.1c-1.3.3-2.4.4-3.2.4-1.5 0-2.5-.4-3.2-1.2-.6-.8-1-2.2-1-4s.3-3.2 1-4 1.7-1.2 3.2-1.2z"/><path d="m237.6 147.4h-2.7v-10h2.7v.6c.9-.5 1.7-.8 2.5-.8 1.3 0 2.3.4 2.8 1.2s.8 2 .8 3.6v5.4h-2.7v-5.3c0-.9-.1-1.5-.3-1.9s-.6-.6-1.2-.6-1.1 0-1.6.3h-.2v7.6z"/><path d="m246 136.1v-2.7h2.7v2.7zm0 11.3v-10h2.7v10z"/><path d="m254.8 137.2c.7 0 1.6.1 2.7.3h.5v2.2c-1.1-.1-1.8-.2-2.3-.2-.9 0-1.5.2-1.8.6s-.5 1.1-.5 2.2.1 1.8.5 2.2c.3.4.9.6 1.8.6l2.3-.2v2.1c-1.3.3-2.4.4-3.2.4-1.5 0-2.5-.4-3.2-1.2-.6-.8-1-2.2-1-4s.3-3.2 1-4 1.7-1.2 3.2-1.2z"/><path d="m267.7 140.5v4.2c0 .3 0 .5.2.7s.2.2.5.3v2c-.8 0-1.3 0-1.7-.1-.4 0-.8-.3-1.2-.6-1 .5-1.9.7-2.9.7-2.1 0-3.1-1.1-3.1-3.3s.3-1.8.9-2.3 1.5-.7 2.6-.8l2.1-.2v-.6c0-.4 0-.7-.3-.8-.2-.2-.5-.2-.9-.2l-3.8.2v-1.9c1.3-.4 2.7-.6 4-.6s2.2.3 2.8.8.9 1.4.9 2.6zm-4.5 2.7c-.7 0-1.1.5-1.1 1.2s.3 1.1 1 1.1 1.1 0 1.7-.2h.3v-2.2l-1.8.2z"/><path d="m374.8 19.8h-4.6v-13.6h4.6c1.2 0 2.1.1 2.9.4.8.2 1.4.7 1.8 1.2.4.6.7 1.2.9 2s.2 1.8.2 3 0 2.2-.2 3c-.1.8-.4 1.5-.8 2.2s-1 1.1-1.8 1.4-1.8.4-3 .4zm2.9-5.4c0-.4 0-1 0-1.8s0-1.4 0-1.8c0-.5-.2-.9-.4-1.2-.2-.4-.5-.6-.9-.8-.4-.1-.9-.2-1.6-.2h-1.8v8.8h1.8c1 0 1.7-.3 2.2-.8.4-.4.6-1.2.7-2.2z"/><path d="m385.4 17.3c.3.3.8.4 1.3.4 1.2 0 2.3 0 3.3-.1h.6v1.9c-1.5.4-2.9.6-4.2.6s-2.6-.4-3.3-1.2-1-2.1-1-3.9c0-3.6 1.5-5.4 4.4-5.4s4.4 1.5 4.4 4.5l-.2 1.9h-5.9c0 .6.2 1.1.5 1.3zm2.9-3.4c0-.8-.1-1.4-.4-1.7s-.7-.5-1.3-.5-1.1.2-1.3.5c-.3.3-.4.9-.4 1.6h3.5z"/><path d="m396.1 12.1v7.7h-2.7v-7.7h-1.1v-2.3h1.1v-.4c0-1.4.2-2.4.6-3s1.2-.8 2.3-.8 1.1 0 1.9.2h.4v2.2c-.6 0-1.1 0-1.5 0s-.7.1-.8.3-.2.6-.2 1.1v.4h2.4v2.3z"/><path d="m400 8.5v-2.7h2.7v2.7zm0 11.3v-10h2.7v10z"/><path d="m407.9 19.8h-2.7v-10h2.7v.6c.9-.5 1.7-.8 2.5-.8 1.3 0 2.3.4 2.8 1.2s.8 2 .8 3.6v5.4h-2.7v-5.3c0-.9-.1-1.5-.3-1.9s-.6-.6-1.2-.6-1.1 0-1.6.3h-.2v7.6z"/><path d="m416.3 8.5v-2.7h2.7v2.7zm0 11.3v-10h2.7v10z"/><path d="m427.2 20.9c.4.2.6.7.6 1.5s-.2 1.3-.6 1.7-.9.6-1.6.6-1.1 0-1.6-.2h-.3v-1.6h1c.5 0 .8-.2.8-.5s-.3-.4-.8-.4h-.5v-1.9c-1.2-.1-2-.6-2.5-1.5-.5-.8-.8-2.1-.8-3.9s.3-3 1-3.8 1.7-1.2 3.2-1.2 1.6.1 2.7.3h.5v2.2c-1.1-.1-1.8-.2-2.3-.2-.9 0-1.5.2-1.8.6s-.5 1.1-.5 2.2.1 1.8.5 2.2c.3.4.9.6 1.8.6l2.3-.2v2.1c-1.2.3-2.2.4-3 .4v.5c.9 0 1.5.1 1.9.4z"/><path d="m438 12.9v4.2c0 .3 0 .5.2.7 0 .1.2.2.5.3v2c-.8 0-1.3 0-1.7-.1-.4 0-.8-.3-1.2-.6-1 .5-1.9.7-2.9.7-2.1 0-3.1-1.1-3.1-3.3s.3-1.8.9-2.3c.6-.4 1.5-.7 2.6-.8l2.1-.2v-.6c0-.4 0-.7-.3-.9-.2-.2-.5-.2-.9-.2l-3.8.2v-1.9c1.3-.4 2.7-.6 4-.6s2.2.3 2.8.8.9 1.4.9 2.6zm-1.3-5.7c-.1.1-.4.3-.8.5s-.7.3-1 .3-.8-.1-1.4-.4c-.6-.2-1-.4-1.2-.4-.4 0-.8.2-1.3.5l-.3.2-.6-1.5c.3-.3.6-.6 1-.8s.8-.4 1.1-.4.8.1 1.4.4c.6.2 1 .4 1.2.4.3 0 .8-.2 1.3-.5l.3-.2.6 1.5s-.2.2-.3.4zm-3.2 8.4c-.7 0-1.1.5-1.1 1.2s.3 1.1 1 1.1 1.1 0 1.7-.2h.3v-2.2l-1.8.2z"/><path d="m441.1 10.9c.7-.9 1.9-1.4 3.5-1.4s2.8.5 3.5 1.4 1.1 2.2 1.1 3.9c0 3.5-1.5 5.3-4.6 5.3s-4.6-1.8-4.6-5.3.4-2.9 1.1-3.9zm2.1 6.1c.3.5.8.7 1.5.7s1.2-.2 1.5-.7.4-1.2.4-2.3-.1-1.8-.4-2.2c-.3-.5-.8-.7-1.5-.7s-1.2.2-1.5.7-.4 1.2-.4 2.2.1 1.8.4 2.3z"/><path d="m373.1 35.8v14h-2.7v-.4c-.9.4-1.7.7-2.4.7-1.5 0-2.5-.4-3-1.3-.6-.8-.9-2.2-.9-4s.3-3.1 1-4c.7-.8 1.7-1.2 3.1-1.2s1 0 1.8.2h.4v-4zm-2.9 11.6h.3v-5.3c-.7-.1-1.4-.2-2-.2-1.1 0-1.6 1-1.6 2.9s.1 1.8.4 2.2c.2.4.6.7 1.2.7s1.1 0 1.8-.2z"/><path d="m383.3 42.9v4.2c0 .3 0 .5.2.7 0 .1.2.2.5.3v2c-.8 0-1.3 0-1.7-.1-.4 0-.8-.3-1.2-.6-1 .5-1.9.7-2.9.7-2.1 0-3.1-1.1-3.1-3.3s.3-1.8.9-2.3c.6-.4 1.5-.7 2.6-.8l2.1-.2v-.6c0-.4 0-.7-.3-.9-.2-.2-.5-.2-.9-.2l-3.8.2v-1.9c1.3-.4 2.7-.6 4-.6s2.2.3 2.8.8.9 1.4.9 2.6zm-4.5 2.7c-.7 0-1.1.5-1.1 1.2s.3 1.1 1 1.1 1.1 0 1.7-.2h.3v-2.2l-1.8.2z"/><path d="m397.4 42.3c-1.7-.2-2.8-.3-3.5-.3s-1.1 0-1.3.2c-.2.1-.3.3-.3.6s.1.4.4.5c.3 0 .9.2 2 .4s1.8.5 2.3.9.7 1.2.7 2.1c0 2.2-1.3 3.2-4 3.2s-1.9-.1-3.2-.4h-.6c0-.1 0-2.4 0-2.4 1.7.2 2.8.3 3.5.3s1.1 0 1.3-.2c.2-.1.4-.3.4-.6s-.1-.4-.4-.6c-.2-.1-.9-.3-1.9-.4-1-.2-1.8-.5-2.3-.9s-.8-1.2-.8-2.2.4-1.9 1.1-2.4 1.6-.8 2.8-.8 1.9.1 3.2.4h.7v2.3z"/><path d="m400.2 40.9c.7-.9 1.9-1.4 3.5-1.4s2.8.5 3.5 1.4 1.1 2.2 1.1 3.9c0 3.5-1.5 5.3-4.6 5.3s-4.6-1.8-4.6-5.3.4-2.9 1.1-3.9zm2.1 6.1c.3.5.8.7 1.5.7s1.2-.2 1.5-.7.4-1.2.4-2.3-.1-1.8-.4-2.2c-.3-.5-.8-.7-1.5-.7s-1.2.2-1.5.7-.4 1.2-.4 2.2.1 1.8.4 2.3z"/><path d="m410.4 49.8v-14h2.7v14z"/><path d="m421.6 39.8h2.7v10h-2.7v-.6c-1 .5-1.8.8-2.5.8-1.4 0-2.3-.4-2.8-1.2s-.7-2-.7-3.8v-5.2h2.7v5.3c0 1 0 1.7.2 2 .2.4.5.5 1.2.5s1.1 0 1.7-.3h.3v-7.6z"/><path d="m432.5 50.9c.4.2.6.7.6 1.5s-.2 1.3-.6 1.7-.9.6-1.6.6-1.1 0-1.6-.2h-.3v-1.6h1c.5 0 .8-.2.8-.5s-.3-.4-.8-.4h-.5v-1.9c-1.2-.1-2-.6-2.5-1.5-.5-.8-.8-2.1-.8-3.9s.3-3 1-3.8 1.7-1.2 3.2-1.2 1.6.1 2.7.3h.5v2.2c-1.1-.1-1.8-.2-2.3-.2-.9 0-1.5.2-1.8.6s-.5 1.1-.5 2.2.1 1.8.5 2.2c.3.4.9.6 1.8.6l2.3-.2v2.1c-1.2.3-2.2.4-3 .4v.5c.9 0 1.5.1 1.9.4z"/><path d="m443.3 42.9v4.2c0 .3 0 .5.2.7 0 .1.2.2.5.3v2c-.8 0-1.3 0-1.7-.1-.4 0-.8-.3-1.2-.6-1 .5-1.9.7-2.9.7-2.1 0-3.1-1.1-3.1-3.3s.3-1.8.9-2.3c.6-.4 1.5-.7 2.6-.8l2.1-.2v-.6c0-.4 0-.7-.3-.9-.2-.2-.5-.2-.9-.2l-3.8.2v-1.9c1.3-.4 2.7-.6 4-.6s2.2.3 2.8.8.9 1.4.9 2.6zm-1.3-5.7c-.1.1-.4.3-.8.5s-.7.3-1 .3-.8-.1-1.4-.4c-.6-.2-1-.4-1.2-.4-.4 0-.8.2-1.3.5l-.3.2-.6-1.5c.3-.3.6-.6 1-.8s.8-.4 1.1-.4.8.1 1.4.4c.6.2 1 .4 1.2.4.3 0 .8-.2 1.3-.5l.3-.2.6 1.5s-.2.2-.3.4zm-3.2 8.4c-.7 0-1.1.5-1.1 1.2s.3 1.1 1 1.1 1.1 0 1.7-.2h.3v-2.2l-1.8.2z"/><path d="m446.4 40.9c.7-.9 1.9-1.4 3.5-1.4s2.8.5 3.5 1.4 1.1 2.2 1.1 3.9c0 3.5-1.5 5.3-4.6 5.3s-4.6-1.8-4.6-5.3.4-2.9 1.1-3.9zm2.1 6.1c.3.5.8.7 1.5.7s1.2-.2 1.5-.7.4-1.2.4-2.3-.1-1.8-.4-2.2c-.3-.5-.8-.7-1.5-.7s-1.2.2-1.5.7-.4 1.2-.4 2.2.1 1.8.4 2.3z"/><path d="m531 117.4 3.1-13.6h5.2l3.1 13.6h-2.8l-.5-2.5h-4.8l-.5 2.5zm5.2-11.3-1.4 6.5h3.7l-1.4-6.5h-1z"/><path d="m544 117.4v-10h2.7v1.1c1.1-.7 2.2-1.1 3.2-1.3v2.7c-1.1.2-2 .5-2.8.7h-.4v6.8z"/><path d="m555 117.6c-1.4 0-2.4-.4-3.1-1.2-.6-.8-1-2.1-1-4.1s.4-3.3 1.1-4.1c.7-.7 2-1.1 3.9-1.1s1.9 0 3.2.2h.7v14.2h-2.7v-4.5c-.9.4-1.6.5-2.2.5zm.9-8.1c-.9 0-1.5.2-1.8.7s-.5 1.2-.5 2.4c0 1.8.6 2.7 1.7 2.7s1 0 1.5-.2h.3v-5.5c-.5 0-.9 0-1.2 0z"/><path d="m568.2 107.4h2.7v10h-2.7v-.6c-1 .5-1.8.8-2.5.8-1.4 0-2.3-.4-2.8-1.2s-.7-2-.7-3.8v-5.2h2.7v5.3c0 1 0 1.7.2 2s.5.5 1.2.5 1.1 0 1.7-.3h.3v-7.6z"/><path d="m573.3 106.1v-2.7h2.7v2.7zm0 11.3v-10h2.7v10z"/><path d="m584 109.7h-2.5v4.1.8c0 .2 0 .3.2.4.1.1.3.2.6.2h1.5s.1 2.1.1 2.1c-.9.2-1.6.3-2 .3-1.2 0-2-.3-2.5-.8-.4-.5-.7-1.5-.7-3v-4.2h-1.2v-2.3h1.2v-2.8h2.7v2.8h2.5v2.3z"/><path d="m588.5 114.9c.3.3.8.4 1.3.4 1.2 0 2.3 0 3.3-.1h.6v1.9c-1.5.4-2.9.6-4.2.6s-2.6-.4-3.3-1.2-1-2.1-1-3.9c0-3.6 1.5-5.4 4.4-5.4s4.4 1.5 4.4 4.5l-.2 1.9h-5.9c0 .6.2 1.1.5 1.3zm2.9-3.4c0-.8-.1-1.4-.4-1.7s-.7-.5-1.3-.5-1.1.2-1.3.5c-.3.3-.4.9-.4 1.6h3.5z"/><path d="m601.5 109.7h-2.5v4.1.8c0 .2 0 .3.2.4.1.1.3.2.6.2h1.5s.1 2.1.1 2.1c-.9.2-1.6.3-2 .3-1.2 0-2-.3-2.5-.8-.4-.5-.7-1.5-.7-3v-4.2h-1.2v-2.3h1.2v-2.8h2.7v2.8h2.5v2.3z"/><path d="m609.2 107.4h2.7v10h-2.7v-.6c-1 .5-1.8.8-2.5.8-1.4 0-2.3-.4-2.8-1.2s-.7-2-.7-3.8v-5.2h2.7v5.3c0 1 0 1.7.2 2s.5.5 1.2.5 1.1 0 1.7-.3h.3v-7.6z"/><path d="m614.3 117.4v-10h2.7v1.1c1.1-.7 2.2-1.1 3.2-1.3v2.7c-1.1.2-2 .5-2.8.7h-.4v6.8z"/><path d="m629.4 110.5v4.2c0 .3 0 .5.2.7 0 .1.2.2.5.3v2c-.8 0-1.3 0-1.7-.1-.4 0-.8-.3-1.2-.6-1 .5-1.9.7-2.9.7-2.1 0-3.1-1.1-3.1-3.3s.3-1.8.9-2.3c.6-.4 1.5-.7 2.6-.8l2.1-.2v-.6c0-.4 0-.7-.3-.9-.2-.2-.5-.2-.9-.2l-3.8.2v-1.9c1.3-.4 2.7-.6 4-.6s2.2.3 2.8.8.9 1.4.9 2.6zm-4.5 2.6c-.7 0-1.1.5-1.1 1.2s.3 1.1 1 1.1 1.1 0 1.7-.2h.3v-2.2l-1.8.2z"/><path d="m539.8 133.4v14h-2.7v-.4c-.9.4-1.7.7-2.4.7-1.5 0-2.5-.4-3-1.3-.6-.8-.9-2.2-.9-4s.3-3.1 1-4c.7-.8 1.7-1.2 3.1-1.2s1 0 1.8.2h.4v-4zm-2.9 11.6h.3v-5.3c-.7-.1-1.4-.2-2-.2-1.1 0-1.6 1-1.6 2.9s.1 1.8.4 2.2c.2.4.6.7 1.2.7s1.1 0 1.8-.2z"/><path d="m545 144.9c.3.3.8.4 1.3.4 1.2 0 2.3 0 3.3-.1h.6v1.9c-1.5.4-2.9.6-4.2.6s-2.6-.4-3.3-1.2-1-2.1-1-3.9c0-3.6 1.5-5.4 4.4-5.4s4.4 1.5 4.4 4.5l-.2 1.9h-5.9c0 .6.2 1.1.5 1.3zm3-3.4c0-.8-.1-1.4-.4-1.7s-.7-.5-1.3-.5-1.1.2-1.3.5c-.3.3-.4.9-.4 1.6h3.5z"/><path d="m564.1 139.9c-1.7-.2-2.8-.3-3.5-.3s-1.1 0-1.3.2c-.2.1-.3.3-.3.6s.1.4.4.5c.3 0 .9.2 2 .4s1.8.5 2.3.9.7 1.2.7 2.1c0 2.2-1.3 3.2-4 3.2s-1.9-.1-3.2-.4h-.6c0-.1 0-2.4 0-2.4 1.7.2 2.8.3 3.5.3s1.1 0 1.3-.2c.2-.1.4-.3.4-.6s-.1-.4-.4-.6c-.2-.1-.9-.3-1.9-.4-1-.2-1.8-.5-2.3-.9s-.8-1.2-.8-2.2.4-1.9 1.1-2.4 1.6-.8 2.8-.8 1.9.1 3.2.4h.7v2.3z"/><path d="m566.9 138.5c.7-.9 1.9-1.4 3.5-1.4s2.8.5 3.5 1.4 1.1 2.2 1.1 3.8c0 3.5-1.5 5.3-4.6 5.3s-4.6-1.8-4.6-5.3.4-2.9 1.1-3.8zm2.1 6.1c.3.5.8.7 1.5.7s1.2-.2 1.5-.7.4-1.2.4-2.3-.1-1.8-.4-2.2c-.3-.5-.8-.7-1.5-.7s-1.2.2-1.5.7-.4 1.2-.4 2.2.1 1.8.4 2.3z"/><path d="m577.1 147.4v-14h2.7v14z"/><path d="m588.3 137.4h2.7v10h-2.7v-.6c-1 .5-1.8.8-2.5.8-1.4 0-2.3-.4-2.8-1.2s-.7-2-.7-3.8v-5.2h2.7v5.3c0 1 0 1.7.2 2s.5.5 1.2.5 1.1 0 1.7-.3h.3v-7.6z"/><path d="m599.2 148.5c.4.2.6.7.6 1.5s-.2 1.3-.6 1.7-.9.6-1.6.6-1.1 0-1.6-.2h-.3v-1.6h1c.5 0 .8-.2.8-.5s-.3-.4-.8-.4h-.5v-1.9c-1.2-.1-2-.6-2.5-1.5-.5-.8-.8-2.1-.8-3.9s.3-3 1-3.8 1.7-1.2 3.2-1.2 1.6.1 2.7.3h.5v2.2c-1.1-.1-1.8-.2-2.3-.2-.9 0-1.5.2-1.8.6s-.5 1.1-.5 2.2.1 1.8.5 2.2c.3.4.9.6 1.8.6l2.3-.2v2.1c-1.2.3-2.2.4-3 .4v.5c.9 0 1.5.1 1.9.4z"/><path d="m602.8 138.5c.7-.9 1.9-1.4 3.5-1.4s2.8.5 3.5 1.4 1.1 2.2 1.1 3.8c0 3.5-1.5 5.3-4.6 5.3s-4.6-1.8-4.6-5.3.4-2.9 1.1-3.8zm6.6-3.7c-.1.1-.4.3-.8.5s-.7.3-1 .3-.8-.1-1.4-.4c-.6-.2-1-.4-1.2-.4-.4 0-.8.2-1.3.5l-.3.2-.6-1.5c.3-.3.6-.6 1-.8s.8-.4 1.1-.4.8.1 1.4.4c.6.2 1 .4 1.2.4.3 0 .8-.2 1.3-.5l.3-.2.6 1.5s-.2.2-.3.4zm-4.5 9.8c.3.5.8.7 1.5.7s1.2-.2 1.5-.7.4-1.2.4-2.3-.1-1.8-.4-2.2c-.3-.5-.8-.7-1.5-.7s-1.2.2-1.5.7-.4 1.2-.4 2.2.1 1.8.4 2.3z"/><path d="m615.6 144.9c.3.3.8.4 1.3.4 1.2 0 2.3 0 3.3-.1h.6v1.9c-1.5.4-2.9.6-4.2.6s-2.6-.4-3.3-1.2-1-2.1-1-3.9c0-3.6 1.5-5.4 4.4-5.4s4.4 1.5 4.4 4.5l-.2 1.9h-5.9c0 .6.2 1.1.5 1.3zm3-3.4c0-.8-.1-1.4-.4-1.7s-.7-.5-1.3-.5-1.1.2-1.3.5c-.3.3-.4.9-.4 1.6h3.5z"/><path d="m630.3 139.9c-1.7-.2-2.8-.3-3.5-.3s-1.1 0-1.3.2c-.2.1-.3.3-.3.6s.1.4.4.5c.3 0 .9.2 2 .4s1.8.5 2.3.9.7 1.2.7 2.1c0 2.2-1.3 3.2-4 3.2s-1.9-.1-3.2-.4h-.6c0-.1 0-2.4 0-2.4 1.7.2 2.8.3 3.5.3s1.1 0 1.3-.2c.2-.1.4-.3.4-.6s-.1-.4-.4-.6c-.2-.1-.9-.3-1.9-.4-1-.2-1.8-.5-2.3-.9s-.8-1.2-.8-2.2.4-1.9 1.1-2.4 1.6-.8 2.8-.8 1.9.1 3.2.4h.7v2.3z"/><path d="m682.6 49.8h-4.6v-13.6h4.6c1.2 0 2.1.1 2.9.4.8.2 1.4.7 1.8 1.2.4.6.7 1.2.9 2s.2 1.8.2 3 0 2.2-.2 3c-.1.8-.4 1.5-.8 2.2-.4.6-1 1.1-1.8 1.4s-1.8.4-3 .4zm2.9-5.4c0-.4 0-1 0-1.8s0-1.4 0-1.8c0-.5-.2-.9-.4-1.2-.2-.4-.5-.6-.9-.8-.4-.1-.9-.2-1.6-.2h-1.8v8.8h1.8c1 0 1.7-.3 2.2-.8.4-.4.6-1.2.7-2.2z"/><path d="m693.2 47.3c.3.3.8.4 1.3.4 1.2 0 2.3 0 3.3-.1h.6v1.9c-1.5.4-2.9.6-4.2.6s-2.6-.4-3.3-1.2-1-2.1-1-3.9c0-3.6 1.5-5.4 4.4-5.4s4.4 1.5 4.4 4.5l-.2 1.9h-5.9c0 .6.2 1.1.5 1.3zm3-3.4c0-.8-.1-1.4-.4-1.7s-.7-.5-1.3-.5-1.1.2-1.3.5-.4.9-.4 1.6h3.5z"/><path d="m707.9 42.3c-1.7-.2-2.8-.3-3.5-.3s-1.1 0-1.3.2c-.2.1-.3.3-.3.6s.1.4.4.5c.3 0 .9.2 2 .4s1.8.5 2.3.9.7 1.2.7 2.1c0 2.2-1.3 3.2-4 3.2s-1.9-.1-3.2-.4h-.6c0-.1 0-2.4 0-2.4 1.7.2 2.8.3 3.5.3s1.1 0 1.3-.2c.2-.1.4-.3.4-.6s-.1-.4-.4-.6c-.2-.1-.9-.3-1.9-.4-1-.2-1.8-.5-2.3-.9s-.8-1.2-.8-2.2.4-1.9 1.1-2.4 1.6-.8 2.8-.8 1.9.1 3.2.4h.7v2.3z"/><path d="m712.8 47.3c.3.3.8.4 1.3.4 1.2 0 2.3 0 3.3-.1h.6v1.9c-1.5.4-2.9.6-4.2.6s-2.6-.4-3.3-1.2-1-2.1-1-3.9c0-3.6 1.5-5.4 4.4-5.4s4.4 1.5 4.4 4.5l-.2 1.9h-5.9c0 .6.2 1.1.5 1.3zm3-3.4c0-.8-.1-1.4-.4-1.7s-.7-.5-1.3-.5-1.1.2-1.3.5-.4.9-.4 1.6h3.5z"/><path d="m723 49.8h-2.7v-10h2.7v.6c.9-.5 1.7-.8 2.5-.8 1.3 0 2.3.4 2.8 1.2s.8 2 .8 3.6v5.4h-2.7v-5.3c0-.9-.1-1.5-.3-1.9s-.6-.6-1.2-.6-1.1 0-1.6.3h-.2v7.6z"/><path d="m730.4 39.8h2.8l1.6 7.7h.6l1.7-7.7h2.7l-2.4 10h-4.6z"/><path d="m741.7 40.9c.7-.9 1.9-1.4 3.5-1.4s2.8.5 3.5 1.4 1.1 2.2 1.1 3.9c0 3.5-1.5 5.3-4.6 5.3s-4.6-1.8-4.6-5.3.4-2.9 1.1-3.9zm2.1 6.1c.3.5.8.7 1.5.7s1.2-.2 1.5-.7.4-1.2.4-2.3-.1-1.8-.4-2.2-.8-.7-1.5-.7-1.2.2-1.5.7-.4 1.2-.4 2.2.1 1.8.4 2.3z"/><path d="m751.9 49.8v-14h2.7v14z"/><path d="m756.3 39.8h2.8l1.6 7.7h.6l1.7-7.7h2.7l-2.4 10h-4.6z"/><path d="m767.2 38.5v-2.7h2.7v2.7zm0 11.3v-10h2.7v10z"/><path d="m775 49.8h-2.7v-10h2.7v.6c.9-.5 1.7-.8 2.4-.8 1.1 0 1.9.3 2.5.9 1.2-.6 2.3-.9 3.4-.9s2.2.4 2.8 1.2.8 2 .8 3.7v5.4h-2.7v-5.3c0-.9 0-1.5-.3-1.9-.2-.4-.6-.6-1.1-.6s-.9 0-1.6.3h-.3v2.4 5.2h-2.7v-5.1c0-1 0-1.7-.3-2.1-.2-.4-.6-.6-1.1-.6s-1 0-1.5.3h-.2v7.6z"/><path d="m791.8 47.3c.3.3.8.4 1.3.4 1.2 0 2.3 0 3.3-.1h.6v1.9c-1.5.4-2.9.6-4.2.6s-2.6-.4-3.3-1.2-1-2.1-1-3.9c0-3.6 1.5-5.4 4.4-5.4s4.4 1.5 4.4 4.5l-.2 1.9h-5.9c0 .6.2 1.1.5 1.3zm2.9-3.4c0-.8-.1-1.4-.4-1.7s-.7-.5-1.3-.5-1.1.2-1.3.5c-.3.3-.4.9-.4 1.6h3.5z"/><path d="m802 49.8h-2.7v-10h2.7v.6c.9-.5 1.7-.8 2.5-.8 1.3 0 2.3.4 2.8 1.2s.8 2 .8 3.6v5.4h-2.7v-5.3c0-.9 0-1.5-.3-1.9s-.6-.6-1.2-.6-1.1 0-1.6.3h-.2v7.6z"/><path d="m815.9 42.1h-2.5v4.1.9c0 .2 0 .3.2.4.1.1.3.2.6.2h1.5s.1 2.1.1 2.1c-.9.2-1.6.3-2 .3-1.2 0-2-.3-2.5-.8s-.7-1.5-.7-3v-4.2h-1.2v-2.3h1.2v-2.8h2.7v2.8h2.5v2.3z"/><path d="m818.2 40.9c.7-.9 1.9-1.4 3.5-1.4s2.8.5 3.5 1.4 1.1 2.2 1.1 3.9c0 3.5-1.5 5.3-4.6 5.3s-4.6-1.8-4.6-5.3.4-2.9 1.1-3.9zm2 6.1c.3.5.8.7 1.5.7s1.2-.2 1.5-.7.4-1.2.4-2.3-.1-1.8-.4-2.2-.8-.7-1.5-.7-1.2.2-1.5.7-.4 1.2-.4 2.2.1 1.8.4 2.3z"/><path d="m878.5 117.4v-13.6h2.8v13.6z"/><path d="m886.6 117.4h-2.7v-10h2.7v.6c.9-.5 1.7-.8 2.5-.8 1.3 0 2.3.4 2.8 1.2s.8 2 .8 3.6v5.4h-2.7v-5.3c0-.9-.1-1.5-.3-1.9s-.6-.6-1.2-.6-1.1 0-1.6.3h-.2v7.6z"/><path d="m900.5 109.7h-2.5v4.1.8c0 .2 0 .3.2.4.1.1.3.2.6.2h1.5s.1 2.1.1 2.1c-.9.2-1.6.3-2 .3-1.2 0-2-.3-2.5-.8-.4-.5-.7-1.5-.7-3v-4.2h-1.2v-2.3h1.2v-2.8h2.7v2.8h2.5v2.3z"/><path d="m905 114.9c.3.3.8.4 1.3.4 1.2 0 2.3 0 3.3-.1h.6v1.9c-1.5.4-2.9.6-4.2.6s-2.6-.4-3.3-1.2-1-2.1-1-3.9c0-3.6 1.5-5.4 4.4-5.4s4.4 1.5 4.4 4.5l-.2 1.9h-5.9c0 .6.2 1.1.5 1.3zm2.9-3.4c0-.8-.1-1.4-.4-1.7s-.7-.5-1.3-.5-1.1.2-1.3.5c-.3.3-.4.9-.4 1.6h3.5z"/><path d="m921.5 118.6c0 1.1-.4 2-1.3 2.5s-2.1.8-3.6.8-2.7-.2-3.5-.6-1.2-1.1-1.2-2.2.5-1.6 1.4-2.4c-.5-.3-.7-.8-.7-1.5s.2-.7.6-1.3l.2-.3c-.9-.7-1.4-1.6-1.4-2.9s.4-2.2 1.1-2.8 1.8-.9 3.1-.9 1.1 0 1.7.2h.3 3.2v2.1h-1.5c.3.3.4.8.4 1.2 0 1.3-.3 2.3-1 2.8s-1.7.8-3.2.8-.6 0-.8 0c-.1.3-.2.6-.2.9s.1.4.3.5.8.1 1.6.1c1.7 0 2.8.2 3.4.7.6.4.9 1.2.9 2.4zm-6.9.3c0 .6.7.9 2.1.9s2.1-.3 2.1-1-.1-.6-.4-.7c-.2-.1-.7-.2-1.5-.2h-1.8c-.4.2-.5.6-.5 1zm.2-8.2c0 1 .5 1.5 1.5 1.5s1.5-.5 1.5-1.5-.5-1.5-1.5-1.5-1.5.5-1.5 1.5z"/><path d="m923.2 117.4v-10h2.7v1.1c1.1-.7 2.2-1.1 3.2-1.3v2.7c-1.1.2-2 .5-2.8.7h-.4v6.8z"/><path d="m938.3 110.5v4.2c0 .3 0 .5.2.7 0 .1.2.2.5.3v2c-.8 0-1.3 0-1.7-.1-.4 0-.8-.3-1.2-.6-1 .5-1.9.7-2.9.7-2.1 0-3.1-1.1-3.1-3.3s.3-1.8.9-2.3c.6-.4 1.5-.7 2.6-.8l2.1-.2v-.6c0-.4 0-.7-.3-.9-.2-.2-.5-.2-.9-.2l-3.8.2v-1.9c1.3-.4 2.7-.6 4-.6s2.2.3 2.8.8.9 1.4.9 2.6zm-4.5 2.6c-.7 0-1.1.5-1.1 1.2s.3 1.1 1 1.1 1.1 0 1.7-.2h.3v-2.2l-1.8.2z"/><path d="m946.6 118.5c.4.2.6.7.6 1.5s-.2 1.3-.6 1.7-.9.6-1.6.6-1.1 0-1.6-.2h-.3v-1.6h1c.5 0 .8-.2.8-.5s-.3-.4-.8-.4h-.5v-1.9c-1.2-.1-2-.6-2.5-1.5-.5-.8-.8-2.1-.8-3.9s.3-3 1-3.8 1.7-1.2 3.2-1.2 1.6.1 2.7.3h.5v2.2c-1.1-.1-1.8-.2-2.3-.2-.9 0-1.5.2-1.8.6s-.5 1.1-.5 2.2.1 1.8.5 2.2c.3.4.9.6 1.8.6l2.3-.2v2.1c-1.2.3-2.2.4-3 .4v.5c.9 0 1.5.1 1.9.4z"/><path d="m957.4 110.5v4.2c0 .3 0 .5.2.7 0 .1.2.2.5.3v2c-.8 0-1.3 0-1.7-.1-.4 0-.8-.3-1.2-.6-1 .5-1.9.7-2.9.7-2.1 0-3.1-1.1-3.1-3.3s.3-1.8.9-2.3c.6-.4 1.5-.7 2.6-.8l2.1-.2v-.6c0-.4 0-.7-.3-.9-.2-.2-.5-.2-.9-.2l-3.8.2v-1.9c1.3-.4 2.7-.6 4-.6s2.2.3 2.8.8.9 1.4.9 2.6zm-1.3-5.7c-.1.1-.4.3-.8.5s-.7.3-1 .3-.8-.1-1.4-.4c-.6-.2-1-.4-1.2-.4-.4 0-.8.2-1.3.5l-.3.2-.6-1.5c.3-.3.6-.6 1-.8s.8-.4 1.1-.4.8.1 1.4.4c.6.2 1 .4 1.2.4.3 0 .8-.2 1.3-.5l.3-.2.6 1.5s-.2.2-.3.4zm-3.2 8.3c-.7 0-1.1.5-1.1 1.2s.3 1.1 1 1.1 1.1 0 1.7-.2h.3v-2.2l-1.8.2z"/><path d="m960.5 108.5c.7-.9 1.9-1.4 3.5-1.4s2.8.5 3.5 1.4 1.1 2.2 1.1 3.8c0 3.5-1.5 5.3-4.6 5.3s-4.6-1.8-4.6-5.3.4-2.9 1.1-3.8zm2.1 6.1c.3.5.8.7 1.5.7s1.2-.2 1.5-.7.4-1.2.4-2.3-.1-1.8-.4-2.2-.8-.7-1.5-.7-1.2.2-1.5.7-.4 1.2-.4 2.2.1 1.8.4 2.3z"/><path d="m1021.2 8.6v-2.4h10v2.4h-3.6v11.2h-2.8v-11.2z"/><path d="m1034 17.3c.3.3.8.4 1.3.4 1.2 0 2.3 0 3.3-.1h.6v1.9c-1.5.4-2.9.6-4.2.6s-2.6-.4-3.3-1.2-1-2.1-1-3.9c0-3.6 1.5-5.4 4.4-5.4s4.4 1.5 4.4 4.5l-.2 1.9h-5.9c0 .6.2 1.1.5 1.3zm2.9-3.4c0-.8-.1-1.4-.4-1.7s-.7-.5-1.3-.5-1.1.2-1.3.5-.4.9-.4 1.6h3.5z"/><path d="m1048.7 12.3c-1.7-.2-2.8-.3-3.5-.3s-1.1 0-1.3.2c-.2.1-.3.3-.3.6s.1.4.4.5c.3 0 .9.2 2 .4s1.8.5 2.3.9.7 1.2.7 2.1c0 2.2-1.3 3.2-4 3.2s-1.9-.1-3.2-.4h-.6c0-.1 0-2.4 0-2.4 1.7.2 2.8.3 3.5.3s1.1 0 1.3-.2c.2-.1.4-.3.4-.6s-.1-.4-.4-.6c-.2-.1-.9-.3-1.9-.4-1-.2-1.8-.5-2.3-.9s-.8-1.2-.8-2.2.4-1.9 1.1-2.4 1.6-.8 2.8-.8 1.9.1 3.2.4h.7v2.3z"/><path d="m1056.5 12.1h-2.5v4.1.9c0 .2 0 .3.2.4.1.1.3.2.6.2h1.5s.1 2.1.1 2.1c-.9.2-1.6.3-2 .3-1.2 0-2-.3-2.5-.8s-.7-1.5-.7-3v-4.2h-1.2v-2.3h1.2v-2.8h2.7v2.8h2.5v2.3z"/><path d="m1060.9 17.3c.3.3.8.4 1.3.4 1.2 0 2.3 0 3.3-.1h.6v1.9c-1.5.4-2.9.6-4.2.6s-2.6-.4-3.3-1.2-1-2.1-1-3.9c0-3.6 1.5-5.4 4.4-5.4s4.4 1.5 4.4 4.5l-.2 1.9h-5.9c0 .6.2 1.1.5 1.3zm2.9-3.4c0-.8-.1-1.4-.4-1.7s-.7-.5-1.3-.5-1.1.2-1.3.5-.4.9-.4 1.6h3.5z"/><path d="m1075.6 12.3c-1.7-.2-2.8-.3-3.5-.3s-1.1 0-1.3.2c-.2.1-.3.3-.3.6s.1.4.4.5c.3 0 .9.2 2 .4s1.8.5 2.3.9.7 1.2.7 2.1c0 2.2-1.3 3.2-4 3.2s-1.9-.1-3.2-.4h-.6c0-.1 0-2.4 0-2.4 1.7.2 2.8.3 3.5.3s1.1 0 1.3-.2c.2-.1.4-.3.4-.6s-.1-.4-.4-.6c-.2-.1-.9-.3-1.9-.4-1-.2-1.8-.5-2.3-.9s-.8-1.2-.8-2.2.4-1.9 1.1-2.4 1.6-.8 2.8-.8 1.9.1 3.2.4h.7v2.3z"/><path d="m1084.9 17.3c.3.3.8.4 1.3.4 1.2 0 2.3 0 3.3-.1h.6v1.9c-1.5.4-2.9.6-4.2.6s-2.6-.4-3.3-1.2-1-2.1-1-3.9c0-3.6 1.5-5.4 4.4-5.4s4.4 1.5 4.4 4.5l-.2 1.9h-5.9c0 .6.2 1.1.5 1.3zm3-3.4c0-.8-.1-1.4-.4-1.7s-.7-.5-1.3-.5-1.1.2-1.3.5-.4.9-.4 1.6h3.5z"/><path d="m1102.7 14.9v-2.4h4v7.1c-1.9.3-3.5.5-4.6.5-2.1 0-3.6-.6-4.4-1.7s-1.2-2.9-1.2-5.4.4-4.2 1.2-5.3 2.2-1.6 4.2-1.6 2.6.1 4 .4h.7v2.3c-1.6-.2-2.9-.3-3.9-.3s-1.7.1-2.1.4c-.4.2-.7.7-.9 1.3s-.3 1.8-.3 3.3.2 2.7.6 3.3 1.2.9 2.4.9h1.7v-2.7h-1.2z"/><path d="m1116.7 12.9v4.2c0 .3 0 .5.2.7 0 .1.2.2.5.3v2c-.8 0-1.3 0-1.7-.1-.4 0-.8-.3-1.2-.6-1 .5-1.9.7-2.9.7-2.1 0-3.1-1.1-3.1-3.3s.3-1.8.9-2.3c.6-.4 1.5-.7 2.6-.8l2.1-.2v-.6c0-.4 0-.7-.3-.9-.2-.2-.5-.2-.9-.2l-3.8.2v-1.9c1.3-.4 2.7-.6 4-.6s2.2.3 2.8.8.9 1.4.9 2.6zm-4.5 2.7c-.7 0-1.1.5-1.1 1.2s.3 1.1 1 1.1 1.1 0 1.7-.2h.3v-2.2l-1.8.2z"/><path d="m1119.3 19.8v-10h2.7v1.1c1.1-.7 2.2-1.1 3.2-1.3v2.7c-1.1.2-2 .5-2.8.7h-.4v6.8z"/><path d="m1134.4 12.9v4.2c0 .3 0 .5.2.7 0 .1.2.2.5.3v2c-.8 0-1.3 0-1.7-.1-.4 0-.8-.3-1.2-.6-1 .5-1.9.7-2.9.7-2.1 0-3.1-1.1-3.1-3.3s.3-1.8.9-2.3c.6-.4 1.5-.7 2.6-.8l2.1-.2v-.6c0-.4 0-.7-.3-.9s-.5-.2-.9-.2l-3.8.2v-1.9c1.3-.4 2.7-.6 4-.6s2.2.3 2.8.8.8 1.4.8 2.6zm-4.5 2.7c-.7 0-1.1.5-1.1 1.2s.3 1.1 1 1.1 1.1 0 1.7-.2h.3v-2.2l-1.8.2z"/><path d="m1139.6 19.8h-2.7v-10h2.7v.6c.9-.5 1.7-.8 2.5-.8 1.3 0 2.3.4 2.8 1.2s.8 2 .8 3.6v5.4h-2.7v-5.3c0-.9-.1-1.5-.3-1.9s-.6-.6-1.2-.6-1.1 0-1.6.3h-.2v7.6z"/><path d="m1153.5 12.1h-2.5v4.1.9c0 .2 0 .3.2.4.1.1.3.2.6.2h1.5s.1 2.1.1 2.1c-.9.2-1.6.3-2 .3-1.2 0-2-.3-2.5-.8-.4-.5-.7-1.5-.7-3v-4.2h-1.2v-2.3h1.2v-2.8h2.7v2.8h2.5v2.3z"/><path d="m1155.3 8.5v-2.7h2.7v2.7zm0 11.3v-10h2.7v10z"/><path d="m1168.1 12.9v4.2c0 .3 0 .5.2.7 0 .1.2.2.5.3v2c-.8 0-1.3 0-1.7-.1-.4 0-.8-.3-1.2-.6-1 .5-1.9.7-2.9.7-2.1 0-3.1-1.1-3.1-3.3s.3-1.8.9-2.3c.6-.4 1.5-.7 2.6-.8l2.1-.2v-.6c0-.4 0-.7-.3-.9s-.5-.2-.9-.2l-3.8.2v-1.9c1.3-.4 2.7-.6 4-.6s2.2.3 2.8.8.8 1.4.8 2.6zm-4.5 2.7c-.7 0-1.1.5-1.1 1.2s.3 1.1 1 1.1 1.1 0 1.7-.2h.3v-2.2l-1.8.2z"/><path d="m1048.5 35.8v14h-2.7v-.4c-.9.4-1.7.7-2.4.7-1.5 0-2.5-.4-3-1.3s-.9-2.2-.9-4 .3-3.1 1-4c.7-.8 1.7-1.2 3.1-1.2s1 0 1.8.2h.4v-4zm-3 11.6h.3v-5.3c-.7-.1-1.4-.2-2-.2-1.1 0-1.6 1-1.6 2.9s.1 1.8.4 2.2c.2.4.6.7 1.2.7s1.1 0 1.8-.2z"/><path d="m1053.6 47.3c.3.3.8.4 1.3.4 1.2 0 2.3 0 3.3-.1h.6v1.9c-1.5.4-2.9.6-4.2.6s-2.6-.4-3.3-1.2-1-2.1-1-3.9c0-3.6 1.5-5.4 4.4-5.4s4.4 1.5 4.4 4.5l-.2 1.9h-5.9c0 .6.2 1.1.5 1.3zm3-3.4c0-.8-.1-1.4-.4-1.7s-.7-.5-1.3-.5-1.1.2-1.3.5c-.3.3-.4.9-.4 1.6h3.5z"/><path d="m1070.8 50c-2.1 0-3.5-.6-4.4-1.7s-1.3-2.9-1.3-5.3.4-4.2 1.3-5.4 2.3-1.8 4.4-1.8 3.5.6 4.4 1.8 1.3 3 1.3 5.4-.7 5-2.1 6l1.7 2.7-2.5 1.2-1.8-2.9c-.1 0-.4 0-.9 0zm-2.2-3.4c.4.7 1.1 1 2.2 1s1.8-.3 2.2-1 .6-1.9.6-3.5-.2-2.9-.6-3.6-1.1-1.1-2.2-1.1-1.8.4-2.2 1.1-.6 1.9-.6 3.6.2 2.8.6 3.5z"/><path d="m1084.5 39.8h2.7v10h-2.7v-.6c-1 .5-1.8.8-2.5.8-1.4 0-2.3-.4-2.8-1.2s-.7-2-.7-3.8v-5.2h2.7v5.3c0 1 0 1.7.2 2 .2.4.5.5 1.2.5s1.1 0 1.7-.3h.3v-7.6z"/><path d="m1097.3 42.9v4.2c0 .3 0 .5.2.7 0 .1.2.2.5.3v2c-.8 0-1.3 0-1.7-.1-.4 0-.8-.3-1.2-.6-1 .5-1.9.7-2.9.7-2.1 0-3.1-1.1-3.1-3.3s.3-1.8.9-2.3c.6-.4 1.5-.7 2.6-.8l2.1-.2v-.6c0-.4 0-.7-.3-.9-.2-.2-.5-.2-.9-.2l-3.8.2v-1.9c1.3-.4 2.7-.6 4-.6s2.2.3 2.8.8.9 1.4.9 2.6zm-4.5 2.7c-.7 0-1.1.5-1.1 1.2s.3 1.1 1 1.1 1.1 0 1.7-.2h.3v-2.2l-1.8.2z"/><path d="m1100 49.8v-14h2.7v14z"/><path d="m1105.3 38.5v-2.7h2.7v2.7zm0 11.3v-10h2.7v10z"/><path d="m1118.9 35.8v14h-2.7v-.4c-.9.4-1.7.7-2.4.7-1.5 0-2.5-.4-3-1.3-.6-.8-.9-2.2-.9-4s.3-3.1 1-4c.7-.8 1.7-1.2 3.1-1.2s1 0 1.8.2h.4v-4zm-2.9 11.6h.3v-5.3c-.7-.1-1.4-.2-2-.2-1.1 0-1.6 1-1.6 2.9s.1 1.8.4 2.2.6.7 1.2.7 1.1 0 1.8-.2z"/><path d="m1129.1 42.9v4.2c0 .3 0 .5.2.7 0 .1.2.2.5.3v2c-.8 0-1.3 0-1.7-.1-.4 0-.8-.3-1.2-.6-1 .5-1.9.7-2.9.7-2.1 0-3.1-1.1-3.1-3.3s.3-1.8.9-2.3c.6-.4 1.5-.7 2.6-.8l2.1-.2v-.6c0-.4 0-.7-.3-.9-.2-.2-.5-.2-.9-.2l-3.8.2v-1.9c1.3-.4 2.7-.6 4-.6s2.2.3 2.8.8.9 1.4.9 2.6zm-4.5 2.7c-.7 0-1.1.5-1.1 1.2s.3 1.1 1 1.1 1.1 0 1.7-.2h.3v-2.2l-1.8.2z"/><path d="m1140.1 35.8v14h-2.7v-.4c-.9.4-1.7.7-2.4.7-1.5 0-2.5-.4-3-1.3s-.9-2.2-.9-4 .3-3.1 1-4c.7-.8 1.7-1.2 3.1-1.2s1 0 1.8.2h.4v-4zm-2.9 11.6h.3v-5.3c-.7-.1-1.4-.2-2-.2-1.1 0-1.6 1-1.6 2.9s.1 1.8.4 2.2c.2.4.6.7 1.2.7s1.1 0 1.8-.2z"/><path d="m1145.3 47.3c.3.3.8.4 1.3.4 1.2 0 2.3 0 3.3-.1h.6v1.9c-1.5.4-2.9.6-4.2.6s-2.6-.4-3.3-1.2-1-2.1-1-3.9c0-3.6 1.5-5.4 4.4-5.4s4.4 1.5 4.4 4.5l-.2 1.9h-5.9c0 .6.2 1.1.5 1.3zm3-3.4c0-.8-.1-1.4-.4-1.7s-.7-.5-1.3-.5-1.1.2-1.3.5c-.3.3-.4.9-.4 1.6h3.5z"/><path d="m1229.9 118.5v-13.6h4.7l2.4 9.9 2.4-9.9h4.7v13.6h-2.8v-10.5h-.3l-2.7 9.9h-2.8l-2.7-9.9h-.3v10.5h-2.8z"/><path d="m1249.4 116c.3.3.8.4 1.3.4 1.2 0 2.3 0 3.3-.1h.6v1.9c-1.5.4-2.9.6-4.2.6s-2.6-.4-3.3-1.2-1-2.1-1-3.9c0-3.6 1.5-5.4 4.4-5.4s4.4 1.5 4.4 4.5l-.2 1.9h-5.9c0 .6.2 1.1.5 1.3zm3-3.4c0-.8-.1-1.4-.4-1.7s-.7-.5-1.3-.5-1.1.2-1.3.5c-.3.3-.4.9-.4 1.6h3.5z"/><path d="m1256.9 118.5v-10h2.7v1.1c1.1-.7 2.2-1.1 3.2-1.3v2.7c-1.1.2-2 .5-2.8.7h-.4v6.8z"/><path d="m1268.1 108.3c.7 0 1.6.1 2.7.3h.5v2.2c-1.1-.1-1.8-.2-2.3-.2-.9 0-1.5.2-1.8.6s-.5 1.1-.5 2.2.1 1.8.5 2.2c.3.4.9.6 1.8.6l2.3-.2v2.1c-1.3.3-2.4.4-3.2.4-1.5 0-2.5-.4-3.2-1.2-.6-.8-1-2.2-1-4s.3-3.2 1-4 1.7-1.2 3.2-1.2z"/><path d="m1281 111.7v4.2c0 .3 0 .5.2.7 0 .1.2.2.5.3v2c-.8 0-1.3 0-1.7-.1-.4 0-.8-.3-1.2-.6-1 .5-1.9.7-2.9.7-2.1 0-3.1-1.1-3.1-3.3s.3-1.8.9-2.3c.6-.4 1.5-.7 2.6-.8l2.1-.2v-.6c0-.4 0-.7-.3-.9-.2-.2-.5-.2-.9-.2l-3.8.2v-1.9c1.3-.4 2.7-.6 4-.6s2.2.3 2.8.8.9 1.4.9 2.6zm-4.5 2.6c-.7 0-1.1.5-1.1 1.2s.3 1.1 1 1.1 1.1 0 1.7-.2h.3v-2.2l-1.8.2z"/><path d="m1292 104.5v14h-2.7v-.4c-.9.4-1.7.7-2.4.7-1.5 0-2.5-.4-3-1.3s-.9-2.2-.9-4 .3-3.1 1-4 1.7-1.2 3.1-1.2 1 0 1.8.2h.4v-4zm-2.9 11.6h.3v-5.3c-.7-.1-1.4-.2-2-.2-1.1 0-1.6 1-1.6 2.9s.1 1.8.4 2.2c.2.4.6.7 1.2.7s1.1 0 1.8-.2z"/><path d="m1295 109.7c.7-.9 1.9-1.4 3.5-1.4s2.8.5 3.5 1.4 1.1 2.2 1.1 3.8c0 3.5-1.5 5.3-4.6 5.3s-4.6-1.8-4.6-5.3.4-2.9 1.1-3.8zm2.1 6.1c.3.5.8.7 1.5.7s1.2-.2 1.5-.7.4-1.2.4-2.3-.1-1.8-.4-2.2c-.3-.5-.8-.7-1.5-.7s-1.2.2-1.5.7-.4 1.2-.4 2.2.1 1.8.4 2.3z"/></g></svg>