<svg fill="none" height="72" viewBox="0 0 72 72" width="72" xmlns="http://www.w3.org/2000/svg"><g stroke="#fff" stroke-miterlimit="10"><path d="m45.4953 13.6123h-19.0141c-2.0815 0-3.7689 1.7727-3.7689 3.9595v37.7297c0 2.1868 1.6874 3.9595 3.7689 3.9595h19.0141c2.0815 0 3.7689-1.7727 3.7689-3.9595v-37.7297c0-2.1868-1.6874-3.9595-3.7689-3.9595z"/><path d="m49.2642 50.3296h-26.5519"/><path d="m45.3306 19.5664h-18.6847" stroke-linecap="round"/></g><path d="m35.9881 56.1784c.9271 0 1.6786-.7515 1.6786-1.6785 0-.9271-.7515-1.6786-1.6786-1.6786-.927 0-1.6785.7515-1.6785 1.6786 0 .927.7515 1.6785 1.6785 1.6785z" fill="#fff"/><path d="m28.565 41.3984h14.8464c1.0594 0 1.9192.819 1.9192 1.828v7.1033h-18.6847v-7.1033c0-1.009.8597-1.828 1.9191-1.828z" stroke="#fff" stroke-miterlimit="10"/><path d="m43.4114 24.5283h-14.8464c-1.0599 0-1.9191.905-1.9191 2.0214v8.8579c0 1.1164.8592 2.0214 1.9191 2.0214h14.8464c1.06 0 1.9192-.905 1.9192-2.0214v-8.8579c0-1.1164-.8592-2.0214-1.9192-2.0214z" stroke="#fff" stroke-miterlimit="10"/><circle cx="36" cy="36" r="34" stroke="#005bbf" stroke-width="2"/></svg>