<svg fill="none" height="72" viewBox="0 0 72 72" width="72" xmlns="http://www.w3.org/2000/svg"><g stroke="#fff" stroke-linecap="round" stroke-miterlimit="10"><path d="m29.3112 28.1692c-9.3644 0-7.0926-12.9837-.121-12.9837 7.4948 0 6.9717 8.7028 6.9717 8.7028"/><path d="m30.9665 25.0698c-2.2289 1.397-2.3655 5.2084.5933 6.1945"/><path d="m22.7612 22.6162s-2.6231-.2426-4.4851 3.377c-2.104 4.0853.2771 6.1122 1.8424 6.5075"/><path d="m23.4014 29.9497c-3.9581 1.3187-4.204 4.7466-3.9425 6.5897"/><path d="m17.5034 29.4644c-1.0696 1.2756-2.4826 2.8565-2.4826 7.0748 0 2.7627 1.8073 4.3514 3.2555 5.2749"/><path d="m24.0612 39.3095c-1.577-.133-6.554 1.6709-6.5891 7.251-.0195 3.1657 1.8658 5.5566 5.2892 5.2905"/><path d="m28.761 44.8467c-1.698.2622-7.9943 2.8996-4.6998 9.7553 3.1111 6.4762 11.9838 1.4518 12.1048-1.0565"/><path d="m30.4355 38.2529c-4.1065 3.9562-1.1242 10.0176 2.022 10.0176"/><path d="m43.0243 28.1692c9.3645 0 7.0926-12.9837.121-12.9837-7.4947 0-6.9717 8.7028-6.9717 8.7028"/><path d="m41.3692 25.0698c2.2289 1.397 2.3655 5.2084-.5933 6.1945"/><path d="m49.5745 22.6162s2.6231-.2426 4.4851 3.377c2.104 4.0853-.2772 6.1122-1.8425 6.5075"/><path d="m48.9343 29.9497c3.9582 1.3187 4.2041 4.7466 3.9426 6.5897"/><path d="m54.8325 29.4644c1.0695 1.2756 2.4826 2.8565 2.4826 7.0748 0 2.7627-1.8073 4.3514-3.2555 5.2749"/><path d="m48.2747 39.3095c1.577-.133 6.5539 1.6709 6.5891 7.251.0195 3.1657-1.8659 5.5566-5.2893 5.2905"/><path d="m41.9002 38.2529c4.1065 3.9562 1.1242 10.0176-2.022 10.0176"/><path d="m36.166 35.0171v18.5285c.1249 2.5044 8.9937 7.5327 12.1048 1.0565 3.2945-6.8557-3.0018-9.4931-4.6998-9.7553"/></g><circle cx="36" cy="36" r="34" stroke="#005bbf" stroke-width="2"/></svg>