<svg fill="none" height="40" viewBox="0 0 135 40" width="135" xmlns="http://www.w3.org/2000/svg"><path d="m47.1333 11.7185c1.2135-1.2064 2.5118-1.8727 4.0243-2.10714 2.9081-.45106 5.4514.30477 7.5585 2.39404 4.2296 4.1927 4.0776 11.6033-.3592 15.3107-3.0286 2.531-6.498 2.9788-10.0907 1.5379-3.5455-1.4221-5.4088-4.2672-5.8784-8.0628-.0704-.5701-.0917-1.1492-.0927-1.724-.0069-4.6541-.006-9.30814-.0027-13.96173.0009-1.37427.7198-2.38189 1.8573-2.6332 1.5666-.3465 2.9614.76239 2.9781 2.40439.0203 1.99741.0051 3.99482.0051 5.99224v.8505zm9.8224 7.856c-.0097-1.5679-.4983-2.9535-1.5797-4.0905-1.7683-1.8591-4.5415-1.9392-6.428-.2058-2.2383 2.0565-2.4381 5.8075-.4311 8.0928 2.0492 2.3336 5.457 2.2051 7.3087-.2818.7727-1.0376 1.1408-2.215 1.1306-3.5152z" fill="#fff"/><path d="m74.9295 16.3683c.4588-3.7341 3.5574-6.56423 7.2549-6.86899 1.3753-.11347 2.7236-.05064 4.0447.36009 3.0239.9392 5.139 3.4692 5.3735 6.658.1567 2.1311.1048 4.278.1321 6.4185.0153 1.1942.0084 2.3894.0014 3.5836-.0093 1.537-1.0086 2.6205-2.4094 2.6252-1.4053.0042-2.4241-1.0761-2.4288-2.6041-.0083-2.7598 0-5.5201-.0051-8.2799-.0005-.3695 0-.745-.0607-1.1079-.3004-1.8005-1.3076-2.7411-3.1014-2.9277-1.931-.2007-3.5932.8791-4.0136 2.6529-.1122.4736-.1261.9795-.1284 1.4704-.012 2.6984.001 5.3963-.0092 8.0947-.0051 1.3311-.5655 2.2009-1.6084 2.5689-1.544.5449-3.1598-.5593-3.1886-2.2135-.0278-1.6059-.006-3.2132-.006-4.8196-.0209-.0005-.0746-3.7604.153-5.6101z" fill="#fff"/><path d="m16.954 33.3652c-8.84621-.0248-15.973703-7.2638-15.954235-16.2024.019935-8.92554 7.217415-16.185605 16.024235-16.163099 8.8481.022979 15.9524 7.336959 15.9167 16.387199-.0343 8.8017-7.2397 16.0032-15.9872 15.9783zm14.3565-16.1827c-.0121-8.09329-6.3998-14.53892-14.3982-14.52908-7.91873.00985-14.28884 6.51972-14.27864 14.59238.00973 8.0252 6.45168 14.5342 14.37134 14.521 7.915-.0126 14.318-6.5408 14.3055-14.5848z" fill="#ea5d24"/><path d="m110.193 9.91332c.455 0 .837-.01078 1.217.00187 1.262.0422 2.174.91011 2.208 2.09121.036 1.2383-.811 2.1521-2.106 2.2464-.403.0295-.81.0046-1.271.0046-.018.2251-.043.4014-.043.5782-.003 2.1413-.008 4.2827.005 6.424.002.4084.052.8234.134 1.2238.247 1.2013.971 1.8924 2.173 2.1188.18.0338.36.0676.54.1051 1.23.2574 1.937 1.2481 1.802 2.5258-.118 1.1131-1.047 1.9182-2.234 1.9351-4.007.0562-6.859-2.5512-7.144-6.6337-.126-1.8038-.1-3.6197-.109-5.4305-.015-3.1504-.01-6.3008-.001-9.45066.004-1.57261 1.023-2.63508 2.472-2.61164 1.292.02064 2.313 1.0259 2.353 2.34907.024.81678.004 1.63497.004 2.52302z" fill="#fff"/><path d="m96.172 19.5792c0-2.3467-.0038-4.693.0013-7.0397.0033-1.5168 1.0304-2.62618 2.414-2.62243 1.3535.00328 2.4087 1.09393 2.4127 2.57273.015 4.693.014 9.3864.001 14.0794-.004 1.5248-1.0481 2.5905-2.4554 2.575-1.3743-.015-2.3685-1.092-2.3718-2.5872-.0051-2.3261-.0014-4.6517-.0014-6.9778z" fill="#fff"/><path d="m117.573 38.992c-1.127-.0047-2.002-.6269-2.349-1.6312-.326-.9448-.091-2.0438.715-2.6135.457-.3235 1.069-.5866 1.614-.5922 4.659-.0459 9.319-.0366 13.979-.0197 1.405.0052 2.484 1.1136 2.468 2.4489-.017 1.349-1.095 2.3998-2.509 2.4073-2.319.0126-11.599.0098-13.918.0004z" fill="#ea5d24"/><path d="m70.2619 19.5089c0 2.4283.0329 4.8575-.0112 7.2849-.0319 1.7554-1.7813 2.8578-3.3428 2.1469-.992-.4515-1.4411-1.2636-1.4383-2.3654.0092-3.8692.0032-7.7379.0032-11.607 0-.8642-.0111-1.7288.0042-2.5929.0255-1.3963 1.0503-2.44708 2.3774-2.45974 1.3182-.01219 2.3857 1.03014 2.4024 2.43114.0278 2.387.0078 4.7745.0078 7.1616-.0009 0-.0018 0-.0027 0z" fill="#fff"/><path d="m70.2614 4.04347c.006 1.36161-1.0341 2.44847-2.3616 2.46769-1.3428.01969-2.4302-1.08732-2.4242-2.46675.006-1.35599 1.0661-2.43394 2.3931-2.43347 1.3289 0 2.3867 1.07607 2.3927 2.43253z" fill="#fff"/><g fill="#ea5d24"><path d="m96.1937 36.5909c-.0148-1.3264 1.081-2.4555 2.3881-2.4597 1.283-.0042 2.3502 1.0812 2.3662 2.4053.015 1.3485-1.06 2.4616-2.3741 2.4574-1.2802-.0042-2.3653-1.0995-2.3802-2.403z"/><path d="m21.454 17.2297c0 1.6682.0112 3.3369-.0027 5.0047-.0195 2.3355-1.715 4.2138-4.0488 4.5106-2.0544.2612-4.1249-1.1745-4.7163-3.2957-.1145-.4108-.1882-.8487-.1901-1.2744-.0153-3.3159-.0227-6.6323-.0037-9.9482.0135-2.28103 1.5672-4.13168 3.7499-4.53304 2.026-.37275 4.1378.83413 4.8803 2.85074.2012.5467.3022 1.1577.3171 1.7424.0417 1.6467.0143 3.2952.0143 4.9429zm-1.6352-.0085c0-1.6889.0065-3.3773-.0019-5.0662-.0079-1.5965-1.2538-2.86341-2.8205-2.88545-1.5648-.02203-2.8673 1.27955-2.8715 2.90145-.0088 3.3566-.0097 6.7138 0 10.0705.0051 1.633 1.2701 2.8718 2.8868 2.8634 1.5695-.0085 2.7978-1.2618 2.8052-2.8789.0079-1.6683.0019-3.3365.0019-5.0043z"/><path d="m16.9672 15.4006c.65 0 1.1769-.533 1.1769-1.1905s-.5269-1.1905-1.1769-1.1905-1.1769.533-1.1769 1.1905.5269 1.1905 1.1769 1.1905z"/></g></svg>