<svg fill="none" height="72" viewBox="0 0 72 72" width="72" xmlns="http://www.w3.org/2000/svg"><g stroke="#fff" stroke-miterlimit="10"><path d="m35.9832 10.7012c-2.6 0-4.7187 2.1233-4.7187 4.7319 0 2.6087 2.1187 4.7489 4.7187 4.7489 1.2566 0 2.4405-.4937 3.3305-1.3885.8928-.8976 1.3826-2.0953 1.3798-3.3604 0-2.6086-2.1131-4.7319-4.7075-4.7319z"/><path d="m36.1148 23.2871c4.6487 0 8.4213 3.7811 8.4213 8.4402v.1879h-16.8427v-.1879c0-4.6591 3.7727-8.4402 8.4214-8.4402z"/><path d="m21.9895 35.0874c-2.6 0-4.7186 2.1234-4.7186 4.732s2.1186 4.7488 4.7186 4.7488c1.2567 0 2.4405-.4937 3.3305-1.3885.8928-.8976 1.3826-2.0953 1.3798-3.3603 0-2.6086-2.113-4.732-4.7075-4.732z"/><path d="m22.1211 47.6733c4.6487 0 8.4214 3.7811 8.4214 8.4402v.1879h-16.8428v-.1879c0-4.6591 3.7727-8.4402 8.4214-8.4402z"/><path d="m49.9768 35.0874c-2.6 0-4.7186 2.1234-4.7186 4.732s2.1186 4.7488 4.7186 4.7488c1.2567 0 2.4405-.4937 3.3305-1.3885.8928-.8976 1.3826-2.0953 1.3798-3.3603 0-2.6086-2.113-4.732-4.7075-4.732z"/><path d="m50.1084 47.6733c4.6487 0 8.4214 3.7811 8.4214 8.4402v.1879h-16.8428v-.1879c0-4.6591 3.7727-8.4402 8.4214-8.4402z"/><path d="m36.1148 31.9126v8.025l-11.7659 8.2606"/><path d="m36.2072 31.9126v8.025l11.7658 8.2606"/></g><circle cx="36" cy="36" r="34" stroke="#005bbf" stroke-width="2"/></svg>