<svg fill="none" height="72" viewBox="0 0 72 72" width="72" xmlns="http://www.w3.org/2000/svg"><g stroke="#fff"><g stroke-miterlimit="10"><path d="m36 36.727c5.3504 0 9.6879-4.461 9.6879-9.9641 0-5.503-4.3375-9.9641-9.6879-9.9641-5.3505 0-9.6879 4.4611-9.6879 9.9641 0 5.5031 4.3374 9.9641 9.6879 9.9641z"/><path d="m20.4646 54.2012c5.3504 0 9.6879-4.4611 9.6879-9.9641 0-5.5031-4.3375-9.9642-9.6879-9.9642-5.3505 0-9.6879 4.4611-9.6879 9.9642 0 5.503 4.3374 9.9641 9.6879 9.9641z"/><path d="m51.5354 54.2012c5.3504 0 9.6879-4.4611 9.6879-9.9641 0-5.5031-4.3375-9.9642-9.6879-9.9642-5.3505 0-9.6879 4.4611-9.6879 9.9642 0 5.503 4.3374 9.9641 9.6879 9.9641z"/><path d="m42.7113 48.3467h-13.4568"/><path d="m38.8834 36.3213 3.5359 4.5378"/><path d="m29.5808 40.8591 3.5359-4.5378"/><path d="m34.2197 24.165c.2703-.3036.2703-.7702 0-1.0737l-1.2522-1.4093c-.3355-.3803-.929-.3388-1.2117.083l-1.1372 1.697c-.2237.3323-.1491.7605-.0839 1.0673.3697 1.7608 4.0889 6.7237 8.2431 7.5226.3449.0671.7736.131 1.0657-.1374l1.4261-1.3582c.3822-.3451.3387-.9714-.0869-1.259l-1.6592-1.1281c-.3294-.2237-.7706-.1566-1.0223.1534l-.3262.4026c-.2858.3484-.7954.3835-1.1217.0735l-3.2033-3.0423c-.3139-.3003-.3356-.8021-.0467-1.1248z"/></g><path d="m25.8087 40.0283h-10.8281v7.2222h10.8281z" stroke-linejoin="round"/><path d="m54.3504 38.5903h-5.7481v11.1945h5.7481z" stroke-linejoin="round"/><path d="m18.0784 49.9125h5.08m-2.5384-2.662v2.662" stroke-linecap="round" stroke-miterlimit="10"/></g><path d="m51.4764 48.3596c.429 0 .7767-.3577.7767-.799 0-.4412-.3477-.7989-.7767-.7989s-.7768.3577-.7768.7989c0 .4413.3478.799.7768.799z" fill="#fff"/><circle cx="36" cy="36" r="34" stroke="#005bbf" stroke-width="2"/></svg>