<svg width="40" height="34" viewBox="0 0 40 34" fill="none" xmlns="http://www.w3.org/2000/svg">
<g clip-path="url(#clip0_824_25205)">
<path d="M34.0777 8.57324H5.92244C5.05514 8.57324 4.35205 9.29162 4.35205 10.1778V30.305C4.35205 31.1911 5.05514 31.9095 5.92244 31.9095H34.0777C34.945 31.9095 35.6481 31.1911 35.6481 30.305V10.1778C35.6481 9.29162 34.945 8.57324 34.0777 8.57324Z" stroke="white" stroke-width="2" stroke-miterlimit="10"/>
<path d="M1.63381 18.277H4.16667V22.525H1.63381C1.42251 22.525 1.25 22.2757 1.25 21.966V18.834C1.25 18.5263 1.42118 18.275 1.63381 18.275V18.277Z" fill="white"/>
<path d="M38.3662 22.5231L35.8333 22.5231L35.8333 18.275L38.3662 18.275C38.5775 18.275 38.75 18.5243 38.75 18.834L38.75 21.966C38.75 22.2738 38.5788 22.525 38.3662 22.525L38.3662 22.5231Z" fill="white"/>
<path d="M15.8395 16.3941H12.3695C12.1259 16.3941 11.9285 16.5958 11.9285 16.8447V23.954C11.9285 24.2029 12.1259 24.4046 12.3695 24.4046H15.8395C16.083 24.4046 16.2805 24.2029 16.2805 23.954V16.8447C16.2805 16.5958 16.083 16.3941 15.8395 16.3941Z" fill="white"/>
<path d="M27.6305 16.3941H24.1605C23.9169 16.3941 23.7195 16.5958 23.7195 16.8447V23.954C23.7195 24.2029 23.9169 24.4046 24.1605 24.4046H27.6305C27.874 24.4046 28.0715 24.2029 28.0715 23.954V16.8447C28.0715 16.5958 27.874 16.3941 27.6305 16.3941Z" fill="white"/>
<path d="M20 8.57324V0.815552H10.4939" stroke="white" stroke-width="2" stroke-miterlimit="10"/>
</g>
<defs>
<clipPath id="clip0_824_25205">
<rect width="40" height="34" fill="white"/>
</clipPath>
</defs>
</svg>
