<svg fill="none" height="34" viewBox="0 0 40 34" width="40" xmlns="http://www.w3.org/2000/svg" xmlns:xlink="http://www.w3.org/1999/xlink"><clipPath id="a"><path d="m0 0h40v34h-40z"/></clipPath><g clip-path="url(#a)"><path d="m34.0777 8.57324h-28.15526c-.8673 0-1.57039.71838-1.57039 1.60456v20.1272c0 .8861.70309 1.6045 1.57039 1.6045h28.15526c.8673 0 1.5704-.7184 1.5704-1.6045v-20.1272c0-.88618-.7031-1.60456-1.5704-1.60456z" stroke="#fff" stroke-miterlimit="10" stroke-width="2"/><g fill="#fff"><path d="m1.63381 18.277h2.53286v4.248h-2.53286c-.2113 0-.38381-.2493-.38381-.559v-3.132c0-.3077.17118-.559.38381-.559z"/><path d="m38.3662 22.5231h-2.5329v-4.2481h2.5329c.2113 0 .3838.2493.3838.559v3.132c0 .3078-.1712.559-.3838.559z"/><path d="m15.8395 16.3941h-3.47c-.2436 0-.441.2017-.441.4506v7.1093c0 .2489.1974.4506.441.4506h3.47c.2435 0 .441-.2017.441-.4506v-7.1093c0-.2489-.1975-.4506-.441-.4506z"/><path d="m27.6305 16.3941h-3.47c-.2436 0-.441.2017-.441.4506v7.1093c0 .2489.1974.4506.441.4506h3.47c.2435 0 .441-.2017.441-.4506v-7.1093c0-.2489-.1975-.4506-.441-.4506z"/></g><path d="m20 8.57324v-7.757688h-9.5061" stroke="#fff" stroke-miterlimit="10" stroke-width="2"/></g></svg>