<svg fill="none" height="34" viewBox="0 0 47 34" width="47" xmlns="http://www.w3.org/2000/svg" xmlns:xlink="http://www.w3.org/1999/xlink"><clipPath id="a"><path d="m0 0h46.6286v34h-46.6286z"/></clipPath><g clip-path="url(#a)"><g stroke="#fff" stroke-miterlimit="10" stroke-width="2"><path d="m43.5295 1.20862h-40.43063c-1.04254 0-1.88769.83632-1.88769 1.86798v27.8465c0 1.0316.84515 1.868 1.88769 1.868h40.43063c1.0425 0 1.8877-.8364 1.8877-1.868v-27.8465c0-1.03166-.8452-1.86798-1.8877-1.86798z"/><path d="m24.1246 13.1741h-15.43675c-1.04254 0-1.88769.8363-1.88769 1.868v10.5053c0 1.0316.84515 1.868 1.88769 1.868h15.43675c1.0426 0 1.8877-.8364 1.8877-1.868v-10.5053c0-1.0317-.8451-1.868-1.8877-1.868z"/><path d="m37.7245 13.1741h-4.7511c-1.0426 0-1.8877.8363-1.8877 1.868v10.5053c0 1.0316.8451 1.868 1.8877 1.868h4.7511c1.0426 0 1.8877-.8364 1.8877-1.868v-10.5053c0-1.0317-.8451-1.868-1.8877-1.868z"/></g><path d="m42.4071 4.08069h-1.9621c-.0768 0-.1391.06163-.1391.13766v1.94157c0 .07603.0623.13766.1391.13766h1.9621c.0768 0 .1391-.06163.1391-.13766v-1.94157c0-.07603-.0623-.13766-.1391-.13766z" fill="#fff"/><path d="m38.711 4.08069h-1.962c-.0769 0-.1391.06163-.1391.13766v1.94157c0 .07603.0622.13766.1391.13766h1.962c.0769 0 .1391-.06163.1391-.13766v-1.94157c0-.07603-.0622-.13766-.1391-.13766z" fill="#fff"/><path d="m34.9906 4.08069h-1.9621c-.0768 0-.1391.06163-.1391.13766v1.94157c0 .07603.0623.13766.1391.13766h1.9621c.0768 0 .1391-.06163.1391-.13766v-1.94157c0-.07603-.0623-.13766-.1391-.13766z" fill="#fff"/><path d="m1.21118 9.03693h44.20602" stroke="#fff" stroke-miterlimit="10" stroke-width="2"/></g></svg>