<svg fill="none" height="34" viewBox="0 0 34 34" width="34" xmlns="http://www.w3.org/2000/svg" xmlns:xlink="http://www.w3.org/1999/xlink"><clipPath id="a"><path d="m0 0h34v34h-34z"/></clipPath><g clip-path="url(#a)" stroke="#fff" stroke-miterlimit="10" stroke-width="2"><path d="m30.8589 14.7376c2.5217-2.5425 3.0311-6.34752 1.5261-9.3997-1.8117 1.82664-4.4222 4.45863-6.1104 6.1608-.9319-.9396-3.0948-3.1203-3.7836-3.81477l5.9716-6.02071c-2.9308-1.221651-6.6604-.861771-9.0432 1.53873-3.3842 3.41206-2.2863 7.82205-2.2863 7.82205l-14.78506 14.9069c-1.653505 1.6671-1.653505 4.3711 0 6.0382 1.6535 1.6671 4.33537 1.6671 5.98887 0l14.78309-14.9049s4.2833 1.1555 7.7369-2.3266z"/><path d="m6.98242 7.04004 7.22558 7.28516"/><path d="m17.1899 22.9493 5.5718-5.6177 8.928 9.0016c1.5375 1.5502 1.5375 4.0674 0 5.6177-1.5376 1.5502-4.0342 1.5502-5.5718 0z"/><path d="m7.74085 6.27749-1.51458 1.52706c-.13892.14006-.32221.22566-.51901.24122l-1.47214.12061c-.31835.02529-.62127-.13423-.78334-.41046l-2.566111-4.41973c-.191011-.32875-.136988-.7431.129271-1.0135l1.28884-1.29946c.26626-.268454.67915-.322923 1.00522-.130338l4.38554 2.587248c.27398.16146.43412.46882.40711.7898l-.11962 1.48426c-.01544.19648-.10033.38323-.23925.52329z"/></g></svg>