<svg fill="none" height="34" viewBox="0 0 33 34" width="33" xmlns="http://www.w3.org/2000/svg" xmlns:xlink="http://www.w3.org/1999/xlink"><clipPath id="a"><path d="m0 0h32.8667v34h-32.8667z"/></clipPath><g clip-path="url(#a)"><path d="m31.0414 30.7764v-5.2758c0-.522.4089-.945.9135-.945s.9135.423.9135.945v7.5564c0 .522-.4089.945-.9135.945h-7.3044c-.5046 0-.9135-.423-.9135-.945s.4089-.945.9135-.945h5.0999l-5.7455-5.9436c-.3567-.369-.3567-.9666 0-1.3356s.9344-.369 1.2911 0zm-29.21612-27.55247v5.27577c0 .522-.4089.945-.913494.945-.504597 0-.91349498-.423-.91349498-.945v-7.554553c.00173999-.521997.41063798-.94499496.91523498-.94499496h7.304474c.5046 0 .9135.42299796.9135.94499496 0 .521993-.4089.944993-.9135.944993h-5.09991l5.74545 5.94357c.3567.36899.3567.96659 0 1.33559s-.93438.369-1.29107 0zm1.29107 28.88807h5.09991c.5046 0 .9135.423.9135.945s-.4089.945-.9135.945h-7.302734c-.504597 0-.91349499-.423-.91349499-.945v-7.5564c0-.522.40889799-.945.91349499-.945.504594 0 .913494.423.913494.945v5.2758l5.74545-5.9436c.35669-.369.93437-.369 1.29107 0s.3567.9666 0 1.3356l-5.74545 5.9436zm26.63405-30.22366h-5.0999c-.5046 0-.9135-.423-.9135-.944993 0-.521997.4089-.94499495.9135-.94499495h7.3044c.5046 0 .9135.42299795.9135.94499495v7.613953c0 .522-.4089.945-.9135.945s-.9135-.423-.9135-.945v-5.33517l-5.7454 5.94357c-.3567.369-.9344.369-1.2911 0s-.3567-.9666 0-1.33559l5.7455-5.94357z" fill="#fff"/><path d="m9.12967 14.1695c0-2.6028 2.03753-4.71595 4.55353-4.72315l5.4775-.0144c2.5334 0 4.5762 2.11495 4.5762 4.72315v5.6916c0 2.6082-2.0445 4.7232-4.5657 4.7232h-5.4775c-2.5213 0-4.56577-2.115-4.56577-4.7232v-5.6772z" stroke="#fff" stroke-miterlimit="10" stroke-width="2"/></g></svg>