<svg fill="none" height="87" viewBox="0 0 109 87" width="109" xmlns="http://www.w3.org/2000/svg"><path d="m30.7829 78c-5.9938 0-10.8695-4.8471-10.8695-10.8044 0-.751.076-1.4866.2263-2.1847l.2603-1.2123h-4.2864c-4.4733 0-8.1136-3.6166-8.1136-8.0627v-37.6668c0-4.4497 3.6394-8.0691 8.1136-8.0691h47.4225c4.4706 0 8.1072 3.6194 8.1072 8.0691v5.3913h14.0515c1.5471 0 3.0474.6362 4.1169 1.7445l10.6053 11.0067c1.02 1.0646 1.583 2.4591 1.583 3.9238v18.0077c0 2.6514-1.889 4.9811-4.4926 5.538l-.9568.205.1778.958c.1219.658.1842 1.3225.1842 1.9769 0 5.9573-4.8766 10.8044-10.8695 10.8044s-10.864-4.8471-10.864-10.8044c0-.6216.0541-1.2368.1613-1.8284l.2136-1.1803h-16.79v-.0118h-17.6047l.2603 1.2122c.1503.6982.2263 1.4337.2263 2.1847 0 5.9573-4.8738 10.8044-10.864 10.8044zm-9.5544-13.4677c-.2484.8431-.3739 1.74-.3739 2.6642 0 5.4414 4.4541 9.8683 9.9283 9.8683 5.4741 0 9.9227-4.4269 9.9227-9.8683 0-.9242-.1255-1.8211-.3739-2.6642-.1466-.5459-.3547-1.0983-.6205-1.6406-.2923-.5942-.6342-1.1466-1.0182-1.6424-1.8907-2.4892-4.7758-3.9211-7.9092-3.9211-3.1335 0-6.0241 1.4319-7.9203 3.9275-.3785.4894-.7203 1.0418-1.0118 1.6351-.2667.5432-.4756 1.0956-.6214 1.6415zm55.1567.0493c-.175.7063-.2639 1.4583-.2639 2.2376 0 5.4414 4.4513 9.8683 9.9227 9.8683s9.9283-4.4269 9.9283-9.8683c0-.7784-.0889-1.5303-.264-2.2367-.2666-1.163-.7469-2.2641-1.4288-3.2703-1.8513-2.7307-4.9297-4.3604-8.2364-4.3604s-6.3796 1.6297-8.23 4.3604c-.6819 1.0071-1.1621 2.1073-1.4288 3.2703zm9.6579-8.5659c4.203 0 8.0706 2.4518 9.8522 6.2462l.3144.6681.735-.0993c2.3453-.3172 4.1143-2.3325 4.1143-4.6876v-18.0077c0-.2688-.023-.535-.069-.792l-.005-.0283-.166-.8021h-29.1757v24.3614h4.2663l.2712-.5806c1.778-3.8144 5.6492-6.2781 9.8632-6.2781zm-55.2602.3764c4.1067 0 7.8194 2.2696 9.6899 5.9236l.2805.5478h29.9479v-44.7944c0-3.9329-3.215-7.1321-7.166-7.1321h-47.4216c-3.9546-.0009-7.17237 3.1992-7.17237 7.1321v37.6677c0 3.9293 3.21687 7.1267 7.17147 7.1267h4.6933l.2805-.5478c1.8705-3.654 5.5859-5.9236 9.6954-5.9236zm40.8604-18.8151h28.7867l-11.2983-11.725c-.8936-.9251-2.1455-1.4556-3.4369-1.4556h-14.0515v13.1815z" fill="#fff"/></svg>