<svg fill="none" height="87" viewBox="0 0 109 87" width="109" xmlns="http://www.w3.org/2000/svg"><path d="m94.5562 76.7115h-3.0177v-4.5897c0-.9961-.8127-1.8059-1.8104-1.8059h-4.6811v-30.5473h4.6811c.9714 0 1.7623-.789 1.7623-1.7579v-3.6189c0-.969-.7909-1.7579-1.7623-1.7579h-18.5459c-.1768-9.0392-7.4838-16.3666-16.5304-16.6037v-5.4076h8.7808l-1.0503-3.31128 1.0503-3.31132h-9.6879v12.0293c-9.0466.238-16.3535 7.5654-16.5304 16.6037h-18.5468c-.9714 0-1.7623.7889-1.7623 1.7578v3.619c0 .9689.7909 1.7579 1.7623 1.7579h4.7746v30.5473h-4.7746c-.9986 0-1.8104.8107-1.8104 1.8059v4.5897h-3.0177c-1.014 0-1.8394.8233-1.8394 1.8348v3.6189c0 1.0115.8254 1.8348 1.8394 1.8348h80.7177c1.014 0 1.8394-.8233 1.8394-1.8348v-3.6189c0-1.0115-.8254-1.8348-1.8394-1.8348zm-39.9044-71.80677h7.5419l-.7638 2.40659.7638 2.40658h-7.5419zm24.046 65.39767v-30.5257h5.5147v30.5257zm-.8344.0126h-10.9569v-30.5473h10.9569zm-35.4464-30.5374h5.5146v30.5257h-5.5146zm6.3491-.0099h10.9568v30.5473h-10.9568zm17.306 30.5347h-5.5147v-30.5257h5.5147zm-11.8738-53.3747c8.7545 0 15.8973 7.0144 16.0769 15.7053h-32.1539c.1796-8.6909 7.3224-15.7053 16.077-15.7053zm-35.5308 22.0384c-.5288 0-.9587-.4289-.9587-.9563v-3.619c0-.5274.4299-.9563.9587-.9563h71.0606c.5288 0 .9587.4289.9587.9563v3.619c0 .5274-.4299.9563-.9587.9563h-4.6811v-.0217h-7.1836v.0217h-10.9569v-.0217h-7.1836v.0217h-10.9568v-.0217h-7.1836v.0217h-10.9568v-.0217h-7.1836v.0217zm11.1237.8115v30.5257h-5.5147v-30.5257zm.8345-.0099h10.9568v30.5473h-10.9568zm-12.8679 32.3541c0-.5003.4081-.9084.9106-.9084h71.0606c.5016 0 .9107.4072.9107.9084v4.5273h-72.8819zm77.6809 10.0434c0 .4849-.3955.8794-.8816.8794h-80.7177c-.4861 0-.8816-.3945-.8816-.8794v-3.6189c0-.485.3955-.8794.8816-.8794h80.7177c.4861 0 .8816.3944.8816.8794z" fill="#fff"/></svg>