<svg fill="none" height="87" viewBox="0 0 109 87" width="109" xmlns="http://www.w3.org/2000/svg"><path d="m58.4403 76c-1.9577 0-3.9363-.1582-5.882-.4716-4.2744-.6875-8.1967-2.0845-11.6578-4.154-3.4271-2.0496-6.251-4.6684-8.3927-7.7816l-.4842-.7034-.8043.2945c-4.1343 1.5153-7.7635 2.2834-10.7845 2.2834-2.0166 0-3.7882-.3452-5.2657-1.0248l-.7772-.3572-.5392.6617c-.019.0228-.037.0467-.054.0696v.002c-1.0704 1.2606-2.6209 1.984-4.25843 1.984-1.95964 0-3.74023-1.004-4.76456-2.6865-1.19639-1.965-.99533-4.5668.49016-6.3259 1.06935-1.2666 2.62386-1.9939 4.26439-1.9939 1.95864 0 3.73924 1.0039 4.76354 2.6844.7123 1.1691.9493 2.6267.6492 3.9997l-.187.8567.7992.3691c1.3935.6438 3.059.9691 4.9497.9691 2.7539 0 6.0789-.6915 9.8812-2.0556l1.1834-.4248-.5812-1.1104c-3.2191-6.1509-3.5612-13.7653-.9643-21.4395 3.131-9.2532 10.1203-17.0994 18.6971-20.9917 14.6718-6.6593 36.945-7.6533 48.917-7.6533 1.3574 0 2.7099.0129 4.0189.0378.684.0129 1.3.1821 1.782.4885 1.167.7413 1.757 2.0795 1.502 3.4098-2.043 10.669-8.7174 37.2902-26.5172 54.0196-.2411.2268-.4952.4547-.7553.6755-4.7465 4.0466-11.7548 6.3678-19.2263 6.3678zm-12.5351-20.0505c-4.2174 2.5123-8.1997 4.5669-11.8369 6.1071l-1.2734.5392.8142 1.1124c4.2454 5.7957 11.0216 9.7009 19.0833 10.9964 1.8486.2975 3.7402.4477 5.6238.4477 7.6895 0 14.9899-2.5431 19.5304-6.8026 18.1159-17.0268 24.6874-45.3077 26.2704-53.5698.186-.9721-.236-1.6706-.505-1.9999-.457-.5612-1.137-.8915-1.866-.9064-1.189-.0239-2.4474-.0358-3.7408-.0358-12.044 0-34.4163.984-48.935 7.5726-2.7179 1.2338-5.2967 2.8824-7.6655 4.9012-4.8096 4.1003-8.5688 9.6392-10.5855 15.5971-2.5658 7.5806-2.1957 15.0538 1.0414 21.0445.011.0199.022.0398.034.0597l.4661.8606.9213-.386c3.6532-1.5293 7.6865-3.5958 11.9889-6.142l.9454-.5591-.5622-.9403c-2.0557-3.4386-2.923-7.5368-2.4428-11.5396.4831-4.0256 2.3187-7.8224 5.1687-10.6899.091-.0915.2-.1114.275-.1114.1271 0 .2481.0547.3302.1503.142.1641.127.4099-.0331.5721-5.5828 5.6414-6.6501 14.3434-2.5958 21.1609l.5742.9651.9563-.594c5.1817-3.2207 9.209-6.1668 11.1486-7.6364l.6302-.4776-.256-.7462c-.6232-1.8168-.2521-3.8435.9693-5.2922 1.0693-1.2676 2.6248-1.9949 4.2654-1.9949 1.9586 0 3.7392 1.0039 4.7635 2.6854 1.1974 1.9651.9964 4.5669-.4891 6.327-1.0694 1.2676-2.6239 1.9939-4.2644 1.9939-1.4705 0-2.853-.5622-3.8913-1.582l-.6762-.6646-.7593.5691c-1.9486 1.4606-5.9459 4.3659-10.8245 7.4184l-1.0904.6826.8483.9641c3.3361 3.7928 8.1647 5.9688 13.2494 5.9678 3.7092 0 7.2533-1.1343 10.2503-3.2794.099-.0706.1971-.0856.2621-.0856.071 0 .2051.0179.3111.1413.108.1254.11.2617.101.3323-.009.0786-.044.1881-.155.2687-3.146 2.2625-6.8703 3.4585-10.7715 3.4585-5.3998 0-10.5035-2.3302-14.0046-6.3917-.032-.0378-.063-.0756-.0931-.1134-.031-.0388-.063-.0786-.095-.1164l-.6022-.7224-.8092.4826zm-36.37094.6696c-.76024 0-1.51049.1841-2.16971.5333-1.44647.7651-2.38477 2.181-2.50882 3.7878-.12404 1.6059.5852 3.1481 1.89763 4.1251.79025.5881 1.77958.9124 2.78491.9124.76023 0 1.51053-.184 2.17073-.5333 1.4464-.7651 2.3848-2.1819 2.5088-3.7878s-.5852-3.1481-1.8966-4.1241c-.7913-.589-1.7816-.9134-2.78694-.9134zm55.11404-18.18c-.7603 0-1.5105.1841-2.1707.5333-1.4465.7661-2.3848 2.182-2.5088 3.7878-.1241 1.6069.5851 3.1481 1.8976 4.1252.7902.588 1.7796.9123 2.7849.9123.7602 0 1.5105-.185 2.1707-.5342 1.4465-.7662 2.3848-2.182 2.5088-3.7879.124-1.6058-.5852-3.148-1.8976-4.1251-.7903-.588-1.7796-.9114-2.7849-.9114z" fill="#fff"/></svg>