<svg fill="none" height="87" viewBox="0 0 109 87" width="109" xmlns="http://www.w3.org/2000/svg"><g fill="#fff"><path d="m69.9765 50.1521c-.273 0-.4941.2177-.4941.4849v16.0699h-47.4941v-55.1483c0-4.1841 3.4693-7.58797 7.7328-7.58797h32.0292c4.2636 0 7.7321 3.40387 7.7321 7.58797v10.6848c0 .268.2219.485.4941.485s.4941-.2178.4941-.485v-10.6848c0-4.71916-3.9123-8.5586-8.7211-8.5586h-32.0292c-4.808 0-8.7203 3.83944-8.7203 8.5586v62.8828c0 4.7192 3.9123 8.5586 8.7211 8.5586h32.0292c4.8088 0 8.7211-3.8394 8.7211-8.5579v-23.8043c0-.2672-.2219-.485-.4941-.485zm-.4941 24.2893c0 4.1841-3.4685 7.588-7.7321 7.588h-32.03c-4.2635 0-7.732-3.4039-7.732-7.588v-6.7639h47.4933v6.7639z"/><path d="m45.3242 79.6321c2.4587 0 4.4584-1.9624 4.4584-4.3745s-1.9997-4.3753-4.4584-4.3753-4.4576 1.9624-4.4576 4.3753 1.9997 4.3745 4.4576 4.3745zm0-7.9672c2.018 0 3.6601 1.6115 3.6601 3.5919 0 1.9805-1.6421 3.5911-3.6601 3.5911s-3.6593-1.6114-3.6593-3.5911c0-1.9796 1.6421-3.5919 3.6593-3.5919z"/><path d="m61.783 13.1625c0-.235-.1947-.4262-.4342-.4262h-32.8698c-.2395 0-.4342.1912-.4342.4262s.1947.4262.4342.4262h32.8698c.2395 0 .4342-.1912.4342-.4262z"/><path d="m68.1508 34.2092c-1.1718.2561-2.0994 1.1649-2.3612 2.3149-.2419 1.0584.0742 2.1426.8453 2.8994.6011.5899 1.4042.9087 2.24.9087.2371 0 .4766-.0258.7144-.0776 1.1727-.2569 2.0987-1.1664 2.3597-2.3172.2403-1.0576-.0758-2.1411-.8461-2.8971-.7704-.7559-1.8736-1.0669-2.9521-.8311zm3.0191 3.5574c-.1916.8421-.8964 1.5347-1.7546 1.7227-.811.1778-1.6396-.0541-2.216-.6205-.5763-.5664-.8126-1.3788-.6306-2.1739.1924-.8422.898-1.5339 1.7562-1.7219.1788-.0392.3592-.058.5364-.058.6267 0 1.2286.2381 1.6772.6784.5763.5656.8126 1.378.6314 2.1724z"/><path d="m73.4506 30.2694c-.1676.1403-.1876.3878-.0447.5523.0231.0267 2.299 2.6894 2.299 6.4114 0 3.7219-2.2687 6.3776-2.291 6.4027-.1485.1598-.1365.4082.0271.5531.0766.0681.1724.1018.2682.1018.1086 0 .2172-.0431.2954-.1285.1022-.1104 2.4986-2.7466 2.4986-6.9291 0-4.1826-2.3892-6.8039-2.4906-6.9206-.1429-.1637-.3952-.1833-.562-.0431z"/><path d="m79.7785 29.2298c-.9858-1.9373-1.9637-3.067-2.0052-3.1148-.1429-.1645-.3952-.1833-.5628-.0431-.1677.1403-.1868.3878-.0439.5523.0383.0439 3.8069 4.4458 3.8069 10.6081 0 6.1622-3.7606 10.5578-3.7989 10.5986-.1485.1598-.1366.4081.0271.553.0766.0682.1724.1019.2682.1019.1086 0 .2171-.0431.2954-.1285.0415-.0446 1.0234-1.1148 2.0116-3.0247.9101-1.7579 1.9949-4.5899 1.9949-8.1011s-1.084-6.2163-1.9933-8.0025z"/><path d="m85.0471 26.0877c-1.3738-2.698-2.7317-4.2672-2.7883-4.3322-.1429-.1645-.3952-.1833-.5628-.0423-.1677.1402-.1868.3878-.0439.5523.0135.0157 1.3618 1.5762 2.6918 4.1951 1.2229 2.409 2.6814 6.2327 2.6814 10.7725 0 4.5399-1.4561 8.5352-2.6783 10.9018-1.3275 2.5719-2.6742 4.0432-2.6869 4.0573-.1485.1598-.1365.4081.0271.553.0766.0682.1724.1019.2682.1019.1086 0 .2171-.0431.2954-.1285.0575-.0619 1.4193-1.5464 2.7947-4.2045 1.2669-2.4481 2.778-6.3925 2.778-11.2817s-1.5103-8.6566-2.7764-11.1447z"/><path d="m55.9484 47.1632 5.6159-12.3041h-19.9497v.7834h18.718l-4.9007 10.7372h-17.364l-3.5116-17.3538h-5.5185v.7834h4.8631l4.1335 20.4279c-1.2134.4027-2.149 1.4078-2.4324 2.6503-.2874 1.2597.0886 2.5491 1.0058 3.45.7153.702 1.6708 1.0811 2.6655 1.0811.2818 0 .5668-.0305.8509-.0924 1.3946-.3063 2.4962-1.3874 2.8068-2.756.0335-.1489.0574-.2985.0734-.4481h2.9816c.0902.8296.4606 1.6107 1.0776 2.2154.7153.702 1.6708 1.0811 2.6655 1.0811.2818 0 .5668-.0305.8509-.0924 1.3946-.3063 2.4962-1.3874 2.8068-2.756.2858-1.2589-.0902-2.5484-1.0067-3.4477-.9164-.8994-2.2295-1.2692-3.5132-.9887-1.3937.3047-2.497 1.3858-2.8091 2.7537-.0343.1504-.0583.3008-.0742.4512h-2.9816c-.0902-.8296-.4614-1.6107-1.0777-2.2162-.8206-.8054-1.9589-1.1845-3.11-1.0537l-.5876-2.9049h17.7225zm-9.1139 5.895c.2411-1.0568 1.1264-1.9248 2.2033-2.1606.2243-.0493.4494-.0728.6721-.0728.7855 0 1.5399.2984 2.1027.8507.7224.709 1.0186 1.7274.7919 2.7231-.2403 1.0568-1.1248 1.9256-2.2017 2.1614-1.0162.2233-2.0547-.0681-2.7772-.7779-.7232-.7097-1.0186-1.7282-.7911-2.7247zm-5.4761-1.3819c.7224.709 1.0186 1.7274.7919 2.7231-.2403 1.0568-1.1248 1.9256-2.2017 2.1614-1.0162.2233-2.0547-.0681-2.7772-.7779-.7232-.7098-1.0186-1.7282-.7911-2.7247.2411-1.0568 1.1264-1.9248 2.2033-2.1606.2243-.0493.4494-.0728.6721-.0728.7855 0 1.5399.2984 2.1027.8507z"/></g></svg>