<svg fill="none" height="87" viewBox="0 0 109 87" width="109" xmlns="http://www.w3.org/2000/svg"><g fill="#fff"><path d="m66.7083 29.0717c-8.7887-.6874-11.8371-3.0608-12.1557-3.3294l-.0353-.0298-.0319-.0325c-.1111-.1134-.2007-.1287-.2747-.1287-.0741 0-.1636.0153-.2747.1287l-.0319.0325-.0344.0289c-.3186.2687-3.3662 2.6421-12.1567 3.3295-.2239.0179-.3987.2046-.3987.4272v19.0922c0 .0656.0155.1322.0457.191.1765.3514 4.4228 8.6485 12.6621 12.6022.0586.0281.1231.0426.1886.0426.0654 0 .13-.0145.1886-.0426 8.2376-3.9529 12.4856-12.2508 12.6621-12.6013.0301-.0597.0456-.1254.0456-.1911v-19.0921c0-.2217-.1748-.4094-.3987-.4273zm-.4667 19.4188-.1163.2106c-.7276 1.3168-4.7017 8.0643-11.4729 11.5959l-.4417.2302-.4418-.2302c-6.7719-3.5324-10.7452-10.2791-11.4729-11.5959l-.1162-.2106v-18.5907l.8508-.0861c6.2277-.632 9.3631-2.0911 10.678-2.9047l.5021-.3105.502.3105c1.315.8136 4.4504 2.2736 10.6781 2.9047l.8508.0861v18.5898z"/><path d="m59.8278 38.8944c-.0671 0-.1954.0162-.3057.1254l-8.1429 8.0634-2.4783-2.4544c-.1102-.1092-.2394-.1254-.3057-.1254s-.1955.0162-.3057.1254c-.1102.1091-.1266.2371-.1266.3027 0 .0657.0164.1936.1266.3028l2.784 2.7572c.1103.1091.2394.1253.3057.1253s.1955-.0162.3057-.1253l8.4486-8.3671c.1688-.1671.1688-.4392 0-.6055-.1102-.1091-.2385-.1253-.3057-.1253z"/><path d="m96.1454 40.6623c-1.433 0-2.6222 1.0516-2.8237 2.4161h-10.3457l-.0413-.8955c-.1042-2.2813-.4831-4.5412-1.1264-6.7159l-.3548-1.2017h8.7061c.2385 0 .4323-.1919.4323-.4281v-9.9473c1.3675-.2081 2.4189-1.3816 2.4189-2.7939 0-1.5589-1.2805-2.8271-2.8546-2.8271-1.5742 0-2.8547 1.2682-2.8547 2.8271 0 1.414 1.054 2.5892 2.425 2.7947v9.5175h-8.6071l-.2394-.5867c-1.445-3.5392-3.5771-6.7194-6.3371-9.4518-2.5584-2.5338-5.5129-4.5388-8.7835-5.9587l-.5667-.2465v-8.68342h9.817c.1894 1.37731 1.3847 2.44252 2.8271 2.44252 1.5741 0 2.8546-1.26818 2.8546-2.82714s-1.2805-2.82711-2.8546-2.82711c-1.4114 0-2.5852 1.01997-2.8133 2.35379h-10.2631c-.2385 0-.4322.19188-.4322.42812v8.74994l-1.2384-.3965c-2.4301-.7778-4.967-1.2307-7.5418-1.3467l-.9042-.0409v-8.39773c1.3692-.20724 2.4215-1.38158 2.4215-2.7947 0-1.55896-1.2805-2.827111-2.8546-2.827111-1.5742 0-2.8547 1.268151-2.8547 2.827111 0 1.41312 1.0523 2.58746 2.4215 2.7947v8.39773l-.9042.0409c-2.4344.1101-4.8387.5211-7.1448 1.2221l-1.2254.3727v-8.60154c0-.23624-.1937-.42812-.4323-.42812h-9.8083c-.2308-1.33126-1.4037-2.34782-2.8125-2.34782-1.5741 0-2.8546 1.26815-2.8546 2.82711s1.2805 2.82707 2.8546 2.82707c1.4442 0 2.6411-1.06855 2.828-2.44927h9.3597v8.51887l-.5804.2413c-3.4282 1.4285-6.5171 3.4898-9.1806 6.1276-2.7599 2.7333-4.8921 5.9134-6.3371 9.4518l-.2394.5867h-8.1971v-9.8108c1.3795-.1987 2.4422-1.3765 2.4422-2.7973 0-1.559-1.2805-2.8271-2.8547-2.8271s-2.8547 1.2681-2.8547 2.8271c0 1.4063 1.042 2.5747 2.4009 2.7904v10.245c0 .2362.1937.4281.4323.4281h8.2961l-.3547 1.2016c-.6425 2.1756-1.0214 4.4347-1.1264 6.716l-.0413.8955h-9.7645c-.1903-1.3773-1.3855-2.4416-2.8271-2.4416-1.5741 0-2.85462 1.2681-2.85462 2.8271 0 1.5589 1.28052 2.8271 2.85462 2.8271 1.4114 0 2.586-1.02 2.8142-2.3547h9.7774l.0413.8955c.118 2.573.5821 5.1067 1.3795 7.5304l.4039 1.2289h-8.5984c-.2386 0-.4323.1919-.4323.4282v10.3097c-1.3658.2098-2.4146 1.3825-2.4146 2.793 0 1.559 1.2805 2.8271 2.8546 2.8271 1.5742 0 2.8547-1.2681 2.8547-2.8271 0-1.4157-1.0558-2.5909-2.4284-2.7955v-9.8791h8.533l.2497.5594c1.4329 3.2135 3.448 6.119 5.9909 8.6374 2.6635 2.6378 5.7524 4.6999 9.1806 6.1275l.5804.2414v8.2843h-10.1778c-.2075-1.3577-1.3942-2.4024-2.8219-2.4024-1.5742 0-2.8547 1.2682-2.8547 2.8271 0 1.559 1.2805 2.8271 2.8547 2.8271 1.4252 0 2.6101-1.0404 2.8211-2.3938h10.6117c.2386 0 .4323-.1919.4323-.4282v-8.367l1.2254.3727c2.3061.7019 4.7104 1.1129 7.1448 1.2221l.9042.0409v8.385c-1.3692.2072-2.4215 1.3815-2.4215 2.7947 0 1.5589 1.2805 2.8271 2.8547 2.8271 1.5741 0 2.8546-1.2682 2.8546-2.8271 0-1.4132-1.0523-2.5875-2.4215-2.7947v-8.385l.9042-.0409c2.5748-.116 5.1126-.5689 7.5418-1.3466l1.2384-.3966v8.5154c0 .2363.1937.4282.4322.4282h10.7685c.2041 1.3611 1.3925 2.4092 2.8228 2.4092 1.5742 0 2.8547-1.2682 2.8547-2.8271 0-1.559-1.2805-2.8271-2.8547-2.8271-1.4226 0-2.6058 1.0361-2.8193 2.387h-10.3388v-8.4489l.5666-.2465c3.2706-1.4208 6.2252-3.4258 8.7836-5.9595 2.5421-2.5175 4.558-5.4239 5.9909-8.6374l.2497-.5594h8.9438v10.1571c-1.3709.2055-2.4258 1.3807-2.4258 2.7947 0 1.5589 1.2805 2.8271 2.8546 2.8271 1.5742 0 2.8547-1.2682 2.8547-2.8271 0-1.4114-1.0506-2.5849-2.4172-2.7939v-10.5861c0-.2362-.1938-.4281-.4323-.4281h-9.0092l.4039-1.2289c.7974-2.4237 1.2615-4.9574 1.3795-7.5304l.0414-.8955h10.3508c.217 1.3475 1.3976 2.3811 2.8185 2.3811 1.5741 0 2.8547-1.2681 2.8547-2.8271s-1.2806-2.8271-2.8547-2.8271zm-7.981-19.5663c0-1.0882.8938-1.9742 1.9935-1.9742s1.9935.8852 1.9935 1.9742c0 1.0891-.8938 1.9743-1.9935 1.9743s-1.9935-.8852-1.9935-1.9743zm-10.3268-14.97298c1.0988 0 1.9936.88523 1.9936 1.97429 0 1.08905-.8939 1.97429-1.9936 1.97429-1.0996 0-1.9935-.88524-1.9935-1.97429 0-1.08906.8939-1.97429 1.9935-1.97429zm-46.3876 3.95458c-1.0988 0-1.9935-.88527-1.9935-1.97432 0-1.08906.8939-1.97429 1.9935-1.97429 1.0997 0 1.9936.88523 1.9936 1.97429 0 1.08905-.8939 1.97432-1.9936 1.97432zm-14.7503 10.7234c0-1.0882.8938-1.9743 1.9935-1.9743s1.9935.8852 1.9935 1.9743c0 1.089-.8938 1.9742-1.9935 1.9742s-1.9935-.8852-1.9935-1.9742zm-3.845 24.6363c-1.0988 0-1.9935-.8852-1.9935-1.9743 0-1.089.8938-1.9743 1.9935-1.9743s1.9935.8853 1.9935 1.9743c0 1.0891-.8938 1.9743-1.9935 1.9743zm7.8174 21.6839c0 1.0882-.8939 1.9743-1.9936 1.9743-1.0996 0-1.9935-.8853-1.9935-1.9743 0-1.0891.8939-1.9743 1.9935-1.9743 1.0997 0 1.9936.8852 1.9936 1.9743zm9.9667 13.5744c-1.0988 0-1.9935-.8853-1.9935-1.9743 0-1.0891.8939-1.9743 1.9935-1.9743 1.0997 0 1.9936.8852 1.9936 1.9743 0 1.089-.8939 1.9743-1.9936 1.9743zm47.7138-3.9324c1.0988 0 1.9935.8852 1.9935 1.9743 0 1.089-.8938 1.9743-1.9935 1.9743s-1.9935-.8853-1.9935-1.9743c0-1.0891.8938-1.9743 1.9935-1.9743zm13.7971-9.3648c0 1.0882-.8939 1.9742-1.9935 1.9742-1.0997 0-1.9936-.8852-1.9936-1.9742 0-1.0891.8939-1.9743 1.9936-1.9743 1.0996 0 1.9935.8852 1.9935 1.9743zm-39.9317-63.57118c0-1.0882.8939-1.97428 1.9935-1.97428 1.0997 0 1.9936.88523 1.9936 1.97428 0 1.08906-.8939 1.97429-1.9936 1.97429-1.0996 0-1.9935-.88523-1.9935-1.97429zm3.9862 79.34578c0 1.0882-.8938 1.9743-1.9935 1.9743s-1.9935-.8852-1.9935-1.9743c0-1.089.8938-1.9743 1.9935-1.9743s1.9935.8853 1.9935 1.9743zm-1.9935-12.0453c-15.379 0-27.8904-12.3906-27.8904-27.6212 0-15.2305 12.5114-27.6212 27.8904-27.6212s27.8904 12.3907 27.8904 27.6212c0 15.2306-12.5114 27.6212-27.8904 27.6212zm41.9347-25.6648c-1.0988 0-1.9936-.8852-1.9936-1.9743 0-1.089.8939-1.9743 1.9936-1.9743 1.0996 0 1.9935.8853 1.9935 1.9743 0 1.0891-.8939 1.9743-1.9935 1.9743z"/></g></svg>