<svg fill="none" height="87" viewBox="0 0 109 87" width="109" xmlns="http://www.w3.org/2000/svg"><path d="m101.615 29.3805-42.6492-24.48901c-2.0536-1.1788-4.6094-1.19-6.6724-.02891l-42.68214 24.01812c-2.12361 1.1946-3.4071 3.362-3.43511 5.797-.02613 2.3445 1.11921 4.4662 3.07573 5.7299v17.4358c-2.38404.235-4.25188 2.2494-4.25188 4.691 0 2.6 2.11707 4.7142 4.71861 4.7142 2.60149 0 4.71859-2.1151 4.71859-4.7142 0-2.4425-1.8688-4.456-4.2519-4.691v-16.8763l16.0312 9.4985v13.7362c0 1.481.7523 2.8305 2.0134 3.611l25.1323 15.5371c.7001.4327 1.4852.6491 2.2711.6491.7823 0 1.5645-.2145 2.2637-.6435l25.2508-15.5249c1.2565-.7722 2.0107-2.1674 1.9687-3.6428l-.4443-13.504 16.8058-9.5395.107-.0606c2.131-1.2105 3.408-3.3947 3.413-5.8437.006-2.449-1.259-4.6396-3.385-5.8595zm-88.1103 33.1548c0 2.0853-1.698 3.7817-3.78516 3.7817-2.0872 0-3.78515-1.6964-3.78515-3.7817s1.69795-3.7817 3.78515-3.7817c2.08716 0 3.78516 1.6964 3.78516 3.7817zm70.6793 1.6824c.0326 1.1415-.5517 2.2214-1.5244 2.8192l-25.2508 15.524c-1.0978.6743-2.4587.6734-3.5537-.0037l-25.1323-15.5371c-.9839-.6089-1.5719-1.6618-1.5719-2.8183v-13.1831l24.4891 14.5093c1.038.6155 2.2282.941 3.4417.941s2.3205-.3031 3.3324-.8776l25.3433-14.3862.4275 13.0116zm16.976-23.964-43.208 24.5273c-.8709.4942-1.8641.7563-2.8713.7563s-2.0713-.2807-2.9655-.8104l-42.15856-24.9787c-1.80623-1.0706-2.87037-2.9619-2.84703-5.0593.02333-2.0984 1.13041-3.9654 2.95999-4.995l42.6822-24.0181c.8811-.49614 1.8659-.74328 2.8517-.74328.9857 0 2.005.25647 2.8965.76846l42.649 24.48902c1.832 1.0511 2.922 2.9386 2.917 5.0491-.005 2.0974-1.092 3.9691-2.907 5.0155z" fill="#fff"/></svg>