<svg fill="none" height="87" viewBox="0 0 109 87" width="109" xmlns="http://www.w3.org/2000/svg"><g fill="#fff"><path d="m54.4778 20.3311c3.8721 0 7.0217-3.1755 7.0217-7.0794 0-3.90388-3.1506-7.07934-7.0217-7.07934-3.8712 0-7.0217 3.17546-7.0217 7.07934 0 3.9039 3.1495 7.0794 7.0217 7.0794zm0-13.20496c3.3494 0 6.0747 2.74774 6.0747 6.12466 0 3.3769-2.7253 6.1246-6.0747 6.1246s-6.0748-2.7477-6.0748-6.1246c0-3.37692 2.7254-6.12466 6.0748-6.12466z"/><path d="m98 32.3482c0-6.6039-5.3295-11.9772-11.8796-11.9772-1.981 0-3.8503.4917-5.4943 1.3605-3.1164-3.1726-6.7224-5.7255-10.7281-7.593-1.7272-6.96383-7.9857-12.1385-15.4203-12.1385-7.4345 0-13.6807 5.16417-15.4155 12.1175-4.0113 1.8627-7.623 4.4138-10.7442 7.5844-1.6307-.8497-3.4791-1.3309-5.4384-1.3309-6.5501 0-11.8796 5.3733-11.8796 11.9772 0 4.8157 2.8342 8.9764 6.909 10.8764-.1894 1.5304-.286 3.0885-.286 4.6381 0 5.0133.9745 9.8767 2.8949 14.4556 1.8551 4.4224 4.5113 8.3941 7.8938 11.8044 3.3826 3.4103 7.3219 6.0883 11.7082 7.9587 4.5417 1.9362 9.3655 2.9186 14.338 2.9186 4.9724 0 9.7963-.9824 14.3379-2.9186 4.3863-1.8704 8.3256-4.5484 11.7082-7.9587 3.3825-3.4103 6.0387-7.382 7.8938-11.8044 1.9205-4.5789 2.8949-9.4423 2.8949-14.4556 0-1.5372-.0957-3.0819-.2813-4.6 4.1184-1.8827 6.9895-6.0673 6.9895-10.9145zm-.947 0c0 3.1325-1.303 5.9642-3.392 7.973-1.3001-3.0007-4.2461-4.9713-7.5406-4.9713s-6.2414 1.9706-7.5406 4.9713c-2.0881-2.0088-3.3911-4.8405-3.3911-7.973 0-6.0778 4.9043-11.0224 10.9326-11.0224 6.0284 0 10.9327 4.9446 10.9327 11.0224zm-4.1448 8.6337c-1.8655 1.4941-4.2253 2.3878-6.7869 2.3878-2.5615 0-4.9213-.8937-6.7878-2.3878 1.0843-2.8117 3.7708-4.6773 6.7878-4.6773 3.0171 0 5.7036 1.8665 6.7869 4.6773zm-38.4305-38.02716c8.2424 0 14.9478 6.76048 14.9478 15.07046 0 4.3708-1.856 8.312-4.8134 11.0674-1.6808-4.1188-5.6666-6.8407-10.1344-6.8407-4.4677 0-8.4535 2.721-10.1343 6.8407-2.9574-2.7554-4.8134-6.6966-4.8134-11.0674 0-8.30998 6.7054-15.07046 14.9477-15.07046zm9.3749 26.79846c-2.5662 2.089-5.8275 3.3426-9.3758 3.3426s-6.8096-1.2536-9.3758-3.3426c1.4611-3.9297 5.1865-6.5466 9.3758-6.5466s7.9147 2.6169 9.3758 6.5466zm-51.9056 2.595c0-6.0778 4.9043-11.0224 10.9326-11.0224s10.9327 4.9446 10.9327 11.0224c0 3.1325-1.3031 5.9642-3.3921 7.973-1.2992-3.0007-4.2461-4.9713-7.5406-4.9713s-6.2414 1.9706-7.5406 4.9713c-2.0881-2.0088-3.392-4.8405-3.392-7.973zm17.7195 8.6337c-1.8655 1.4941-4.2254 2.3878-6.7878 2.3878-2.5625 0-4.9214-.8937-6.7878-2.3878 1.0842-2.8117 3.7707-4.6773 6.7878-4.6773 3.017 0 5.7035 1.8665 6.7878 4.6773zm60.6783 6.8808c0 19.9511-16.0993 36.1816-35.8869 36.1816-19.7877 0-35.8879-16.2305-35.8879-36.1816 0-1.4226.0824-2.8528.2462-4.2601 1.268.4669 2.6363.7218 4.0634.7218 6.5501 0 11.8796-5.3732 11.8796-11.9772 0-4.2762-2.2348-8.036-5.5889-10.1555 2.8314-2.8365 6.07-5.1556 9.6457-6.9027-.1525.8888-.233 1.8035-.233 2.7353 0 8.8361 7.1306 16.0252 15.8947 16.0252 8.7642 0 15.8948-7.1891 15.8948-16.0252 0-.9251-.0796-1.8312-.2292-2.7143 3.5729 1.7519 6.8077 4.0738 9.6353 6.9142-3.3248 2.1252-5.5369 5.8678-5.5369 10.123 0 6.604 5.3295 11.9772 11.8796 11.9772 1.3959 0 2.7358-.2444 3.9811-.6922.1609 1.3978.2433 2.8175.2433 4.2305z"/><path d="m86.1204 34.1773c2.9318 0 5.3172-2.405 5.3172-5.3609s-2.3854-5.3608-5.3172-5.3608-5.3172 2.4049-5.3172 5.3608 2.3854 5.3609 5.3172 5.3609zm0-9.766c2.41 0 4.3702 1.9763 4.3702 4.4061s-1.9602 4.4061-4.3702 4.4061-4.3702-1.9763-4.3702-4.4061 1.9602-4.4061 4.3702-4.4061z"/><path d="m22.8796 34.1773c2.9317 0 5.3171-2.405 5.3171-5.3609s-2.3854-5.3608-5.3171-5.3608c-2.9318 0-5.3172 2.4049-5.3172 5.3608s2.3854 5.3609 5.3172 5.3609zm0-9.766c2.41 0 4.3702 1.9763 4.3702 4.4061s-1.9602 4.4061-4.3702 4.4061c-2.4101 0-4.3703-1.9763-4.3703-4.4061s1.9602-4.4061 4.3703-4.4061z"/><path d="m72.1972 53.4173h-.8465l-.751-2.0203h.9063c1.106 0 2.0037-.9041 2.0037-2.0202s-.8968-2.0202-2.0037-2.0202h-2.4091l-2.1288-5.7313c-.0729-.1976-.2613-.3294-.4706-.3284h-24.0405c-.2093 0-.3977.1298-.4706.3284l-2.1288 5.7313h-2.409c-1.1061 0-2.0038.9041-2.0038 2.0202s.8968 2.0202 2.0038 2.0202h.9062l-.7509 2.0203h-.8466c-1.001 0-1.8135.8182-1.8135 1.8283v10.7961c0 .2788.2245.5051.501.5051v3.2413c0 .9987.803 1.8073 1.7926 1.8073h4.427c.9905 0 1.7926-.8096 1.7926-1.8073v-3.2413h22.0367v3.2413c0 .9987.803 1.8073 1.7926 1.8073h4.427c.9906 0 1.7926-.8096 1.7926-1.8073v-3.2413c.2765 0 .501-.2263.501-.5051v-10.7961c0-1.0092-.8116-1.8283-1.8135-1.8283zm-.6912-5.0496c.553 0 1.0018.4525 1.0018 1.0101 0 .5575-.4488 1.0101-1.0018 1.0101h-1.2822l-.751-2.0202zm-28.7033-6.0598h23.3491l4.1316 11.1094h-31.6123zm-5.3541 8.08c-.5531 0-1.0019-.4526-1.0019-1.0101 0-.5576.4488-1.0101 1.0019-1.0101h2.0331l-.751 2.0202zm-1.5019 8.079h3.696c.1714 0 .3106.1403.3106.3131v1.3939c0 .1728-.1392.3132-.3106.3132h-3.696zm6.5103 11.3212c0 .4411-.3541.7982-.7916.7982h-4.4271c-.4375 0-.7916-.3571-.7916-.7982v-3.2413h6.0103zm19.032-4.2524h-14.0235v-4.0395h14.0235zm11.0188 4.2524c0 .4411-.3541.7982-.7916.7982h-4.4271c-.4375 0-.7916-.3571-.7916-.7982v-3.2413h6.0103zm.5-9.302h-3.6959c-.1715 0-.3107-.1403-.3107-.3131v-1.3939c0-.1728.1392-.3132.3107-.3132h3.6959zm0-3.0294h-3.6959c-.7235.0029-1.3097.5939-1.3125 1.3233v1.3939c.0028.7294.589 1.3204 1.3125 1.3233h3.6959v4.0395h-10.5178v-4.5446c0-.2787-.2245-.505-.501-.505h-15.0254c-.2765 0-.5009.2263-.5009.505v4.5446h-10.5179v-4.0395h3.696c.7234-.0029 1.3096-.5939 1.3125-1.3233v-1.3939c-.0029-.7294-.5891-1.3204-1.3125-1.3233h-3.696v-2.2121c.0028-.4506.3646-.8153.8115-.8182h35.439c.447.0029.8087.3676.8116.8182v2.2121z"/></g></svg>