<svg fill="none" height="87" viewBox="0 0 109 87" width="109" xmlns="http://www.w3.org/2000/svg"><g fill="#fff"><path d="m98.6023 18.2377c0-4.9013-1.1101-8.0925-3.4936-10.04428-2.1627-1.77157-5.224-2.51215-9.3133-3.36547l-.291-.06065-.1735-.24344c-.6997-.98231-1.7337-1.52386-2.9115-1.52386-1.8462 0-3.3481 1.46065-3.3481 3.25614 0 1.79548 1.5019 3.25357 3.3481 3.25357.5923 0 1.1254-.15204 1.584-.45101l.2639-.17169.3072.06578c7.6921 1.64681 9.5197 2.03811 9.5197 9.28491 0 5.8401-2.8701 13.4705-7.1421 18.9876l-.1921.2477-.3088.041c-.6989.0931-1.314.3989-1.8285.9106l-.0262.0282c-1.8445 2.062-5.6148 5.512-10.1729 5.512-2.1034 0-4.2272-.7064-6.3484-2.1064 2.012-3.7917 3.1822-7.9413 3.3625-11.7544.2453-5.2105-1.507-9.5028-5.2104-12.7572-2.8828-2.5326-6.3603-3.8711-10.057-3.8711-.1176 0-.6143-.0026-.9384-.0026 1.0425-2.8068 3.6155-3.3586 8.9672-4.50409l.2936-.06235.2572.15631c.4832.29299 1.0636.44845 1.6779.44845 1.8454 0 3.3472-1.4598 3.3472-3.25357 0-1.79378-1.5001-3.25785-3.3455-3.25785-1.2134 0-2.2177.48347-2.8294 1.36071l-.1684.24173-.3038.06919c-3.8481.86956-7.1717 1.62038-9.446 3.45943-1.166.94302-2.0121 2.13714-2.5883 3.65164-.3038.7978-.5331 1.6861-.6921 2.6744-.6922.3016-1.9681 1.0063-2.6196 1.3881-2.3082 1.3513-4.4515 3.1109-6.5532 5.3805l-.495.5347-.4941-.5347c-2.1559-2.3328-4.3372-4.1146-6.6666-5.448-2.6314-1.5059-5.515-2.302-8.3402-2.302-3.9158 0-7.632 1.5281-10.4656 4.3016-4.0521 3.9668-5.5311 9.1338-4.3973 15.3608.8343 4.5843 2.8624 8.974 6.1978 13.42 4.1756 5.565 9.9724 11.1821 16.4773 15.8553v.3331c0 11.1684 9.705 20.2544 21.6336 20.2544s21.7579-9.086 21.7579-20.2544v-12.8759l.6507-.0965c4.4768-.6654 8.7954-3.1724 12.4887-7.2503.5263-.6398.7454-1.3001.709-2.1397l-.0126-.2896.1802-.2255c4.9515-6.2073 8.1506-14.6979 8.1506-21.6296zm-42.4058-3.9796c3.4623 0 6.7487 1.2796 9.5036 3.7003 3.508 3.0827 5.169 7.1555 4.9346 12.1055-.1743 3.696-1.2971 7.7064-3.2186 11.3358-1.0653-.7756-2.1297-1.7272-3.1899-2.8513-.5593-.5595-1.1981-.9148-1.8479-1.0258l-.2903-.0496-.1819-.234c-4.3482-5.6103-7.2698-13.2458-7.2698-19.0004 0-1.6477.1057-2.941.3579-3.9762.3376-.0052 1.0238-.0026 1.2015-.0026zm-38.9874 31.8097c-3.2584-4.3418-5.2367-8.6196-6.0481-13.0767-1.0974-6.0271.2657-10.8122 4.1655-14.6295 2.6762-2.6198 6.1986-4.0625 9.9173-4.0625 2.6898 0 5.4321.756 7.9315 2.1867 2.3243 1.33 4.509 3.1357 6.6759 5.5137l.0245.0257c.2251.228.5356.3596.8546.3596.3402 0 .6685-.1452.8994-.3998 2.1069-2.308 4.2509-4.0864 6.5549-5.436.4891-.2861 1.4689-.8379 2.0882-1.1437-.0956.8704-.1429 1.8117-.1429 2.8333 0 6.9411 3.2431 15.4777 8.2631 21.7474l.1803.2247-.0119.2887c-.0321.8132.2226 1.5349.7167 2.0321l.0169.0179c1.4782 1.5854 3.0469 2.9367 4.6765 4.036-3.9691 5.1644-9.3555 10.2032-16.028 14.955-1.8979 1.3513-3.904 2.6241-5.845 3.8549l-.9578.6099-.0457.0205c-.1024.0453-.2115.0666-.2843.0752l-.2318.0299-.2006-.1205c-.7513-.4518-1.8733-1.1582-2.6128-1.6255-.0584-.5389-.088-1.0856-.088-1.6383v-11.3264l.5974-.1333c5.427-1.2121 9.2176-5.7008 9.2176-10.9155 0-6.2441-5.4693-11.3248-12.1926-11.3248-6.7232 0-12.0605 5.0798-12.0605 11.3248 0 5.1968 3.7872 9.6847 9.21 10.9121l.5948.135v9.9956c-6.2241-4.5306-11.8017-9.9709-15.8351-15.3462zm54.0915 3.6439.6253.1205-.1236 12.9135c0 8.8587-7.6819 16.0663-17.1254 16.0663-8.4037 0-15.4019-5.7931-16.7599-13.3757.6413.4015 1.5687.9832 2.1677 1.3428.1532.0923.3605.1409.5991.1409.3232 0 .6684-.0922.9011-.24l.924-.5868c1.9528-1.2377 3.9716-2.5173 5.8974-3.8891 6.7698-4.8218 12.223-9.9307 16.2429-15.1771 2.1441 1.3411 4.3838 2.2499 6.6497 2.6847zm18.3853-9.911-.0888.1084.0186.1393c.1167.8584-.0347 1.4683-.5069 2.0389l-.011.0137-.0118.0128c-3.7525 4.1462-8.1447 6.6028-12.7019 7.1042l-.0415.0043h-.5432v13.5242c0 10.8148-9.4757 19.6129-21.1225 19.6129s-20.9981-8.7981-20.9981-19.6129v-11.8876l-.2691-.0427c-5.5252-.8696-9.5358-5.2618-9.5358-10.4441 0-5.8904 5.1258-10.6832 11.4252-10.6832 6.2993 0 11.5571 4.7928 11.5571 10.6832 0 5.2011-4.014 9.5942-9.545 10.4441l-.27.0418v11.8894c0 9.2123 7.9113 16.7078 17.6348 16.7078 9.7236 0 17.7609-7.4904 17.7609-16.7044l.1286-13.4867-.2775-.0375c-4.4184-.6031-8.7573-3.0691-12.5479-7.1316-.6338-.6475-.5678-1.5546-.5094-1.9142l.0228-.1444-.0922-.1127c-5.1012-6.2057-8.3977-14.7176-8.3977-21.6834 0-4.7646 1.0043-7.7184 3.255-9.57623 1.9114-1.57767 4.6376-2.30885 8.0534-3.09213l1.4291-.32459.3714-.08371.0525-.10506c.4577-.91227 1.3461-1.41453 2.5028-1.41453 1.4951 0 2.7118 1.17279 2.7118 2.6155s-1.2167 2.61209-2.7118 2.61209c-.6845 0-1.3081-.23319-1.7126-.63978l-.5423.08883-.6033.12984c-3.717.7978-6.0777 1.37352-7.5186 2.63347-1.4579 1.2753-2.0518 3.3484-2.0518 7.1571 0 6.0664 3.0942 14.0112 7.6996 19.7692l.0948.1187h.1514c.6169 0 1.2616.3058 1.8167.8628l.0152.0153c3.5021 3.7166 7.0837 5.6017 10.6467 5.6017 4.7967 0 8.7184-3.5747 10.629-5.7059l.0169-.0188.0177-.0179c.5001-.4895 1.1101-.7372 1.8133-.7372h.1514l.0948-.1187c4.5343-5.6615 7.5812-13.6062 7.5812-19.7692 0-3.8796-.6176-5.9809-2.1314-7.2511-1.5534-1.30433-4.1967-1.8698-7.8545-2.65308l-.2284-.04869-.5026-.05467c-.4265.42966-.9477.63893-1.5941.63893-1.4959 0-2.7127-1.17193-2.7127-2.61208s1.2168-2.6155 2.7127-2.6155c.929 0 1.7269.39292 2.3057 1.13606l.1633.20927.2538.36047c4.0774.84734 7.2978 1.51702 9.4765 3.25357 2.315 1.84502 3.3473 4.81672 3.3473 9.63682 0 6.8497-3.3278 15.5154-8.281 21.563z"/><path d="m42.3758 40.3713c0-3.8703-3.2271-7.0188-7.1928-7.0188-3.9658 0-7.1937 3.0828-7.1937 7.0188 0 3.9361 3.1594 7.1418 7.1937 7.1418s7.1928-3.2031 7.1928-7.1418zm-7.1928 6.2877c-3.5597 0-6.3476-2.7616-6.3476-6.2877 0-3.526 2.7879-6.1646 6.3476-6.1646 3.5596 0 6.3467 2.7659 6.3467 6.1646 0 3.3988-2.8472 6.2877-6.3467 6.2877z"/></g></svg>