<svg fill="none" height="87" viewBox="0 0 109 87" width="109" xmlns="http://www.w3.org/2000/svg"><g fill="#fff"><path d="m73.4543 36.5918-6.0236-12.8383c-.0898-.1907-.2802-.3116-.4891-.3116h-9.2512c-.2586-1.5405-1.5928-2.7183-3.1953-2.7183-1.6024 0-2.9366 1.1778-3.1952 2.7183h-9.2415c-.2088 0-.3993.122-.4891.3116l-6.0236 12.8383h.0011c-.0336.0708-.053.1493-.053.2332 0 3.6442 2.9452 6.6098 6.5646 6.6098s6.5646-2.9656 6.5646-6.6098c0-.0828-.0205-.1613-.053-.2321h.0011l-5.659-12.0616h8.3878c.2283 1.3641 1.2995 2.4426 2.6542 2.6725v20.1139h-8.667c-.2045 0-.3916.1155-.4825.2996l-2.9042 5.8014c-.0844.1689-.0757.3693.0227.5306.0985.1612.2727.2593.461.2593h24.2254c.1882 0 .3624-.0981.4609-.2593.0985-.1613.1071-.3617.0227-.5306l-2.9041-5.8014c-.092-.1841-.2792-.2996-.4826-.2996h-8.667v-20.1139c1.3547-.2299 2.4259-1.3084 2.6542-2.6725h8.3976l-5.659 12.0616h.0011c-.0336.0708-.053.1493-.053.2331 0 3.6443 2.9452 6.6099 6.5646 6.6099s6.5646-2.9656 6.5646-6.6099c0-.0828-.0205-.1612-.053-.232h.0011zm-31.3959-11.3305 5.1699 11.0189c-1.3882 0-1.9292-.0043-2.454-.0076-.5757-.0033-1.1188-.0065-2.7148-.0065s-2.3523.0032-3.0167.0065c-.5356.0033-1.0863.0054-2.1532.0065l5.1699-11.0178zm0 17.084c-2.8403 0-5.184-2.1866-5.4556-4.9756 1.2628 0 1.8622-.0044 2.4454-.0065.6633-.0033 1.3482-.0066 3.0113-.0066 1.663 0 2.1348.0033 2.7083.0066.5615.0032 1.1404.0065 2.7472.0076-.2726 2.789-2.6152 4.9756-5.4555 4.9756zm23.6714 10.7738h-22.4682l2.3588-4.712h17.7506zm-11.2347-26.959c-1.1902 0-2.1586-.9751-2.1586-2.1735s.9684-2.1735 2.1586-2.1735c1.1903 0 2.1587.9751 2.1587 2.1735s-.9684 2.1735-2.1587 2.1735zm17.6164 10.1201c-1.0668 0-1.6176-.0043-2.1532-.0065-.6643-.0033-1.3514-.0066-3.0167-.0066-1.6652 0-2.1391.0033-2.7147.0066-.5259.0032-1.0658.0065-2.4541.0076l5.1699-11.0189 5.1699 11.0178zm-5.1699 6.0651c-2.8403 0-5.1839-2.1866-5.4555-4.9756 1.6068 0 2.1857-.0044 2.7472-.0076.5735-.0033 1.1156-.0066 2.7083-.0066 1.5928 0 2.348.0033 3.0113.0066.5821.0032 1.1827.0065 2.4454.0065-.2727 2.789-2.6153 4.9756-5.4556 4.9756z"/><path d="m105.827 4h-102.65322c-1.19888 0-2.17378.98162-2.17378 2.18875v62.55425c0 1.2072.9749 2.1888 2.17378 2.1888h47.33842v5.1085h-8.8801c-.725 0-1.3136.5938-1.3136 1.3226v5.3156c0 .7299.5897 1.3226 1.3136 1.3226h25.7358c.725 0 1.3136-.5938 1.3136-1.3226v-5.3156c0-.7299-.5897-1.3226-1.3136-1.3226h-8.8801v-5.1085h47.3382c1.199 0 2.174-.9816 2.174-2.1888v-62.55425c0-1.20713-.975-2.18875-2.174-2.18875zm-38.4591 73.2453c.0639 0 .1158.0523.1158.1165v5.3156c0 .0643-.0519.1166-.1158.1166h-25.7358c-.0639 0-.1158-.0523-.1158-.1166v-5.3156c0-.0642.0519-.1165.1158-.1165zm-15.6579-1.2061v-4.9876h5.5789v4.9876zm55.208-7.2973c0 .6058-.49 1.0993-1.092 1.0993h-102.65222c-.6016 0-1.09176-.4924-1.09176-1.0993v-62.55315c0-.60575.48907-1.09928 1.09176-1.09928h102.65322c.602 0 1.092.49244 1.092 1.09928v62.55425z"/><path d="m100.196 9.75353h-91.39246c-1.19888 0-2.17378.98157-2.17378 2.18877v51.0483c0 1.2072.9749 2.1888 2.17378 2.1888h91.39246c1.199 0 2.174-.9816 2.174-2.1888v-51.0494c0-1.2071-.975-2.18876-2.174-2.18876zm1.092 53.23597c0 .6058-.489 1.0993-1.092 1.0993h-91.39246c-.6016 0-1.09176-.4924-1.09176-1.0993v-51.0483c0-.6058.49016-1.0993 1.09176-1.0993h91.39246c.602 0 1.092.4925 1.092 1.0993z"/></g></svg>