<svg fill="none" height="87" viewBox="0 0 109 87" width="109" xmlns="http://www.w3.org/2000/svg"><g fill="#fff"><path d="m91.0557 83.1113v-10.1029c0-.2449-.1992-.4443-.4438-.4443h-3.5966v-12.1605l.2942-.2272c.0428-.0328.0807-.0774.1109-.1296l3.9521-6.8536c.0589-.1002.0732-.2155.0421-.3358-.0295-.1128-.1009-.2054-.206-.266l-49.6703-28.692 5.3852-9.3454c.9363-1.6217 1.1834-3.5169.6951-5.33551-.4892-1.82113-1.65-3.34014-3.268-4.27679-1.0666-.61602-2.2727-.9417-3.4881-.9417-.6169 0-1.2364.08247-1.8416.24573-1.8205.49063-3.336 1.65282-4.269 3.27197l-14.4846 25.1196c-.9363 1.6217-1.1834 3.5169-.6951 5.3355.4892 1.8211 1.6499 3.3401 3.2671 4.2768.6716.3871 1.3902.6589 2.1366.8062l.6094.1212v39.9343h-9.5853v.8887h78v-.8887zm-.6767-29.9754-3.5066 6.0828-31.5774-18.2407-.0311-.0228c-.0353-.0252-.0622-.0387-.079-.0462l-.0403-.0177-17.5509-10.1365 3.5067-6.0828 49.2795 28.4631zm-42.7503 8.8254 3.6705-9.656h7.3856l3.6529 9.656zm15.0461.8912 3.6739 9.7116h-22.7495l3.6916-9.7116h15.3831zm-11.0402-11.4392 3.3604-8.8498 3.3503 8.8498zm-28.3498-9.9346c-1.4146-.8163-2.4283-2.1426-2.8536-3.7348-.4253-1.5931-.2101-3.2493.606-4.6622l14.4847-25.11881c.8153-1.41634 2.1407-2.43126 3.7276-2.85624.5237-.14307 1.0667-.21544 1.613-.21544 1.0641 0 2.1173.28444 3.046.8222 2.9318 1.69405 3.9395 5.46169 2.2467 8.39709l-14.4846 25.1187c-.8187 1.4197-2.1433 2.4363-3.7294 2.8622-.5253.1405-1.0641.212-1.6012.212-1.0674 0-2.1248-.2853-3.0561-.8239zm3.1889 41.6326v-39.8881l.6707-.0765c2.2081-.2525 4.1875-1.5502 5.2961-3.4706l4.7027-8.1555 17.3029 9.9943-15.8068 41.5964zm13.1146 0 3.6739-9.656h23.421l3.6529 9.656zm42.5629-10.1029v10.1029h-10.8653l-15.4277-40.7809 30.2645 17.4833v12.7495h-3.5277c-.2446 0-.4438.1995-.4438.4444zm8.0144 10.1029h-7.1243v-9.6585h7.1243z"/><path d="m28.933 36.0388c0-1.408-1.1439-2.5525-2.5492-2.5525-1.4054 0-2.5493 1.1454-2.5493 2.5525 0 1.407 1.1439 2.5524 2.5493 2.5524 1.4053 0 2.5492-1.1454 2.5492-2.5524zm-2.5501 1.7117c-.9422 0-1.7088-.7675-1.7088-1.7109s.7666-1.7109 1.7088-1.7109 1.7088.7675 1.7088 1.7109-.7666 1.7109-1.7088 1.7109z"/></g></svg>