<?xml version="1.0" encoding="UTF-8"?>
<svg id="Capa_1" xmlns="http://www.w3.org/2000/svg" version="1.1" xmlns:xlink="http://www.w3.org/1999/xlink" viewBox="0 0 1309.5 153.7">
  <!-- Generator: Adobe Illustrator 29.0.0, SVG Export Plug-In . SVG Version: 2.1.0 Build 186)  -->
  <defs>
    <style>
      .st0 {
        fill: url(#Degradado_sin_nombre_6);
      }

      .st1 {
        fill: url(#Degradado_sin_nombre_5);
      }

      .st2 {
        fill: #fff;
      }

      .st3 {
        fill: url(#Degradado_sin_nombre_4);
      }

      .st4 {
        fill: none;
        stroke: url(#Degradado_sin_nombre);
        stroke-width: 2px;
      }

      .st5 {
        fill: url(#Degradado_sin_nombre_2);
      }

      .st6 {
        fill: url(#Degradado_sin_nombre_9);
      }

      .st7 {
        fill: url(#Degradado_sin_nombre_7);
      }

      .st8 {
        fill: url(#Degradado_sin_nombre_3);
      }

      .st9 {
        fill: url(#Degradado_sin_nombre_8);
      }
    </style>
    <linearGradient id="Degradado_sin_nombre" data-name="Degradado sin nombre" x1="54.7" y1="321.1" x2="1245.7" y2="321.1" gradientTransform="translate(0 -244.3)" gradientUnits="userSpaceOnUse">
      <stop offset="0" stop-color="#4b62fb"/>
      <stop offset="1" stop-color="#eb5c21"/>
    </linearGradient>
    <linearGradient id="Degradado_sin_nombre_2" data-name="Degradado sin nombre 2" x1="-200.7" y1="-50.3" x2="-200.7" y2="1160.7" gradientTransform="translate(100.1 -123.9) rotate(-90)" gradientUnits="userSpaceOnUse">
      <stop offset="0" stop-color="#4b62fb"/>
      <stop offset="1" stop-color="#eb5c21"/>
    </linearGradient>
    <linearGradient id="Degradado_sin_nombre_3" data-name="Degradado sin nombre 3" x1="-200.7" y1="-43.4" x2="-200.7" y2="1146.1" gradientTransform="translate(100.1 -123.9) rotate(-90)" gradientUnits="userSpaceOnUse">
      <stop offset="0" stop-color="#4b62fb"/>
      <stop offset="1" stop-color="#eb5c21"/>
    </linearGradient>
    <linearGradient id="Degradado_sin_nombre_4" data-name="Degradado sin nombre 4" x1="-200.7" y1="-40.7" x2="-200.7" y2="1149.3" gradientTransform="translate(100.1 -123.9) rotate(-90)" gradientUnits="userSpaceOnUse">
      <stop offset="0" stop-color="#4b62fb"/>
      <stop offset="1" stop-color="#eb5c21"/>
    </linearGradient>
    <linearGradient id="Degradado_sin_nombre_5" data-name="Degradado sin nombre 5" x1="-200.7" y1="-39.3" x2="-200.7" y2="1150.2" gradientTransform="translate(100.1 -123.9) rotate(-90)" gradientUnits="userSpaceOnUse">
      <stop offset="0" stop-color="#4b62fb"/>
      <stop offset="1" stop-color="#eb5c21"/>
    </linearGradient>
    <linearGradient id="Degradado_sin_nombre_6" data-name="Degradado sin nombre 6" x1="-200.7" y1="-37" x2="-200.7" y2="1152.5" gradientTransform="translate(100.1 -123.9) rotate(-90)" gradientUnits="userSpaceOnUse">
      <stop offset="0" stop-color="#4b62fb"/>
      <stop offset="1" stop-color="#eb5c21"/>
    </linearGradient>
    <linearGradient id="Degradado_sin_nombre_7" data-name="Degradado sin nombre 7" x1="-200.7" y1="-35.3" x2="-200.7" y2="1154.7" gradientTransform="translate(100.1 -123.9) rotate(-90)" gradientUnits="userSpaceOnUse">
      <stop offset="0" stop-color="#4b62fb"/>
      <stop offset="1" stop-color="#eb5c21"/>
    </linearGradient>
    <linearGradient id="Degradado_sin_nombre_8" data-name="Degradado sin nombre 8" x1="-200.7" y1="-42.1" x2="-200.7" y2="1147.9" gradientTransform="translate(100.1 -123.9) rotate(-90)" gradientUnits="userSpaceOnUse">
      <stop offset="0" stop-color="#4b62fb"/>
      <stop offset="1" stop-color="#eb5c21"/>
    </linearGradient>
    <linearGradient id="Degradado_sin_nombre_9" data-name="Degradado sin nombre 9" x1="-200.7" y1="-38.4" x2="-200.7" y2="1151.6" gradientTransform="translate(100.1 -123.9) rotate(-90)" gradientUnits="userSpaceOnUse">
      <stop offset="0" stop-color="#4b62fb"/>
      <stop offset="1" stop-color="#eb5c21"/>
    </linearGradient>
  </defs>
  <path class="st4" d="M54.7,76.8h1200"/>
  <rect class="st5" x="49.7" y="71.8" width="10" height="10"/>
  <rect class="st8" x="221.1" y="71.8" width="10" height="10"/>
  <rect class="st3" x="563.9" y="71.8" width="10" height="10"/>
  <rect class="st1" x="735.3" y="71.8" width="10" height="10"/>
  <rect class="st0" x="1078.1" y="71.8" width="10" height="10"/>
  <rect class="st7" x="1249.7" y="71.8" width="10" height="10"/>
  <rect class="st9" x="392.5" y="71.8" width="10" height="10"/>
  <rect class="st6" x="906.7" y="71.8" width="10" height="10"/>
  <path class="st2" d="M9.6,18.8h-4.6V5.2h4.6c1.2,0,2.1,0,2.9.4.8.2,1.3.6,1.8,1.2.4.6.7,1.2.9,2s.2,1.8.2,3,0,2.2-.2,3.1c-.1.8-.4,1.5-.8,2.2-.4.6-1,1.1-1.8,1.4s-1.8.4-3,.4h0ZM12.5,13.4v-3.6c0-.5-.2-.9-.4-1.2-.2-.4-.5-.6-.9-.8-.4,0-.9-.2-1.6-.2h-1.8v8.8h1.8c1,0,1.7-.3,2.2-.8.4-.4.6-1.2.7-2.2ZM17.5,18.8v-10h2.7v10h-2.7ZM17.5,7.5v-2.7h2.7v2.7h-2.7ZM29.8,11.3c-1.7-.2-2.8-.3-3.5-.3s-1.1,0-1.3.2c-.2.1-.3.3-.3.6s.1.4.4.5c.3,0,.9.2,2,.4s1.8.5,2.3.9.7,1.2.7,2.1c0,2.2-1.3,3.2-4,3.2s-1.9-.1-3.2-.4h-.6v-2.4c1.7.2,2.8.3,3.4.3s1.1,0,1.3-.2c.2-.1.4-.3.4-.6s-.1-.4-.4-.6c-.2-.1-.9-.3-1.9-.4-1-.2-1.8-.5-2.3-.9s-.8-1.1-.8-2.2.4-1.9,1.1-2.4c.7-.5,1.6-.8,2.8-.8s1.9.1,3.2.4h.7v2.6ZM35.8,8.6c.7,0,1.6.1,2.7.3h.5v2.2c-1.1-.1-1.8-.2-2.3-.2-.9,0-1.5.2-1.8.6-.3.4-.4,1.1-.4,2.2s0,1.8.4,2.3c.3.4.9.6,1.9.6l2.3-.2v2.1c-1.3.3-2.4.4-3.2.4-1.5,0-2.5-.4-3.2-1.2-.6-.8-1-2.2-1-4s.3-3.2,1-4,1.7-1.2,3.2-1.2h-.1ZM41.5,10c.7-.9,1.9-1.4,3.5-1.4s2.8.5,3.5,1.4,1.1,2.2,1.1,3.8c0,3.5-1.5,5.3-4.6,5.3s-4.6-1.8-4.6-5.3.4-2.9,1.1-3.8ZM43.5,16.1c.3.5.8.7,1.5.7s1.2-.2,1.5-.7.4-1.2.4-2.3,0-1.8-.4-2.2c-.3-.5-.8-.7-1.5-.7s-1.2.2-1.5.7-.4,1.2-.4,2.2,0,1.8.4,2.3ZM50.5,8.8h2.8l1.6,7.7h.6l1.7-7.7h2.7l-2.4,10h-4.6s-2.4-10-2.4-10ZM63.5,15c0,.6.2,1.1.5,1.3.3.3.8.4,1.4.4,1.2,0,2.3,0,3.3-.1h.6v1.9c-1.5.4-2.9.6-4.2.6s-2.6-.4-3.3-1.2-1-2.1-1-3.9c0-3.6,1.5-5.4,4.4-5.4s4.4,1.5,4.4,4.5l-.2,1.9s-5.9,0-5.9,0ZM66.9,12.9c0-.8,0-1.4-.4-1.7s-.7-.5-1.3-.5-1.1.2-1.3.5c-.3.3-.4.9-.4,1.6h3.5,0ZM71.5,18.8v-10h2.7v1.1c1.1-.7,2.2-1.1,3.2-1.3v2.7c-1.1.2-2,.5-2.8.7h-.4v6.8s-2.7,0-2.7,0ZM78,8.8h2.6l1.8,7.7h.5l1.8-7.7h2.6l-3.5,14.2h-2.6l1.1-4.2h-1.9l-2.5-10h0ZM94.3,7.6c0-.9.4-1.7,1.1-2.2s1.8-.8,3-.8,2.3.3,3,.8,1.1,1.3,1.1,2.3-.2,1.7-.6,2.3c-.4.5-1.1,1.2-2.1,1.9l2,2c0-.2.2-.6.2-1.2s0-1,0-1.4h2.6c-.2,1.6-.5,3-1,4.1l2.2,2-1.5,1.7-2.1-1.7c-.5.5-1.1.9-1.8,1.3-.7.3-1.5.5-2.3.5-1.9,0-3.3-.3-4.2-1-.8-.7-1.2-1.7-1.2-3.1s.2-1.9.7-2.5,1.2-1.1,2.2-1.5c-.5-.7-.9-1.2-1.1-1.6-.2-.4-.2-1-.2-1.6v-.3ZM97.8,16.7c.5,0,1.1,0,1.6-.2.5-.1.9-.3,1.1-.6l-3.5-3.5c-1,.5-1.5,1.2-1.5,2.3s.8,2,2.3,2ZM97,8.2c0,.5.3,1.1.9,1.8l.3.4c.5-.4.9-.8,1.2-1.1.2-.3.3-.7.3-1.1,0-.8-.5-1.3-1.4-1.3s-1.4.4-1.4,1.3h0ZM2.5,48.8l3.1-13.6h5.2l3.1,13.6h-2.8l-.5-2.5h-4.8l-.5,2.5s-2.8,0-2.8,0ZM7.7,37.5l-1.4,6.5h3.7l-1.4-6.5h-1,0ZM22.6,41.3c-1.7-.2-2.8-.3-3.5-.3s-1.1,0-1.3.2c-.2,0-.3.3-.3.6s.1.4.4.5c.3,0,.9.2,2,.4s1.8.5,2.3.9.7,1.2.7,2.1c0,2.2-1.3,3.2-4,3.2s-1.9,0-3.2-.4h-.6v-2.4c1.7.2,2.8.3,3.4.3s1.1,0,1.3-.2c.2,0,.4-.3.4-.6s-.1-.4-.4-.6c-.2,0-.9-.3-1.9-.4-1-.2-1.8-.5-2.3-.9-.5-.4-.8-1.1-.8-2.2s.4-1.9,1.1-2.4,1.6-.8,2.8-.8,1.9,0,3.2.4h.7v2.6ZM32.1,41.3c-1.7-.2-2.8-.3-3.5-.3s-1.1,0-1.3.2c-.2,0-.3.3-.3.6s.1.4.4.5c.3,0,.9.2,2,.4s1.8.5,2.3.9c.5.4.7,1.2.7,2.1,0,2.2-1.3,3.2-4,3.2s-1.9,0-3.2-.4h-.6v-2.4c1.7.2,2.8.3,3.4.3s1.1,0,1.3-.2c.2,0,.4-.3.4-.6s-.1-.4-.4-.6c-.2,0-.9-.3-1.9-.4-1-.2-1.8-.5-2.3-.9s-.8-1.1-.8-2.2.4-1.9,1.1-2.4,1.6-.8,2.8-.8,1.9,0,3.2.4h.7v2.6ZM36.5,45c0,.6.2,1.1.5,1.3.3.3.8.4,1.4.4,1.2,0,2.3,0,3.3,0h.6v1.9c-1.5.4-2.9.6-4.2.6s-2.6-.4-3.3-1.2-1-2.1-1-3.9c0-3.6,1.5-5.4,4.4-5.4s4.4,1.5,4.4,4.5l-.2,1.9h-5.9ZM39.9,42.9c0-.8,0-1.4-.4-1.7-.3-.3-.7-.5-1.3-.5s-1.1.2-1.3.5c-.3.3-.4.9-.4,1.6h3.5,0ZM51.7,41.3c-1.7-.2-2.8-.3-3.5-.3s-1.1,0-1.3.2c-.2,0-.3.3-.3.6s0,.4.4.5c.3,0,.9.2,2,.4s1.8.5,2.3.9.7,1.2.7,2.1c0,2.2-1.3,3.2-4,3.2s-1.9,0-3.2-.4h-.6v-2.4c1.7.2,2.8.3,3.4.3s1.1,0,1.3-.2c.2,0,.4-.3.4-.6s0-.4-.4-.6c-.2,0-.9-.3-1.9-.4-1-.2-1.8-.5-2.3-.9s-.8-1.1-.8-2.2.4-1.9,1.1-2.4c.7-.5,1.6-.8,2.8-.8s1.9,0,3.2.4h.7v2.6ZM61.1,41.3c-1.7-.2-2.8-.3-3.5-.3s-1.1,0-1.3.2c-.2,0-.3.3-.3.6s0,.4.4.5c.3,0,.9.2,2,.4s1.8.5,2.3.9.7,1.2.7,2.1c0,2.2-1.3,3.2-4,3.2s-1.9,0-3.2-.4h-.6v-2.4c1.7.2,2.8.3,3.4.3s1.1,0,1.3-.2c.2,0,.4-.3.4-.6s0-.4-.4-.6c-.2,0-.9-.3-1.9-.4-1-.2-1.8-.5-2.3-.9s-.8-1.1-.8-2.2.4-1.9,1.1-2.4c.7-.5,1.6-.8,2.8-.8s1.9,0,3.2.4h.7v2.6ZM66.1,48.8h-2.7v-10h2.7v.6c.9-.5,1.7-.8,2.4-.8,1.1,0,1.9.3,2.5.9,1.2-.6,2.3-.9,3.4-.9s2.2.4,2.7,1.2.8,2,.8,3.7v5.4h-2.7v-5.3c0-.9,0-1.5-.3-1.9-.2-.4-.6-.6-1.1-.6s-.9,0-1.6.3h-.3v7.6h-2.7v-5.1c0-1,0-1.7-.3-2.1-.2-.4-.6-.6-1.1-.6s-1,0-1.5.3h-.2v7.6-.3ZM82.3,45c0,.6.2,1.1.5,1.3.3.3.8.4,1.4.4,1.2,0,2.3,0,3.3,0h.6v1.9c-1.5.4-2.9.6-4.2.6s-2.6-.4-3.3-1.2-1-2.1-1-3.9c0-3.6,1.5-5.4,4.4-5.4s4.4,1.5,4.4,4.5l-.2,1.9h-5.9ZM85.8,42.9c0-.8,0-1.4-.4-1.7s-.7-.5-1.3-.5-1.1.2-1.3.5c-.3.3-.4.9-.4,1.6h3.5,0ZM93,48.8h-2.7v-10h2.7v.6c.9-.5,1.7-.8,2.5-.8,1.3,0,2.3.4,2.8,1.2s.8,2,.8,3.6v5.4h-2.7v-5.3c0-.9,0-1.5-.3-1.9-.2-.4-.6-.6-1.2-.6s-1.1,0-1.6.3h-.2v7.6h-.1ZM106.9,41.1h-2.5v5c0,.2,0,.3.2.4,0,0,.3.2.6.2h1.5v2.1c-.8.2-1.5.3-1.9.3-1.2,0-2-.3-2.5-.8-.4-.5-.7-1.5-.7-3v-4.2h-1.2v-2.3h1.2v-2.8h2.7v2.8h2.5v2.3h.1Z"/>
  <path class="st2" d="M177.2,118.7v-13.6h8.7v2.4h-5.9v4h4.8v2.4h-4.8v4.8s-2.8,0-2.8,0ZM194.9,111.8v4.2c0,.3,0,.5.2.7,0,0,.2.2.5.3v2c-.8,0-1.3,0-1.7,0-.4,0-.8-.3-1.2-.6-1,.5-1.9.7-2.9.7-2.1,0-3.1-1.1-3.1-3.3s.3-1.8.9-2.3c.6-.5,1.5-.7,2.6-.8l2.1-.2v-.6c0-.4,0-.7-.3-.8-.2-.2-.5-.2-.9-.2l-3.8.2v-1.9c1.3-.4,2.7-.6,4-.6s2.2.3,2.8.8.9,1.4.9,2.6h-.1ZM190.4,114.5c-.7,0-1.1.5-1.1,1.2s.3,1.1,1,1.1,1.1,0,1.7-.2h.3v-2.2l-1.8.2h0ZM201.2,108.5c.7,0,1.6,0,2.7.3h.5v2.2c-1.1,0-1.8-.2-2.3-.2-.9,0-1.5.2-1.8.6s-.4,1.1-.4,2.2.1,1.8.4,2.3c.3.4.9.6,1.9.6l2.3-.2v2.1c-1.3.3-2.4.4-3.2.4-1.5,0-2.5-.4-3.2-1.2-.6-.8-1-2.2-1-4s.3-3.2,1-4,1.7-1.2,3.2-1.2h0ZM211.9,111h-2.5v5c0,.2,0,.3.2.4.1,0,.3.2.6.2h1.5v2.1c-.8.2-1.5.3-1.9.3-1.2,0-2-.3-2.5-.8-.4-.5-.7-1.5-.7-3v-4.2h-1.2v-2.3h1.2v-2.8h2.7v2.8h2.5v2.3h0ZM213.6,118.7v-10h2.7v10h-2.7ZM213.6,107.4v-2.7h2.7v2.7h-2.7ZM223.6,108.5c1.4,0,2.4.4,3.1,1.2.7.8,1,2.1,1,4.1s-.4,3.3-1.1,4.1c-.7.7-2,1.1-3.9,1.1s-1.6,0-3.1-.2h-.8v-14h2.7v4.3c.9-.4,1.6-.5,2.2-.5h0ZM222.7,116.5c.9,0,1.5-.2,1.8-.6s.5-1.2.5-2.3c0-1.8-.6-2.7-1.7-2.7s-1,0-1.5.2h-.3v5.4h1.2ZM229.7,118.7v-10h2.7v10h-2.7ZM229.7,107.4v-2.7h2.7v2.7h-2.7ZM235,118.7v-14h2.7v14h-2.7ZM240.2,118.7v-10h2.7v10h-2.7ZM240.2,107.4v-2.7h2.7v2.7h-2.7ZM253.9,104.7v14h-2.7v-.4c-.9.4-1.7.7-2.4.7-1.5,0-2.5-.4-3-1.3-.6-.8-.9-2.2-.9-4s.3-3.2,1-4,1.7-1.3,3.1-1.3,1,0,1.8.2h.4v-4h2.7,0ZM250.9,116.3h.3v-5.3c-.7,0-1.4-.2-2-.2-1.1,0-1.6,1-1.6,2.9s.1,1.8.4,2.2c.2.4.6.7,1.2.7s1.1,0,1.8-.2h0ZM264,111.8v4.2c0,.3,0,.5.2.7,0,0,.2.2.5.3v2c-.8,0-1.3,0-1.7,0-.4,0-.8-.3-1.2-.6-1,.5-1.9.7-2.9.7-2.1,0-3.1-1.1-3.1-3.3s.3-1.8.9-2.3,1.5-.7,2.6-.8l2.1-.2v-.6c0-.4,0-.7-.3-.8-.2-.2-.5-.2-.9-.2l-3.8.2v-1.9c1.3-.4,2.7-.6,4-.6s2.2.3,2.8.8c.6.5.9,1.4.9,2.6h-.1ZM259.5,114.5c-.7,0-1.1.5-1.1,1.2s.3,1.1,1,1.1,1.1,0,1.7-.2h.3v-2.2l-1.8.2h-.1ZM275.1,104.7v14h-2.7v-.4c-.9.4-1.7.7-2.4.7-1.5,0-2.5-.4-3-1.3-.6-.8-.9-2.2-.9-4s.3-3.2,1-4,1.7-1.3,3.1-1.3,1,0,1.8.2h.4v-4h2.7ZM272.1,116.3h.3v-5.3c-.7,0-1.4-.2-2-.2-1.1,0-1.6,1-1.6,2.9s.1,1.8.4,2.2c.2.4.6.7,1.2.7s1.1,0,1.8-.2h0ZM201.9,141h-2.5v5c0,.2.1.3.2.4s.3.2.6.2h1.5v2.1c-.8.2-1.5.3-1.9.3-1.2,0-2-.3-2.5-.8-.4-.5-.7-1.5-.7-3v-4.2h-1.2v-2.3h1.2v-2.8h2.7v2.8h2.5v2.3h0ZM205.8,144.8c0,.6.2,1.1.5,1.3.3.3.8.4,1.4.4,1.2,0,2.3,0,3.3-.1h.6v1.9c-1.5.4-2.9.6-4.2.6s-2.6-.4-3.3-1.2-1-2.1-1-3.9c0-3.6,1.5-5.4,4.4-5.4s4.4,1.5,4.4,4.5l-.2,1.9h-5.9ZM209.3,142.8c0-.8-.1-1.4-.4-1.7-.3-.3-.7-.5-1.3-.5s-1.1.2-1.3.5c-.3.3-.4.9-.4,1.6h3.5-.1ZM204.5,135.7l5-2,.8,2.3-5.2,1.5-.6-1.7h0ZM217.6,138.5c.7,0,1.6.1,2.7.3h.5v2.2c-1.1-.1-1.8-.2-2.3-.2-.9,0-1.5.2-1.8.6-.3.4-.4,1.1-.4,2.2s.1,1.8.4,2.3c.3.4.9.6,1.9.6l2.3-.2v2.1c-1.3.3-2.4.4-3.2.4-1.5,0-2.5-.4-3.2-1.2-.6-.8-1-2.2-1-4s.3-3.2,1-4,1.7-1.2,3.2-1.2h0ZM225.4,148.7h-2.7v-10h2.7v.6c.9-.5,1.7-.8,2.5-.8,1.3,0,2.3.4,2.8,1.2s.8,2,.8,3.6v5.4h-2.7v-5.3c0-.9,0-1.5-.3-1.9-.2-.4-.6-.6-1.2-.6s-1.1,0-1.6.3h-.2v7.6h-.1ZM233.8,148.7v-10h2.7v10h-2.7ZM233.8,137.4v-2.7h2.7v2.7h-2.7ZM242.7,138.5c.7,0,1.6.1,2.7.3h.5v2.2c-1.1-.1-1.8-.2-2.3-.2-.9,0-1.5.2-1.8.6-.3.4-.4,1.1-.4,2.2s.1,1.8.4,2.3c.3.4.9.6,1.9.6l2.3-.2v2.1c-1.3.3-2.4.4-3.2.4-1.5,0-2.5-.4-3.2-1.2-.6-.8-1-2.2-1-4s.3-3.2,1-4,1.7-1.2,3.2-1.2h0ZM255.6,141.8v4.2c0,.3,0,.5.2.7,0,.1.2.2.5.3v2c-.8,0-1.3,0-1.7-.1-.4,0-.8-.3-1.2-.6-1,.5-1.9.7-2.9.7-2.1,0-3.1-1.1-3.1-3.3s.3-1.8.9-2.3c.6-.5,1.5-.7,2.6-.8l2.1-.2v-.6c0-.4,0-.7-.3-.8-.2-.2-.5-.2-.9-.2l-3.8.2v-1.9c1.3-.4,2.7-.6,4-.6s2.2.3,2.8.8.9,1.4.9,2.6h0ZM251.1,144.5c-.7,0-1.1.5-1.1,1.2s.3,1.1,1,1.1,1.1,0,1.7-.2h.3v-2.2l-1.8.2h0Z"/>
  <path class="st2" d="M346.8,19.2h-4.6V5.6h4.6c1.2,0,2.1,0,2.9.4.8.2,1.3.6,1.8,1.2.4.6.7,1.2.9,2,.2.8.2,1.8.2,3s0,2.2-.2,3.1c-.1.8-.4,1.5-.8,2.2-.4.6-1,1.1-1.8,1.4s-1.8.4-3,.4h0ZM349.7,13.8v-3.6c0-.5-.2-.9-.4-1.2-.2-.4-.5-.6-.9-.8-.4-.1-.9-.2-1.6-.2h-1.8v8.8h1.8c1,0,1.7-.3,2.2-.8.4-.4.6-1.2.7-2.2h0ZM356.9,15.4c0,.6.2,1.1.5,1.3.3.3.8.4,1.4.4,1.2,0,2.3,0,3.3-.1h.6v1.9c-1.5.4-2.9.6-4.2.6s-2.6-.4-3.3-1.2c-.7-.8-1-2.1-1-3.9,0-3.6,1.5-5.4,4.4-5.4s4.4,1.5,4.4,4.5l-.2,1.9h-5.9,0ZM360.3,13.3c0-.8-.1-1.4-.4-1.7s-.7-.5-1.3-.5-1.1.2-1.3.5c-.3.3-.4.9-.4,1.6h3.5-.1ZM368.1,11.5v7.7h-2.7v-7.7h-1.1v-2.3h1.1v-.4c0-1.4.2-2.4.6-3,.4-.5,1.2-.8,2.3-.8s1.1,0,1.9.2h.4v2.2h-1.5c-.4,0-.7,0-.8.3-.1.2-.2.6-.2,1.1v.4h2.4v2.3h-2.4,0ZM372,19.2v-10h2.7v10h-2.7ZM372,8v-2.7h2.7v2.7h-2.7ZM379.9,19.2h-2.7v-10h2.7v.6c.9-.5,1.7-.8,2.5-.8,1.3,0,2.3.4,2.8,1.2s.8,2,.8,3.6v5.4h-2.7v-5.3c0-.9,0-1.5-.3-1.9-.2-.4-.6-.6-1.2-.6s-1.1,0-1.6.3h-.2v7.6h0ZM388.3,19.2v-10h2.7v10h-2.7ZM388.3,8v-2.7h2.7v2.7h-2.7ZM397.1,9c.7,0,1.6.1,2.7.3h.5v2.2c-1.1-.1-1.8-.2-2.3-.2-.9,0-1.5.2-1.8.6-.3.4-.4,1.1-.4,2.2s.1,1.8.4,2.3c.3.4.9.6,1.9.6l2.3-.2v2.1c-1.3.3-2.4.4-3.2.4-1.5,0-2.5-.4-3.2-1.2-.6-.8-1-2.2-1-4s.3-3.2,1-4,1.7-1.2,3.2-1.2h-.1ZM402.3,19.2v-10h2.7v10h-2.7ZM402.3,8v-2.7h2.7v2.7h-2.7ZM408,10.4c.7-.9,1.9-1.4,3.5-1.4s2.8.5,3.5,1.4,1.1,2.2,1.1,3.8c0,3.5-1.5,5.3-4.6,5.3s-4.6-1.8-4.6-5.3.4-2.9,1.1-3.8ZM410.1,16.5c.3.5.8.7,1.5.7s1.2-.2,1.5-.7.4-1.2.4-2.3-.1-1.8-.4-2.2c-.3-.5-.8-.7-1.5-.7s-1.2.2-1.5.7-.4,1.2-.4,2.2.1,1.8.4,2.3ZM408.6,6.2l5-2,.8,2.3-5.2,1.5-.6-1.7h0ZM420.8,19.2h-2.7v-10h2.7v.6c.9-.5,1.7-.8,2.5-.8,1.3,0,2.3.4,2.8,1.2s.8,2,.8,3.6v5.4h-2.7v-5.3c0-.9,0-1.5-.3-1.9-.2-.4-.6-.6-1.2-.6s-1.1,0-1.6.3h-.2v7.6h0ZM442.1,5.2v14h-2.7v-.4c-.9.4-1.7.7-2.4.7-1.5,0-2.5-.4-3-1.3-.6-.8-.9-2.2-.9-4s.3-3.2,1-4,1.7-1.3,3.1-1.3,1,0,1.8.2h.4v-4h2.7ZM439.1,16.8h.3v-5.3c-.7-.1-1.4-.2-2-.2-1.1,0-1.6,1-1.6,2.9s.1,1.8.4,2.2c.2.4.6.7,1.2.7s1.1,0,1.8-.2h0ZM446.8,15.4c0,.6.2,1.1.5,1.3.3.3.8.4,1.4.4,1.2,0,2.3,0,3.3-.1h.6v1.9c-1.5.4-2.9.6-4.2.6s-2.6-.4-3.3-1.2-1-2.1-1-3.9c0-3.6,1.5-5.4,4.4-5.4s4.4,1.5,4.4,4.5l-.2,1.9h-5.9,0ZM450.2,13.3c0-.8-.1-1.4-.4-1.7s-.7-.5-1.3-.5-1.1.2-1.3.5c-.3.3-.4.9-.4,1.6h3.5-.1ZM352.3,49.2v-14h2.7v14h-2.7ZM365.2,42.4v4.2c0,.3,0,.5.2.7,0,0,.2.2.5.3v2c-.8,0-1.3,0-1.7,0-.4,0-.8-.3-1.2-.6-1,.5-1.9.7-2.9.7-2.1,0-3.1-1.1-3.1-3.3s.3-1.8.9-2.3,1.5-.7,2.6-.8l2.1-.2v-.6c0-.4,0-.7-.3-.8-.2-.2-.5-.2-.9-.2l-3.8.2v-1.9c1.3-.4,2.7-.6,4-.6s2.2.3,2.8.8c.6.5.9,1.4.9,2.6h-.1ZM360.7,45c-.7,0-1.1.5-1.1,1.2s.3,1.1,1,1.1,1.1,0,1.7-.2h.3v-2.2l-1.8.2h-.1ZM379.4,41.7c-1.7-.2-2.8-.3-3.5-.3s-1.1,0-1.3.2c-.2,0-.3.3-.3.6s.1.4.4.5c.3,0,.9.2,2,.4s1.8.5,2.3.9.7,1.2.7,2.1c0,2.2-1.3,3.2-4,3.2s-1.9,0-3.2-.4h-.6v-2.4c1.7.2,2.8.3,3.4.3s1.1,0,1.3-.2c.2,0,.4-.3.4-.6s-.1-.4-.4-.6c-.2,0-.9-.3-1.9-.4-1-.2-1.8-.5-2.3-.9s-.8-1.1-.8-2.2.4-1.9,1.1-2.4,1.6-.8,2.8-.8,1.9,0,3.2.4h.7v2.6ZM382.2,40.4c.7-.9,1.9-1.4,3.5-1.4s2.8.5,3.5,1.4,1.1,2.2,1.1,3.8c0,3.5-1.5,5.3-4.6,5.3s-4.6-1.8-4.6-5.3.4-2.9,1.1-3.8ZM384.2,46.5c.3.5.8.7,1.5.7s1.2-.2,1.5-.7.4-1.2.4-2.3-.1-1.8-.4-2.2c-.3-.5-.8-.7-1.5-.7s-1.2.2-1.5.7-.4,1.2-.4,2.2.1,1.8.4,2.3ZM392.4,49.2v-14h2.7v14h-2.7ZM403.6,39.2h2.7v10h-2.7v-.6c-1,.5-1.8.8-2.5.8-1.4,0-2.3-.4-2.8-1.1-.5-.8-.7-2.1-.7-3.9v-5.2h2.7v5.3c0,1,0,1.7.2,2s.5.5,1.2.5,1.1,0,1.7-.3h.3v-7.6h-.1ZM412.5,39c.7,0,1.6,0,2.7.3h.5v2.2c-1.1,0-1.8-.2-2.3-.2-.9,0-1.5.2-1.8.6-.3.4-.4,1.1-.4,2.2s.1,1.8.4,2.3c.3.4.9.6,1.9.6l2.3-.2v2.1c-1.3.3-2.4.4-3.2.4-1.5,0-2.5-.4-3.2-1.2-.6-.8-1-2.2-1-4s.3-3.2,1-4,1.7-1.2,3.2-1.2h-.1ZM417.6,49.2v-10h2.7v10h-2.7ZM417.6,38v-2.7h2.7v2.7h-2.7ZM423.3,40.4c.7-.9,1.9-1.4,3.5-1.4s2.8.5,3.5,1.4,1.1,2.2,1.1,3.8c0,3.5-1.5,5.3-4.6,5.3s-4.6-1.8-4.6-5.3.4-2.9,1.1-3.8ZM425.4,46.5c.3.5.8.7,1.5.7s1.2-.2,1.5-.7.4-1.2.4-2.3-.1-1.8-.4-2.2c-.3-.5-.8-.7-1.5-.7s-1.2.2-1.5.7-.4,1.2-.4,2.2.1,1.8.4,2.3ZM423.9,36.2l5-2,.8,2.3-5.2,1.5-.6-1.7h0ZM436.1,49.2h-2.7v-10h2.7v.6c.9-.5,1.7-.8,2.5-.8,1.3,0,2.3.4,2.8,1.2s.8,2,.8,3.6v5.4h-2.7v-5.3c0-.9,0-1.5-.3-1.9-.2-.4-.6-.6-1.2-.6s-1.1,0-1.6.3h-.2v7.6h0Z"/>
  <path class="st2" d="M502.2,118.7l3.1-13.6h5.2l3.1,13.6h-2.8l-.5-2.5h-4.8l-.5,2.5h-2.8ZM507.4,107.4l-1.4,6.5h3.7l-1.4-6.5h-1,0ZM515.1,118.7v-10h2.7v1.1c1.1-.7,2.2-1.1,3.2-1.3v2.7c-1.1.2-2,.5-2.8.7h-.4v6.8s-2.7,0-2.7,0ZM526.1,118.9c-1.4,0-2.4-.4-3.1-1.1-.6-.8-1-2.1-1-4.1s.4-3.4,1.1-4.1c.7-.7,2-1.1,3.9-1.1s1.9,0,3.2.2h.7v14.2h-2.7v-4.5c-.9.4-1.6.5-2.2.5h0ZM527,110.8c-.9,0-1.5.2-1.8.7s-.5,1.2-.5,2.4c0,1.8.6,2.7,1.7,2.7s1,0,1.5-.2h.3v-5.5h-1.2ZM539.3,108.7h2.7v10h-2.7v-.6c-1,.5-1.8.8-2.5.8-1.4,0-2.3-.4-2.8-1.1-.5-.8-.7-2.1-.7-3.9v-5.2h2.7v5.3c0,1,0,1.7.2,2,.2.4.5.5,1.2.5s1.1,0,1.7-.3h.3v-7.6h-.1ZM544.4,118.7v-10h2.7v10h-2.7ZM544.4,107.4v-2.7h2.7v2.7h-2.7ZM555.1,111h-2.5v5c0,.2,0,.3.2.4,0,0,.3.2.6.2h1.5v2.1c-.8.2-1.5.3-1.9.3-1.2,0-2-.3-2.5-.8-.4-.5-.7-1.5-.7-3v-4.2h-1.2v-2.3h1.2v-2.8h2.7v2.8h2.5v2.3h.1ZM559.1,114.8c0,.6.2,1.1.5,1.3.3.3.8.4,1.4.4,1.2,0,2.3,0,3.3,0h.6v1.9c-1.5.4-2.9.6-4.2.6s-2.6-.4-3.3-1.2c-.7-.8-1-2.1-1-3.9,0-3.6,1.5-5.4,4.4-5.4s4.4,1.5,4.4,4.5l-.2,1.9s-5.9,0-5.9,0ZM562.5,112.8c0-.8,0-1.4-.4-1.7-.3-.3-.7-.5-1.3-.5s-1.1.2-1.3.5c-.3.3-.4.9-.4,1.6h3.5,0ZM570.8,108.5c.7,0,1.6,0,2.7.3h.5v2.2c-1.1,0-1.8-.2-2.3-.2-.9,0-1.5.2-1.8.6s-.4,1.1-.4,2.2,0,1.8.4,2.3c.3.4.9.6,1.9.6l2.3-.2v2.1c-1.3.3-2.4.4-3.2.4-1.5,0-2.5-.4-3.2-1.2-.6-.8-1-2.2-1-4s.3-3.2,1-4,1.7-1.2,3.2-1.2h-.1ZM581.5,111h-2.5v5c0,.2,0,.3.2.4,0,0,.3.2.6.2h1.5v2.1c-.8.2-1.5.3-1.9.3-1.2,0-2-.3-2.5-.8-.4-.5-.7-1.5-.7-3v-4.2h-1.2v-2.3h1.2v-2.8h2.7v2.8h2.5v2.3h.1ZM589.2,108.7h2.7v10h-2.7v-.6c-1,.5-1.8.8-2.5.8-1.4,0-2.3-.4-2.8-1.1-.5-.8-.7-2.1-.7-3.9v-5.2h2.7v5.3c0,1,0,1.7.2,2,.2.4.5.5,1.2.5s1.1,0,1.7-.3h.3v-7.6h-.1ZM594.3,118.7v-10h2.7v1.1c1.1-.7,2.2-1.1,3.2-1.3v2.7c-1.1.2-2,.5-2.8.7h-.4v6.8s-2.7,0-2.7,0ZM609.4,111.8v4.2c0,.3,0,.5.2.7,0,0,.2.2.5.3v2c-.8,0-1.3,0-1.7,0-.4,0-.8-.3-1.2-.6-1,.5-1.9.7-2.9.7-2.1,0-3.1-1.1-3.1-3.3s.3-1.8.9-2.3c.6-.5,1.5-.7,2.6-.8l2.1-.2v-.6c0-.4,0-.7-.3-.8-.2-.2-.5-.2-.9-.2l-3.8.2v-1.9c1.3-.4,2.7-.6,4-.6s2.2.3,2.8.8.9,1.4.9,2.6h0ZM604.9,114.5c-.7,0-1.1.5-1.1,1.2s.3,1.1,1,1.1,1.1,0,1.7-.2h.3v-2.2l-1.8.2h-.1ZM624.9,104.7v14h-2.7v-.4c-.9.4-1.7.7-2.4.7-1.5,0-2.5-.4-3-1.3-.6-.8-.9-2.2-.9-4s.3-3.2,1-4,1.7-1.3,3.1-1.3,1,0,1.8.2h.4v-4h2.7ZM621.9,116.3h.3v-5.3c-.7,0-1.4-.2-2-.2-1.1,0-1.6,1-1.6,2.9s0,1.8.4,2.2c.2.4.6.7,1.2.7s1.1,0,1.8-.2h-.1ZM629.6,114.8c0,.6.2,1.1.5,1.3.3.3.8.4,1.4.4,1.2,0,2.3,0,3.3,0h.6v1.9c-1.5.4-2.9.6-4.2.6s-2.6-.4-3.3-1.2-1-2.1-1-3.9c0-3.6,1.5-5.4,4.4-5.4s4.4,1.5,4.4,4.5l-.2,1.9s-5.9,0-5.9,0ZM633,112.8c0-.8,0-1.4-.4-1.7-.3-.3-.7-.5-1.3-.5s-1.1.2-1.3.5c-.3.3-.4.9-.4,1.6h3.5,0ZM531.5,141.2c-1.7-.2-2.8-.3-3.5-.3s-1.1,0-1.3.2c-.2.1-.3.3-.3.6s0,.4.4.5c.3,0,.9.2,2,.4s1.8.5,2.3.9.7,1.2.7,2.1c0,2.2-1.3,3.2-4,3.2s-1.9-.1-3.2-.4h-.6v-2.4c1.7.2,2.8.3,3.4.3s1.1,0,1.3-.2c.2-.1.4-.3.4-.6s0-.4-.4-.6c-.2-.1-.9-.3-1.9-.4-1-.2-1.8-.5-2.3-.9s-.8-1.1-.8-2.2.4-1.9,1.1-2.4c.7-.5,1.6-.8,2.8-.8s1.9.1,3.2.4h.7v2.6ZM534.3,139.8c.7-.9,1.9-1.4,3.5-1.4s2.8.5,3.5,1.4,1.1,2.2,1.1,3.8c0,3.5-1.5,5.3-4.6,5.3s-4.6-1.8-4.6-5.3.4-2.9,1.1-3.8ZM536.4,145.9c.3.5.8.7,1.5.7s1.2-.2,1.5-.7.4-1.2.4-2.3,0-1.8-.4-2.2c-.3-.5-.8-.7-1.5-.7s-1.2.2-1.5.7-.4,1.2-.4,2.2,0,1.8.4,2.3ZM544.5,148.7v-14h2.7v14h-2.7ZM555.7,138.7h2.7v10h-2.7v-.6c-1,.5-1.8.8-2.5.8-1.4,0-2.3-.4-2.8-1.1-.5-.8-.7-2.1-.7-3.9v-5.2h2.7v5.3c0,1,0,1.7.2,2s.5.5,1.2.5,1.1,0,1.7-.3h.3v-7.6h-.1ZM564.6,138.5c.7,0,1.6.1,2.7.3h.5v2.2c-1.1-.1-1.8-.2-2.3-.2-.9,0-1.5.2-1.8.6-.3.4-.4,1.1-.4,2.2s0,1.8.4,2.3c.3.4.9.6,1.9.6l2.3-.2v2.1c-1.3.3-2.4.4-3.2.4-1.5,0-2.5-.4-3.2-1.2-.6-.8-1-2.2-1-4s.3-3.2,1-4,1.7-1.2,3.2-1.2h-.1ZM569.8,148.7v-10h2.7v10h-2.7ZM569.8,137.4v-2.7h2.7v2.7h-2.7ZM575.5,139.8c.7-.9,1.9-1.4,3.5-1.4s2.8.5,3.5,1.4,1.1,2.2,1.1,3.8c0,3.5-1.5,5.3-4.6,5.3s-4.6-1.8-4.6-5.3.4-2.9,1.1-3.8ZM577.5,145.9c.3.5.8.7,1.5.7s1.2-.2,1.5-.7.4-1.2.4-2.3,0-1.8-.4-2.2c-.3-.5-.8-.7-1.5-.7s-1.2.2-1.5.7-.4,1.2-.4,2.2,0,1.8.4,2.3ZM588.3,148.7h-2.7v-10h2.7v.6c.9-.5,1.7-.8,2.5-.8,1.3,0,2.3.4,2.8,1.2s.8,2,.8,3.6v5.4h-2.7v-5.3c0-.9,0-1.5-.3-1.9-.2-.4-.6-.6-1.2-.6s-1.1,0-1.6.3h-.2v7.6h0ZM598.8,144.8c0,.6.2,1.1.5,1.3.3.3.8.4,1.4.4,1.2,0,2.3,0,3.3-.1h.6v1.9c-1.5.4-2.9.6-4.2.6s-2.6-.4-3.3-1.2-1-2.1-1-3.9c0-3.6,1.5-5.4,4.4-5.4s4.4,1.5,4.4,4.5l-.2,1.9h-5.9ZM602.3,142.8c0-.8,0-1.4-.4-1.7-.3-.3-.7-.5-1.3-.5s-1.1.2-1.3.5c-.3.3-.4.9-.4,1.6h3.5,0ZM614,141.2c-1.7-.2-2.8-.3-3.5-.3s-1.1,0-1.3.2c-.2.1-.3.3-.3.6s0,.4.4.5c.3,0,.9.2,2,.4s1.8.5,2.3.9.7,1.2.7,2.1c0,2.2-1.3,3.2-4,3.2s-1.9-.1-3.2-.4h-.6v-2.4c1.7.2,2.8.3,3.4.3s1.1,0,1.3-.2c.2-.1.4-.3.4-.6s0-.4-.4-.6c-.2-.1-.9-.3-1.9-.4-1-.2-1.8-.5-2.3-.9s-.8-1.1-.8-2.2.4-1.9,1.1-2.4c.7-.5,1.6-.8,2.8-.8s1.9.1,3.2.4h.7v2.6Z"/>
  <path class="st2" d="M701.2,48.7h-4.6v-13.6h4.6c1.2,0,2.1,0,2.9.4.8.2,1.3.6,1.8,1.2.4.6.7,1.2.9,2s.2,1.8.2,3,0,2.2-.2,3.1c0,.8-.4,1.5-.8,2.2-.4.6-1,1.1-1.8,1.4-.8.3-1.8.4-3,.4h0ZM704.1,43.3v-3.6c0-.5-.2-.9-.4-1.2-.2-.4-.5-.6-.9-.8-.4,0-.9-.2-1.6-.2h-1.8v8.8h1.8c1,0,1.7-.3,2.2-.8.4-.4.6-1.2.7-2.2ZM711.3,44.8c0,.6.2,1.1.5,1.3.3.3.8.4,1.4.4,1.2,0,2.3,0,3.3,0h.6v1.9c-1.5.4-2.9.6-4.2.6s-2.6-.4-3.3-1.2-1-2.1-1-3.9c0-3.6,1.5-5.4,4.4-5.4s4.4,1.5,4.4,4.5l-.2,1.9h-5.9ZM714.8,42.8c0-.8,0-1.4-.4-1.7-.3-.3-.7-.5-1.3-.5s-1.1.2-1.3.5c-.3.3-.4.9-.4,1.6h3.5,0ZM726.5,41.2c-1.7-.2-2.8-.3-3.5-.3s-1.1,0-1.3.2c-.2,0-.3.3-.3.6s0,.4.4.5c.3,0,.9.2,2,.4s1.8.5,2.3.9.7,1.2.7,2.1c0,2.2-1.3,3.2-4,3.2s-1.9,0-3.2-.4h-.6v-2.4c1.7.2,2.8.3,3.4.3s1.1,0,1.3-.2c.2,0,.4-.3.4-.6s0-.4-.4-.6c-.2,0-.9-.3-1.9-.4-1-.2-1.8-.5-2.3-.9s-.8-1.1-.8-2.2.4-1.9,1.1-2.4c.7-.5,1.6-.8,2.8-.8s1.9,0,3.2.4h.7v2.6ZM736.4,41.8v4.2c0,.3,0,.5.2.7,0,0,.2.2.5.3v2c-.8,0-1.3,0-1.7,0-.4,0-.8-.3-1.2-.6-1,.5-1.9.7-2.9.7-2.1,0-3.1-1.1-3.1-3.3s.3-1.8.9-2.3c.6-.5,1.5-.7,2.6-.8l2.1-.2v-.6c0-.4,0-.7-.3-.8-.2-.2-.5-.2-.9-.2l-3.8.2v-1.9c1.3-.4,2.7-.6,4-.6s2.2.3,2.8.8.9,1.4.9,2.6h0ZM731.9,44.5c-.7,0-1.1.5-1.1,1.2s.3,1.1,1,1.1,1.1,0,1.7-.2h.3v-2.2l-1.8.2h-.1ZM739,48.7v-10h2.7v1.1c1.1-.7,2.2-1.1,3.2-1.3v2.7c-1.1.2-2,.5-2.8.7h-.4v6.8h-2.7ZM746.4,48.7v-10h2.7v1.1c1.1-.7,2.2-1.1,3.2-1.3v2.7c-1.1.2-2,.5-2.8.7h-.4v6.8h-2.7ZM754.4,39.8c.7-.9,1.9-1.4,3.5-1.4s2.8.5,3.5,1.4,1.1,2.2,1.1,3.8c0,3.5-1.5,5.3-4.6,5.3s-4.6-1.8-4.6-5.3.4-2.9,1.1-3.8ZM756.5,45.9c.3.5.8.7,1.5.7s1.2-.2,1.5-.7.4-1.2.4-2.3,0-1.8-.4-2.2c-.3-.5-.8-.7-1.5-.7s-1.2.2-1.5.7-.4,1.2-.4,2.2,0,1.8.4,2.3ZM764.6,48.7v-14h2.7v14h-2.7ZM770,48.7v-14h2.7v14h-2.7ZM775.8,39.8c.7-.9,1.9-1.4,3.5-1.4s2.8.5,3.5,1.4,1.1,2.2,1.1,3.8c0,3.5-1.5,5.3-4.6,5.3s-4.6-1.8-4.6-5.3.4-2.9,1.1-3.8ZM777.9,45.9c.3.5.8.7,1.5.7s1.2-.2,1.5-.7.4-1.2.4-2.3,0-1.8-.4-2.2c-.3-.5-.8-.7-1.5-.7s-1.2.2-1.5.7-.4,1.2-.4,2.2,0,1.8.4,2.3Z"/>
  <path class="st2" d="M863.8,118.7v-13.6h2.8v13.6h-2.8ZM872,118.7h-2.7v-10h2.7v.6c.9-.5,1.7-.8,2.5-.8,1.3,0,2.3.4,2.8,1.2.5.8.8,2,.8,3.6v5.4h-2.7v-5.3c0-.9,0-1.5-.3-1.9s-.6-.6-1.2-.6-1.1,0-1.6.3h-.2v7.6h0ZM885.9,111h-2.5v5c0,.2,0,.3.2.4,0,0,.3.2.6.2h1.5v2.1c-.8.2-1.5.3-1.9.3-1.2,0-2-.3-2.5-.8-.4-.5-.7-1.5-.7-3v-4.2h-1.2v-2.3h1.2v-2.8h2.7v2.8h2.5v2.3h.1ZM889.8,114.8c0,.6.2,1.1.5,1.3.3.3.8.4,1.4.4,1.2,0,2.3,0,3.3,0h.6v1.9c-1.5.4-2.9.6-4.2.6s-2.6-.4-3.3-1.2-1-2.1-1-3.9c0-3.6,1.5-5.4,4.4-5.4s4.4,1.5,4.4,4.5l-.2,1.9s-5.9,0-5.9,0ZM893.3,112.8c0-.8,0-1.4-.4-1.7-.3-.3-.7-.5-1.3-.5s-1.1.2-1.3.5c-.3.3-.4.9-.4,1.6h3.5,0ZM906.9,119.9c0,1.1-.4,2-1.3,2.5-.9.5-2.1.8-3.6.8s-2.6-.2-3.5-.6c-.8-.4-1.2-1.1-1.2-2.2s.5-1.6,1.4-2.4c-.5-.3-.7-.8-.7-1.5s.2-.7.6-1.3l.2-.3c-.9-.7-1.4-1.6-1.4-2.9s.4-2.2,1.1-2.8c.8-.6,1.8-.9,3.1-.9s1.1,0,1.7.2h3.5v2.1h-1.5c.3.3.4.8.4,1.2,0,1.3-.3,2.3-1,2.8s-1.7.8-3.2.8-.6,0-.8,0c0,.3-.2.6-.2.9s0,.4.3.4.8,0,1.6,0c1.7,0,2.8.2,3.4.7.6.4.9,1.2.9,2.3h.2ZM900,120.2c0,.6.7.9,2.1.9s2.1-.3,2.1-1,0-.6-.4-.7c-.2,0-.7,0-1.5-.2h-1.8c-.4.2-.5.6-.5,1h0ZM900.1,112.1c0,1,.5,1.5,1.5,1.5s1.5-.5,1.5-1.5-.5-1.5-1.5-1.5-1.5.5-1.5,1.5ZM908.5,118.7v-10h2.7v1.1c1.1-.7,2.2-1.1,3.2-1.3v2.7c-1.1.2-2,.5-2.8.7h-.4v6.8s-2.7,0-2.7,0ZM923.6,111.8v4.2c0,.3,0,.5.2.7,0,0,.2.2.5.3v2c-.8,0-1.3,0-1.7,0-.4,0-.8-.3-1.2-.6-1,.5-1.9.7-2.9.7-2.1,0-3.1-1.1-3.1-3.3s.3-1.8.9-2.3c.6-.5,1.5-.7,2.6-.8l2.1-.2v-.6c0-.4,0-.7-.3-.8-.2-.2-.5-.2-.9-.2l-3.8.2v-1.9c1.3-.4,2.7-.6,4-.6s2.2.3,2.8.8.9,1.4.9,2.6h0ZM919.1,114.5c-.7,0-1.1.5-1.1,1.2s.3,1.1,1,1.1,1.1,0,1.7-.2h.3v-2.2l-1.8.2h-.1ZM929.9,108.5c.7,0,1.6,0,2.7.3h.5v2.2c-1.1,0-1.8-.2-2.3-.2-.9,0-1.5.2-1.8.6s-.4,1.1-.4,2.2,0,1.8.4,2.3c.3.4.9.6,1.9.6l2.3-.2v2.1c-1.3.3-2.4.4-3.2.4-1.5,0-2.5-.4-3.2-1.2-.6-.8-1-2.2-1-4s.3-3.2,1-4,1.7-1.2,3.2-1.2h-.1ZM935.1,118.7v-10h2.7v10h-2.7ZM935.1,107.4v-2.7h2.7v2.7h-2.7ZM940.8,109.8c.7-.9,1.9-1.4,3.5-1.4s2.8.5,3.5,1.4,1.1,2.2,1.1,3.8c0,3.5-1.5,5.3-4.6,5.3s-4.6-1.8-4.6-5.3.4-2.9,1.1-3.8ZM942.8,115.9c.3.5.8.7,1.5.7s1.2-.2,1.5-.7.4-1.2.4-2.3,0-1.8-.4-2.2c-.3-.5-.8-.7-1.5-.7s-1.2.2-1.5.7-.4,1.2-.4,2.2,0,1.8.4,2.3ZM941.3,105.7l5-2,.8,2.3-5.2,1.5-.6-1.7h0ZM953.6,118.7h-2.7v-10h2.7v.6c.9-.5,1.7-.8,2.5-.8,1.3,0,2.3.4,2.8,1.2.5.8.8,2,.8,3.6v5.4h-2.7v-5.3c0-.9,0-1.5-.3-1.9-.2-.4-.6-.6-1.2-.6s-1.1,0-1.6.3h-.2v7.6h0Z"/>
  <path class="st2" d="M1042.6,6.2v-2.4h10v2.4h-3.6v11.2h-2.8V6.2h-3.6ZM1054.9,13.5c0,.6.2,1.1.5,1.3.3.3.8.4,1.4.4,1.2,0,2.3,0,3.3-.1h.6v1.9c-1.5.4-2.9.6-4.2.6s-2.6-.4-3.3-1.2-1-2.1-1-3.9c0-3.6,1.5-5.4,4.4-5.4s4.4,1.5,4.4,4.5l-.2,1.9h-5.9ZM1058.4,11.5c0-.8,0-1.4-.4-1.7s-.7-.5-1.3-.5-1.1.2-1.3.5c-.3.3-.4.9-.4,1.6h3.5,0ZM1070.1,9.9c-1.7-.2-2.8-.3-3.5-.3s-1.1,0-1.3.2c-.2.1-.3.3-.3.6s0,.4.4.5c.3,0,.9.2,2,.4s1.8.5,2.3.9.7,1.2.7,2.1c0,2.2-1.3,3.2-4,3.2s-1.9-.1-3.2-.4h-.6v-2.4c1.7.2,2.8.3,3.4.3s1.1,0,1.3-.2c.2-.1.4-.3.4-.6s0-.4-.4-.6c-.2-.1-.9-.3-1.9-.4-1-.2-1.8-.5-2.3-.9s-.8-1.1-.8-2.2.4-1.9,1.1-2.4c.7-.5,1.6-.8,2.8-.8s1.9,0,3.2.4h.7v2.6ZM1077.9,9.7h-2.5v5c0,.2,0,.3.2.4,0,.1.3.2.6.2h1.5v2.1c-.8.2-1.5.3-1.9.3-1.2,0-2-.3-2.5-.8-.4-.5-.7-1.5-.7-3v-4.2h-1.2v-2.3h1.2v-2.8h2.7v2.8h2.5v2.3h.1ZM1079.6,17.4V7.4h2.7v10h-2.7ZM1079.6,6.1v-2.7h2.7v2.7h-2.7ZM1087.5,17.4h-2.7V7.4h2.7v.6c.9-.5,1.7-.8,2.5-.8,1.3,0,2.3.4,2.8,1.2.5.8.8,2,.8,3.6v5.4h-2.7v-5.3c0-.9,0-1.5-.3-1.9-.2-.4-.6-.6-1.2-.6s-1.1,0-1.6.3h-.2v7.6h-.1ZM1104.9,18.6c0,1.1-.4,2-1.3,2.5s-2.1.8-3.6.8-2.6-.2-3.5-.6c-.8-.4-1.2-1.1-1.2-2.2s.5-1.6,1.4-2.4c-.5-.3-.7-.8-.7-1.5s.2-.7.6-1.3l.2-.3c-.9-.7-1.4-1.6-1.4-2.9s.4-2.2,1.1-2.8c.8-.6,1.8-.9,3.1-.9s1.1,0,1.7.2h3.5v2.1h-1.5c.3.3.4.8.4,1.2,0,1.3-.3,2.3-1,2.8s-1.7.8-3.2.8-.6,0-.8,0c0,.3-.2.6-.2.9s0,.4.3.4.8.1,1.6.1c1.7,0,2.8.2,3.4.7.6.4.9,1.2.9,2.3h.2ZM1098,18.9c0,.6.7.9,2.1.9s2.1-.3,2.1-1,0-.6-.4-.7c-.2,0-.7-.1-1.5-.2h-1.8c-.4.2-.5.6-.5,1h0ZM1098.2,10.7c0,1,.5,1.5,1.5,1.5s1.5-.5,1.5-1.5-.5-1.5-1.5-1.5-1.5.5-1.5,1.5ZM1111.9,6.2c0-.9.4-1.7,1.1-2.2.7-.5,1.8-.8,3-.8s2.3.3,3,.8c.7.5,1.1,1.3,1.1,2.3s-.2,1.7-.6,2.3c-.4.5-1.1,1.2-2.1,1.9l2,2c0-.2.2-.6.2-1.2s0-1,0-1.4h2.6c-.2,1.6-.5,3-1,4.1l2.2,2-1.5,1.7-2.1-1.7c-.5.5-1.1.9-1.8,1.3-.7.3-1.5.5-2.3.5-1.9,0-3.3-.3-4.2-1-.8-.7-1.2-1.7-1.2-3.1s.2-1.9.7-2.5,1.2-1.1,2.2-1.5c-.5-.7-.9-1.2-1.1-1.6-.2-.4-.2-1-.2-1.6v-.3ZM1115.4,15.2c.5,0,1.1,0,1.6-.2.5-.1.9-.3,1.1-.6l-3.5-3.5c-1,.5-1.5,1.2-1.5,2.3s.8,2,2.3,2ZM1114.6,6.8c0,.5.3,1.1.9,1.8l.3.4c.5-.4.9-.8,1.2-1.1.2-.3.3-.7.3-1.1,0-.8-.5-1.3-1.4-1.3s-1.4.4-1.4,1.3h0ZM1077.1,47.6c-2.1,0-3.5-.6-4.4-1.7-.8-1.1-1.3-2.9-1.3-5.3s.4-4.2,1.3-5.4,2.3-1.8,4.4-1.8,3.5.6,4.4,1.8,1.3,2.9,1.3,5.4-.7,5-2.1,6l1.7,2.7-2.5,1.2-1.8-2.9h-1ZM1074.9,44.2c.4.7,1.1,1,2.2,1s1.8-.3,2.2-1c.4-.7.6-1.9.6-3.5s-.2-2.9-.6-3.6c-.4-.7-1.1-1.1-2.2-1.1s-1.8.4-2.2,1.1c-.4.7-.6,1.9-.6,3.6s.2,2.8.6,3.5ZM1083.8,47.4l3.1-13.6h5.2l3.1,13.6h-2.8l-.5-2.5h-4.8l-.5,2.5h-2.8,0ZM1089,36.1l-1.4,6.5h3.7l-1.4-6.5h-1,.1Z"/>
  <path class="st2" d="M1218.1,120.4v-13.6h4.7l2.4,9.9,2.4-9.9h4.7v13.6h-2.8v-10.5h-.3l-2.7,9.9h-2.8l-2.7-9.9h-.3v10.5h-2.8.2ZM1237.1,116.5c0,.6.2,1.1.5,1.3.3.3.8.4,1.4.4,1.2,0,2.3,0,3.3,0h.6v1.9c-1.5.4-2.9.6-4.2.6s-2.6-.4-3.3-1.2c-.7-.8-1-2.1-1-3.9,0-3.6,1.5-5.4,4.4-5.4s4.4,1.5,4.4,4.5l-.2,1.9h-5.9ZM1240.6,114.5c0-.8,0-1.4-.4-1.7-.3-.3-.7-.5-1.3-.5s-1.1.2-1.3.5c-.3.3-.4.9-.4,1.6h3.5,0ZM1245.1,120.4v-10h2.7v1.1c1.1-.7,2.2-1.1,3.2-1.3v2.7c-1.1.2-2,.5-2.8.7h-.4v6.8h-2.7,0ZM1256.3,110.1c.7,0,1.6,0,2.7.3h.5v2.2c-1.1,0-1.8-.2-2.3-.2-.9,0-1.5.2-1.8.6s-.4,1.1-.4,2.2,0,1.8.4,2.3c.3.4.9.6,1.9.6l2.3-.2v2.1c-1.3.3-2.4.4-3.2.4-1.5,0-2.5-.4-3.2-1.2-.6-.8-1-2.2-1-4s.3-3.2,1-4,1.7-1.2,3.2-1.2h0ZM1269.1,113.5v4.2c0,.3,0,.5.2.7,0,0,.2.2.5.3v2c-.8,0-1.3,0-1.7,0-.4,0-.8-.3-1.2-.6-1,.5-1.9.7-2.9.7-2.1,0-3.1-1.1-3.1-3.3s.3-1.8.9-2.3,1.5-.7,2.6-.8l2.1-.2v-.6c0-.4,0-.7-.3-.8-.2-.2-.5-.2-.9-.2l-3.8.2v-1.9c1.3-.4,2.7-.6,4-.6s2.2.3,2.8.8c.6.5.9,1.4.9,2.6h0ZM1264.6,116.1c-.7,0-1.1.5-1.1,1.2s.3,1.1,1,1.1,1.1,0,1.7-.2h.3v-2.2l-1.8.2h0ZM1280.2,106.4v14h-2.7v-.4c-.9.4-1.7.7-2.4.7-1.5,0-2.5-.4-3-1.3-.6-.8-.9-2.2-.9-4s.3-3.2,1-4,1.7-1.3,3.1-1.3,1,0,1.8.2h.4v-4h2.7ZM1277.2,118h.3v-5.3c-.7,0-1.4-.2-2-.2-1.1,0-1.6,1-1.6,2.9s0,1.8.4,2.2c.2.4.6.7,1.2.7s1.1,0,1.8-.2h-.1ZM1283.2,111.5c.7-.9,1.9-1.4,3.5-1.4s2.8.5,3.5,1.4,1.1,2.2,1.1,3.8c0,3.5-1.5,5.3-4.6,5.3s-4.6-1.8-4.6-5.3.4-2.9,1.1-3.8ZM1285.3,117.6c.3.5.8.7,1.5.7s1.2-.2,1.5-.7.4-1.2.4-2.3,0-1.8-.4-2.2c-.3-.5-.8-.7-1.5-.7s-1.2.2-1.5.7-.4,1.2-.4,2.2,0,1.8.4,2.3Z"/>
</svg>