<svg fill="none" height="96" viewBox="0 0 235 96" width="235" xmlns="http://www.w3.org/2000/svg" xmlns:xlink="http://www.w3.org/1999/xlink"><clipPath id="a"><path d="m0 .054993h235v95h-235z"/></clipPath><g clip-path="url(#a)"><path d="m81.5137 18.9858c2.1428-2.1559 4.4368-3.3519 7.1113-3.7715 5.1405-.8078 9.6294.5455 13.357 4.2803 7.471 7.5009 7.205 20.7561-.636 27.3916-5.3491 4.5268-11.4802 5.3294-17.8303 2.7486-6.2666-2.544-9.5564-7.6321-10.3853-14.4249-.1251-1.0176-.1616-2.0562-.1616-3.0843-.0105-8.3245-.0105-16.649 0-24.97879 0-2.4601 1.2721-4.25929 3.2793-4.71039 2.7684-.61896 5.2344 1.36381 5.2604 4.30125.0365 3.57213.0104 7.14423.0104 10.72163v1.5212zm17.3559 14.0525c-.0157-2.8063-.8811-5.2822-2.7893-7.3174-3.1229-3.3256-8.0236-3.4672-11.3602-.3672-3.9571 3.6771-4.3064 10.3912-.7612 14.4774 3.6234 4.1754 9.6398 3.9446 12.9139-.5036 1.3659-1.8568 2.0176-3.9603 1.9968-6.2892z" fill="#fff"/><path d="m130.625 27.305c.813-6.6774 6.288-11.7445 12.82-12.29 2.43-.2046 4.812-.0892 7.148.6451 5.344 1.6786 9.082 6.2054 9.494 11.9124.276 3.8135.182 7.6531.234 11.4823.026 2.1349.016 4.275 0 6.4099-.015 2.7486-1.783 4.6894-4.259 4.6946-2.482.0105-4.286-1.925-4.291-4.6579-.015-4.9359 0-9.8771-.01-14.8131 0-.6609 0-1.3323-.11-1.9828-.532-3.2207-2.309-4.9044-5.479-5.2349-3.415-.3567-6.35 1.5736-7.091 4.7471-.198.8498-.224 1.752-.224 2.6332-.021 4.8258 0 9.6516-.015 14.4827-.011 2.3814-1.001 3.9393-2.842 4.595-2.726.9756-5.583-1.0019-5.636-3.9604-.046-2.8744-.01-5.7489-.01-8.6234-.037 0-.13-6.7247.271-10.0345z" fill="#fff"/><path d="m28.1897 57.9542c-15.6302-.0473-28.2261156-12.993-28.1896209-28.9863.0364947-15.9671 12.7523209-28.9547694 28.3147209-28.9128059 15.6354.0419634 28.1843 13.1241059 28.1218 29.3167059-.0626 15.7468-12.794 28.6296-28.2469 28.5824zm25.369-28.9496c-.0209-14.4774-11.3082-26.00682-25.442-25.99108-13.9932.01573-25.24918 11.66588-25.22832 26.10648.01564 14.3568 11.40202 26.0016 25.39512 25.9754 13.9827-.021 25.2961-11.7026 25.2752-26.0908z" fill="#eb5c21"/><path d="m192.932 15.7598c.803 0 1.481-.021 2.153 0 2.232.0735 3.843 1.6261 3.9 3.74.062 2.2136-1.434 3.8502-3.723 4.018-.714.0525-1.433.0105-2.247.0105-.031.4039-.078.7186-.078 1.0334 0 3.8291-.015 7.6635.011 11.4927 0 .7291.093 1.474.234 2.1873.438 2.1507 1.715 3.3833 3.843 3.7925.318.0629.636.1206.954.1888 2.174.4616 3.42 2.2346 3.185 4.5163-.208 1.9933-1.851 3.4305-3.947 3.462-7.08.0997-12.116-4.5635-12.622-11.8651-.224-3.226-.177-6.4729-.192-9.7146-.026-5.6336-.016-11.2724 0-16.906.005-2.81156 1.809-4.71565 4.369-4.67369 2.283.03672 4.087 1.8359 4.155 4.20159.041 1.4635.01 2.927.01 4.5111z" fill="#fff"/><path d="m168.157 33.0488c0-4.1964-.005-8.398 0-12.5943.006-2.7119 1.82-4.6999 4.265-4.6894 2.393.0052 4.254 1.9565 4.265 4.6002.026 8.3979.026 16.7906 0 25.1886-.005 2.7276-1.851 4.6317-4.338 4.6054-2.429-.0262-4.186-1.9513-4.192-4.6264-.01-4.1597 0-8.3193 0-12.4841z" fill="#fff"/><path d="m205.976 68.02c-1.991-.0104-3.54-1.1225-4.15-2.9164-.579-1.6891-.161-3.6561 1.262-4.6737.808-.577 1.887-1.0491 2.852-1.0596 8.232-.0839 16.464-.0629 24.701-.0367 2.482.0105 4.39 1.9933 4.359 4.3799-.031 2.4129-1.934 4.2908-4.432 4.3065-4.097.021-20.494.0158-24.592 0z" fill="#eb5c21"/><path d="m122.377 32.9229c0 4.3432.058 8.6916-.021 13.0296-.057 3.142-3.149 5.1143-5.907 3.8397-1.751-.8078-2.544-2.2608-2.539-4.2331.016-6.9187.006-13.8427.006-20.7614 0-1.5474-.021-3.0948.005-4.637.047-2.4968 1.856-4.3799 4.202-4.4009 2.33-.021 4.218 1.8412 4.244 4.3485.047 4.2698.015 8.5395.015 12.8093z" fill="#fff"/><path d="m122.377 5.25846c.011 2.43388-1.83 4.37993-4.171 4.41665-2.372.03672-4.295-1.94605-4.285-4.41141.01-2.42339 1.882-4.353704 4.228-4.353704s4.218 1.925074 4.228 4.353704z" fill="#fff"/><path d="m168.199 63.724c-.026-2.3709 1.908-4.3904 4.218-4.4009 2.268-.0052 4.155 1.9356 4.181 4.3013.026 2.4129-1.872 4.4009-4.192 4.3956-2.262-.0052-4.181-1.967-4.207-4.3012z" fill="#eb5c21"/><path d="m36.1405 29.0885c0 2.9846.0208 5.9693 0 8.9539-.0365 4.1754-3.0291 7.5377-7.153 8.0675-3.6286.4668-7.2885-2.0982-8.3312-5.8959-.2034-.7344-.3337-1.5159-.3337-2.2818-.0261-5.9325-.0417-11.8651-.0052-17.7977.026-4.0809 2.7684-7.3908 6.6264-8.1094 3.5817-.6662 7.3094 1.4897 8.6232 5.0985.3545.9757.5317 2.072.5578 3.1158.073 2.9479.0261 5.8959.0261 8.8438zm-2.8883-.0158c0-3.0214.0104-6.0427 0-9.0641-.0157-2.8535-2.2158-5.1248-4.9842-5.1615-2.7632-.042-5.0675 2.287-5.0727 5.1877-.0157 6.0061-.0157 12.0121 0 18.0181.0104 2.9217 2.2418 5.1353 5.0988 5.1248 2.7736-.0158 4.9424-2.2556 4.9581-5.151.0156-2.9847 0-5.9693 0-8.954z" fill="#eb5c21"/><path d="m28.2418 21.3147c1.074.0105 2.0541 1.0281 2.0645 2.1349.0105 1.1645-1.0062 2.1664-2.1531 2.1244-1.1001-.0367-2.049-1.0491-2.0177-2.1611.0261-1.0963 1.0427-2.1087 2.1063-2.0982z" fill="#eb5c21"/><g fill="#fff"><path d="m33.5073 93.5391 3.3054-7.5167c.2294-.5193.6517-.8341 1.2199-.8341h.12c.5682 0 .9749.3148 1.2043.8341l3.3054 7.5167c.0677.1521.1094.2885.1094.4248 0 .5613-.4327 1.0072-.9905 1.0072-.4901 0-.8133-.2885-1.001-.7239l-.6361-1.5002h-4.176l-.6621 1.5684c-.1773.4091-.5266.6557-.9645.6557-.5422 0-.9645-.4354-.9645-.9809 0-.1521.0521-.299.1199-.4511zm5.8704-2.6437-1.3138-3.1525-1.3138 3.1525z"/><path d="m44.5132 86.3109c0-.5875.4588-1.0491 1.0427-1.0491s1.0427.4616 1.0427 1.0491v7.6111c0 .5875-.4588 1.0491-1.0427 1.0491s-1.0427-.4616-1.0427-1.0491z"/><path d="m48.4287 90.6646c0-.5455.4484-.9967.9906-.9967h2.3565c.5422 0 .9906.4512.9906.9967s-.4484.9966-.9906.9966h-2.3565c-.5422 0-.9906-.4511-.9906-.9966z"/><path d="m61.5926 93.9377c0 .5718-.4588 1.0386-1.0323 1.0386s-1.0323-.4616-1.0323-1.0386v-.0944c-.5005.6819-1.1939 1.1855-2.2627 1.1855-1.6944 0-3.3053-1.3376-3.3053-3.7767v-.0263c0-2.4391 1.5849-3.7767 3.3053-3.7767 1.1001 0 1.7779.5036 2.2627 1.0911v-2.6437c0-.5718.4588-1.0386 1.0323-1.0386s1.0323.4616 1.0323 1.0386v8.0465zm-5.5733-2.7171v.0262c0 1.2117.8133 2.0195 1.7778 2.0195s1.7622-.8025 1.7622-2.0195v-.0262c0-1.2117-.7977-2.0195-1.7622-2.0195s-1.7778.7921-1.7778 2.0195z"/><path d="m63.4331 88.5349c0-.5717.4588-1.0386 1.0323-1.0386s1.0323.4616 1.0323 1.0386v.3252c.2971-.7081.7872-1.3638 1.3972-1.3638s1.001.4249 1.001 1.0071c0 .5456-.3545.8708-.7716.9705-1.0427.2465-1.6266 1.049-1.6266 2.523v1.9356c0 .5717-.4588 1.0386-1.0323 1.0386s-1.0323-.4616-1.0323-1.0386v-5.4028z"/><path d="m69.0742 85.8335c0-.598.5005-.9704 1.1522-.9704s1.1522.3672 1.1522.9704v.0263c0 .5979-.5005.9808-1.1522.9808s-1.1522-.3829-1.1522-.9808zm.1199 2.7014c0-.5717.4588-1.0386 1.0323-1.0386s1.0323.4616 1.0323 1.0386v5.4028c0 .5718-.4588 1.0386-1.0323 1.0386s-1.0323-.4616-1.0323-1.0386z"/><path d="m76.3104 95.0393h-.1095c-.5578 0-.9332-.3567-1.1678-.9023l-2.221-5.1667c-.0521-.1364-.1095-.3147-.1095-.5036 0-.493.4484-.9704 1.001-.9704.5527 0 .8551.3148 1.001.7344l1.5589 4.2435 1.5849-4.2697c.1356-.3567.4223-.7082.9645-.7082s.9906.4249.9906.9809c0 .1784-.0678.3934-.1095.4931l-2.221 5.1667c-.2294.5298-.61.9023-1.1678.9023z"/><path d="m84.3653 95.055c-2.1845 0-3.7955-1.5422-3.7955-3.7767v-.0262c0-2.0877 1.4755-3.803 3.5921-3.803 2.4243 0 3.4983 2.0038 3.4983 3.5197 0 .598-.4223.9966-.9645.9966h-4.0822c.2034.939.855 1.432 1.7778 1.432.5683 0 1.0428-.1783 1.465-.493.1512-.1102.2868-.1626.5005-.1626.4588 0 .7977.3567.7977.8183 0 .2727-.1199.4773-.2711.6137-.636.5455-1.465.8864-2.5233.8864zm1.3294-4.3904c-.1199-.9285-.6621-1.5527-1.5328-1.5527-.8706 0-1.4076.6137-1.5744 1.5527h3.102z"/><path d="m89.2298 88.5349c0-.5717.4588-1.0386 1.0323-1.0386s1.0323.4616 1.0323 1.0386v.0839c.4744-.6137 1.0844-1.1749 2.1271-1.1749 1.5589 0 2.466 1.0386 2.466 2.7119v3.7767c0 .5717-.4588 1.0386-1.0323 1.0386s-1.0323-.4616-1.0323-1.0386v-3.1211c0-.9809-.4587-1.4844-1.246-1.4844-.7872 0-1.2877.5035-1.2877 1.4844v3.1211c0 .5717-.4588 1.0386-1.0323 1.0386s-1.0323-.4616-1.0323-1.0386v-5.4028z"/><path d="m104.86 95.0393h-.11c-.558 0-.933-.3567-1.168-.9023l-2.221-5.1667c-.052-.1364-.109-.3147-.109-.5036 0-.493.448-.9704 1.001-.9704s.855.3148 1.001.7344l1.559 4.2435 1.585-4.2697c.135-.3567.422-.7082.964-.7082s.991.4249.991.9809c0 .1784-.068.3934-.11.4931l-2.221 5.1667c-.229.5298-.61.9023-1.168.9023z"/><path d="m109.14 92.789v-.0263c0-1.5946 1.204-2.3342 2.93-2.3342.73 0 1.262.1207 1.778.299v-.1206c0-.8603-.527-1.3376-1.559-1.3376-.568 0-1.032.0839-1.423.2046-.12.0419-.204.0524-.297.0524-.475 0-.855-.3672-.855-.8445 0-.3672.229-.6819.557-.8026.652-.2465 1.356-.3829 2.321-.3829 1.126 0 1.939.299 2.455.8183.542.5455.787 1.3481.787 2.3342v3.3256c0 .5613-.448.9967-1.001.9967-.594 0-.99-.4249-.99-.8603v-.0157c-.501.5612-1.194.9284-2.195.9284-1.371 0-2.492-.792-2.492-2.2345zm4.734-.4774v-.3672c-.354-.1626-.813-.2727-1.314-.2727-.881 0-1.423.3567-1.423 1.0071v.0262c0 .5613.459.8865 1.126.8865.965 0 1.611-.5298 1.611-1.2799z"/><path d="m117.695 85.8912c0-.5717.459-1.0386 1.033-1.0386.573 0 1.032.4616 1.032 1.0386v8.0465c0 .5718-.459 1.0386-1.032 1.0386-.574 0-1.033-.4616-1.033-1.0386z"/><path d="m128.294 93.9377c0 .5718-.458 1.0386-1.032 1.0386-.573 0-1.032-.4616-1.032-1.0386v-.0839c-.475.6137-1.085 1.175-2.127 1.175-1.559 0-2.466-1.0386-2.466-2.7119v-3.7767c0-.5718.459-1.0386 1.032-1.0386s1.032.4616 1.032 1.0386v3.121c0 .9809.459 1.4845 1.246 1.4845.788 0 1.288-.5036 1.288-1.4845v-3.121c0-.5718.459-1.0386 1.032-1.0386.574 0 1.033.4616 1.033 1.0386v5.4028z"/><path d="m133.581 95.055c-2.184 0-3.795-1.5422-3.795-3.7767v-.0262c0-2.0877 1.475-3.803 3.592-3.803 2.424 0 3.498 2.0038 3.498 3.5197 0 .598-.422.9966-.964.9966h-4.083c.204.939.855 1.432 1.778 1.432.568 0 1.043-.1783 1.465-.493.151-.1102.287-.1626.501-.1626.458 0 .797.3567.797.8183 0 .2727-.12.4773-.271.6137-.636.5455-1.465.8864-2.523.8864zm1.33-4.3904c-.12-.9285-.663-1.5527-1.533-1.5527-.871 0-1.408.6137-1.575 1.5527h3.102z"/></g><path d="m142.163 91.2783v-.0262c0-2.0877 1.585-3.803 3.811-3.803 1.1 0 1.871.299 2.481.8183.136.1102.324.3567.324.7081 0 .5193-.423.9285-.934.9285-.271 0-.474-.1102-.594-.2046-.365-.2885-.746-.4616-1.288-.4616-1.032 0-1.762.9127-1.762 1.9933v.0262c0 1.1173.72 2.0195 1.846 2.0195.542 0 .964-.1888 1.355-.5036.11-.0839.313-.1888.558-.1888.49 0 .865.3934.865.8865 0 .2727-.119.4931-.297.6557-.61.5612-1.381.9389-2.575.9389-2.185 0-3.78-1.689-3.78-3.7767z" fill="#eb5c21"/><path d="m150.254 88.5349c0-.5717.459-1.0386 1.032-1.0386.574 0 1.032.4616 1.032 1.0386v.3252c.298-.7081.788-1.3638 1.398-1.3638s1.001.4249 1.001 1.0071c0 .5456-.355.8708-.772.9705-1.043.2465-1.627 1.049-1.627 2.523v1.9356c0 .5717-.458 1.0386-1.032 1.0386-.573 0-1.032-.4616-1.032-1.0386v-5.4028z" fill="#eb5c21"/><path d="m159.159 95.055c-2.185 0-3.796-1.5422-3.796-3.7767v-.0262c0-2.0877 1.476-3.803 3.592-3.803 2.425 0 3.499 2.0038 3.499 3.5197 0 .598-.423.9966-.965.9966h-4.082c.203.939.855 1.432 1.778 1.432.568 0 1.043-.1783 1.465-.493.151-.1102.287-.1626.5-.1626.459 0 .798.3567.798.8183 0 .2727-.12.4773-.271.6137-.636.5455-1.465.8864-2.523.8864zm1.329-4.3904c-.12-.9285-.662-1.5527-1.533-1.5527-.87 0-1.407.6137-1.574 1.5527h3.102z" fill="#eb5c21"/><path d="m163.596 92.789v-.0263c0-1.5946 1.204-2.3342 2.93-2.3342.73 0 1.261.1207 1.778.299v-.1206c0-.8603-.527-1.3376-1.559-1.3376-.569 0-1.033.0839-1.424.2046-.12.0419-.203.0524-.297.0524-.474 0-.855-.3672-.855-.8445 0-.3672.23-.6819.558-.8026.652-.2465 1.356-.3829 2.32-.3829 1.126 0 1.939.299 2.456.8183.542.5455.787 1.3481.787 2.3342v3.3256c0 .5613-.448.9967-1.001.9967-.594 0-.991-.4249-.991-.8603v-.0157c-.5.5612-1.194.9284-2.195.9284-1.371 0-2.492-.792-2.492-2.2345zm4.728-.4774v-.3672c-.354-.1626-.813-.2727-1.313-.2727-.882 0-1.424.3567-1.424 1.0071v.0262c0 .5613.459.8865 1.126.8865.965 0 1.611-.5298 1.611-1.2799z" fill="#eb5c21"/><path d="m172.323 92.8204v-3.462h-.068c-.49 0-.881-.3934-.881-.8864 0-.4931.391-.8865.881-.8865h.068v-.9127c0-.5718.459-1.0386 1.032-1.0386.574 0 1.032.4616 1.032 1.0386v.9127h.908c.49 0 .881.3934.881.8865 0 .493-.391.8864-.881.8864h-.908v3.1211c0 .4773.204.7081.663.7081.067 0 .203-.0157.245-.0157.458 0 .855.3829.855.8602 0 .3672-.245.6662-.527.7763-.381.1522-.73.2046-1.178.2046-1.262 0-2.117-.5035-2.117-2.1978z" fill="#eb5c21"/><path d="m177.583 85.8335c0-.598.501-.9704 1.153-.9704.651 0 1.152.3672 1.152.9704v.0263c0 .5979-.501.9808-1.152.9808-.652 0-1.153-.3829-1.153-.9808zm.12 2.7014c0-.5717.459-1.0386 1.033-1.0386.573 0 1.032.4616 1.032 1.0386v5.4028c0 .5718-.459 1.0386-1.032 1.0386-.574 0-1.033-.4616-1.033-1.0386z" fill="#eb5c21"/><path d="m181.353 91.2783v-.0262c0-2.0982 1.678-3.803 3.946-3.803s3.916 1.6786 3.916 3.7767v.0263c0 2.0981-1.679 3.8029-3.947 3.8029s-3.915-1.6785-3.915-3.7767zm5.828 0v-.0262c0-1.0753-.771-2.0195-1.913-2.0195s-1.882.9127-1.882 1.9932v.0263c0 1.0753.771 2.0195 1.913 2.0195s1.882-.9127 1.882-1.9933z" fill="#eb5c21"/><path d="m190.701 88.5349c0-.5717.458-1.0386 1.032-1.0386.573 0 1.032.4616 1.032 1.0386v.0839c.475-.6137 1.085-1.1749 2.127-1.1749 1.559 0 2.466 1.0386 2.466 2.7119v3.7767c0 .5717-.459 1.0386-1.032 1.0386-.574 0-1.032-.4616-1.032-1.0386v-3.1211c0-.9809-.459-1.4844-1.246-1.4844-.788 0-1.288.5035-1.288 1.4844v3.1211c0 .5717-.459 1.0386-1.032 1.0386-.574 0-1.033-.4616-1.033-1.0386v-5.4028z" fill="#eb5c21"/><path d="m200.163 92.6264c.678 0 1.178.5035 1.178 1.1592v.0262c0 .6557-.5 1.1593-1.178 1.1593s-1.178-.5036-1.178-1.1593v-.0262c0-.6557.5-1.1592 1.178-1.1592z" fill="#eb5c21"/></g></svg>