<svg width="235" height="96" viewBox="0 0 235 96" fill="none" xmlns="http://www.w3.org/2000/svg">
<g clip-path="url(#clip0_803_25223)">
<path d="M81.5137 18.9858C83.6565 16.8299 85.9505 15.6339 88.625 15.2143C93.7655 14.4065 98.2544 15.7598 101.982 19.4946C109.453 26.9955 109.187 40.2507 101.346 46.8862C95.9969 51.413 89.8658 52.2156 83.5157 49.6348C77.2491 47.0908 73.9593 42.0027 73.1304 35.2099C73.0053 34.1923 72.9688 33.1537 72.9688 32.1256C72.9583 23.8011 72.9583 15.4766 72.9688 7.14681C72.9688 4.68671 74.2409 2.88752 76.2481 2.43642C79.0165 1.81746 81.4825 3.80023 81.5085 6.73767C81.545 10.3098 81.5189 13.8819 81.5189 17.4593C81.5189 17.858 81.5189 18.2566 81.5189 18.9805L81.5137 18.9858ZM98.8696 33.0383C98.8539 30.232 97.9885 27.7561 96.0803 25.7209C92.9574 22.3953 88.0567 22.2537 84.7201 25.3537C80.763 29.0308 80.4137 35.7449 83.9589 39.8311C87.5823 44.0065 93.5987 43.7757 96.8728 39.3275C98.2387 37.4707 98.8904 35.3672 98.8696 33.0383Z" fill="white"/>
<path d="M130.625 27.305C131.438 20.6276 136.913 15.5605 143.445 15.015C145.875 14.8104 148.257 14.9258 150.593 15.6601C155.937 17.3387 159.675 21.8655 160.087 27.5725C160.363 31.386 160.269 35.2256 160.321 39.0548C160.347 41.1897 160.337 43.3298 160.321 45.4647C160.306 48.2133 158.538 50.1541 156.062 50.1593C153.58 50.1698 151.776 48.2343 151.771 45.5014C151.756 40.5655 151.771 35.6243 151.761 30.6883C151.761 30.0274 151.761 29.356 151.651 28.7055C151.119 25.4848 149.342 23.8011 146.172 23.4706C142.757 23.1139 139.822 25.0442 139.081 28.2177C138.883 29.0675 138.857 29.9697 138.857 30.8509C138.836 35.6767 138.857 40.5025 138.842 45.3336C138.831 47.715 137.841 49.2729 136 49.9286C133.274 50.9042 130.417 48.9267 130.364 45.9682C130.318 43.0938 130.354 40.2193 130.354 37.3448C130.317 37.3448 130.224 30.6201 130.625 27.3103V27.305Z" fill="white"/>
<path d="M28.1897 57.9542C12.5595 57.9069 -0.0364156 44.9612 7.91034e-05 28.9679C0.0365738 13.0008 12.7524 0.0131306 28.3148 0.0550941C43.9502 0.0970575 56.4991 13.1792 56.4366 29.3718C56.374 45.1186 43.6426 58.0014 28.1897 57.9542ZM53.5587 29.0046C53.5378 14.5272 42.2505 2.99778 28.1167 3.01352C14.1235 3.02925 2.86752 14.6794 2.88838 29.12C2.90402 43.4768 14.2904 55.1216 28.2835 55.0954C42.2662 55.0744 53.5796 43.3928 53.5587 29.0046Z" fill="#EB5C21"/>
<path d="M192.932 15.7598C193.735 15.7598 194.413 15.7388 195.085 15.7598C197.317 15.8333 198.928 17.3859 198.985 19.4998C199.047 21.7134 197.551 23.35 195.262 23.5178C194.548 23.5703 193.829 23.5283 193.015 23.5283C192.984 23.9322 192.937 24.2469 192.937 24.5617C192.937 28.3908 192.922 32.2252 192.948 36.0544C192.948 36.7835 193.041 37.5284 193.182 38.2417C193.62 40.3924 194.897 41.625 197.025 42.0342C197.343 42.0971 197.661 42.1548 197.979 42.223C200.153 42.6846 201.399 44.4576 201.164 46.7393C200.956 48.7326 199.313 50.1698 197.217 50.2013C190.137 50.301 185.101 45.6378 184.595 38.3362C184.371 35.1102 184.418 31.8633 184.403 28.6216C184.377 22.988 184.387 17.3492 184.403 11.7156C184.408 8.90404 186.212 6.99995 188.772 7.04191C191.055 7.07863 192.859 8.87781 192.927 11.2435C192.968 12.707 192.937 14.1705 192.937 15.7546L192.932 15.7598Z" fill="white"/>
<path d="M168.157 33.0488C168.157 28.8524 168.152 24.6508 168.157 20.4545C168.163 17.7426 169.977 15.7546 172.422 15.7651C174.815 15.7703 176.676 17.7216 176.687 20.3653C176.713 28.7632 176.713 37.1559 176.687 45.5539C176.682 48.2815 174.836 50.1856 172.349 50.1593C169.92 50.1331 168.163 48.208 168.157 45.5329C168.147 41.3732 168.157 37.2136 168.157 33.0488Z" fill="white"/>
<path d="M205.976 68.02C203.985 68.0096 202.436 66.8975 201.826 65.1036C201.247 63.4145 201.665 61.4475 203.088 60.4299C203.896 59.8529 204.975 59.3808 205.94 59.3703C214.172 59.2864 222.404 59.3074 230.641 59.3336C233.123 59.3441 235.031 61.3269 235 63.7135C234.969 66.1264 233.066 68.0043 230.568 68.02C226.471 68.041 210.074 68.0358 205.976 68.02Z" fill="#EB5C21"/>
<path d="M122.377 32.9229C122.377 37.2661 122.435 41.6145 122.356 45.9525C122.299 49.0945 119.207 51.0668 116.449 49.7922C114.698 48.9844 113.905 47.5314 113.91 45.5591C113.926 38.6404 113.916 31.7164 113.916 24.7977C113.916 23.2503 113.895 21.7029 113.921 20.1607C113.968 17.6639 115.777 15.7808 118.123 15.7598C120.453 15.7388 122.341 17.601 122.367 20.1083C122.414 24.3781 122.382 28.6478 122.382 32.9176L122.377 32.9229Z" fill="white"/>
<path d="M122.377 5.25846C122.388 7.69234 120.547 9.63839 118.206 9.67511C115.834 9.71183 113.911 7.72906 113.921 5.2637C113.931 2.84031 115.803 0.909996 118.149 0.909996C120.495 0.909996 122.367 2.83507 122.377 5.2637V5.25846Z" fill="white"/>
<path d="M168.199 63.724C168.173 61.3531 170.107 59.3336 172.417 59.3231C174.685 59.3179 176.572 61.2587 176.598 63.6244C176.624 66.0373 174.726 68.0253 172.406 68.02C170.144 68.0148 168.225 66.053 168.199 63.7188V63.724Z" fill="#EB5C21"/>
<path d="M36.1405 29.0885C36.1405 32.0731 36.1613 35.0578 36.1405 38.0424C36.104 42.2178 33.1114 45.5801 28.9875 46.1099C25.3589 46.5767 21.699 44.0117 20.6563 40.214C20.4529 39.4796 20.3226 38.6981 20.3226 37.9322C20.2965 31.9997 20.2809 26.0671 20.3174 20.1345C20.3434 16.0536 23.0858 12.7437 26.9438 12.0251C30.5255 11.3589 34.2532 13.5148 35.567 17.1236C35.9215 18.0993 36.0987 19.1956 36.1248 20.2394C36.1978 23.1873 36.1509 26.1353 36.1509 29.0832L36.1405 29.0885ZM33.2522 29.0727C33.2522 26.0513 33.2626 23.03 33.2522 20.0086C33.2365 17.1551 31.0364 14.8838 28.268 14.8471C25.5048 14.8051 23.2005 17.1341 23.1953 20.0348C23.1796 26.0409 23.1796 32.0469 23.1953 38.0529C23.2057 40.9746 25.4371 43.1882 28.2941 43.1777C31.0677 43.1619 33.2365 40.9221 33.2522 38.0267C33.2678 35.042 33.2522 32.0574 33.2522 29.0727Z" fill="#EB5C21"/>
<path d="M28.2418 21.3147C29.3158 21.3252 30.2959 22.3428 30.3063 23.4496C30.3168 24.6141 29.3001 25.616 28.1532 25.574C27.0531 25.5373 26.1042 24.5249 26.1355 23.4129C26.1616 22.3166 27.1782 21.3042 28.2418 21.3147Z" fill="#EB5C21"/>
<path d="M33.5073 93.5391L36.8127 86.0224C37.0421 85.5031 37.4644 85.1883 38.0326 85.1883H38.1526C38.7208 85.1883 39.1275 85.5031 39.3569 86.0224L42.6623 93.5391C42.73 93.6912 42.7717 93.8276 42.7717 93.9639C42.7717 94.5252 42.339 94.9711 41.7812 94.9711C41.2911 94.9711 40.9679 94.6826 40.7802 94.2472L40.1441 92.747H35.9681L35.306 94.3154C35.1287 94.7245 34.7794 94.9711 34.3415 94.9711C33.7993 94.9711 33.377 94.5357 33.377 93.9902C33.377 93.8381 33.4291 93.6912 33.4969 93.5391H33.5073ZM39.3777 90.8954L38.0639 87.7429L36.7501 90.8954H39.3777Z" fill="white"/>
<path d="M44.5132 86.3109C44.5132 85.7234 44.972 85.2618 45.5559 85.2618C46.1398 85.2618 46.5986 85.7234 46.5986 86.3109V93.922C46.5986 94.5095 46.1398 94.9711 45.5559 94.9711C44.972 94.9711 44.5132 94.5095 44.5132 93.922V86.3109Z" fill="white"/>
<path d="M48.4287 90.6646C48.4287 90.1191 48.8771 89.6679 49.4193 89.6679H51.7758C52.318 89.6679 52.7664 90.1191 52.7664 90.6646C52.7664 91.2101 52.318 91.6612 51.7758 91.6612H49.4193C48.8771 91.6612 48.4287 91.2101 48.4287 90.6646Z" fill="white"/>
<path d="M61.5926 93.9377C61.5926 94.5095 61.1338 94.9763 60.5603 94.9763C59.9868 94.9763 59.528 94.5147 59.528 93.9377V93.8433C59.0275 94.5252 58.3341 95.0288 57.2653 95.0288C55.5709 95.0288 53.96 93.6912 53.96 91.2521V91.2258C53.96 88.7867 55.5449 87.4491 57.2653 87.4491C58.3654 87.4491 59.0432 87.9527 59.528 88.5402V85.8965C59.528 85.3247 59.9868 84.8579 60.5603 84.8579C61.1338 84.8579 61.5926 85.3195 61.5926 85.8965V93.943V93.9377ZM56.0193 91.2206V91.2468C56.0193 92.4585 56.8326 93.2663 57.7971 93.2663C58.7616 93.2663 59.5593 92.4638 59.5593 91.2468V91.2206C59.5593 90.0089 58.7616 89.2011 57.7971 89.2011C56.8326 89.2011 56.0193 89.9932 56.0193 91.2206Z" fill="white"/>
<path d="M63.4331 88.5349C63.4331 87.9632 63.8919 87.4963 64.4654 87.4963C65.0389 87.4963 65.4977 87.9579 65.4977 88.5349V88.8601C65.7948 88.152 66.2849 87.4963 66.8949 87.4963C67.5049 87.4963 67.8959 87.9212 67.8959 88.5034C67.8959 89.049 67.5414 89.3742 67.1243 89.4739C66.0816 89.7204 65.4977 90.5229 65.4977 91.9969V93.9325C65.4977 94.5042 65.0389 94.9711 64.4654 94.9711C63.8919 94.9711 63.4331 94.5095 63.4331 93.9325V88.5297V88.5349Z" fill="white"/>
<path d="M69.0742 85.8335C69.0742 85.2355 69.5747 84.8631 70.2264 84.8631C70.8781 84.8631 71.3786 85.2303 71.3786 85.8335V85.8598C71.3786 86.4577 70.8781 86.8406 70.2264 86.8406C69.5747 86.8406 69.0742 86.4577 69.0742 85.8598V85.8335ZM69.1941 88.5349C69.1941 87.9632 69.6529 87.4963 70.2264 87.4963C70.7999 87.4963 71.2587 87.9579 71.2587 88.5349V93.9377C71.2587 94.5095 70.7999 94.9763 70.2264 94.9763C69.6529 94.9763 69.1941 94.5147 69.1941 93.9377V88.5349Z" fill="white"/>
<path d="M76.3104 95.0393H76.2009C75.6431 95.0393 75.2677 94.6826 75.0331 94.137L72.8121 88.9703C72.76 88.8339 72.7026 88.6556 72.7026 88.4667C72.7026 87.9737 73.151 87.4963 73.7036 87.4963C74.2563 87.4963 74.5587 87.8111 74.7046 88.2307L76.2635 92.4742L77.8484 88.2045C77.984 87.8478 78.2707 87.4963 78.8129 87.4963C79.3551 87.4963 79.8035 87.9212 79.8035 88.4772C79.8035 88.6556 79.7357 88.8706 79.694 88.9703L77.473 94.137C77.2436 94.6668 76.863 95.0393 76.3052 95.0393H76.3104Z" fill="white"/>
<path d="M84.3653 95.055C82.1808 95.055 80.5698 93.5128 80.5698 91.2783V91.2521C80.5698 89.1644 82.0453 87.4491 84.1619 87.4491C86.5862 87.4491 87.6602 89.4529 87.6602 90.9688C87.6602 91.5668 87.2379 91.9654 86.6957 91.9654H82.6135C82.8169 92.9044 83.4685 93.3974 84.3913 93.3974C84.9596 93.3974 85.4341 93.2191 85.8563 92.9044C86.0075 92.7942 86.1431 92.7418 86.3568 92.7418C86.8156 92.7418 87.1545 93.0985 87.1545 93.5601C87.1545 93.8328 87.0346 94.0374 86.8834 94.1738C86.2474 94.7193 85.4184 95.0602 84.3601 95.0602L84.3653 95.055ZM85.6947 90.6646C85.5748 89.7361 85.0326 89.1119 84.1619 89.1119C83.2913 89.1119 82.7543 89.7256 82.5875 90.6646H85.6895H85.6947Z" fill="white"/>
<path d="M89.2298 88.5349C89.2298 87.9632 89.6886 87.4963 90.2621 87.4963C90.8356 87.4963 91.2944 87.9579 91.2944 88.5349V88.6188C91.7688 88.0051 92.3788 87.4439 93.4215 87.4439C94.9804 87.4439 95.8875 88.4825 95.8875 90.1558V93.9325C95.8875 94.5042 95.4287 94.9711 94.8552 94.9711C94.2817 94.9711 93.8229 94.5095 93.8229 93.9325V90.8114C93.8229 89.8305 93.3642 89.327 92.5769 89.327C91.7897 89.327 91.2892 89.8305 91.2892 90.8114V93.9325C91.2892 94.5042 90.8304 94.9711 90.2569 94.9711C89.6834 94.9711 89.2246 94.5095 89.2246 93.9325V88.5297L89.2298 88.5349Z" fill="white"/>
<path d="M104.86 95.0393H104.75C104.192 95.0393 103.817 94.6826 103.582 94.137L101.361 88.9703C101.309 88.8339 101.252 88.6556 101.252 88.4667C101.252 87.9737 101.7 87.4963 102.253 87.4963C102.806 87.4963 103.108 87.8111 103.254 88.2307L104.813 92.4742L106.398 88.2045C106.533 87.8478 106.82 87.4963 107.362 87.4963C107.904 87.4963 108.353 87.9212 108.353 88.4772C108.353 88.6556 108.285 88.8706 108.243 88.9703L106.022 94.137C105.793 94.6668 105.412 95.0393 104.854 95.0393H104.86Z" fill="white"/>
<path d="M109.14 92.789V92.7627C109.14 91.1681 110.344 90.4285 112.07 90.4285C112.8 90.4285 113.332 90.5492 113.848 90.7275V90.6069C113.848 89.7466 113.321 89.2693 112.289 89.2693C111.721 89.2693 111.257 89.3532 110.866 89.4739C110.746 89.5158 110.662 89.5263 110.569 89.5263C110.094 89.5263 109.714 89.1591 109.714 88.6818C109.714 88.3146 109.943 87.9999 110.271 87.8792C110.923 87.6327 111.627 87.4963 112.592 87.4963C113.718 87.4963 114.531 87.7953 115.047 88.3146C115.589 88.8601 115.834 89.6627 115.834 90.6488V93.9744C115.834 94.5357 115.386 94.9711 114.833 94.9711C114.239 94.9711 113.843 94.5462 113.843 94.1108V94.0951C113.342 94.6563 112.649 95.0235 111.648 95.0235C110.277 95.0235 109.156 94.2315 109.156 92.789H109.14ZM113.874 92.3116V91.9444C113.52 91.7818 113.061 91.6717 112.56 91.6717C111.679 91.6717 111.137 92.0284 111.137 92.6788V92.705C111.137 93.2663 111.596 93.5915 112.263 93.5915C113.228 93.5915 113.874 93.0617 113.874 92.3116Z" fill="white"/>
<path d="M117.695 85.8912C117.695 85.3195 118.154 84.8526 118.728 84.8526C119.301 84.8526 119.76 85.3142 119.76 85.8912V93.9377C119.76 94.5095 119.301 94.9763 118.728 94.9763C118.154 94.9763 117.695 94.5147 117.695 93.9377V85.8912Z" fill="white"/>
<path d="M128.294 93.9377C128.294 94.5095 127.836 94.9763 127.262 94.9763C126.689 94.9763 126.23 94.5147 126.23 93.9377V93.8538C125.755 94.4675 125.145 95.0288 124.103 95.0288C122.544 95.0288 121.637 93.9902 121.637 92.3169V88.5402C121.637 87.9684 122.096 87.5016 122.669 87.5016C123.242 87.5016 123.701 87.9632 123.701 88.5402V91.6612C123.701 92.6421 124.16 93.1457 124.947 93.1457C125.735 93.1457 126.235 92.6421 126.235 91.6612V88.5402C126.235 87.9684 126.694 87.5016 127.267 87.5016C127.841 87.5016 128.3 87.9632 128.3 88.5402V93.943L128.294 93.9377Z" fill="white"/>
<path d="M133.581 95.055C131.397 95.055 129.786 93.5128 129.786 91.2783V91.2521C129.786 89.1644 131.261 87.4491 133.378 87.4491C135.802 87.4491 136.876 89.4529 136.876 90.9688C136.876 91.5668 136.454 91.9654 135.912 91.9654H131.829C132.033 92.9044 132.684 93.3974 133.607 93.3974C134.175 93.3974 134.65 93.2191 135.072 92.9044C135.223 92.7942 135.359 92.7418 135.573 92.7418C136.031 92.7418 136.37 93.0985 136.37 93.5601C136.37 93.8328 136.25 94.0374 136.099 94.1738C135.463 94.7193 134.634 95.0602 133.576 95.0602L133.581 95.055ZM134.911 90.6646C134.791 89.7361 134.248 89.1119 133.378 89.1119C132.507 89.1119 131.97 89.7256 131.803 90.6646H134.905H134.911Z" fill="white"/>
<path d="M142.163 91.2783V91.2521C142.163 89.1644 143.748 87.4491 145.974 87.4491C147.074 87.4491 147.845 87.7481 148.455 88.2674C148.591 88.3776 148.779 88.6241 148.779 88.9755C148.779 89.4948 148.356 89.904 147.845 89.904C147.574 89.904 147.371 89.7938 147.251 89.6994C146.886 89.4109 146.505 89.2378 145.963 89.2378C144.931 89.2378 144.201 90.1505 144.201 91.2311V91.2573C144.201 92.3746 144.921 93.2768 146.047 93.2768C146.589 93.2768 147.011 93.088 147.402 92.7732C147.512 92.6893 147.715 92.5844 147.96 92.5844C148.45 92.5844 148.825 92.9778 148.825 93.4709C148.825 93.7436 148.706 93.964 148.528 94.1266C147.918 94.6878 147.147 95.0655 145.953 95.0655C143.768 95.0655 142.173 93.3765 142.173 91.2888L142.163 91.2783Z" fill="#EB5C21"/>
<path d="M150.254 88.5349C150.254 87.9632 150.713 87.4963 151.286 87.4963C151.86 87.4963 152.318 87.9579 152.318 88.5349V88.8601C152.616 88.152 153.106 87.4963 153.716 87.4963C154.326 87.4963 154.717 87.9212 154.717 88.5034C154.717 89.049 154.362 89.3742 153.945 89.4739C152.902 89.7204 152.318 90.5229 152.318 91.9969V93.9325C152.318 94.5042 151.86 94.9711 151.286 94.9711C150.713 94.9711 150.254 94.5095 150.254 93.9325V88.5297V88.5349Z" fill="#EB5C21"/>
<path d="M159.159 95.055C156.974 95.055 155.363 93.5128 155.363 91.2783V91.2521C155.363 89.1644 156.839 87.4491 158.955 87.4491C161.38 87.4491 162.454 89.4529 162.454 90.9688C162.454 91.5668 162.031 91.9654 161.489 91.9654H157.407C157.61 92.9044 158.262 93.3974 159.185 93.3974C159.753 93.3974 160.228 93.2191 160.65 92.9044C160.801 92.7942 160.937 92.7418 161.15 92.7418C161.609 92.7418 161.948 93.0985 161.948 93.5601C161.948 93.8328 161.828 94.0374 161.677 94.1738C161.041 94.7193 160.212 95.0602 159.154 95.0602L159.159 95.055ZM160.488 90.6646C160.368 89.7361 159.826 89.1119 158.955 89.1119C158.085 89.1119 157.548 89.7256 157.381 90.6646H160.483H160.488Z" fill="#EB5C21"/>
<path d="M163.596 92.789V92.7627C163.596 91.1681 164.8 90.4285 166.526 90.4285C167.256 90.4285 167.787 90.5492 168.304 90.7275V90.6069C168.304 89.7466 167.777 89.2693 166.745 89.2693C166.176 89.2693 165.712 89.3532 165.321 89.4739C165.201 89.5158 165.118 89.5263 165.024 89.5263C164.55 89.5263 164.169 89.1591 164.169 88.6818C164.169 88.3146 164.399 87.9999 164.727 87.8792C165.379 87.6327 166.083 87.4963 167.047 87.4963C168.173 87.4963 168.986 87.7953 169.503 88.3146C170.045 88.8601 170.29 89.6627 170.29 90.6488V93.9744C170.29 94.5357 169.842 94.9711 169.289 94.9711C168.695 94.9711 168.298 94.5462 168.298 94.1108V94.0951C167.798 94.6563 167.104 95.0235 166.103 95.0235C164.732 95.0235 163.611 94.2315 163.611 92.789H163.596ZM168.324 92.3116V91.9444C167.97 91.7818 167.511 91.6717 167.011 91.6717C166.129 91.6717 165.587 92.0284 165.587 92.6788V92.705C165.587 93.2663 166.046 93.5915 166.713 93.5915C167.678 93.5915 168.324 93.0617 168.324 92.3116Z" fill="#EB5C21"/>
<path d="M172.323 92.8204V89.3584H172.255C171.765 89.3584 171.374 88.965 171.374 88.472C171.374 87.9789 171.765 87.5855 172.255 87.5855H172.323V86.6728C172.323 86.101 172.782 85.6342 173.355 85.6342C173.929 85.6342 174.387 86.0958 174.387 86.6728V87.5855H175.295C175.785 87.5855 176.176 87.9789 176.176 88.472C176.176 88.965 175.785 89.3584 175.295 89.3584H174.387V92.4795C174.387 92.9568 174.591 93.1876 175.05 93.1876C175.117 93.1876 175.253 93.1719 175.295 93.1719C175.753 93.1719 176.15 93.5548 176.15 94.0321C176.15 94.3993 175.905 94.6983 175.623 94.8084C175.242 94.9606 174.893 95.013 174.445 95.013C173.183 95.013 172.328 94.5095 172.328 92.8152L172.323 92.8204Z" fill="#EB5C21"/>
<path d="M177.583 85.8335C177.583 85.2355 178.084 84.8631 178.736 84.8631C179.387 84.8631 179.888 85.2303 179.888 85.8335V85.8598C179.888 86.4577 179.387 86.8406 178.736 86.8406C178.084 86.8406 177.583 86.4577 177.583 85.8598V85.8335ZM177.703 88.5349C177.703 87.9632 178.162 87.4963 178.736 87.4963C179.309 87.4963 179.768 87.9579 179.768 88.5349V93.9377C179.768 94.5095 179.309 94.9763 178.736 94.9763C178.162 94.9763 177.703 94.5147 177.703 93.9377V88.5349Z" fill="#EB5C21"/>
<path d="M181.353 91.2783V91.2521C181.353 89.1539 183.031 87.4491 185.299 87.4491C187.567 87.4491 189.215 89.1277 189.215 91.2258V91.2521C189.215 93.3502 187.536 95.055 185.268 95.055C183 95.055 181.353 93.3765 181.353 91.2783ZM187.181 91.2783V91.2521C187.181 90.1768 186.41 89.2326 185.268 89.2326C184.126 89.2326 183.386 90.1453 183.386 91.2258V91.2521C183.386 92.3274 184.157 93.2716 185.299 93.2716C186.441 93.2716 187.181 92.3589 187.181 91.2783Z" fill="#EB5C21"/>
<path d="M190.701 88.5349C190.701 87.9632 191.159 87.4963 191.733 87.4963C192.306 87.4963 192.765 87.9579 192.765 88.5349V88.6188C193.24 88.0051 193.85 87.4439 194.892 87.4439C196.451 87.4439 197.358 88.4825 197.358 90.1558V93.9325C197.358 94.5042 196.899 94.9711 196.326 94.9711C195.752 94.9711 195.294 94.5095 195.294 93.9325V90.8114C195.294 89.8305 194.835 89.327 194.048 89.327C193.26 89.327 192.76 89.8305 192.76 90.8114V93.9325C192.76 94.5042 192.301 94.9711 191.728 94.9711C191.154 94.9711 190.695 94.5095 190.695 93.9325V88.5297L190.701 88.5349Z" fill="#EB5C21"/>
<path d="M200.163 92.6264C200.841 92.6264 201.341 93.1299 201.341 93.7856V93.8118C201.341 94.4675 200.841 94.9711 200.163 94.9711C199.485 94.9711 198.985 94.4675 198.985 93.8118V93.7856C198.985 93.1299 199.485 92.6264 200.163 92.6264Z" fill="#EB5C21"/>
</g>
<defs>
<clipPath id="clip0_803_25223">
<rect width="235" height="95" fill="white" transform="translate(0 0.0549927)"/>
</clipPath>
</defs>
</svg>
